#N struct 1021-slot float x float y float slotsize float color float
width float bordercolor;
#N canvas 466 110 628 459 12;
#X declare -path else;
#X obj 105 27 tgl 30 0 empty metro empty 17 7 0 10 -228856 -1 -1 1
1;
#X text 238 35 TEMPO;
#X obj 156 33 nbx 5 18 100 1000 0 0 empty empty empty 0 -8 0 15 -228856
-1 -1 100 256;
#X obj 43 69 moses 1;
#X text 35 33 Play/Stop;
#X obj 110 375 out~;
#X obj 105 127 count 15;
#X obj 105 70 tempo 60 -div 4;
#X msg 43 91 set 0;
#X obj 439 46 declare -path else;
#X obj 57 322 play.file~ 1 dholak.aif, f 12;
#X obj 153 323 play.file~ 1 bagal.aif, f 12;
#X obj 105 180 drum.seq 2 16 20 0 0 0 0 0 0 0 0 0 0 0 0;
#X obj 105 241 route 0 1;
#X obj 200 117 initmess import 1 0 1 0 1 1 1 0 1 0 0 1 0 1 0 1 1 0
0 1 0 1 0 0 1 0 1 0 1 0 0 0, f 40;
#X obj 105 275 sel 1;
#X obj 153 275 sel 1;
#X text 431 179 <= track 0;
#X text 431 202 <= track 1;
#X text 267 268 The [drum.seq] object from ELSE provides a grid that
you can use in the same way as the previous example \, which is to
have multiple trackes treated as separate arrays., f 45;
#X text 267 335 The patch takes a float input to access the values
of each slot and requires you to route the value of each track. We
then use select to trigger the sample. Check its help file for more
info., f 45;
#X text 38 228 route tracks =>, f 9;
#X connect 0 0 3 0;
#X connect 0 0 7 0;
#X connect 2 0 7 1;
#X connect 3 0 8 0;
#X connect 6 0 12 0;
#X connect 7 0 6 0;
#X connect 8 0 6 0;
#X connect 10 0 5 0;
#X connect 11 0 5 1;
#X connect 12 0 13 0;
#X connect 13 0 15 0;
#X connect 13 1 16 0;
#X connect 14 0 12 0;
#X connect 15 0 10 0;
#X connect 16 0 11 0;
