#N canvas 440 111 819 662 12;
#X obj 246 430 hsl 128 15 10 500 0 0 empty depth empty -2 -8 0 10 -228856
-1 -1 389 1;
#X obj 243 458 nbx 5 14 -1e+37 1e+37 0 0 empty empty empty 0 -8 0 10
-228856 -1 -1 25 256;
#X text 286 429 depth;
#X obj 324 463 hsl 128 15 -0.999 0.999 0 0 empty empty empty -2 -8
0 10 -228856 -1 -1 0 1;
#X text 360 462 Feedback;
#X obj 97 210 s~ \$0-in;
#X obj 589 421 *~;
#X obj 610 282 hsl 128 15 10 500 0 0 empty depth empty -2 -8 0 10 -228856
-1 -1 389 1;
#X obj 607 310 nbx 5 14 -1e+37 1e+37 0 0 empty empty empty 0 -8 0 10
-228856 -1 -1 25 256;
#X obj 657 386 hsl 128 15 -0.999 0.999 0 0 empty empty empty -2 -8
0 10 -228856 -1 -1 0 1;
#X text 691 385 Feedback;
#X obj 654 407 nbx 5 14 -1e+37 1e+37 0 0 empty empty empty 0 -8 0 10
-228856 -1 -1 0 256;
#X text 647 281 Depth;
#X obj 524 379 r~ \$0-in;
#X floatatom 321 482 0 0 0 0 - - -;
#X obj 96 579 out~;
#X obj 505 503 out~;
#X obj 589 240 rescale~;
#X obj 589 210 rampnoise~ 1;
#X obj 161 258 initmess 0 0.33 1 0.34 1 0.33 0 \; LFO 2.25 \; depth
25;
#X obj 524 464 fbdelay~ 2000 -gain;
#X obj 96 537 fbdelay~ 2000 -gain;
#X obj 161 500 *~;
#X obj 161 431 function~;
#X obj 86 503 r~ \$0-in;
#X obj 321 507 f2s~ 10;
#X floatatom 87 368 5 0 0 0 - - -;
#X obj 87 392 phasor~;
#X obj 87 253 vsl 24 100 0 5 0 0 empty LFO empty 0 -9 0 10 -228856
-1 -1 4455 1;
#X text 48 367 rate;
#X text 30 36 We expand the last example to include feedback. As the
vibrato feedback example \, watch out for psychedelia because of pitch
shiffting accumulation. Besides [function~] \, we can also use [rampnoise~]
for random pitch shiffting., f 62;
#X text 30 99 Note that depending the parameters you may reach a flanger
like effect \, and it should be clear why since the implementation
is very similar and dependant on a feedback delay.;
#X obj 654 432 f2s~ 10;
#X obj 607 335 f2s~ 100;
#X obj 243 484 f2s~ 100;
#X floatatom 589 165 5 0 0 0 - - -;
#X obj 589 50 vsl 24 100 0 5 0 0 empty LFO empty 0 -9 0 10 -228856
-1 -1 4455 1;
#X text 550 164 rate;
#X obj 97 181 player~ ../../../../samples/violin.wav 1 1;
#X obj 164 313 function;
#X connect 0 0 1 0;
#X connect 1 0 34 0;
#X connect 3 0 14 0;
#X connect 6 0 20 1;
#X connect 7 0 8 0;
#X connect 8 0 33 0;
#X connect 9 0 11 0;
#X connect 11 0 32 0;
#X connect 13 0 20 0;
#X connect 14 0 25 0;
#X connect 17 0 6 0;
#X connect 18 0 17 0;
#X connect 19 0 39 0;
#X connect 20 0 16 0;
#X connect 20 0 16 1;
#X connect 21 0 15 0;
#X connect 21 0 15 1;
#X connect 22 0 21 1;
#X connect 23 0 22 0;
#X connect 24 0 21 0;
#X connect 25 0 21 2;
#X connect 26 0 27 0;
#X connect 27 0 23 0;
#X connect 28 0 26 0;
#X connect 32 0 20 2;
#X connect 33 0 6 1;
#X connect 34 0 22 1;
#X connect 35 0 18 0;
#X connect 36 0 35 0;
#X connect 38 0 5 0;
#X connect 39 0 23 0;
