#N canvas 253 23 991 605 12;
#X obj 121 335 fexpr~ ($x1[0] + $x1[-1] + $x1[-2] + $x1[-3] + $x1[-4]
+ $x1[-5] + $x1[-6] + $x1[-7]) * 0.125, f 46;
#X obj 75 119 cnv 15 365 40 empty empty empty 5 12 0 14 -233017 -66577
0;
#X text 100 122 y[n] = x[n] + x[n-1] + x[n-2] + x[n-3] + x[n-4] + x[n-5]
+ x[n-6] + x[n-7]) * 0.125, f 43;
#X text 59 300 x[n] ==>;
#X text 58 391 y[n] ==>;
#X obj 609 443 fexpr~ $x1[0] + $x2[0] * $y1[-1];
#X obj 682 249 cnv 15 195 25 empty empty empty 5 12 0 14 -233017 -66577
0;
#X text 683 252 y[n] = x[n] + a[n] * y[n-1];
#X obj 609 409 noise~;
#X obj 601 95 cnv 15 210 110 empty empty empty 20 12 0 14 -233017 -66577
0;
#X text 719 117 |;
#X text 719 129 |;
#X text 719 139 |;
#X text 690 155 |;
#X text 739 155 |;
#X text 739 175 |;
#X text 689 175 |;
#X text 692 145 _______;
#X text 692 175 _______;
#X text 719 142 v;
#X text 661 163 -(*)-;
#X text 659 143 |;
#X text 659 157 |;
#X text 659 119 |;
#X text 659 131 |;
#X text 659 116 ^;
#X text 758 105 >;
#X text 690 165 | z^-1 |;
#X text 672 172 a;
#X text 607 105 x(n) ---(+)----------- y(n);
#X obj 830 417 sig~ 0.99;
#X text 801 415 a =;
#X obj 121 245 sig~ 300;
#X obj 121 270 bl.saw~;
#X obj 121 428 out~;
#X obj 609 489 out~;
#X text 45 41 As [expr~] \, the native [fexpr~] object belongs to the
[expr] family of objects and may be used to implement filter equations
(a.k.a. difference equations). Let's implement an average filter of
8 samples. First \, its diagram is:;
#X text 54 178 Where "n" is a sample index and y[n] is the output.
See how similar to this [fexpr~] is when implementing the same formula.
;
#X text 70 343 filter:;
#X text 62 506 The $x1 variable represents the input on the left inlet
\, and the indexes represent a sample delay. for instance \, $x1[-3]
represents a delay of three samples.;
#X text 524 51 Now let's see a diagram with feedback:;
#X text 528 220 The equation then looks like this:;
#X text 528 296 So we have a one sample feedback \, multiplied by a
feedback index "a". Esse diagrama equivale à estrutura de delay em
feedback que já foi apresentada anteriormente. The $y1[-1] syntax in
expr represents a one sample feedback \, here's how the equation looks
inside [fexpr~] then.;
#X text 752 492 check [fexpr~]'s help file for more info, f 21;
#X connect 0 0 34 0;
#X connect 0 0 34 1;
#X connect 5 0 35 0;
#X connect 5 0 35 1;
#X connect 8 0 5 0;
#X connect 30 0 5 1;
#X connect 32 0 33 0;
#X connect 33 0 0 0;
