#N canvas 290 86 871 366 12;
#X obj 221 225 nbx 5 14 0 10 0 0 \$0-reson \$0-reson-set empty 0 -8
0 10 -228856 -1 -1 0 256;
#X obj 158 192 nbx 5 14 20 20000 0 0 \$0-freq \$0-freq-set empty 0
-8 0 10 -228856 -1 -1 20 256;
#X obj 161 167 hsl 200 15 200 10000 1 0 empty \$0-freq-slider-set empty
-2 -8 0 10 -228856 -1 -1 0 1;
#X obj 224 203 hsl 150 15 0 10 0 0 empty \$0-reson-slider-set empty
-2 -8 0 10 -228856 -1 -1 0 1;
#X obj 487 120 noise~;
#X obj 75 207 bl.saw~;
#X obj 104 291 out~;
#X obj 505 212 out~;
#X obj 635 158 nbx 5 14 10 100 0 0 \$0-reson \$0-reson-set empty 0
-8 0 10 -228856 -1 -1 10 256;
#X obj 559 135 nbx 5 14 20 20000 0 0 \$0-freq \$0-freq-set empty 0
-8 0 10 -228856 -1 -1 20 256;
#X obj 562 110 hsl 200 15 200 10000 1 0 empty \$0-freq-slider-set empty
-2 -8 0 10 -228856 -1 -1 0 1;
#X obj 638 136 hsl 150 15 10 100 0 0 empty \$0-reson-slider-set empty
-2 -8 0 10 -228856 -1 -1 0 1;
#X obj 158 228 f2s~ 10;
#X obj 104 255 lowpass~ 500 4.5;
#X obj 75 182 sig~ 50;
#X text 196 166 Resonant Frequency;
#X text 254 202 Q/Resonance;
#X obj 505 159 bandpass~ 500 50;
#X text 589 109 Resonant Frequency;
#X text 665 135 Q/Resonance;
#X text 399 291 Anyway \, before checking some subtractive synthesys
examples \, let's have a deeper look into these and other basic filters.
;
#X text 39 108 Most commonly \, subtractive synthesis uses Lowpass
Resonant filters \, such as [lowpass~] \, from ELSE., f 49;
#X text 39 15 To filter a sound is to either attenuate or boost some
of its frequency content and Subtractive Synthesis is a technique that
can be generalized as simply applying filtering into a sound source
\, preferably a rich and complex sound like a sawtooth oscillator.
, f 49;
#X text 446 22 Noise sources are also usable for filtering in subtractive
synthesis. Here's [noise~] through [bandpass~]. For a vey high Q/Resonance
\, note how we can perceive a clear pitch., f 47;
#X connect 0 0 13 2;
#X connect 1 0 12 0;
#X connect 2 0 1 0;
#X connect 3 0 0 0;
#X connect 4 0 17 0;
#X connect 5 0 13 0;
#X connect 8 0 17 2;
#X connect 9 0 17 1;
#X connect 10 0 9 0;
#X connect 11 0 8 0;
#X connect 12 0 13 1;
#X connect 13 0 6 0;
#X connect 13 0 6 1;
#X connect 14 0 5 0;
#X connect 17 0 7 0;
#X connect 17 0 7 1;
