#N canvas 490 59 836 612 12;
#X declare -path else;
#X obj 577 325 mtof;
#X obj 633 394 *~;
#X obj 577 294 trigger f b;
#X msg 95 350 tempo \$1;
#X obj 141 435 bng 15 250 50 0 empty empty empty 17 7 0 10 -228856
-1 -1;
#X obj 208 445 spigot;
#X obj 297 450 tgl 15 0 empty loop empty 17 7 0 10 -228856 -1 -1 1
1;
#X text 315 449 loop;
#X obj 577 240 r note;
#X obj 651 330 bng 18 250 50 0 empty empty empty 17 7 0 10 -228856
-1 -1;
#X obj 176 418 qlist;
#X obj 651 362 decay2~ 50 500;
#X obj 633 426 out~;
#X text 34 56 The native [qlist] object can store sequences in a text.
The text format starts with a number representing a time in ms. Then
we need a "send" symbol \, and in the patch a [receive] object with
this symbol to get the messages. Finally \, we have the message to
be sent to this destination.;
#X text 35 245 Check the help file of [qlist] for more information.
;
#X obj 577 355 bl.tri~;
#X obj 622 19 declare -path else;
#X obj 297 418 loadbang;
#X msg 213 382 rewind;
#X text 265 382 <= rewind and stop;
#X obj 197 352 bng 18 250 50 0 empty empty empty 17 7 0 10 -228856
-1 -1;
#X text 220 351 <= start;
#X msg 62 289 0.5;
#X msg 95 289 1;
#X msg 127 289 2;
#X text 155 288 change the tempo;
#X floatatom 95 324 5 0.1 5 0 - - -;
#X text 496 125 The native [textfile] object (not used here) is also
replaced by [text] \, and we'll see how it works in the next example.
, f 41;
#X obj 577 269 nbx 3 16 -1e+37 1e+37 0 0 empty empty empty 0 -8 0 12
-228856 -1 -1 0 256;
#X text 496 190 Below \, the [r note] gets messages from [qlist].,
f 41;
#X text 34 137 Open "seq.txt" (in the "files" subfolder of this patch's
folder) to check how it works. Note that there's also a time value
at the end of the file with no message attached. This acts like a pause
\, and [qlist] waits for it before sending a bang to tell us the sequence
is done. We use this bang to loop the sequence. You can also click
on the [qlist] object to see and edit its contents.;
#X text 496 60 The [qlist] object is kinda deprecated. The relatively
new native object [text] is more powerful and versatile for sequencing
as well as for other purposes., f 41;
#X text 218 419 <= click;
#X text 200 527 The [qlist] object is also used in the audio examples
of Pd Vanilla. See from D11.samplepoly.pd to D13.additive.qlist.pd
, f 61;
#X obj 176 322 initmess read seq.txt;
#X connect 0 0 15 0;
#X connect 1 0 12 0;
#X connect 2 0 0 0;
#X connect 2 1 9 0;
#X connect 3 0 10 0;
#X connect 4 0 10 0;
#X connect 5 0 4 0;
#X connect 6 0 5 1;
#X connect 8 0 28 0;
#X connect 9 0 11 0;
#X connect 10 1 5 0;
#X connect 11 0 1 1;
#X connect 15 0 1 0;
#X connect 17 0 6 0;
#X connect 18 0 10 0;
#X connect 20 0 10 0;
#X connect 22 0 26 0;
#X connect 23 0 26 0;
#X connect 24 0 26 0;
#X connect 26 0 3 0;
#X connect 28 0 2 0;
#X connect 34 0 10 0;
