#N canvas 565 71 488 430 12;
#N canvas 154 433 949 357 biplot 0;
#X obj 21 44 biplot;
#X text 118 18 [biplot] from ELSE;
#X obj 21 16 inlet;
#X connect 2 0 0 0;
#X restore 191 296 pd biplot;
#X text 264 295 <= click;
#X obj 98 231 noise~;
#X obj 86 181 bicoeff eq 500 10 24;
#X obj 247 181 bicoeff eq 900 10 24;
#X obj 86 150 nbx 5 14 -1e+37 1e+37 0 0 empty hz1 empty 0 -8 0 10 -228856
-1 -1 195 256;
#X obj 247 150 nbx 5 14 -1e+37 1e+37 0 0 empty hz2 empty 0 -8 0 10
-228856 -1 -1 939 256;
#X obj 98 280 biquads~;
#X obj 55 337 out~;
#X obj 180 233 merge 2 -1;
#X obj 305 215 initmess \; hz1 500 \; hz2 900;
#X text 68 36 The [biquads~] object from ELSE has been introduced before.
It serves as a series of biquad filters in cascade and the [biplot]
object can also plot the resulting frequency and phase response. Check
their help files for more details., f 51;
#X connect 2 0 7 0;
#X connect 3 0 9 0;
#X connect 4 0 9 1;
#X connect 5 0 3 0;
#X connect 6 0 4 0;
#X connect 7 0 8 0;
#X connect 7 0 8 1;
#X connect 9 0 7 0;
#X connect 9 0 0 0;
