#N canvas 568 38 445 644 12;
#X declare -path else;
#X floatatom 115 309 7 0 0 0 - - - 0;
#X text 171 310 sample size;
#X obj 112 372 tgl 18 0 empty empty empty 17 7 0 10 #dcdcdc #000000 #000000 0 1;
#X msg 144 373 stop;
#X text 67 366 startstop:, f 5;
#X text 131 258 load sample into array:;
#X text 280 403 <= loop points;
#X obj 112 403 susloop~ 1 10000 50000;
#X obj 112 477 out~;
#X obj 243 22 declare -path else;
#X text 154 564 Please check the help file for more info., f 22;
#X obj 112 436 tabread~ \$0-sample;
#X obj 115 281 sample~ \$0-sample vacuous.flac;
#X text 35 65 The [tabread~] object can be used to read and play a buffer \, but this happens without interpolation. What this means in practice is that you can only play it at the original speed \, so just like [tabplay~] and without much advantage. In this example \, though \, we do feed it a signal that loops within a section. For that \, we use [susloop~]., f 52;
#X text 35 175 This object is useful for playing sound files stored in arrays and sustain a loop within a given range in the sample. The looping points are defined in sample numbers., f 52;
#X connect 2 0 7 0;
#X connect 3 0 7 0;
#X connect 7 0 11 0;
#X connect 11 0 8 0;
#X connect 12 0 0 0;
