#N canvas 414 67 888 544 12;
#X obj 550 360 *~;
#X obj 307 171 nbx 5 14 -1e+37 1e+37 0 0 empty moduladora empty 0 -8
0 10 -228856 -1 -1 0 256;
#X obj 431 178 nbx 8 14 -1e+37 1e+37 0 0 empty index_pm empty 0 -8
0 10 -261682 -1 -1 5 256;
#X obj 307 206 t b f;
#X obj 357 211 v mod;
#X obj 339 236 s \$0-mod;
#X obj 550 288 r \$0-mod;
#X obj 150 291 r \$0-mod;
#X obj 532 394 +~;
#X obj 197 180 nbx 5 14 -1e+37 1e+37 0 0 empty carrier empty 0 -8 0
10 -228856 -1 -1 440 256;
#X obj 197 209 s \$0-carrier;
#X obj 454 288 r \$0-carrier;
#X obj 53 292 r \$0-carrier;
#X obj 150 377 *~;
#X obj 528 179 nbx 8 14 -1e+37 1e+37 0 0 empty index_fm empty 0 -8
0 10 -261234 -1 -1 31.4159 256;
#X obj 270 317 r \$0-i_fm;
#X obj 191 316 r \$0-i_pm;
#X obj 688 319 expr $f1 * (mod * 2*pi);
#X obj 688 294 r \$0-i_pm;
#X obj 616 302 r \$0-i_fm;
#X obj 270 342 expr $f1 / (mod * 2*pi);
#X obj 150 343 sine~;
#X obj 118 453 ouT~;
#X obj 118 406 sine~;
#X obj 532 455 out~;
#X obj 431 204 s \$0-i_pm;
#X obj 528 201 s \$0-i_fm;
#X obj 270 370 nbx 5 14 -1e+37 1e+37 0 0 empty indice_pm empty 0 -8
0 10 -228856 -1 -1 0 256;
#X msg 270 400 \; index_pm set \$1;
#X msg 688 373 \; index_fm set \$1;
#X obj 688 347 nbx 8 14 -1e+37 1e+37 0 0 empty empty empty 0 -8 0 10
-228856 -1 -1 31.4159 256;
#X text 29 23 It's time to show the relationship between FM and PM
in practice \, not theory. For sine waves \, we need a phase difference
of 90 degrees \, so as the phase modulation signal is a sine wave and
the frequency modulation signal is a cosine wave. Another detail is
that we need to adjust the value of the modulation index \, which is
also done in this patch., f 55;
#X text 194 152 Carrier;
#X text 304 148 Mod;
#X text 434 157 PM index;
#X text 532 156 FM index;
#X obj 191 388 f2s~ 50;
#X obj 616 358 f2s~ 50;
#X text 75 259 PHASE MODULATION;
#X text 465 260 FREQUENCY MODULATION;
#X obj 532 421 cosine~;
#X text 442 100 This is a crucial diference where the modulating frequency
affects the index \, so to speak \, in phase modulation.;
#N canvas 994 421 242 172 init 0;
#X obj 135 56 pi;
#X obj 135 85 v pi;
#X obj 34 50 initmess \; carrier 440 \; mod 1 \; index_pm 1 \; pd dsp
1;
#X connect 0 0 1 0;
#X restore 792 482 pd init;
#X text 442 22 To convert the PM index to FM we need to multiply it
by 2pi (since phase values from 0 a 1 correspond to a range of 0 to
2pi in radians). Another adjustment is to multiply the index by the
modulating frequency \, this is because if the phase runs faster \,
the frequency deviation is also higher.;
#X obj 550 318 sine~;
#X obj 307 266 s index_pm;
#X connect 0 0 8 1;
#X connect 1 0 3 0;
#X connect 2 0 25 0;
#X connect 3 0 45 0;
#X connect 3 1 4 0;
#X connect 3 1 5 0;
#X connect 6 0 44 0;
#X connect 7 0 21 0;
#X connect 8 0 40 0;
#X connect 9 0 10 0;
#X connect 11 0 8 0;
#X connect 12 0 23 0;
#X connect 13 0 23 2;
#X connect 14 0 26 0;
#X connect 15 0 20 0;
#X connect 16 0 36 0;
#X connect 17 0 30 0;
#X connect 17 0 37 0;
#X connect 18 0 17 0;
#X connect 19 0 37 0;
#X connect 20 0 27 0;
#X connect 20 0 36 0;
#X connect 21 0 13 0;
#X connect 23 0 22 0;
#X connect 23 0 22 1;
#X connect 27 0 28 0;
#X connect 30 0 29 0;
#X connect 36 0 13 1;
#X connect 37 0 0 1;
#X connect 40 0 24 0;
#X connect 40 0 24 1;
#X connect 44 0 0 0;
