#N canvas 364 61 878 702 12;
#X declare -path else;
#X obj 101 286 nbx 5 19 -1e+37 1e+37 0 0 empty empty empty 0 -8 0 14 #dcdcdc #000000 #000000 0 256;
#X obj 104 260 hsl 128 15 0 1 0 0 empty empty empty -2 -8 0 10 #dcdcdc #000000 #000000 0 1;
#X text 136 259 Clipping;
#X msg 101 235 1;
#N canvas 1041 83 409 508 input 0;
#X obj 107 404 outlet~;
#X obj 107 200 + 1;
#X obj 107 121 vradio 20 1 0 3 empty empty empty 0 -8 0 10 #dcdcdc #000000 #000000 0;
#X text 132 164 [adc~];
#X obj 107 48 loadbang;
#X msg 107 75 0;
#X obj 78 310 osc~ 440;
#X obj 202 312 adc~ 1;
#X text 131 142 Sample;
#X obj 107 353 xselect~ 3 100;
#X text 130 123 Sine;
#X obj 154 255 sel 2;
#X obj 154 284 player~ guitar.mp3 1 1;
#X connect 1 0 9 0;
#X connect 1 0 11 0;
#X connect 2 0 1 0;
#X connect 4 0 5 0;
#X connect 5 0 2 0;
#X connect 6 0 9 0;
#X connect 7 0 9 2;
#X connect 9 0 0 0;
#X connect 11 0 12 0;
#X connect 12 0 9 1;
#X coords 0 -1 1 1 80 90 1 100 100;
#X restore 539 25 pd input;
#X text 89 334 1;
#X text 83 450 -1;
#X text 90 393 0;
#X text 200 473 0;
#X text 94 475 -1;
#X text 298 476 1;
#N canvas 124 311 764 359 shape 0;
#X msg 129 145 0;
#X msg 114 73 \; pd dsp 1;
#X obj 45 86 delay 500;
#X obj 167 241 clip~ -1 1;
#X obj 195 217 * -1;
#X obj 185 104 t b f;
#X obj 87 168 vsaw~ 100 1;
#X obj 45 49 loadbanger 2;
#X obj 185 20 inlet;
#X obj 301 118 cnv 15 198 138 empty empty empty 20 12 0 14 #dcdcdc #404040 0;
#N canvas 0 22 450 300 (subpatch) 0;
#X array \$0-shape 441 float 0;
#A color 0;
#A width 1;
#X coords 0 1.1 440 -1.1 200 140 1 0 0;
#X restore 300 117 graph;
#X obj 117 299 tabwrite~ \$0-shape;
#X connect 0 0 6 2;
#X connect 2 0 0 0;
#X connect 2 0 11 0;
#X connect 3 0 11 0;
#X connect 4 0 3 1;
#X connect 5 0 0 0;
#X connect 5 0 11 0;
#X connect 5 1 4 0;
#X connect 5 1 3 2;
#X connect 6 0 3 0;
#X connect 7 0 2 0;
#X connect 7 1 1 0;
#X connect 8 0 5 0;
#X coords 0 -1 1 1 200 157 2 300 100;
#X restore 101 315 pd shape;
#X text 73 397 p;
#X text 73 346 |;
#X text 73 336 |;
#X text 73 443 |;
#X text 73 433 |;
#X obj 539 351 out~;
#X obj 637 550 osc~ 100;
#X obj 637 607 out~;
#X obj 539 128 rescale~ 0 440;
#X text 145 507 (table indices);
#X text 96 492 ---- audio signal input -----;
#X text 73 361 O;
#X text 73 374 u;
#X text 73 386 t;
#X text 73 408 u;
#X text 73 418 t;
#X text 128 235 Reset;
#X text 472 159 transfer function, f 9;
#X obj 539 164 tabread4~ \$0-shape;
#X obj 637 578 shaper~ \$0-shape;
#X obj 718 31 declare -path else;
#X text 332 382 TRANSFER FUNCTION, f 8;
#X obj 539 198 graph~;
#X text 307 388 <--;
#X text 18 12 Waveshaping is a synthesis technique that creates or modifies harmonic content by passing a signal through a nonlinear transfer function. A transfer function maps input values to output values and can be implemented via mathematical functions oras a precomputed table. Below we create and use a table to perform clipping. This way \, the audio input represents the indices (horizontal axis) and the output are the values from the vertical axis., f 57;
#X text 18 142 Below we start with a linear function that does not alter the input. But by moving the slider and setting a maximum amplitude value we can generate a clipping function. You can also draw on the transfer function table and see the result. To reset \, just click the "1" message.;
#X text 687 70 Like Ring Modulation \, Waveshaping can be used outside the context of synthesis as an effects processor. It's widely used for distortion unit \, for example., f 23;
#X text 29 539 Above to the right we have an input signal going through the transfer function. First we use [rescale~] to adjust the audio range from (-1 to 1) to the table indices (0 to 440) \, then use it to read the table with [tabread4~]. This is not a perfect implementation as we know that in [tabread4~] we need the first and last two samples of the table to be guard points for interpolation \, but this is just a didactical starting point.;
#X text 511 440 The [shaper~] object \, from ELSE \, is optimized for waveshaping and automatically rescales audio input signals (between -1 and 1) to the indices of a given table without the need to worry about guard points. Here it uses the same transfer function., f 48;
#X connect 0 0 11 0;
#X connect 1 0 0 0;
#X connect 3 0 1 0;
#X connect 4 0 20 0;
#X connect 18 0 31 0;
#X connect 20 0 30 0;
#X connect 30 0 34 0;
#X connect 31 0 19 0;
#X connect 34 0 17 0;
