#N canvas 371 47 916 760 12;
#X declare -path else;
#X obj 78 294 out~;
#X floatatom 737 158 5 0.1 10 0 - - - 0;
#X obj 740 212 hsl 128 15 0 127 0 0 empty empty empty -2 -8 0 10 #dcdcdc #000000 #000000 0 1;
#X obj 737 234 rescale 500 1500;
#X obj 711 283 bp~ 0 10;
#X obj 674 210 noise~;
#X obj 711 312 out~;
#X obj 737 260 nbx 7 14 -1e+37 1e+37 0 0 empty empty empty 0 -8 0 10 #dcdcdc #000000 #000000 0 256;
#X obj 737 186 lfo 0.1, f 13;
#X text 31 358 An audio rate LFO sometimes is not necessary or even possible. This is why the ELSE library provides [lfo] \, a control rate LFO object with classical built in waveforms., f 59;
#X obj 43 207 noise~;
#X obj 101 204 rescale~ 500 1500;
#X obj 101 177 osc~ 0.1;
#X obj 78 261 vcf~ 10;
#X text 477 33 Below we have the [bp~] bandpass filter \, a native object that only accepts control messages for its central frequency. In this case you can't use a signal LFO \, unless you convert from signal to floats \, using something like [sig2float~]. The [rescale] object from ELSE is also useful for remapping control data., f 47;
#X text 246 148 The [rescale~] object from ELSE is convenient for rescaling audio signals into a new control range (here it maps the -1 to 1 input range to an output range from 500 to 1500)., f 26;
#X obj 832 46 setdsp~;
#X obj 301 26 declare -path else;
#X obj 318 468 phasor~ 1;
#X obj 319 498 phasor 1;
#X text 35 465 [phasor~] with a low frequency can also be thouhgt of as a "LFO'. And not that ELSE has a control [phasor] object., f 36;
#X text 34 538 [pimp~] from ELSE combines [phasor~] and [imp~] (a trigger). The impulse is given at period transitions. This is useful at low frequencies and we'll see applications for it in this tutorial. Check its help file.;
#X obj 118 697 numbox~ 6 12 100 #C0C0C4 #440008 10 0 0 0;
#X obj 533 345 numbox~ 6 12 100 #C0C0C4 #440008 10 0 0 0;
#X obj 101 232 numbox~ 6 12 100 #C0C0C4 #440008 10 0 0 0;
#X text 232 257 Note that [rescale~] also supports multichannel input \, check its help file., f 28;
#X text 23 426 --------------------------------------------------------------, f 62;
#X obj 521 466 lfo.m~;
#A saved 0.435687 0 0 0 0 0 1;
#A saved;
#A saved;
#A saved;
#A saved;
#A saved;
#A saved;
#A saved;
#A saved;
#X text 734 495 The [lfo.m~] object is a MERDA module that combines the most common wave forms and is similar to [vco.m~]., f 20;
#X msg 154 148 0;
#X text 25 65 "LFOs" (Low Frequency Oscillators) are just any oscillator running at a low frequency \, simple as that! We use them to control all sorts of parameters in a patch. Below we have a sine wave controlling the frequency of a filter.;
#X msg 781 158 0;
#X msg 181 617 0;
#X obj 148 651 pimp~ 0.25;
#X obj 559 280 float2imp~;
#X obj 559 247 bng 21 250 50 0 empty empty empty 0 -10 0 12 #dfdfdf #000000 #000000;
#X obj 215 686 trig2bang~;
#X obj 215 710 bng 21 250 50 0 empty empty empty 0 -10 0 12 #dfdfdf #000000 #000000;
#X text 713 157 hz;
#X obj 533 310 saw~ 0.1;
#X text 34 139 reset/sync phase to the begining, f 16;
#X text 219 618 reset/sync phase;
#X text 814 159 reset/sync;
#X text 474 151 ELSE has non bandlimited oscillators that can be used as LFO. you can also reset (or 'sync') them with impulses., f 24;
#X text 738 592 You can use it to modulate all sorts of parameters and sync them with impulses., f 19;
#X text 513 385 Both [rescale] and [rescale~] can also map with exponential curves and may take any input range as well. Check their help files for more details. They are quite useful to set output values of LFOs., f 51;
#X connect 1 0 8 0;
#X connect 2 0 3 0;
#X connect 3 0 7 0;
#X connect 4 0 6 0;
#X connect 5 0 4 0;
#X connect 7 0 4 1;
#X connect 8 0 2 0;
#X connect 10 0 13 0;
#X connect 11 0 24 0;
#X connect 12 0 11 0;
#X connect 13 0 0 0;
#X connect 24 0 13 1;
#X connect 29 0 12 1;
#X connect 31 0 8 1;
#X connect 32 0 33 1;
#X connect 33 0 22 0;
#X connect 33 1 36 0;
#X connect 34 0 39 1;
#X connect 35 0 34 0;
#X connect 36 0 37 0;
#X connect 39 0 23 0;
