#N canvas 302 57 854 710 12;
#X declare -path else;
#X obj 277 327 nbx 5 14 0 10 0 0 \$0-reson \$0-reson-set empty 0 -8 0 10 #dcdcdc #000000 #000000 0 256;
#X obj 182 277 nbx 8 14 20 20000 0 0 \$0-freq \$0-freq-set empty 0 -8 0 10 #dcdcdc #000000 #000000 0 256;
#X obj 185 252 hsl 200 15 200 10000 1 0 empty \$0-freq-slider-set empty -2 -8 0 10 #dcdcdc #000000 #000000 0 1;
#X obj 280 305 hsl 150 15 1 100 1 0 empty \$0-reson-slider-set empty -2 -8 0 10 #dcdcdc #000000 #000000 0 1;
#X obj 115 560 noise~;
#X obj 131 363 out~;
#X obj 133 634 out~;
#X obj 263 598 nbx 5 14 10 100 0 0 \$0-reson \$0-reson-set empty 0 -8 0 10 #dcdcdc #000000 #000000 0 256;
#X obj 187 575 nbx 5 14 20 20000 0 0 \$0-freq \$0-freq-set empty 0 -8 0 10 #dcdcdc #000000 #000000 0 256;
#X obj 190 550 hsl 200 15 200 10000 1 0 empty \$0-freq-slider-set empty -2 -8 0 10 #dcdcdc #000000 #000000 0 1;
#X obj 266 576 hsl 150 15 10 100 0 0 empty \$0-reson-slider-set empty -2 -8 0 10 #dcdcdc #000000 #000000 0 1;
#X text 220 251 Resonant Frequency;
#X text 310 304 Q/Resonance;
#X obj 133 599 bandpass~ 500 50;
#X text 217 549 Resonant Frequency;
#X text 293 575 Q/Resonance;
#X obj 182 303 f2s~ 10 500;
#X obj 664 22 declare -path else;
#X text 31 435 Noise sources are also suitable for filtering in subtractive synthesis. Here's [noise~] going through [bandpass~] \, a filter that only passes a band/range of frequency and whose resonance controls the width of this frequency band. For a vey high Q/Resonance \, note how we can perceive a clear pitch., f 63;
#X obj 90 274 bl.saw~ 50;
#X obj 131 329 lowpass~ 500 10;
#X text 39 126 We've seen basic filters in the previous part. In short \, to filter a sound is to either attenuate or boost some of its frequency content. Most commonly \, subtractive synthesis uses Lowpass Resonant filters \, such as [lowpass~] from ELSE \, which "passes" frequencies below the resonant frequency and a resonance parameter boosts the resonant frequency., f 62;
#X text 506 57 Even though we usually need some sort of filter modulation \, many syntyhesizers that are consider "subtractive" might simply have a non modulated filter in the process chain., f 44;
#N canvas 494 129 917 730 MERDA 0;
#X obj 594 61 tgl 25 0 empty empty empty 0 -10 0 12 #dfdfdf #000000 #000000 0 1;
#X obj 594 198 seq.m~;
#A saved 0 0 1;
#A saved sequence 36 36 48 60 51 63 60 60 44 44 56 60 43 43 55 60;
#A saved nsteps 16;
#A saved bpms 62;
#A saved muls 4;
#A saved trig 1 1 1 1 1 1 1 1 1 1 1 1 1 1 1 1;
#A saved;
#A saved;
#A saved;
#A saved;
#A saved;
#A saved;
#A saved;
#A saved;
#A saved;
#A saved;
#A saved;
#A saved;
#A saved;
#A saved;
#A saved;
#A saved;
#A saved;
#A saved;
#A saved;
#A saved;
#A saved;
#A saved;
#A saved;
#A saved;
#A saved;
#A saved;
#A saved;
#A saved;
#A saved;
#A saved;
#A saved;
#A saved;
#X msg 594 161 run \$1;
#X msg 539 148 reset;
#X obj 539 117 sel 0;
#X obj 211 270 seq.m~;
#A saved 0 0 1;
#A saved sequence 36 36 60 60 51 60 48 60 44 44 56 44 43 43 46 58;
#A saved nsteps 16;
#A saved bpms 62;
#A saved muls 4;
#A saved trig 1 0 1 1 0 1 1 1 1 0 1 1 1 1 1 1;
#A saved;
#A saved;
#A saved;
#A saved;
#A saved;
#A saved;
#A saved;
#A saved;
#A saved;
#A saved;
#A saved;
#A saved;
#A saved;
#A saved;
#A saved;
#A saved;
#A saved;
#A saved;
#A saved;
#A saved;
#A saved;
#A saved;
#A saved;
#A saved;
#A saved;
#A saved;
#A saved;
#A saved;
#A saved;
#A saved;
#A saved;
#A saved;
#X obj 70 384 vco.m~;
#A saved -0.05 0 0 3 0.9 0 0 0 0 0;
#A saved;
#A saved;
#A saved;
#A saved;
#A saved;
#A saved;
#A saved;
#A saved;
#A saved;
#A saved;
#X obj 354 386 adsr.m~;
#A saved 25 25 0.5 220 1 0 0 0 0 -1 0 -1 0;
#A saved;
#A saved;
#A saved;
#A saved;
#A saved;
#A saved;
#A saved;
#A saved;
#A saved;
#A saved;
#A saved;
#A saved;
#A saved;
#A saved;
#A saved;
#A saved;
#X obj 211 447 vcf.m~;
#A saved 2500 0.33 0 0 0 0 0 2 100 0;
#A saved;
#A saved;
#A saved;
#A saved;
#A saved;
#A saved;
#A saved;
#A saved;
#A saved;
#A saved;
#A saved;
#A saved;
#X obj 211 385 vco.m~;
#A saved 0.05 0 0 3 0.9 0 0 0 0 0;
#A saved;
#A saved;
#A saved;
#A saved;
#A saved;
#A saved;
#A saved;
#A saved;
#A saved;
#A saved;
#X obj 270 512 vca.m~;
#A saved 0.582957 1 0;
#A saved;
#A saved;
#X obj 434 270 vco.m~;
#A saved -0.1 0 0 2 0.5 0 0 0 0 0;
#A saved;
#A saved;
#A saved;
#A saved;
#A saved;
#A saved;
#A saved;
#A saved;
#A saved;
#A saved;
#X obj 737 270 adsr.m~;
#A saved 50 200 0 0 1 0 0 0 0 0 0 -1 0;
#A saved;
#A saved;
#A saved;
#A saved;
#A saved;
#A saved;
#A saved;
#A saved;
#A saved;
#A saved;
#A saved;
#A saved;
#A saved;
#A saved;
#A saved;
#A saved;
#X obj 594 333 vcf.m~;
#A saved 1500 0.240001 0 0 0 0 0 2 100 0;
#A saved;
#A saved;
#A saved;
#A saved;
#A saved;
#A saved;
#A saved;
#A saved;
#A saved;
#A saved;
#A saved;
#A saved;
#X obj 594 270 vco.m~;
#A saved 0.1 0 0 2 0.5 0 0 0 0 0;
#A saved;
#A saved;
#A saved;
#A saved;
#A saved;
#A saved;
#A saved;
#A saved;
#A saved;
#A saved;
#X obj 654 390 vca.m~;
#A saved 0.397164 1 0;
#A saved;
#A saved;
#X obj 654 450 drive.m~;
#A saved -0.261439 0 0;
#A saved;
#A saved;
#A saved;
#A saved;
#X obj 270 576 pan2~ -0.75;
#X obj 654 524 pan2~ 0.75;
#X obj 270 651 out~;
#X connect 0 0 2 0;
#X connect 0 0 4 0;
#X connect 1 0 11 0;
#X connect 1 0 14 0;
#X connect 1 2 12 0;
#X connect 2 0 5 0;
#X connect 2 0 1 0;
#X connect 3 0 5 0;
#X connect 3 0 1 0;
#X connect 4 0 3 0;
#X connect 5 0 9 0;
#X connect 5 0 6 0;
#X connect 5 1 7 0;
#X connect 6 0 8 0;
#X connect 7 0 10 1;
#X connect 8 0 10 0;
#X connect 9 0 8 0;
#X connect 10 0 17 0;
#X connect 11 0 13 0;
#X connect 12 0 15 1;
#X connect 13 0 15 0;
#X connect 14 0 13 0;
#X connect 15 0 16 0;
#X connect 16 0 18 0;
#X connect 17 0 19 0;
#X connect 17 1 19 1;
#X connect 18 0 19 0;
#X connect 18 1 19 1;
#X restore 664 603 pd MERDA;
#N canvas 621 55 738 838 example 0;
#X obj 171 679 pan2~ -0.75;
#X obj 368 684 pan2~ 0.75;
#X obj 260 745 out~;
#X obj 114 157 tgl 24 0 empty empty empty 0 -10 0 12 #dfdfdf #000000 #000000 0 1;
#X obj 368 319 note2midi;
#X obj 368 212 tempo -mul 4 62;
#X obj 368 483 bl.saw~ -midi, f 7;
#X obj 462 478 envgen~ -curve 1 0 50 1 200 0, f 16;
#X obj 368 271 sequencer C2 C2 C3 C4 D#3 D#4 C3 C4 | G#2 G#2 G#3 C4 G2 G2 G3 C4, f 37;
#X obj 114 279 sequencer C2 - C4 C4 - C4 C3 C4 | G#2 - G#3 G#2 G2 G2 A#2 A#3, f 33;
#X obj 84 468 bl.vsaw~ -midi 0.9, f 9;
#X obj 114 321 note2midi;
#X obj 114 212 sel 0;
#X msg 114 236 goto 1;
#X text 148 158 <-- sweet dreams are made of these...;
#X obj 84 402 + 0.05;
#X obj 137 402 - 0.05;
#X obj 114 354 t f f b;
#X obj 84 436 pack f f;
#X obj 84 591 moog~ 2500 0.33;
#X msg 247 508 bypass \$1;
#X obj 247 463 tgl 23 0 empty empty empty 0 -10 0 12 #dfdfdf #000000 #000000 0 1;
#X obj 368 365 t f f b, f 14;
#X obj 368 447 pack f f;
#X obj 368 413 + 0.1;
#X obj 421 413 - 0.1;
#X obj 368 557 moog~ 1500 0.24;
#X obj 368 651 drive~ 3;
#X text 277 465 <-- NO FILTER, f 7;
#X text 71 19 You can compare with the earlier version of this. Note we have a couple of detuned oscillators on both voices. To the left they are detuned by plus and minus 5 cents \, so it's a 10 cents detuning. To the right we have +10 and -10 cents (20 cents total). There's no filter modulation at all in here \, which can be common in subtractive synths. You can bypass the filter by clicking on the toggle to see how it affects the sound. Anyway \, they are rythmic bass sections \, so nothing more natural than filtering them with a lowpass., f 85;
#X text 437 645 This voice now also has some overdrive, f 20;
#X obj 171 632 vca~ 0.5, f 5;
#X obj 368 600 vca~ 0.25;
#X obj 203 401 envgen~ -curve 1 0 25 1 25 0.5 70 0.5 220 0, f 16;
#X text 227 600 VCAs also control the general gain and sums the voices., f 17;
#X connect 0 0 2 0;
#X connect 0 1 2 1;
#X connect 1 0 2 0;
#X connect 1 1 2 1;
#X connect 3 0 5 0;
#X connect 3 0 12 0;
#X connect 4 0 22 0;
#X connect 5 0 8 0;
#X connect 5 0 9 0;
#X connect 6 0 26 0;
#X connect 7 0 32 1;
#X connect 8 0 4 0;
#X connect 9 0 11 0;
#X connect 10 0 19 0;
#X connect 11 0 17 0;
#X connect 12 0 13 0;
#X connect 13 0 9 0;
#X connect 13 0 8 0;
#X connect 15 0 18 0;
#X connect 16 0 18 1;
#X connect 17 0 15 0;
#X connect 17 1 16 0;
#X connect 17 2 33 0;
#X connect 18 0 10 0;
#X connect 19 0 31 0;
#X connect 20 0 19 0;
#X connect 20 0 26 0;
#X connect 21 0 20 0;
#X connect 22 0 24 0;
#X connect 22 1 25 0;
#X connect 22 2 7 0;
#X connect 23 0 6 0;
#X connect 24 0 23 0;
#X connect 25 0 23 1;
#X connect 26 0 32 0;
#X connect 27 0 1 0;
#X connect 31 0 0 0;
#X connect 32 0 27 0;
#X connect 33 0 31 1;
#X restore 615 542 pd example;
#X text 554 583 The same patch with MERDA modules., f 19;
#X text 550 637 Next examples will include proper modulations., f 26;
#X text 506 130 Actually \, many subtractive synths will actually have more than one oscillator and adding them (aka wave stacking) is even more important in the sound design process. So don't let commonly applied terminology deceive you., f 44;
#X text 506 224 Hence \, subtractive synths are better described as modular systems where you can combine oscillators \, filters and modulate them with LFOs \, envelopes and such \, because \, yes \, filter modulation is not the only modulating possibility usually. Hence \, arguably \, subtractive synthesis could be treated under the 'Modulation.Synthesis' part that comes next in this tutorial. And also \, the techniques we'll see later in that section can also include modulation of filter that we know as "subtractive synthesis"., f 44;
#X text 39 20 Subtractive Synthesis is a technique that can be generalized as simply applying filtering to a sound source. It needs to be a rich and complex sound source like a sawtooth oscillator. Particularly \, the filter must be slowly modulated somehow \, such as via Low Frequency Oscillarors/Noise and envelope as we'll see. Otherwise \, it's simply applying another FX and there's nothing special to it., f 62;
#X text 506 424 For now we'll expand on an earlier example we've seen in the sequencing section and increment on the sound design principles. Instead of a single oscillator going through an envelope generator \, we combine two detuned oscillators and filter them., f 44;
#X connect 0 0 20 2;
#X connect 1 0 16 0;
#X connect 2 0 1 0;
#X connect 3 0 0 0;
#X connect 4 0 13 0;
#X connect 7 0 13 2;
#X connect 8 0 13 1;
#X connect 9 0 8 0;
#X connect 10 0 7 0;
#X connect 13 0 6 0;
#X connect 16 0 20 1;
#X connect 19 0 20 0;
#X connect 20 0 5 0;
