#N canvas 629 59 647 771 12;
#X declare -path else;
#X text 304 318 LFO;
#X text 310 464 Hz;
#X obj 193 621 out~;
#X obj 431 16 declare -path else;
#X obj 236 465 numbox~ 6 12 100 #C0C0C4 #440008 10 0 0 0;
#X obj 236 424 mtof~;
#X obj 236 376 rescale~ 48 72;
#X obj 376 376 rescale~ 130.813 523.251;
#X obj 334 621 out~;
#X obj 376 444 numbox~ 6 12 100 #C0C0C4 #440008 10 0 0 0;
#X text 82 699 The sweep from the left \, for the middle point \, is '60' (middle C \, around 261.62 hz). To the right we have the same frequency range (C3 to C4) but the middle frequency position is close to E4 instead (around 327.03 Hz)., f 73;
#X text 246 400 Exponential;
#X text 391 407 linear;
#X msg 296 289 0;
#X text 326 289 reset;
#X obj 92 178 keyboard 17 80 4 1 0 0 empty empty;
#X obj 92 283 mono;
#X obj 92 387 bl.saw~ -midi, f 7;
#X obj 168 371 asr~ 10 500, f 6;
#X obj 150 482 *~;
#X text 52 57 The filter cuttof input in Pd objects are in hertz \, but the cutoff frequency sweep/modulation is usually done exponentially (as with oscillatos) \, which means we should have a proper input in MIDI pitches and convert to frequency. Below we can compare both ways and try to note the difference \, which can be quite subtle to hear \, but it's easy to understand why it exists. We also have a basic synth structure with an envelope and we retrigger and sync the LFO at everey Note-On., f 78;
#X obj 236 318 osc~ 0.25;
#X obj 193 546 lowpass~ 0 15;
#X obj 334 546 lowpass~ 0 15;
#X obj 193 585 drive~ 0.5;
#X obj 334 585 drive~ 0.5;
#X text 450 570 We add some tanh drive to compress and not let the resonance boost distort the sound., f 23;
#X connect 4 0 22 1;
#X connect 5 0 4 0;
#X connect 6 0 5 0;
#X connect 7 0 9 0;
#X connect 9 0 23 1;
#X connect 13 0 21 1;
#X connect 15 0 16 0;
#X connect 16 0 17 0;
#X connect 16 1 18 0;
#X connect 16 2 13 0;
#X connect 17 0 19 0;
#X connect 18 0 19 1;
#X connect 19 0 23 0;
#X connect 19 0 22 0;
#X connect 21 0 6 0;
#X connect 21 0 7 0;
#X connect 22 0 24 0;
#X connect 23 0 25 0;
#X connect 24 0 2 0;
#X connect 25 0 8 0;
