#N canvas 472 38 647 887 12;
#X declare -path else;
#X obj 463 165 declare -path else;
#X obj 37 201 keyboard 17 80 4 1 0 0 empty empty;
#X obj 37 172 note.in;
#X obj 323 823 out~;
#X obj 37 292 mono~ 25, f 47;
#X floatatom 226 594 5 0 0 0 - cutoff - 0;
#X text 264 593 cutoff;
#X floatatom 369 426 4 0 0 0 - lfo-rate - 0;
#X obj 323 790 plate.rev~;
#X floatatom 154 435 5 0 100 0 - keytracking - 0;
#X text 106 400 keyboard tracking amount, f 9;
#X obj 218 486 cents2ratio;
#X floatatom 218 454 5 0 0 0 - env-amount - 0;
#X obj 200 514 *~;
#X obj 340 384 adsr~ 50 250 0.5 1500;
#X obj 182 545 *~;
#X floatatom 405 487 4 0 0 0 - lfo-amount - 0;
#X text 443 480 LFO amount in cents, f 10;
#X obj 182 585 *~;
#X obj 369 523 cents2ratio~;
#X obj 323 751 *~;
#X text 256 446 env amount in cents, f 10;
#X obj 38 586 bl.saw~ -midi, f 7;
#X obj 99 585 bl.square~ -midi, f 10;
#X obj 81 639 *~;
#X floatatom 278 667 5 0 1 0 - drive - 0;
#X text 239 667 drive;
#X obj 373 750 initmess wet 0.2;
#X obj 94 465 keytrack~;
#X obj 369 493 *~;
#N canvas 907 283 219 195 init 0;
#X obj 47 46 initmess \; lfo-amount 100 \; lfo-rate 2 \; env-amount 2400 \; keytracking 100 \; cutoff 1500 \; reson 0.75 \; drive 0.5;
#X restore 536 217 pd init;
#X obj 182 650 *~;
#X floatatom 230 632 5 0 0 0 - reson - 0;
#X obj 134 699 moog~ 1500 0.75 0.5, f 21;
#X text 269 631 reson;
#X obj 98 551 +~ 12.05;
#X text 366 565 HINT: We've had an example earlier before where we used keyboard tracking to set a ratio multiplier for the envelopes. You can expand on this idea and also have the keyboard tracking affect the the envelope time for the filter and/or amplitude. Not only that \, but you can also think of having the LFO speed higher for higher pitches! Do it as an excercize!, f 34;
#X obj 138 324 tgl 21 0 empty empty empty 0 -10 0 12 #dfdfdf #000000 #000000 0 1;
#X obj 81 663 *~ 0.5;
#X obj 200 384 adsr~ -lin 0 2500 0.5 1000, f 14;
#X msg 138 351 norm \$1;
#X obj 369 454 sine~;
#X obj 400 343 *~ 0;
#X obj 425 314 tgl 19 0 empty empty empty 0 -10 0 12 #dfdfdf #000000 #000000 0 1;
#X text 407 425 LFO rate;
#X text 448 315 sync LFOs;
#X text 31 10 In this example we combine keyboard tracking \, envelope and LFO as modulation sources. We now use [keytrack~] for simplicity and we combine its ratio output by multiplying it to the other modulation sources (all with independent modulation amount. The envelope and LFO amount are set in cents and converted to ratio. You can set a toggle to sync the oscillator to a note on event., f 83;
#X text 31 89 We're combining 2 detuned oscilators and using [moog~] with its internal drive parameter. This structure is a decent basic subtractive synth. In the end we add some reverb. Of course \, many subtractive synths also incorporate many effects like flanging \, delay \, reverb \, etc..., f 83;
#X connect 1 0 4 0;
#X connect 2 0 1 0;
#X connect 4 0 22 0;
#X connect 4 0 28 0;
#X connect 4 0 35 0;
#X connect 4 1 14 0;
#X connect 4 1 39 0;
#X connect 4 2 14 1;
#X connect 4 2 39 1;
#X connect 4 2 42 0;
#X connect 5 0 31 1;
#X connect 7 0 41 0;
#X connect 8 0 3 0;
#X connect 8 1 3 1;
#X connect 9 0 28 1;
#X connect 11 0 13 1;
#X connect 12 0 11 0;
#X connect 13 0 15 1;
#X connect 14 0 20 1;
#X connect 15 0 18 0;
#X connect 16 0 29 1;
#X connect 18 0 31 0;
#X connect 19 0 18 1;
#X connect 20 0 8 0;
#X connect 22 0 24 0;
#X connect 23 0 24 1;
#X connect 24 0 38 0;
#X connect 25 0 33 3;
#X connect 27 0 8 0;
#X connect 28 0 15 0;
#X connect 29 0 19 0;
#X connect 31 0 33 1;
#X connect 32 0 33 2;
#X connect 33 0 20 0;
#X connect 35 0 23 0;
#X connect 37 0 40 0;
#X connect 38 0 33 0;
#X connect 39 0 13 0;
#X connect 40 0 39 0;
#X connect 41 0 29 0;
#X connect 42 0 41 2;
#X connect 43 0 42 1;
