#N canvas 175 126 1050 523 12;
#X obj 276 338 *~;
#X obj 276 376 out~;
#X text 588 374 in decay~ \; Replace: double ms = ... \; double a = exp(LOG001 / (ms * sr_khz)) \; With: double bw = ... \; double a = exp(-M_PI * bw / (sr_khz * 1000.0)), f 48;
#X obj 166 163 sig~ 150;
#X obj 239 163 sig~ 390;
#X obj 294 294 rpole~;
#X obj 381 270 /;
#X obj 333 238 *~ 0;
#X obj 333 262 exp~;
#X obj 381 236 else/hot;
#X obj 457 237 else/sr~;
#X obj 381 209 else/pi -1;
#X floatatom 582 225 5 0 0 0 - - - 0;
#X floatatom 601 288 10 0 0 0 - - - 0;
#X text 625 224 bandwidth;
#X text 686 276 ms;
#X obj 582 248 expr (log(1000.0) / (pi * $f1)) * 1000;
#X obj 912 249 pi pi;
#X obj 543 308 decay~;
#X obj 582 195 initmess 10;
#X obj 743 175 expr (log(0.001) / (-pi * $f1)) * 1000;
#X floatatom 756 137 5 0 0 0 - - - 0;
#X floatatom 743 199 11 0 0 0 - - - 0;
#X obj 333 163 sig~ 100;
#X obj 239 294 sine~;
#X obj 166 214 imp~;
#X connect 0 0 1 0;
#X connect 3 0 25 0;
#X connect 4 0 24 0;
#X connect 5 0 0 1;
#X connect 6 0 7 1;
#X connect 7 0 8 0;
#X connect 8 0 5 1;
#X connect 9 0 6 0;
#X connect 9 1 6 1;
#X connect 10 0 9 1;
#X connect 11 0 9 0;
#X connect 12 0 16 0;
#X connect 16 0 13 0;
#X connect 16 0 18 1;
#X connect 19 0 12 0;
#X connect 20 0 22 0;
#X connect 21 0 20 0;
#X connect 23 0 7 0;
#X connect 24 0 0 0;
#X connect 25 0 5 0;
#X connect 25 0 24 1;
