#N canvas 382 77 958 464 12;
#X floatatom 98 111 5 0 0 0 - - - 0;
#X obj 228 53 knob 50 0 1 0 1 empty empty #dfdfdf #7c7c7c #000000 1 0 0 0 1 320 0 0 1 empty empty 0 12 0 -15 0 1 0 0 1 0;
#X floatatom 228 111 6 0 0 0 - - - 0;
#X obj 163 53 knob 50 0 100 4 1 empty empty #dfdfdf #7c7c7c #000000 1 0 0 0 1 320 0 0 1 empty empty 0 12 0 -15 0 1 0 0 1 0;
#X floatatom 163 111 6 0 0 0 - - - 0;
#X obj 98 180 packet~ 200 2.5 0.1;
#X text 293 86 based on F06.packets;
#X obj 98 278 out.mc~;
#X obj 163 134 f2s~ 10;
#X obj 223 250 graph~;
#X text 170 30 cf;
#X text 242 32 bw;
#X obj 228 134 f2s~ 10;
#X text 303 162 includes "squeeze";
#X obj 563 195 out~;
#X floatatom 550 110 5 0 0 0 - - - 0;
#X obj 645 37 knob 50 0 1 0 1 empty empty #dfdfdf #7c7c7c #000000 1 0 0 0 1 320 0 0 1 empty empty 0 12 0 -15 0 1 0 0 1 0;
#X floatatom 645 110 6 0 0 0 - - - 0;
#X text 682 163 This object is a pulse train with a "squeeze index". For a "0" value you get a pure cosine wave. For larger values up to 1 \, the cosine wave is squeezed into a shorter pulse waveform., f 31;
#X text 719 107 based on F01.pulse;
#X obj 551 276 graph~;
#X obj 550 37 knob 50 100 500 0 100 empty empty #dfdfdf #7c7c7c #000000 1 0 0 0 1 320 0 0 100 empty empty 0 12 0 -15 1 1 0 0 1 0;
#N canvas 116 101 418 341 squeeze 0;
#X obj 167 150 *~;
#X obj 96 51 inlet~;
#X obj 186 51 inlet~;
#X obj 186 85 else/rescale~ -log -in 0 1 1 100, f 18;
#X obj 96 81 else/pimp~;
#X obj 167 189 clip~ 0 1;
#X obj 167 225 envelope~ hann;
#X obj 167 269 outlet~;
#X connect 0 0 5 0;
#X connect 1 0 4 0;
#X connect 2 0 3 0;
#X connect 3 0 0 1;
#X connect 4 0 0 0;
#X connect 5 0 6 0;
#X connect 6 0 7 0;
#X restore 550 137 pd squeeze;
#X f 14;
#X obj 35 74 sig~ 40;
#X connect 0 0 5 0;
#X connect 1 0 2 0;
#X connect 2 0 12 0;
#X connect 3 0 4 0;
#X connect 4 0 8 0;
#X connect 5 0 7 0;
#X connect 5 0 9 0;
#X connect 8 0 5 1;
#X connect 12 0 5 2;
#X connect 15 0 22 0;
#X connect 16 0 17 0;
#X connect 17 0 22 1;
#X connect 21 0 15 0;
#X connect 22 0 14 0;
#X connect 22 0 20 0;
#X connect 23 0 5 0;
