#N canvas 502 148 499 661 12;
#X obj 77 296 envelope~;
#X obj 77 326 pow~ 2;
#X obj 173 408 graph~;
#X obj 173 232 delread4~ \$0-vosim, f 9;
#X obj 139 568 out~;
#X obj 173 197 expr 1000 / $f1;
#X obj 77 265 vline~;
#X obj 194 374 delwrite~ \$0-vosim 100;
#X msg 77 239 0 \, 1 \$1;
#X obj 173 72 tempo -on -hz 100;
#X obj 173 167 f;
#X floatatom 220 170 5 0 0 0 - - - 0;
#X obj 220 109 knob 50 250 1000 0 250 empty empty #dfdfdf #7c7c7c #000000 1 0 0 0 1 320 0 0 250 empty empty 0 12 0 -15 0 1 0 0 1 0;
#X obj 194 341 *~ 0.4;
#X floatatom 231 38 5 0 0 0 - - - 0;
#X text 249 341 decay factor;
#X connect 0 0 1 0;
#X connect 1 0 7 0;
#X connect 3 0 2 0;
#X connect 3 0 4 0;
#X connect 3 0 13 0;
#X connect 5 0 3 0;
#X connect 5 0 8 0;
#X connect 6 0 0 0;
#X connect 8 0 6 0;
#X connect 9 0 10 0;
#X connect 10 0 5 0;
#X connect 11 0 10 1;
#X connect 12 0 11 0;
#X connect 13 0 7 0;
#X connect 14 0 9 1;
