#N canvas 412 64 857 509 12;
#X declare -path else;
#X obj 504 351 mtof;
#X obj 504 326 nbx 2 16 -1e+37 1e+37 0 0 empty empty empty 0 -8 0 13 #dcdcdc #000000 #000000 0 256;
#N canvas 680 54 531 551 parcial 0;
#X obj 201 201 cnv 15 186 78 empty empty empty 20 12 0 14 #f0f0f0 #404040 0;
#X obj 174 451 throw~ \$0-osc;
#X obj 127 238 receive \$0-fund, f 7;
#X obj 174 393 *~;
#X obj 211 225 nbx 4 20 -1e+37 1e+37 0 0 empty empty ratio 0 -10 0 15 #dcdcdc #000000 #000000 0 256;
#X obj 209 255 hsl 125 19 0 1 0 0 empty empty Phase 130 9 0 15 #dcdcdc #000000 #000000 0 1;
#X obj 166 138 unpack f f f;
#X obj 174 421 /~ 8;
#X obj 174 307 *~;
#X obj 288 210 vsl 25 36 0 1 0 0 empty empty Amp 30 20 0 20 #dcdcdc #000000 #000000 0 1;
#X obj 278 317 f2s~ 50;
#X obj 206 315 f2s~ 500;
#X obj 174 345 sine~;
#X obj 166 106 r \$0-p1;
#X connect 2 0 8 0;
#X connect 3 0 7 0;
#X connect 4 0 8 1;
#X connect 5 0 11 0;
#X connect 6 0 4 0;
#X connect 6 1 5 0;
#X connect 6 2 9 0;
#X connect 7 0 1 0;
#X connect 8 0 12 0;
#X connect 9 0 10 0;
#X connect 10 0 3 1;
#X connect 11 0 12 2;
#X connect 12 0 3 0;
#X connect 13 0 6 0;
#X coords 0 -1 1 1 188 80 2 200 200;
#X restore 45 152 pd parcial;
#X obj 668 361 catch~ \$0-osc;
#X obj 504 383 send \$0-fund;
#X text 546 326 MIDI;
#X obj 668 397 out~;
#N canvas 680 54 531 551 parcial 0;
#X obj 201 201 cnv 15 186 78 empty empty empty 20 12 0 14 #f0f0f0 #404040 0;
#X obj 174 451 throw~ \$0-osc;
#X obj 127 238 receive \$0-fund, f 7;
#X obj 174 393 *~;
#X obj 211 225 nbx 4 20 -1e+37 1e+37 0 0 empty empty ratio 0 -10 0 15 #dcdcdc #000000 #000000 0 256;
#X obj 209 255 hsl 125 19 0 1 0 0 empty empty Phase 130 9 0 15 #dcdcdc #000000 #000000 0 1;
#X obj 166 138 unpack f f f;
#X obj 174 421 /~ 8;
#X obj 174 307 *~;
#X obj 288 210 vsl 25 36 0 1 0 0 empty empty Amp 30 20 0 20 #dcdcdc #000000 #000000 0 1;
#X obj 278 317 f2s~ 50;
#X obj 206 315 f2s~ 500;
#X obj 174 345 sine~;
#X obj 166 106 r \$0-p2;
#X connect 2 0 8 0;
#X connect 3 0 7 0;
#X connect 4 0 8 1;
#X connect 5 0 11 0;
#X connect 6 0 4 0;
#X connect 6 1 5 0;
#X connect 6 2 9 0;
#X connect 7 0 1 0;
#X connect 8 0 12 0;
#X connect 9 0 10 0;
#X connect 10 0 3 1;
#X connect 11 0 12 2;
#X connect 12 0 3 0;
#X connect 13 0 6 0;
#X coords 0 -1 1 1 188 80 2 200 200;
#X restore 242 152 pd parcial;
#N canvas 680 54 531 551 parcial 0;
#X obj 201 201 cnv 15 186 78 empty empty empty 20 12 0 14 #f0f0f0 #404040 0;
#X obj 174 451 throw~ \$0-osc;
#X obj 127 238 receive \$0-fund, f 7;
#X obj 174 393 *~;
#X obj 211 225 nbx 4 20 -1e+37 1e+37 0 0 empty empty ratio 0 -10 0 15 #dcdcdc #000000 #000000 0 256;
#X obj 209 255 hsl 125 19 0 1 0 0 empty empty Phase 130 9 0 15 #dcdcdc #000000 #000000 0 1;
#X obj 166 138 unpack f f f;
#X obj 174 421 /~ 8;
#X obj 174 307 *~;
#X obj 288 210 vsl 25 36 0 1 0 0 empty empty Amp 30 20 0 20 #dcdcdc #000000 #000000 0 1;
#X obj 278 317 f2s~ 50;
#X obj 206 315 f2s~ 500;
#X obj 174 345 sine~;
#X obj 166 106 r \$0-p3;
#X connect 2 0 8 0;
#X connect 3 0 7 0;
#X connect 4 0 8 1;
#X connect 5 0 11 0;
#X connect 6 0 4 0;
#X connect 6 1 5 0;
#X connect 6 2 9 0;
#X connect 7 0 1 0;
#X connect 8 0 12 0;
#X connect 9 0 10 0;
#X connect 10 0 3 1;
#X connect 11 0 12 2;
#X connect 12 0 3 0;
#X connect 13 0 6 0;
#X coords 0 -1 1 1 188 80 2 200 200;
#X restore 45 236 pd parcial;
#N canvas 680 54 531 551 parcial 0;
#X obj 201 201 cnv 15 186 78 empty empty empty 20 12 0 14 #f0f0f0 #404040 0;
#X obj 174 451 throw~ \$0-osc;
#X obj 127 238 receive \$0-fund, f 7;
#X obj 174 393 *~;
#X obj 211 225 nbx 4 20 -1e+37 1e+37 0 0 empty empty ratio 0 -10 0 15 #dcdcdc #000000 #000000 0 256;
#X obj 209 255 hsl 125 19 0 1 0 0 empty empty Phase 130 9 0 15 #dcdcdc #000000 #000000 0 1;
#X obj 166 138 unpack f f f;
#X obj 174 421 /~ 8;
#X obj 174 307 *~;
#X obj 288 210 vsl 25 36 0 1 0 0 empty empty Amp 30 20 0 20 #dcdcdc #000000 #000000 0 1;
#X obj 278 317 f2s~ 50;
#X obj 206 315 f2s~ 500;
#X obj 174 345 sine~;
#X obj 166 106 r \$0-p4;
#X connect 2 0 8 0;
#X connect 3 0 7 0;
#X connect 4 0 8 1;
#X connect 5 0 11 0;
#X connect 6 0 4 0;
#X connect 6 1 5 0;
#X connect 6 2 9 0;
#X connect 7 0 1 0;
#X connect 8 0 12 0;
#X connect 9 0 10 0;
#X connect 10 0 3 1;
#X connect 11 0 12 2;
#X connect 12 0 3 0;
#X connect 13 0 6 0;
#X coords 0 -1 1 1 188 80 2 200 200;
#X restore 242 236 pd parcial;
#N canvas 680 54 531 551 parcial 0;
#X obj 201 201 cnv 15 186 78 empty empty empty 20 12 0 14 #f0f0f0 #404040 0;
#X obj 174 451 throw~ \$0-osc;
#X obj 127 238 receive \$0-fund, f 7;
#X obj 174 393 *~;
#X obj 211 225 nbx 4 20 -1e+37 1e+37 0 0 empty empty ratio 0 -10 0 15 #dcdcdc #000000 #000000 0 256;
#X obj 209 255 hsl 125 19 0 1 0 0 empty empty Phase 130 9 0 15 #dcdcdc #000000 #000000 0 1;
#X obj 166 138 unpack f f f;
#X obj 174 421 /~ 8;
#X obj 174 307 *~;
#X obj 288 210 vsl 25 36 0 1 0 0 empty empty Amp 30 20 0 20 #dcdcdc #000000 #000000 0 1;
#X obj 278 317 f2s~ 50;
#X obj 206 315 f2s~ 500;
#X obj 174 345 sine~;
#X obj 166 106 r \$0-p5;
#X connect 2 0 8 0;
#X connect 3 0 7 0;
#X connect 4 0 8 1;
#X connect 5 0 11 0;
#X connect 6 0 4 0;
#X connect 6 1 5 0;
#X connect 6 2 9 0;
#X connect 7 0 1 0;
#X connect 8 0 12 0;
#X connect 9 0 10 0;
#X connect 10 0 3 1;
#X connect 11 0 12 2;
#X connect 12 0 3 0;
#X connect 13 0 6 0;
#X coords 0 -1 1 1 188 80 2 200 200;
#X restore 45 322 pd parcial;
#N canvas 680 54 531 551 parcial 0;
#X obj 201 201 cnv 15 186 78 empty empty empty 20 12 0 14 #f0f0f0 #404040 0;
#X obj 174 451 throw~ \$0-osc;
#X obj 127 238 receive \$0-fund, f 7;
#X obj 174 393 *~;
#X obj 211 225 nbx 4 20 -1e+37 1e+37 0 0 empty empty ratio 0 -10 0 15 #dcdcdc #000000 #000000 0 256;
#X obj 209 255 hsl 125 19 0 1 0 0 empty empty Phase 130 9 0 15 #dcdcdc #000000 #000000 0 1;
#X obj 166 138 unpack f f f;
#X obj 174 421 /~ 8;
#X obj 174 307 *~;
#X obj 288 210 vsl 25 36 0 1 0 0 empty empty Amp 30 20 0 20 #dcdcdc #000000 #000000 0 1;
#X obj 278 317 f2s~ 50;
#X obj 206 315 f2s~ 500;
#X obj 174 345 sine~;
#X obj 166 106 r \$0-p6;
#X connect 2 0 8 0;
#X connect 3 0 7 0;
#X connect 4 0 8 1;
#X connect 5 0 11 0;
#X connect 6 0 4 0;
#X connect 6 1 5 0;
#X connect 6 2 9 0;
#X connect 7 0 1 0;
#X connect 8 0 12 0;
#X connect 9 0 10 0;
#X connect 10 0 3 1;
#X connect 11 0 12 2;
#X connect 12 0 3 0;
#X connect 13 0 6 0;
#X coords 0 -1 1 1 188 80 2 200 200;
#X restore 242 322 pd parcial;
#N canvas 680 54 531 551 parcial 0;
#X obj 201 201 cnv 15 186 78 empty empty empty 20 12 0 14 #f0f0f0 #404040 0;
#X obj 174 451 throw~ \$0-osc;
#X obj 127 238 receive \$0-fund, f 7;
#X obj 174 393 *~;
#X obj 211 225 nbx 4 20 -1e+37 1e+37 0 0 empty empty ratio 0 -10 0 15 #dcdcdc #000000 #000000 0 256;
#X obj 209 255 hsl 125 19 0 1 0 0 empty empty Phase 130 9 0 15 #dcdcdc #000000 #000000 0 1;
#X obj 166 138 unpack f f f;
#X obj 174 421 /~ 8;
#X obj 174 307 *~;
#X obj 288 210 vsl 25 36 0 1 0 0 empty empty Amp 30 20 0 20 #dcdcdc #000000 #000000 0 1;
#X obj 278 317 f2s~ 50;
#X obj 206 315 f2s~ 500;
#X obj 174 345 sine~;
#X obj 166 106 r \$0-p7;
#X connect 2 0 8 0;
#X connect 3 0 7 0;
#X connect 4 0 8 1;
#X connect 5 0 11 0;
#X connect 6 0 4 0;
#X connect 6 1 5 0;
#X connect 6 2 9 0;
#X connect 7 0 1 0;
#X connect 8 0 12 0;
#X connect 9 0 10 0;
#X connect 10 0 3 1;
#X connect 11 0 12 2;
#X connect 12 0 3 0;
#X connect 13 0 6 0;
#X coords 0 -1 1 1 188 80 2 200 200;
#X restore 45 406 pd parcial;
#N canvas 680 54 531 551 parcial 0;
#X obj 201 201 cnv 15 186 78 empty empty empty 20 12 0 14 #f0f0f0 #404040 0;
#X obj 174 451 throw~ \$0-osc;
#X obj 127 238 receive \$0-fund, f 7;
#X obj 174 393 *~;
#X obj 211 225 nbx 4 20 -1e+37 1e+37 0 0 empty empty ratio 0 -10 0 15 #dcdcdc #000000 #000000 0 256;
#X obj 209 255 hsl 125 19 0 1 0 0 empty empty Phase 130 9 0 15 #dcdcdc #000000 #000000 0 1;
#X obj 166 138 unpack f f f;
#X obj 174 421 /~ 8;
#X obj 174 307 *~;
#X obj 288 210 vsl 25 36 0 1 0 0 empty empty Amp 30 20 0 20 #dcdcdc #000000 #000000 0 1;
#X obj 278 317 f2s~ 50;
#X obj 206 315 f2s~ 500;
#X obj 174 345 sine~;
#X obj 166 106 r \$0-p8;
#X connect 2 0 8 0;
#X connect 3 0 7 0;
#X connect 4 0 8 1;
#X connect 5 0 11 0;
#X connect 6 0 4 0;
#X connect 6 1 5 0;
#X connect 6 2 9 0;
#X connect 7 0 1 0;
#X connect 8 0 12 0;
#X connect 9 0 10 0;
#X connect 10 0 3 1;
#X connect 11 0 12 2;
#X connect 12 0 3 0;
#X connect 13 0 6 0;
#X coords 0 -1 1 1 188 80 2 200 200;
#X restore 242 406 pd parcial;
#X text 25 119 Open any subpatch below to see what's going on.;
#X text 486 57 Here we can also test the effect of changing the phase of a partial (also not possible with the "sinesum" command). Though it does change the waveform \, you can note how it doesn't change our perception of the resulting sound., f 49;
#X obj 504 232 tgl 21 0 empty empty empty 17 7 0 10 #dcdcdc #000000 #000000 0 1;
#X obj 504 296 rand.i 36 60;
#X obj 695 27 declare -path else;
#X text 24 17 In this example we have eight oscillators with independent controls for frequency \, amplitude and phase. The fundamental frequency is given from random pitches and each partial's frequency is obtained from a ratio. By the dfault \, we have an inharmonic/detuned series \, which was not possible with array with the "sinesum" command and [tabread4~].;
#X obj 504 267 tempo 15 50;
#X obj 650 168 initmess \; \$0-p1 1 0.15 0.7 \; \$0-p2 1.99 0.1 1 \; \$0-p3 3.01 0.85 0.5 \; \$0-p4 4.03 0 1 \; \$0-p5 4.95 0.325 0.4 \; \$0-p6 6.05 0.9 0.7 \; \$0-p7 7.07 0.7 0.6 \; \$0-p8 7.93 0.25 0.8 \; \$0-fund 110;
#X text 500 192 Random pitch, f 6;
#X connect 0 0 4 0;
#X connect 1 0 0 0;
#X connect 3 0 6 0;
#X connect 16 0 20 0;
#X connect 17 0 1 0;
#X connect 20 0 17 0;
