#N canvas 613 199 730 441 12;
#X declare -path else;
#X obj 477 99 declare -path else;
#X msg 145 202 all \$1;
#X obj 145 236 clone -s 1 partialrandom 16, f 16;
#X obj 144 89 inlet;
#X obj 165 338 outlet~;
#X obj 234 338 outlet~;
#X obj 316 250 adsr~ 25 25 0.5 500;
#X obj 145 136 unpack float float;
#X obj 145 170 mtof;
#X obj 446 293 switch~;
#X obj 193 289 vca2~ 0.25, f 18;
#X text 60 233 open for details -->, f 11;
#X text 317 154 This is a patch used inside [clone] in the polyphonic additive synthesis example. Inside it we have another [clone] object nested to generate each partial of our synth voice., f 47;
#X connect 1 0 2 0;
#X connect 2 0 10 0;
#X connect 2 1 10 1;
#X connect 3 0 7 0;
#X connect 6 0 10 2;
#X connect 6 1 9 0;
#X connect 7 0 8 0;
#X connect 7 1 6 0;
#X connect 8 0 1 0;
#X connect 10 0 4 0;
#X connect 10 1 5 0;
