#N canvas 567 188 768 531 12;
#X declare -path else;
#X obj 463 142 declare -path else;
#X obj 94 193 osc~;
#X obj 144 215 osc~;
#X obj 144 187 +~;
#X obj 197 192 *~ 10;
#X obj 136 335 *~;
#X obj 94 264 +~;
#X obj 197 167 rampnoise~ 0.1;
#X obj 183 352 rampnoise~ 1.3;
#X obj 151 379 pan2~;
#X obj 183 415 outlet~;
#X obj 151 446 outlet~;
#X obj 153 270 rampnoise~ 0.1;
#X obj 153 294 rescale~ 0.5 1;
#X obj 94 70 inlet;
#X obj 94 125 expr $f1 * \$1 + \$1 * 0.1;
#X text 352 208 This patch is loaded via [clone] and is nested inside another patch loaded via [clone] for a polyphonic additive synthesis example., f 48;
#X text 352 266 Each partial of the synth voice is composed of a detuned and pitch shifting pairs of oscillators \, whose amplitude and panning are also modulated randomly., f 48;
#X connect 1 0 6 0;
#X connect 2 0 6 1;
#X connect 3 0 2 0;
#X connect 4 0 3 1;
#X connect 5 0 9 0;
#X connect 6 0 5 0;
#X connect 7 0 4 0;
#X connect 8 0 9 1;
#X connect 9 0 11 0;
#X connect 9 1 10 0;
#X connect 12 0 13 0;
#X connect 13 0 5 1;
#X connect 14 0 15 0;
#X connect 15 0 3 0;
#X connect 15 0 1 0;
