#N canvas 242 25 776 425 12;
#X declare -path else;
#X obj 214 20 declare -path else;
#X obj 110 282 vsl 16 100 0 1 0 0 empty empty empty 0 -9 0 10 #dcdcdc #000000 #000000 0 1;
#X obj 165 251 *~;
#X obj 107 194 osc~ 440;
#X obj 165 291 out~;
#X obj 151 127 bng 21 250 50 0 empty empty empty 17 7 0 10 #dcdcdc #000000 #000000;
#X text 130 373 0;
#X text 130 274 1;
#X obj 110 248 s2f~;
#X obj 327 238 tgl 19 0 empty empty empty 0 -10 0 12 #dfdfdf #000000 #000000 0 1;
#X obj 183 158 float2imp~;
#X obj 183 127 bng 21 250 50 0 empty empty empty 17 7 0 10 #dcdcdc #000000 #000000;
#X obj 183 200 asr~ -minsus 0 50 450;
#X obj 424 265 vsl 16 100 0 1 0 0 empty empty empty 0 -9 0 10 #dcdcdc #000000 #000000 0 1;
#X obj 479 234 *~;
#X obj 421 177 osc~ 440;
#X obj 479 274 out~;
#X obj 459 98 bng 21 250 50 0 empty empty empty 17 7 0 10 #dcdcdc #000000 #000000;
#X text 444 356 0;
#X text 444 257 1;
#X obj 424 231 s2f~;
#X obj 711 221 tgl 19 0 empty empty empty 0 -10 0 12 #dfdfdf #000000 #000000 0 1;
#X obj 548 131 float2imp~;
#X obj 548 100 bng 21 250 50 0 empty empty empty 17 7 0 10 #dcdcdc #000000 #000000;
#X obj 497 183 asr~ -minsus 0 -maxsus 0 50 450;
#X obj 497 131 sig~;
#X obj 497 99 tgl 21 0 empty empty empty 0 -10 0 12 #dfdfdf #000000 #000000 0 1;
#X text 23 60 An [asr~] object can work like an attack/release stage triggered by impulses if you set it with a minimum sustain value of 0 (cehck help files for more details)., f 48;
#X text 406 35 You can also add a maximum sustain of 0 so you can also trigger it with gates., f 43;
#X connect 2 0 4 0;
#X connect 3 0 2 0;
#X connect 5 0 12 0;
#X connect 8 0 1 0;
#X connect 10 0 12 0;
#X connect 11 0 10 0;
#X connect 12 0 2 1;
#X connect 12 0 8 0;
#X connect 12 1 9 0;
#X connect 14 0 16 0;
#X connect 15 0 14 0;
#X connect 17 0 24 0;
#X connect 20 0 13 0;
#X connect 22 0 24 0;
#X connect 23 0 22 0;
#X connect 24 0 14 1;
#X connect 24 0 20 0;
#X connect 24 1 21 0;
#X connect 25 0 24 0;
#X connect 26 0 25 0;
