#N canvas 472 90 451 433 12;
#X declare -path else;
#X obj 255 18 declare -path else;
#X obj 98 306 vsl 16 100 0 1 0 0 empty empty empty 0 -9 0 10 #dcdcdc #000000 #000000 0 1;
#X obj 153 275 *~;
#X obj 99 213 osc~ 440;
#X obj 153 315 out~;
#X text 118 397 0;
#X text 118 298 1;
#X obj 98 272 s2f~;
#X obj 350 259 tgl 19 0 empty empty empty 0 -10 0 12 #dfdfdf #000000 #000000 0 1;
#X obj 126 146 bng 21 250 50 0 empty empty empty 17 7 0 10 #dcdcdc #000000 #000000;
#X obj 171 224 adsr~ -minsus 0 50 450 0 0;
#X obj 171 179 sig~;
#X obj 171 146 tgl 21 0 empty empty empty 0 -10 0 12 #dfdfdf #000000 #000000 0 1;
#X obj 215 179 float2imp~;
#X obj 215 146 bng 21 250 50 0 empty empty empty 17 7 0 10 #dcdcdc #000000 #000000;
#X text 44 63 With an [adsr~] object we can just set the attack and decay phases with a minimum sustain of 0 and it'll work with either impulses or gates., f 49;
#X connect 2 0 4 0;
#X connect 3 0 2 0;
#X connect 7 0 1 0;
#X connect 9 0 10 0;
#X connect 10 0 2 1;
#X connect 10 0 7 0;
#X connect 10 1 8 0;
#X connect 11 0 10 0;
#X connect 12 0 11 0;
#X connect 13 0 10 0;
#X connect 14 0 13 0;
