#N canvas 590 89 491 638 12;
#X text 73 286 "soft sync";
#X obj 214 397 out~;
#X obj 213 244 nbx 5 14 -1e+37 1e+37 0 0 empty empty empty 0 -8 0 10
-228856 -1 -1 0 256;
#X obj 197 472 graph~ 500 20;
#X obj 142 243 nbx 5 14 -1e+37 1e+37 0 0 empty empty empty 0 -8 0 10
-228856 -1 -1 0 256;
#X obj 158 316 display~;
#X obj 213 306 impulse~;
#X obj 197 357 sine~;
#X obj 158 286 max~;
#X text 39 19 So \, how is the "soft sync" technique "softer" than
"hard sync"? There are different ways to soften out. It can be that
instead of resseting the oscillator \, you just reverse the waveform
direction. Other options can just deactivate hard syncing in certain
cases \, such as when the interval relationship betwen master and slave
goes beyond a certain range.;
#X text 39 130 In this example we prevent the slave frequency to go
lower than the masters to avoid resseting the period before it has
been completed. We do this with the native [max~] object \, which is
a maximum function and keeps the slave frequency the same as the master's
if it is lower., f 58;
#X text 217 225 master;
#X text 149 225 slave;
#X connect 2 0 6 0;
#X connect 2 0 8 1;
#X connect 4 0 8 0;
#X connect 5 0 7 0;
#X connect 6 0 7 1;
#X connect 7 0 1 0;
#X connect 7 0 1 1;
#X connect 7 0 3 0;
#X connect 8 0 5 0;
