#N canvas 511 68 531 678 12;
#X obj 117 306 nbx 8 14 1e-05 1 1 0 empty empty empty 18 -6 0 10 -228856
-1 -1 1e-05 256;
#X obj 117 449 nbx 8 14 0 100 0 0 empty empty empty 18 -6 0 10 -228856
-1 -1 0 256;
#X obj 120 284 hsl 128 15 1e-05 1 0 0 \$0-linear empty empty -2 -8
0 10 -228856 -1 -1 0 1;
#X floatatom 117 353 0 0 0 0 - - -;
#X floatatom 117 399 0 0 0 0 - - -;
#X obj 117 330 / 1e-05;
#X floatatom 117 498 7 0 0 0 - - -;
#X obj 117 473 expr pow(10 \, $f1 / 20);
#X obj 117 523 * 1e-05;
#X obj 117 547 nbx 8 14 1e-05 1 1 0 empty empty empty 18 -6 0 10 -228856
-1 -1 1e-05 256;
#X text 221 534 linear;
#X text 213 549 amplitude;
#X text 66 398 log =>;
#X obj 117 424 * 20;
#X text 90 446 dB;
#X obj 178 164 cnv 15 215 40 empty empty empty 20 12 0 14 -228856 -66577
0;
#X text 251 182 10;
#X text 188 169 dB = 20 Log (amp / 0.00001);
#X text 235 368 converte uma razão em uma;
#X text 236 381 escala logarítmica;
#X obj 339 450 rmstodb;
#X obj 339 475 nbx 8 14 0 100 0 0 empty empty empty 18 -6 0 10 -228856
-1 -1 0 256;
#X obj 339 527 nbx 8 14 1e-05 1 1 0 empty empty empty 18 -6 0 10 -228856
-1 -1 1e-05 256;
#X obj 339 426 nbx 8 14 1e-05 1 1 0 empty \$0-linear empty 18 -6 0
10 -228856 -1 -1 1e-05 256;
#X obj 339 498 dbtorms;
#X text 35 15 Amplitude values are normally expressed in dB. Amplitude
values between -1 and 1 \, as we have in digital audio \, are linear
values \, as opposed to values in dB \, which are logarithmic., f
62;
#X text 45 219 Now input amplitudes from 1e-05 to 1 return values between
0 and 100 dB. See this conversion and the opposite conversion being
done in a patch and with native Pd objects;
#X text 174 497 <= ratio;
#X text 176 330 <= reference amplitude;
#X text 204 305 <= linear amplitude;
#X text 54 353 ratio =>;
#X text 422 426 linear;
#X text 425 475 dB;
#X text 425 527 linear;
#X text 64 585 The [rmstodb] and [dbtorms] objects give the idea that
"linear" is a synonim of "rms" \, which is not true. The "RMS" can
actually be expressed either as a linear amplitude or in dB., f 54
;
#X obj 117 376 log 10;
#X text 35 78 A dB value indicates a proportion/ratio to a reference
amplitude. Hence \, it is not different than a musical interval! There
are different types of dB scale \, each with a different reference
value. Considering the reference as 1e-05 (or 0.00001) \, the conversion
to dB from a linear amplitude ("amp") is given as:, f 62;
#X connect 0 0 5 0;
#X connect 1 0 7 0;
#X connect 2 0 0 0;
#X connect 3 0 35 0;
#X connect 4 0 13 0;
#X connect 5 0 3 0;
#X connect 6 0 8 0;
#X connect 7 0 6 0;
#X connect 8 0 9 0;
#X connect 13 0 1 0;
#X connect 20 0 21 0;
#X connect 21 0 24 0;
#X connect 23 0 20 0;
#X connect 24 0 22 0;
#X connect 35 0 4 0;
