#N canvas 233 77 1025 522 12;
#X declare -path else;
#X obj 177 192 nbx 5 14 -1e+37 1e+37 0 0 empty hz empty 0 -8 0 10 -228856
-1 -1 0 256;
#X obj 197 244 *~;
#X obj 179 276 +~;
#X obj 180 168 hsl 128 15 200 2000 1 0 empty empty empty -2 -8 0 10
-228856 -1 -1 0 1;
#X obj 110 158 readsf~;
#X obj 711 187 nbx 5 14 -1e+37 1e+37 0 0 empty hz empty 0 -8 0 10 -228856
-1 -1 0 256;
#X text 773 186 HZ;
#X obj 714 162 hsl 128 15 200 2000 1 0 empty empty empty -2 -8 0 10
-228856 -1 -1 0 1;
#X obj 821 234 nbx 5 14 -1e+37 1e+37 0 0 empty empty empty 0 -8 0 10
-228856 -1 -1 0 256;
#X text 883 233 HZ;
#X obj 644 194 noise~;
#X obj 821 212 + 500;
#X obj 110 215 crossover~;
#X obj 136 319 out~;
#X obj 110 135 initmess open ../../../../samples/bubul.wav \, 1;
#X obj 644 230 crossover~;
#X obj 754 256 crossover~;
#X obj 821 290 out~;
#X obj 711 291 out~;
#X obj 601 291 out~;
#X text 206 166 Hz (cutoff), f 12;
#X text 33 23 Multiband processing consists in just having distinct
FX chains for each frequency band. A crossover filter can be a basis
for multiband processing by applying different FX in each output. For
instance \, below we have an overdrive in the left output and Ring
Modulation in the right output., f 66;
#X obj 110 244 drive~ 20;
#X obj 215 218 osc~ 200;
#X text 51 387 This is a rather arbitrary example \, but good to illustrate
how the "sky is the limit" \, you can just do about anything \, but
the most common process is to have different gain adjustments for each
frequency band \, such as different compression settings for each band.
, f 66;
#X text 538 81 In order to obtain more bands with [crossover~] filters
\, just connect more than one in cascade like below \, where we now
have a low \, a medium and a high band., f 64;
#X text 627 344 Low;
#X text 727 344 Medium;
#X text 845 343 High;
#X obj 779 27 declare -path else;
#X connect 0 0 12 1;
#X connect 1 0 2 1;
#X connect 2 0 13 0;
#X connect 2 0 13 1;
#X connect 3 0 0 0;
#X connect 4 0 12 0;
#X connect 4 1 14 0;
#X connect 5 0 11 0;
#X connect 5 0 15 1;
#X connect 7 0 5 0;
#X connect 8 0 16 1;
#X connect 10 0 15 0;
#X connect 11 0 8 0;
#X connect 12 0 22 0;
#X connect 12 1 1 0;
#X connect 14 0 4 0;
#X connect 15 0 19 0;
#X connect 15 0 19 1;
#X connect 15 1 16 0;
#X connect 16 0 18 0;
#X connect 16 0 18 1;
#X connect 16 1 17 0;
#X connect 16 1 17 1;
#X connect 22 0 2 0;
#X connect 23 0 1 1;
