#N canvas 528 23 511 635 12;
#X declare -path else;
#X obj 155 126 noise~;
#N canvas 837 269 700 390 4-band-split 0;
#X obj 49 245 outlet~;
#X obj 205 75 inlet~;
#X obj 490 186 lowshelf~ 5000 0.5 -24;
#X obj 49 192 highshelf~ 500 1 -48;
#X obj 206 191 bandpass~ 750 5;
#X obj 345 191 bandpass~ 1500 5;
#X obj 206 245 outlet~;
#X obj 345 245 outlet~;
#X obj 489 245 outlet~;
#X connect 1 0 2 0;
#X connect 1 0 3 0;
#X connect 1 0 4 0;
#X connect 1 0 5 0;
#X connect 2 0 8 0;
#X connect 3 0 0 0;
#X connect 4 0 6 0;
#X connect 5 0 7 0;
#X coords 0 390 1 389 270 200 0;
#X restore 155 161 pd 4-band-split;
#X text 63 59 In this example we split a signal input into 4 bands
and apply different compression settings for each., f 45;
#X obj 107 330 meter~;
#X obj 165 330 meter~;
#X obj 224 330 meter~;
#X obj 282 330 meter~;
#X obj 224 504 *~ 1;
#X obj 155 202 compress~ -50 30 5 5 30;
#X obj 189 229 compress~ -20 10 5 5 5;
#X obj 224 266 compress~ -50 15 5 5 18;
#X obj 258 298 compress~ -50 20 5 5 26;
#X obj 309 17 declare -path else;
#X obj 181 551 out~;
#X connect 0 0 1 0;
#X connect 1 0 8 0;
#X connect 1 1 9 0;
#X connect 1 2 10 0;
#X connect 1 3 11 0;
#X connect 3 0 7 0;
#X connect 4 0 7 0;
#X connect 5 0 7 0;
#X connect 6 0 7 0;
#X connect 7 0 13 0;
#X connect 7 0 13 1;
#X connect 8 0 3 0;
#X connect 9 0 4 0;
#X connect 10 0 5 0;
#X connect 11 0 6 0;
