#N canvas 584 23 529 662 12;
#X obj 105 444 noise~;
#X obj 179 484 bng 15 250 50 0 empty empty empty 17 7 0 10 -228856
-1 -1;
#X obj 294 399 noise~;
#X obj 294 449 sh~;
#X obj 278 574 out~;
#X obj 116 594 out~;
#X obj 89 411 zerocross~;
#X obj 138 479 sh~;
#X obj 179 454 trig2bang~;
#X obj 115 73 noise~;
#X obj 153 208 out~;
#X obj 153 108 sh~;
#X obj 153 169 bl.saw~;
#X obj 153 137 rescale~ 100 400;
#X obj 171 73 impulse~ 2;
#X obj 314 70 noise~;
#X obj 314 213 out~;
#X obj 314 174 bl.saw~;
#X obj 314 137 rescale~ 100 400;
#X obj 314 100 downsample~ 2;
#X obj 350 400 tempo~ 120 100 -on;
#X obj 350 458 bng 15 250 50 0 empty empty empty 17 7 0 10 -228856
-1 -1;
#X obj 350 431 trig2bang~;
#X obj 294 532 bl.saw~;
#X obj 294 495 rescale~ 50 150;
#X obj 138 511 rescale~ 50 150;
#X obj 138 544 bl.saw~;
#X obj 89 379 rampnoise~ 2;
#X text 55 12 You can consider [downsample~] as a type of sample and
hold unitpara fazer um sample and hold.;
#X text 70 309 Clearly [sh~]is more maleable \, and it can be triggered
in many different ways. Use the many impulse and trigger generators
from ELSE to contol it.;
#X connect 0 0 7 0;
#X connect 2 0 3 0;
#X connect 3 0 24 0;
#X connect 6 2 7 1;
#X connect 6 2 8 0;
#X connect 7 0 25 0;
#X connect 8 0 1 0;
#X connect 9 0 11 0;
#X connect 11 0 13 0;
#X connect 12 0 10 0;
#X connect 12 0 10 1;
#X connect 13 0 12 0;
#X connect 14 0 11 1;
#X connect 15 0 19 0;
#X connect 17 0 16 0;
#X connect 17 0 16 1;
#X connect 18 0 17 0;
#X connect 19 0 18 0;
#X connect 20 0 3 1;
#X connect 20 0 22 0;
#X connect 22 0 21 0;
#X connect 23 0 4 0;
#X connect 23 0 4 1;
#X connect 24 0 23 0;
#X connect 25 0 26 0;
#X connect 26 0 5 0;
#X connect 26 0 5 1;
#X connect 27 0 6 0;
