#N canvas 597 23 542 565 12;
#X obj 237 251 soundfiler;
#X obj 230 321 cnv 15 198 138 empty empty empty 20 12 0 14 -228856
-66577 0;
#N canvas 0 22 450 300 (subpatch) 0;
#X array wave 512 float 0;
#X coords 0 1 511 -1 200 140 1;
#X restore 229 320 graph;
#X obj 64 168 nbx 5 18 -1e+37 1e+37 0 0 empty empty empty 0 -8 0 14
-228856 -1 -1 0 256;
#X text 142 168 Hz;
#X msg 237 226 read -resize \$1 wave;
#X obj 237 160 openpanel;
#X obj 237 131 bng 23 250 50 0 empty empty empty 17 7 0 10 -228856
-1 -1;
#X obj 64 241 out~;
#X obj 247 186 initmess symbol ../../../../../samples/baglama.wav,
f 34;
#X text 29 72 It's relatively easy to find around waveforms as .wav
or .aif files to be used in Pd. to load them into an array \, we use
the native [soundfiler] object., f 68;
#N canvas 227 209 369 251 sequencer 0;
#X obj 172 91 mtof;
#X obj 144 170 *~;
#X obj 144 199 outlet~;
#X obj 162 30 tempo 240 -on;
#X obj 172 54 sequencer 42 40 40 45 40 49 52 52 45 43 43 47 50 54 55
55, f 29;
#X obj 39 131 wavetable~ wave;
#X obj 162 139 envgen~ 50 1 150 1 50 0;
#X connect 0 0 5 0;
#X connect 1 0 2 0;
#X connect 3 0 4 0;
#X connect 3 0 6 0;
#X connect 4 0 0 0;
#X connect 5 0 1 0;
#X connect 6 0 1 1;
#X restore 66 320 pd sequencer;
#X obj 66 357 out~;
#X floatatom 237 275 5 0 0 0 - - -, f 5;
#X text 274 275 <= number of samples;
#X text 267 131 Load another file;
#X text 29 23 The ELSE library provides [wavetable~] \, another wavetable
oscillator for Pd. In this example \, instead of generating a waveform
\, we load it from a sound file., f 68;
#X text 61 480 One difference from [wavetable~] to [tabosc4~] is that
it can load tables of any size \, so it doesn't have to be a power
of 2 plus 3 extra points.;
#X obj 64 200 wavetable~ wave 50;
#X connect 0 0 13 0;
#X connect 3 0 18 0;
#X connect 5 0 0 0;
#X connect 6 0 5 0;
#X connect 7 0 6 0;
#X connect 9 0 5 0;
#X connect 11 0 12 0;
#X connect 11 0 12 1;
#X connect 18 0 8 0;
#X connect 18 0 8 1;
