#N canvas 287 173 1076 600 12;
#X obj 102 140 brown~;
#X obj 102 180 resonbank~ -freq 200 300 700 800 -decay 900 800 700 900 -amp 0.4 0.3 0.2 0.2, f 32;
#X obj 102 250 out~;
#X obj 385 248 out~;
#X obj 385 180 resonbank2~ -freq 110 220 330 440 -attack 50 100 50 100 -decay 2500 2800 2300 2400, f 33;
#X obj 385 140 imp~ 1;
#X obj 102 362 noise~;
#X obj 102 410 bpbank~ -freq 200 500 900 1700 -q 1.5 5 20 9 -amp 2 1.5 2 1, f 30;
#X obj 102 462 out~;
#X text 99 46 ELSE has some objects that are banks of filters;
#X obj 660 143 keyboard 15 60 2 3 0 0 empty empty;
#X obj 660 227 stripnote;
#X obj 660 261 mtof;
#X obj 907 252 / 127;
#X obj 874 264 *~;
#X obj 874 219 white~ -clip;
#X obj 907 274 decay~ 100;
#X obj 660 378 out~;
#X obj 660 290 resonators~ -ratio 1 2 2.803 3.871 5.074 7.81 10.948 14.421 -decay 1000 205 1000 196 339 47 58 47 -amp 1 0.044 0.891 0.0891 0.794 0.1 0.281 0.079, f 31;
#X connect 0 0 1 0;
#X connect 1 0 2 0;
#X connect 4 0 3 0;
#X connect 5 0 4 0;
#X connect 6 0 7 0;
#X connect 7 0 8 0;
#X connect 10 0 11 0;
#X connect 11 0 12 0;
#X connect 11 1 13 0;
#X connect 12 0 18 0;
#X connect 13 0 16 0;
#X connect 15 0 14 0;
#X connect 15 0 18 1;
#X connect 16 0 14 1;
#X connect 18 0 17 0;
