#N canvas 396 84 821 577 12;
#X obj 219 395 brown~;
#X obj 286 439 sig~ 0;
#X obj 351 395 brown~;
#X obj 418 439 sig~ 1;
#X obj 376 332 r \$0-step;
#X obj 460 118 hsl 162 19 0 1 0 0 empty empty empty -2 -10 0 12 #dfdfdf #000000 #000000 0 1;
#X floatatom 457 148 10 0 0 0 - - - 0;
#X obj 457 177 s \$0-step;
#X obj 483 395 brown~;
#X obj 615 395 brown~;
#X obj 550 439 sig~ 2;
#X obj 219 276 match~ 0 1 2 3, f 76;
#X obj 219 175 sequencer~ 0 1 2 3;
#X obj 682 439 sig~ 3;
#X obj 98 224 +~;
#X obj 98 377 out~;
#X obj 219 203 -~ 1;
#X obj 219 230 wrap2~ 0 3;
#X obj 564 219 array define \$0-array 4;
#X obj 98 133 pimp~;
#X obj 101 42 hsl 162 19 110 440 1 0 empty empty empty -2 -10 0 12 #dfdfdf #000000 #000000 0 1;
#X obj 98 101 *~ 4;
#X obj 98 74 sig~ 110;
#X text 237 147 nw counter object;
#X text 432 26 no such array '0-1003-array' ERROR;
#X obj 219 474 tabwriter~ -index \$0-array, f 10;
#X obj 351 474 tabwriter~ -index \$0-array, f 10;
#X obj 483 474 tabwriter~ -index \$0-array, f 10;
#X obj 615 474 tabwriter~ -index \$0-array, f 10;
#X obj 98 277 tabreader~ -lin -index -loop \$0-array, f 10;
#X connect 0 0 25 0;
#X connect 1 0 25 1;
#X connect 2 0 26 0;
#X connect 3 0 26 1;
#X connect 4 0 0 0;
#X connect 4 0 2 0;
#X connect 4 0 9 0;
#X connect 4 0 8 0;
#X connect 5 0 6 0;
#X connect 6 0 7 0;
#X connect 8 0 27 0;
#X connect 9 0 28 0;
#X connect 10 0 27 1;
#X connect 11 0 0 0;
#X connect 11 1 2 0;
#X connect 11 2 8 0;
#X connect 11 3 9 0;
#X connect 12 0 14 1;
#X connect 12 0 16 0;
#X connect 13 0 28 1;
#X connect 14 0 29 0;
#X connect 16 0 17 0;
#X connect 17 0 11 0;
#X connect 19 0 14 0;
#X connect 19 1 12 0;
#X connect 20 0 22 0;
#X connect 21 0 19 0;
#X connect 22 0 21 0;
#X connect 29 0 15 0;
