#N canvas 463 103 784 559 12;
#X obj 465 287 hsl 162 19 0 1 0 1 empty empty empty -2 -10 0 12 #dfdfdf #000000 #000000 4700 1;
#X floatatom 462 317 10 0 0 0 - - - 0;
#X obj 219 346 match~ 0 1 2 3, f 15;
#X obj 219 195 sequencer~ 0 1 2 3;
#X obj 98 244 +~;
#X obj 98 397 out~;
#X obj 523 176 array define \$0-array 4;
#X obj 98 297 tabreader~ -lin -index -loop \$0-array, f 10;
#X obj 219 230 +~ 1;
#X obj 219 375 snake~ in 4;
#X obj 462 346 s \$0-step-a;
#X obj 219 422 clone -di tabwriting 4 \$0;
#X obj 219 264 wrap2~ 0 4;
#X obj 236 304 fexpr~ i_\$0 = $x1;
#X obj 617 229 v i_\$0;
#X obj 98 153 pimp~;
#X obj 466 388 hsl 162 19 0 1 0 1 empty empty empty -2 -10 0 12 #dfdfdf #000000 #000000 4700 1;
#X floatatom 463 418 10 0 0 0 - - - 0;
#X obj 463 448 s \$0-step-f;
#X text 220 165 new counter object?;
#X obj 524 203 array define hz_\$0 4;
#X obj 37 177 print~;
#X obj 37 115 bng 19 250 50 0 empty empty empty 0 -10 0 12 #fcfcfc #000000 #000000;
#X obj 98 113 fexpr~ hz_\$0[i_\$0];
#X obj 326 249 s~ x;
#X obj 99 76 r~ x;
#X connect 0 0 1 0;
#X connect 1 0 10 0;
#X connect 2 0 9 0;
#X connect 2 1 9 1;
#X connect 2 2 9 2;
#X connect 2 3 9 3;
#X connect 3 0 4 1;
#X connect 3 0 8 0;
#X connect 4 0 7 0;
#X connect 7 0 5 0;
#X connect 8 0 12 0;
#X connect 9 0 11 0;
#X connect 12 0 2 0;
#X connect 12 0 13 0;
#X connect 12 0 24 0;
#X connect 15 0 4 0;
#X connect 15 1 3 0;
#X connect 16 0 17 0;
#X connect 17 0 18 0;
#X connect 22 0 21 0;
#X connect 23 0 15 0;
#X connect 23 0 21 0;
