#N canvas 4 23 1126 659 12;
#X text 88 33 extra;
#X text 60 249 - vis 0/1 to close/open the window;
#X msg 519 132 vis \$1;
#X text 60 219 - to send messages to any pd patch \, use the variable
pd-[patch-name];
#X obj 519 112 tgl 15 0 empty empty empty 17 7 0 10 -262144 -1 -1 0
1;
#X text 516 527 (to send messages to the subpatch "graphic" \, use
the variable pd-graphic);
#X text 539 108 open/close patch window;
#X msg 529 162 clear;
#X text 579 161 erase all contents of the patch (careful);
#X obj 539 192 tgl 15 0 empty empty empty 17 7 0 10 -262144 -1 -1 0
1;
#X msg 539 212 dirty \$1;
#X msg 559 262 donecanvasdialog \$1 \$2 \$3 \$4 \$5 \$6 \$7 \$8 \$9
\$10 \$11;
#X obj 51 103 cnv 20 280 30 empty empty Control.the.painting.subpatch
10 15 0 15 -228856 -33289 0;
#X text 589 369 or coords \, a simpler version;
#X msg 589 392 coords \$1 \$2 \$3 \$4 \$5 \$6 \$7 \$8 \$9;
#X text 559 239 control your patches' display properties - donecanvasdialog
;
#X text 59 380 Notice: donecanvasdialog makes your patch dirty \, while
coords doesn't.;
#X text 60 329 - donecanvasdialog or coords to change the canvas display
properties;
#X text 569 282 \$1 \$2 - X units \, Y units;
#X text 569 322 \$4-\$7 - X range-from \, Y range-from \, X range-to
\, Y range to;
#X text 569 342 \$8-\$11 - X size \, Y size \, X margin \, Y margin
;
#X text 599 412 \$1-\$4 - X range-from \, Y range-from \, X range-to
\, Y range to;
#X text 599 472 \$8 \$9 - X margin \, Y margin;
#X text 599 432 \$5 \$6 - X size \, Y size;
#X text 60 269 - clear to erase all contents of the canvas;
#X text 60 149 You can control the display by setting the canvas properties
\, be it with GOP or not. To control your painting subpatch \, some
of Pd's internal message commands to subpatches are quite useful:;
#X text 60 289 - dirty 0/1 to remove the save tag (this is useful for
dynamic patching);
#X text 60 459 More informations about Pd's internal messages are in
[Pd]/doc/manuals/pd-msg/.;
#X text 559 188 add/remove your patch's dirty marker;
#X text 569 302 \$3 - GOP settings (0 \, 1 \, 2);
#X text 599 452 \$7 - GOP settings (0 \, 1 \, 2);
#X obj 519 502 s pd-\$0-graphic;
#X connect 2 0 31 0;
#X connect 4 0 2 0;
#X connect 7 0 31 0;
#X connect 9 0 10 0;
#X connect 10 0 31 0;
#X connect 11 0 31 0;
#X connect 14 0 31 0;
