#N canvas 305 23 801 529 12;
#X obj 496 126 impulse~ 300;
#X text 554 103 Hz;
#X obj 271 152 nbx 5 14 1 100 0 1 empty empty empty 0 -8 0 10 -228856
-1 -1 100 256;
#X obj 190 229 cnv 15 198 138 empty empty empty 20 12 0 14 -228856
-66577 0;
#N canvas 0 22 474 324 (subpatch) 0;
#X array impulso 4099 float 0;
#X coords 0 1 4098 -1 200 140 1;
#X restore 189 228 graph;
#X text 172 226 1;
#X text 167 351 -1;
#X obj 54 230 nbx 5 14 -1e+37 1e+37 0 1 empty empty empty 0 -8 0 10
-228856 -1 -1 79 256;
#X obj 54 258 tabosc4~ impulso;
#X obj 54 291 out~;
#X obj 512 164 out~;
#X obj 496 234 graph~;
#X obj 496 103 nbx 5 14 -1e+37 1e+37 0 0 empty empty empty 0 -8 0 10
-228856 -1 -1 0 256;
#X obj 695 419 setdsp~ 1;
#X obj 605 440 impseq~;
#X obj 605 479 dac~;
#X obj 605 413 bng 18 250 50 0 empty empty empty 17 7 0 10 -228856
-1 -1;
#X text 32 21 Not a surprise \, but here's another waveform you can
generate with a sum of partials \, but that you'd need an infinite
sum to generate a perfect waveform., f 52;
#X text 32 72 In the case of impulses \, all partials need to have
the same amplitude \, and this means that an impulse contains all frequencies
equally distributed. See [pd impulse] for more., f 52;
#X text 54 149 enter the number of harmonics:;
#N canvas 378 65 550 476 Impulse 0;
#X obj 98 67 inlet;
#X floatatom 98 101 5 0 0 0 - - -, f 5;
#X obj 113 213 list prepend;
#X obj 98 129 trigger float bang;
#X msg 98 362 normalize 1;
#X obj 98 333 trigger bang anything;
#X msg 113 184 1;
#X obj 221 394 send impulso;
#X obj 207 219 list;
#X obj 98 241 list;
#X obj 98 280 list prepend sinesum 4096;
#X obj 97 306 list trim;
#X obj 75 157 loop;
#X text 220 183 Impulse: all partials are equal to 1!;
#X connect 0 0 1 0;
#X connect 1 0 3 0;
#X connect 2 0 8 0;
#X connect 2 0 9 1;
#X connect 3 0 12 0;
#X connect 3 1 2 1;
#X connect 4 0 7 0;
#X connect 5 0 4 0;
#X connect 5 1 7 0;
#X connect 6 0 2 0;
#X connect 8 0 2 1;
#X connect 9 0 10 0;
#X connect 10 0 11 0;
#X connect 11 0 5 0;
#X connect 12 0 6 0;
#X connect 12 1 9 0;
#X restore 271 182 pd Impulse;
#X text 50 403 A perfect impulse occurs when we have only one single
sample with a value other than 0 (usually 1). This type of signal is
widely used as a type of trigger \, sort of like a "bang" \, but with
audio rate timing resolution., f 73;
#X text 50 455 The [impseq~] external from ELSE generates a sequence
of impulses. By default \, it generates an impulse with an amplitude
of 1 \, and we can use bangs to generate it., f 73;
#X text 421 27 The [impulse~] (or [imp~] for short) object from ELSE
is an impulse oscillator that generated a single sample with a value
of 1 at the beggining of each period., f 49;
#X connect 0 0 10 0;
#X connect 0 0 10 1;
#X connect 0 0 11 0;
#X connect 2 0 20 0;
#X connect 7 0 8 0;
#X connect 8 0 9 0;
#X connect 8 0 9 1;
#X connect 12 0 0 0;
#X connect 14 0 15 1;
#X connect 14 0 15 0;
#X connect 16 0 14 0;
