#N canvas 390 45 725 700 12;
#X declare -path else;
#X obj 189 21 declare -path else;
#X obj 114 381 *~;
#X obj 114 424 out~;
#X obj 70 336 brown~;
#X obj 276 365 tgl 19 0 empty empty empty 0 -10 0 12 #dfdfdf #000000 #000000 0 1;
#X obj 162 367 numbox~ 6 12 100 #C0C0C4 #440008 10 0 0 0;
#X text 264 395 status;
#X obj 132 335 adsr~ 0 0 0 2000, f 21;
#X obj 132 301 float2imp~;
#X obj 132 270 bng 21 250 50 0 empty empty empty 0 -10 0 12 #dfdfdf #000000 #000000;
#X text 23 63 The [adsr~] object has an attack \, a decay \, a sustain point and release stage. It has even more features and is quite more comples and versatile than [asr~] (which can be considered a simplified version of it). We can just use the 'release' phase of it and it'll be the same as the last example with [asr~]. But note that this will only worl for impulses \, not gates. The arguments set the attack \, decay \, sustain point and release parameters. Below \, we just have a release parameter \, so an impulse goes straigth to it., f 46;
#X obj 452 218 *~;
#X obj 470 98 bng 21 250 50 0 empty empty empty 17 7 0 10 #dcdcdc #000000 #000000;
#X obj 452 253 out~;
#X obj 470 134 float2imp~;
#X obj 398 162 brown~;
#X floatatom 607 122 5 0 0 0 - - - 0;
#X obj 500 204 numbox~ 6 12 100 #C0C0C4 #440008 10 0 0 0;
#X text 598 96 'Decay';
#X obj 470 172 adsr~ -lag 0 2000 0 2000;
#X obj 422 99 sig~;
#X obj 422 66 tgl 19 0 empty empty empty 0 -10 0 12 #dfdfdf #000000 #000000 0 1;
#X obj 457 586 *~;
#X obj 475 466 bng 21 250 50 0 empty empty empty 17 7 0 10 #dcdcdc #000000 #000000;
#X obj 457 621 out~;
#X obj 475 502 float2imp~;
#X obj 403 530 brown~;
#X floatatom 582 500 5 0 0 0 - - - 0;
#X obj 505 572 numbox~ 6 12 100 #C0C0C4 #440008 10 0 0 0;
#X text 573 474 'Decay';
#X obj 427 467 sig~;
#X obj 427 434 tgl 19 0 empty empty empty 0 -10 0 12 #dfdfdf #000000 #000000 0 1;
#X obj 475 540 adsr~ -minsus 0 -lag 0 2000 0 0;
#X text 43 502 Nonetheless \, there's a way to make [adsr~] work with gates as well as impulses. We just need to set the decay time the same as the release time. The sustain point must remain zero \, then a fixed gate on value just dies away and goes to a null sustain value. This way \, if you also turn of the gate before the decay stage \, it moves to the release stage and continues to die away. Check on the example to the right on the top how both an impulse and/or a gate will just work., f 42;
#X text 382 19 Note that like [asr~] \, [adsr~] also has curve parameters and a lag mode., f 41;
#X text 368 330 There's a way to just work with gates and ignore the release stage. You have to set a minimum sustain period of 0 (default is -1). This way it will always reach the sustain point \, no matter what \, check the help file for more details)., f 44;
#X connect 1 0 2 0;
#X connect 3 0 1 0;
#X connect 7 0 1 1;
#X connect 7 0 5 0;
#X connect 7 1 4 0;
#X connect 8 0 7 0;
#X connect 9 0 8 0;
#X connect 11 0 13 0;
#X connect 12 0 14 0;
#X connect 14 0 19 0;
#X connect 15 0 11 0;
#X connect 16 0 19 5;
#X connect 16 0 19 3;
#X connect 19 0 11 1;
#X connect 19 0 17 0;
#X connect 20 0 19 0;
#X connect 21 0 20 0;
#X connect 22 0 24 0;
#X connect 23 0 25 0;
#X connect 25 0 32 0;
#X connect 26 0 22 0;
#X connect 27 0 32 3;
#X connect 30 0 32 0;
#X connect 31 0 30 0;
#X connect 32 0 22 1;
#X connect 32 0 28 0;
