#N canvas 473 55 653 662 12;
#X declare -path else;
#X obj 73 550 *~;
#X obj 27 510 bl.saw~;
#X obj 73 582 out~;
#X obj 471 232 declare -path else;
#X obj 27 142 keyboard 17 80 5 2 0 0 empty empty;
#X obj 27 240 mono, f 16;
#X obj 172 451 keytrack;
#X obj 27 480 mtof;
#X floatatom 172 478 9 0 0 0 - - - 0;
#X text 68 24 We'll get back to keyboard tracking later in this tutorial. But \, for now \, let's introduce [keytrack] \, which expands on the idea of the last patch. In this example we use the ratio output as a multiplier for the envelope. This way we can shape the sound according to the pitch input. By default \, we have 60 as the reference point and a keyboard tracking amount of 100% \, but we have many shaping options., f 73;
#X obj 256 444 knob 69 0 200 0 100 empty empty #dfdfdf #7c7c7c #000000 1 0 0 0 1 320 0 0 0 empty empty 0 12 0 -15 0 1 0 0 1 0;
#X obj 91 503 asr~ 500 500;
#X floatatom 256 520 6 0 0 0 - - - 0;
#X msg 151 281 ref 48 72;
#X msg 172 303 ref 60;
#X text 228 278 You can change the reference point. Note that 2 values set a region where the output is 1!, f 35;
#X text 253 422 amount (%);
#X obj 497 422 keytrack~;
#X msg 212 387 exp 1.5;
#X msg 191 340 exp 2;
#X msg 198 364 exp -2;
#X text 274 337 You can also set exponential factors. By default we have '0' (which linear and so is '1'). Negative values flips it vertically., f 43;
#X text 377 412 There is also a signal version., f 15;
#X text 362 472 And there's also a variant that lets you set different amount and exponential values below and above the reference point(s). Check the help file of all these objects as they are rather complex and. Take some time to study them., f 34;
#X obj 391 601 keytrack2;
#X obj 478 601 keytrack2~;
#X connect 0 0 2 0;
#X connect 1 0 0 0;
#X connect 4 0 5 0;
#X connect 5 0 7 0;
#X connect 5 0 6 0;
#X connect 5 1 11 0;
#X connect 6 0 8 0;
#X connect 7 0 1 0;
#X connect 8 0 11 3;
#X connect 10 0 6 1;
#X connect 10 0 12 0;
#X connect 11 0 0 1;
#X connect 13 0 6 0;
#X connect 14 0 6 0;
#X connect 18 0 6 0;
#X connect 19 0 6 0;
#X connect 20 0 6 0;
