#N canvas 488 49 557 628 12;
#X declare -lib else;
#X obj 224 148 sqrt;
#X msg 224 125 2;
#X msg 186 146 2;
#X obj 224 241 nbx 5 18 -1e+37 1e+37 0 0 empty empty Cents 68 10 0
12 -228856 -1 -1 0 256;
#X text 95 402 Cents;
#X obj 136 375 ratio2cents;
#X obj 136 430 cents2ratio;
#X obj 136 398 display;
#X obj 136 453 display;
#X obj 136 347 nbx 5 18 -1e+37 1e+37 0 0 empty empty empty 68 10 0
12 -228856 -1 -1 0 256;
#X obj 319 399 display;
#X obj 319 454 display;
#X obj 319 348 nbx 5 18 -1e+37 1e+37 0 0 empty empty empty 68 10 0
12 -228856 -1 -1 0 256;
#X text 279 348 Cents;
#X text 279 458 Cents;
#X obj 319 376 cents2ratio;
#X obj 319 431 ratio2cents;
#X text 51 49 1 Cent is a subdivision of the semitone in 100 equal
parts. an octave has then 1200 cents! The formula to get the cents
from an interval ratio is the same as the previous one to get the number
of semitones \, but you multiply it by 1200 instead of 12!, f 65;
#X text 254 124 tritone;
#X text 140 147 octave;
#X text 93 346 Ratio;
#X text 91 457 Ratio;
#X text 279 401 Ratio;
#X obj 224 176 log 2;
#X obj 224 205 * 1200;
#X obj 364 13 declare -lib else;
#X text 76 286 The ELSE library has objects that convert to and back
from cents \, they are: [ratio2cents] and [cents2ratio]., f 55;
#X text 68 516 Musical intervals in cents are clearly related to the
equal temperament system \, where we can then compare musical intervals
to our 12 tone system. To get the value in cents from the 12 equal
temperament intervals \, just multiply the number of semitones to 100
- for example \, a major sixth has 9 semintones \, therefore: 900 cents.
, f 63;
#X connect 0 0 23 0;
#X connect 1 0 0 0;
#X connect 2 0 23 0;
#X connect 5 0 7 0;
#X connect 6 0 8 0;
#X connect 7 0 6 0;
#X connect 9 0 5 0;
#X connect 10 0 16 0;
#X connect 12 0 15 0;
#X connect 15 0 10 0;
#X connect 16 0 11 0;
#X connect 23 0 24 0;
#X connect 24 0 3 0;
