#N canvas 278 23 885 739 12;
#X declare -lib else;
#X obj 109 643 ftom;
#X obj 139 609 nbx 5 14 -1e+37 1e+37 0 0 empty empty Hz 18 -6 0 10
-228856 -1 -1 0 256;
#X text 159 641 =;
#X obj 109 684 nbx 5 14 -1e+37 1e+37 0 0 empty empty MIDI 18 -6 0 10
-228856 -1 -1 0 256;
#X obj 250 147 nbx 5 14 0 127 0 0 empty empty MIDI 60 7 0 10 -228856
-1 -1 0 256;
#X obj 250 169 mtof;
#X obj 250 194 nbx 5 14 -1e+37 1e+37 0 0 empty empty Hz 60 7 0 10 -228856
-1 -1 0 256;
#X msg 250 94 60;
#X msg 270 119 69;
#X obj 180 487 + 69;
#X obj 180 457 nbx 5 14 -1e+37 1e+37 0 0 empty empty empty 0 -8 0 10
-228856 -1 -1 0 256;
#X obj 180 515 nbx 5 14 -1e+37 1e+37 0 0 empty empty empty 0 -8 0 10
-228856 -1 -1 0 256;
#X obj 180 376 / 440;
#X obj 180 351 nbx 5 14 20 1e+37 0 0 empty empty empty 0 -8 0 10 -228856
-1 -1 20 256;
#X obj 191 683 nbx 5 14 -1e+37 1e+37 0 0 empty empty MIDI 18 -6 0 10
-228856 -1 -1 0 256;
#X obj 595 128 nbx 5 14 -1e+37 1e+37 0 0 empty empty MIDI 60 7 0 10
-228856 -1 -1 0 256;
#X obj 499 157 mtof;
#X obj 499 192 nbx 5 14 -1e+37 1e+37 0 0 empty empty Hz 60 7 0 10 -228856
-1 -1 0 256;
#X text 564 158 =;
#X obj 595 191 nbx 5 14 -1e+37 1e+37 0 0 empty empty Hz 60 7 0 10 -228856
-1 -1 0 256;
#X obj 605 519 mtof;
#X obj 605 549 osc~;
#X obj 210 274 cnv 13 197 13 empty empty empty 20 12 0 14 -228856 -66577
0;
#X obj 605 594 out~;
#X obj 605 495 nbx 5 14 -1e+37 1e+37 0 0 empty empty empty 18 -6 0
10 -228856 -1 -1 60 256;
#X text 278 94 Middle C;
#X text 298 120 Middle A;
#X text 237 350 Frequency in Hertz;
#X text 243 515 MIDI Pitch;
#X text 227 376 Interval ratio to middle A;
#X text 42 555 This is the opposite conversion from [mtof] \, and we
also have a native object for that - [ftom].;
#X text 485 81 If we invert the formula \, we get the [mtof] expression:
, f 28;
#X obj 191 642 expr 12 * log($f1/440)/log(2) + 69;
#X obj 595 159 expr pow(2 \, ($f1 - 69)/12) * 440;
#X obj 645 468 nbx 5 14 -1e+37 1e+37 0 0 empty midi empty 0 -8 0 10
-228856 -1 -1 0 256;
#X obj 605 441 / 100;
#X obj 605 422 nbx 7 14 -1200 1200 0 0 empty cents empty 0 -8 0 10
-228856 -1 -1 0 256;
#X text 561 420 Cents;
#X obj 608 400 hsl 128 15 0 1200 0 0 empty empty empty -2 -8 0 10 -228856
-1 -1 0 1;
#X obj 605 467 + 60;
#X text 702 467 MIDI pitch;
#X text 671 494 MIDI & MIDI-Cents;
#X text 210 270 semitones = 12 * Log2(ratio);
#X text 35 221 Now let's try to convert frequency to MIDI pitch \,
we can start with the conversion from interval ratio to semitones given
before \, where:, f 53;
#X text 453 322 Below we have a MIDI pitch value added to an interval
in cents. To adapt the cents value to MIDI cents \, we just need to
divide it by 100!, f 57;
#X text 35 17 The MIDI protocol has data with 7 bits. This gives us
integer values from 0 to 127 \, so MIDI pitch is in that range. In
MIDI pitch \, the number 60 represents middle C. The native object
[mtof] ("MIDI to Frequency") converts MIDI pitch data to hertz., f
56;
#X text 35 305 Now we need a reference point \, like middle A (440Hz).
So any frequency input becomes an interval ratio to 440Hz., f 53;
#X text 453 240 MIDI data is only about integer values from 0 to 127
\, but in Pd we have more resolution with floats. Therefore \, we can
have a finer resolution after the decimal point. You can also consider
this extra resolution as "MIDI-Cents" \, where 0.01 is equal to one
cent!, f 57;
#X text 238 449 semitones difference to middle A, f 20;
#X text 217 487 sum to middle A in MIDI;
#X obj 180 403 log 2;
#X obj 180 429 * 12;
#X obj 700 31 declare -lib else;
#X connect 0 0 3 0;
#X connect 1 0 0 0;
#X connect 1 0 32 0;
#X connect 4 0 5 0;
#X connect 5 0 6 0;
#X connect 7 0 4 0;
#X connect 8 0 4 0;
#X connect 9 0 11 0;
#X connect 10 0 9 0;
#X connect 12 0 50 0;
#X connect 13 0 12 0;
#X connect 15 0 16 0;
#X connect 15 0 33 0;
#X connect 16 0 17 0;
#X connect 20 0 21 0;
#X connect 21 0 23 0;
#X connect 24 0 20 0;
#X connect 32 0 14 0;
#X connect 33 0 19 0;
#X connect 34 0 39 1;
#X connect 35 0 39 0;
#X connect 36 0 35 0;
#X connect 38 0 36 0;
#X connect 39 0 24 0;
#X connect 50 0 51 0;
#X connect 51 0 10 0;
