#N canvas 306 69 900 438 12;
#X obj 132 270 r~ \$0-sample1;
#X obj 251 269 r~ \$0-sample2;
#X obj 702 240 r~ \$0-sample2;
#X obj 544 240 r~ \$0-sample1;
#N canvas 241 55 506 402 load-samples 0;
#X obj 88 325 s~ \$0-sample1;
#X obj 88 36 inlet;
#X msg 88 258 open ../../../../samples/\$1.wav;
#X obj 88 293 sampler~ -loop;
#X msg 225 148 open ../../../../samples/\$1.wav;
#X obj 225 183 sampler~ -loop;
#X obj 225 215 s~ \$0-sample2;
#X obj 88 74 unpack symbol symbol;
#X connect 1 0 7 0;
#X connect 2 0 3 0;
#X connect 3 0 0 0;
#X connect 4 0 5 0;
#X connect 5 0 6 0;
#X connect 7 0 2 0;
#X connect 7 1 4 0;
#X restore 82 196 pd load-samples;
#X obj 286 90 hradio 15 1 0 8 empty \$0-size empty 0 -8 0 10 -228856
-1 -1 4;
#X obj 286 138 nbx 5 14 64 1e+37 0 0 \$0-w_size \$0-w_size-set empty
0 -8 0 10 -228856 -1 -1 2048 256;
#N canvas 550 30 347 301 Window 0;
#X obj 111 176 s \$0-set-block;
#X obj 79 86 t b f;
#X obj 111 122 v w_size_\$0;
#X obj 79 42 inlet;
#X msg 111 149 set \$1 4;
#X obj 226 116 initmess \; \$0-size 4;
#X connect 1 0 2 0;
#X connect 1 1 2 0;
#X connect 2 0 4 0;
#X connect 3 0 1 0;
#X connect 4 0 0 0;
#X coords 0 0 1 1 120 60 0;
#X restore 286 160 pd Window;
#X obj 286 113 expr pow(2 \, $f1 + 7);
#X obj 251 313 out~;
#X text 346 136 window size;
#X obj 544 326 out~;
#N canvas 377 23 795 584 Circular-Convolutoin 0;
#X obj 54 56 inlet~;
#X obj 142 56 inlet~;
#X text 50 32 Sample 1;
#X text 133 29 Sample 2;
#X obj 99 487 outlet~;
#X obj 54 160 rfft~;
#X obj 142 160 rfft~;
#X obj 91 256 *~;
#X obj 144 255 +~;
#X obj 99 346 rifft~;
#X text 404 201 Re = (Re1 * Re2) - (Im1 * Im2) \; Im = (Im1 * Re2)
+ (Re1 * Im2);
#X obj 184 323 r \$0-set-block;
#X obj 184 350 block~;
#X obj 54 203 car2pol~;
#X obj 91 300 pol2car~;
#X obj 54 110 hann~;
#X obj 142 114 hann~;
#X obj 99 391 hann~;
#X obj 142 203 car2pol~;
#X obj 499 328 expr~ ($v1 * $v3) - ($v2 * $v4) \; ($v2 * $v3) + ($v1
* $v4);
#X obj 499 280 rfft~;
#X obj 646 280 rfft~;
#X obj 585 404 rifft~;
#X obj 155 438 expr 1 / ($f1 * 1.5);
#X obj 99 438 *~;
#X obj 155 411 blocksize~;
#X text 320 89 The properties of complex math says that a multiplication
is done in the polar form by multiplying the amplitudes and suming
the phases.;
#X obj 347 343 *~;
#X obj 379 343 *~;
#X obj 347 370 -~;
#X obj 412 343 *~;
#X obj 444 343 *~;
#X obj 426 375 +~;
#X obj 347 276 rfft~;
#X obj 430 273 rfft~;
#X obj 387 414 rifft~;
#X text 320 149 Let's remember how the complex multiplication works
in the cartesian form \, here's the formula below and how to implement
with native Pd objects:;
#X connect 0 0 15 0;
#X connect 1 0 16 0;
#X connect 5 0 13 0;
#X connect 5 1 13 1;
#X connect 6 0 18 0;
#X connect 6 1 18 1;
#X connect 7 0 14 0;
#X connect 8 0 14 1;
#X connect 9 0 17 0;
#X connect 11 0 12 0;
#X connect 13 0 7 0;
#X connect 13 1 8 0;
#X connect 14 0 9 0;
#X connect 14 1 9 1;
#X connect 15 0 5 0;
#X connect 16 0 6 0;
#X connect 17 0 24 0;
#X connect 18 0 7 1;
#X connect 18 1 8 1;
#X connect 19 0 22 0;
#X connect 19 1 22 1;
#X connect 20 0 19 0;
#X connect 20 1 19 1;
#X connect 21 0 19 2;
#X connect 21 1 19 3;
#X connect 23 0 24 1;
#X connect 24 0 4 0;
#X connect 25 0 23 0;
#X connect 27 0 29 0;
#X connect 28 0 29 1;
#X connect 29 0 35 0;
#X connect 30 0 32 0;
#X connect 31 0 32 1;
#X connect 32 0 35 1;
#X connect 33 0 27 0;
#X connect 33 0 31 0;
#X connect 33 1 28 0;
#X connect 33 1 30 0;
#X connect 34 0 27 1;
#X connect 34 0 30 1;
#X connect 34 1 31 1;
#X connect 34 1 28 1;
#X restore 544 283 pd Circular-Convolutoin;
#X obj 56 37 loadbang;
#X msg 56 66 list bubul Mouthbow;
#X msg 82 91 list bubul numbers;
#X msg 101 117 list kantele MouthBow;
#X msg 116 145 list kantele numbers;
#X text 480 48 The convolution operation is a complex multiplication
of two FFT analysis. As any other multiplication \, this is a commutative
operation. That is \, it doesn't matter if you're convolution A with
B or B with A \, it's the same output., f 54;
#X text 480 127 Here we have an example of a circular convolution \,
we'll see the linear example next. The result of this example is a
hybrid that combines both amplitude and phase information. Open the
subpatch below., f 54;
#X obj 89 309 out~;
#X connect 0 0 20 0;
#X connect 0 0 20 1;
#X connect 1 0 9 0;
#X connect 1 0 9 1;
#X connect 2 0 12 1;
#X connect 3 0 12 0;
#X connect 5 0 8 0;
#X connect 6 0 7 0;
#X connect 8 0 6 0;
#X connect 12 0 11 0;
#X connect 12 0 11 1;
#X connect 13 0 14 0;
#X connect 14 0 4 0;
#X connect 15 0 4 0;
#X connect 16 0 4 0;
#X connect 17 0 4 0;
