#N struct 1008-point float x0 float y0 float xs float ys float fg float in float gridx float gridy;
#N canvas 531 52 643 658 12;
#X obj 222 52 slider2d 127 127 -1 1 1 -1 1 240 240 240 0 0 0 1 0 0 0.826772 0.700787 empty empty;
#X listbox 222 197 20 0 0 0 - - - 0;
#X floatatom 222 329 7 0 0 0 - - - 0;
#X obj 250 500 xfade~ -lin;
#X obj 287 455 xfade~ -lin;
#X obj 75 435 xfade~ -lin;
#X obj 428 464 f2s~ 20;
#X obj 222 394 f2s~ 20;
#X obj 250 535 outlet~;
#X obj 222 273 knob 50 -1 1 0 0 empty empty #dfdfdf #7c7c7c black 1 0 0 0 1 320 0 0 0;
#X floatatom 428 329 7 0 0 0 - - - 0;
#X text 205 50 1;
#X text 351 52 2;
#X text 205 163 3;
#X text 351 161 4;
#X obj 75 355 wt~ \$0-t1 220;
#X obj 112 388 wt~ \$0-t2 220;
#X obj 287 336 wt~ \$0-t3 220;
#X obj 324 376 wt~ \$0-t4 220;
#X text 282 291 X axis;
#X text 489 288 Y axis;
#X obj 428 273 knob 50 -1 1 0 0 empty empty #dfdfdf #7c7c7c black 1 0 0 0 1 320 0 0 0;
#X obj 222 232 unpack float float;
#X connect 0 0 1 0;
#X connect 1 0 22 0;
#X connect 2 0 7 0;
#X connect 3 0 8 0;
#X connect 4 0 3 1;
#X connect 5 0 3 0;
#X connect 6 0 3 2;
#X connect 7 0 5 2;
#X connect 7 0 4 2;
#X connect 9 0 2 0;
#X connect 10 0 6 0;
#X connect 15 0 5 0;
#X connect 16 0 5 1;
#X connect 17 0 4 0;
#X connect 18 0 4 1;
#X connect 21 0 10 0;
#X connect 22 0 9 0;
#X connect 22 1 21 0;
