#N struct 1027-point float x0 float y0 float xs float ys float fg float in float gridx float gridy;
#N canvas 211 80 1079 574 12;
#X obj 424 212 unpack f f;
#X obj 131 377 xfade~ -lin;
#X obj 424 247 f2s~ 20;
#X obj 491 247 f2s~ 20;
#X obj 271 377 xfade~ -lin;
#X obj 131 181 wt~ \$0-t1 220;
#X obj 18 194 wt~ \$0-t2 220;
#X obj 271 181 wt~ \$0-t3 220;
#X obj 308 240 wt~ \$0-t4 220;
#X obj 424 32 slider2d 127 127 -1 1 -1 1 1 255 255 255 0 0 0 0 0 0 -1 1 empty empty;
#X listbox 424 174 20 0 0 0 - - - 0;
#X text 397 143 1;
#X text 564 143 2;
#X text 402 29 3;
#X text 561 32 4;
#X connect 0 0 2 0;
#X connect 0 1 3 0;
#X connect 2 0 1 2;
#X connect 3 0 4 2;
#X connect 5 0 1 0;
#X connect 5 0 4 0;
#X connect 6 0 1 1;
#X connect 7 0 4 1;
#X connect 9 0 10 0;
#X connect 10 0 0 0;
