#N canvas 224 38 948 618 12;
#X declare -path else;
#X obj 342 312 nbx 5 14 -1e+37 1e+37 0 0 empty empty empty 0 -8 0 10 #dcdcdc #000000 #000000 0 256;
#X obj 344 463 nbx 5 14 -1e+37 1e+37 0 0 empty empty empty 0 -8 0 10 #dcdcdc #000000 #000000 0 256;
#X obj 107 447 delwrite~ \$0-del 3000;
#X obj 342 342 delread~ \$0-del 500;
#X obj 344 493 delread~ \$0-del 1500;
#X obj 86 482 out~;
#X obj 342 378 out~;
#X obj 344 529 out~;
#X obj 728 43 declare -path else;
#X text 25 27 The "delay" is the basis of many processes and FX as we'll see throughout this tutorial \, such as flanger \, chorus \, echo/reverberation effects and pitch shifters. And we'll also see how they are the basis of filters., f 73;
#X text 25 76 The native [delwrite~] object creates a "ring buffer" \, which is a buffer to continuously record to. Let's take the analog example of a magnetic tape delay \, which has the in a closed loop. This way \, when you record one cycle of the whole length of the tape you start recording again from the beginning. Then \, one head was used to write and another to read at a different length point (the further back \, the bigger the delay)., f 73;
#X text 25 169 In the digital world it's the same. It records into a buffer/array and restarts recording to the beginning of the buffer in a loop. The [delwrite~] object is the write head and the [delread~] is the read head that can access the buffer at different lengths behind (set in ms with the second argument or inlet). Multiple [delread~] objects can read from the same line defined in [delwrite~] \, they only need to have the same delay line name. Check their help files for more information., f 73;
#X obj 86 402 play.file~ bubul.mp3 1 1;
#X obj 637 256 play.file~ stereo.wav 1 1;
#X obj 637 290 snake~ in 2;
#X obj 679 479 delread~ \$0-mc 1000;
#X floatatom 679 447 5 0 0 0 - - - 0;
#X obj 679 516 out.mc~;
#X obj 655 329 delwrite~ \$0-mc 1000 2;
#X text 579 80 The delay objects work with multichannel connections. Check the help file for more details. By feeding a stereo connection to the delay line we can read both channels with [delread~] (as well as with [delread4~] that we'll see later)., f 45;
#X obj 637 357 out.mc~;
#X text 577 180 By the way \, this stereo file was created with a multi tap delay line from the next example., f 45;
#X connect 0 0 3 0;
#X connect 1 0 4 0;
#X connect 3 0 6 0;
#X connect 4 0 7 0;
#X connect 12 0 2 0;
#X connect 12 0 5 0;
#X connect 13 0 14 0;
#X connect 13 1 14 1;
#X connect 14 0 18 0;
#X connect 14 0 20 0;
#X connect 15 0 17 0;
#X connect 16 0 15 0;
