#N canvas 258 117 1024 676 12;
#X declare -path else;
#X obj 309 308 hsl 128 15 0 1000 0 0 empty empty empty -2 -8 0 10 #dcdcdc #000000 #000000 0 1;
#X floatatom 306 335 0 0 0 0 - - - 0;
#X obj 69 423 out~;
#X obj 306 458 out~;
#X obj 306 425 delread4~ \$0-delay;
#X obj 92 389 delwrite~ \$0-delay 1000;
#X text 59 506 Interpolation:;
#X text 59 530 Since it uses the same interpolation as [tabread4~] \, the [delread4~] object also ignores the first recorded sample \, as it is supposed to be a guard point. In practical terms \, the object's minimum delay is 1 sample (whereas [delread~] can have a minimum delay of 0).;
#X obj 817 134 declare -path else;
#X text 42 139 A signal input allows a smooth and continuous change in the read position. Note however that such changes promote a speed change. Thinking again of a magnetic tape \, for the read head to move from one point to another \, its moving speed is sumed to the normal reading speed of the tape \, hence \, pitch changes!;
#X text 42 238 But when the read head reaches its destination and rests there \, only the reading speed of the tape is acting \, so the original speed is restored. Fool around with the slider below and see how that happens.;
#X text 42 43 The [delread~] object only has control input and does not interpolate \, so it can only read back in a buffer at a specific sample behind. On the other hand \, the native [delread4~] object can read in between samples with the same kind of interpolation used in [tabread4~] (lagrange) and accepts signal inputs., f 59;
#X obj 69 340 play.file~ bubul.mp3 1 1, f 25;
#X obj 306 393 vline~;
#X msg 306 363 \$1 500;
#X obj 594 454 delread4~ \$0-tap-delay;
#X obj 656 302 *~;
#X obj 607 134 bng 40 250 50 0 empty empty empty 17 7 0 10 #dcdcdc #000000 #000000;
#X obj 607 219 t f b;
#X obj 674 224 envgen~ 20 1 10 1 20 0;
#X obj 656 334 delwrite~ \$0-tap-delay 1500;
#X obj 594 419 sig~ 0 150 250 400 600 700 850 1000 1200;
#X obj 594 487 mix~ -gain 1 0.7 0.9 0.8 1 0.7 0.8 0.6 0.9 -pan -1 -1 1 1 -1 -1 1 -1 1, f 42;
#X obj 699 583 out~;
#X obj 607 250 bl.saw~ -midi, f 7;
#X text 617 390 multi tap delay values.;
#X obj 607 189 rand.i 38 60;
#X obj 594 541 stereo.rev~ 0.5 0.25 0.5 0.1;
#X text 524 35 The object can take multichannel inputs and also work as a multichannel tap delay \, so below we implement the same example as before and down mix to a stereo with the [mix~] object and we add a reverb. Check the help file for more details on how multichannels work., f 62;
#X connect 0 0 1 0;
#X connect 1 0 14 0;
#X connect 4 0 3 0;
#X connect 12 0 2 0;
#X connect 12 0 5 0;
#X connect 13 0 4 0;
#X connect 14 0 13 0;
#X connect 15 0 22 0;
#X connect 16 0 20 0;
#X connect 17 0 26 0;
#X connect 18 0 24 0;
#X connect 18 1 19 0;
#X connect 19 0 16 1;
#X connect 21 0 15 0;
#X connect 22 0 27 0;
#X connect 22 1 27 1;
#X connect 24 0 16 0;
#X connect 26 0 18 0;
#X connect 27 0 23 0;
#X connect 27 1 23 1;
