#N canvas 365 23 559 493 12;
#X declare -path else;
#X obj 181 311 *~;
#X obj 122 225 osc~ 440;
#X obj 138 361 out~;
#X obj 374 320 setdsp~ 1;
#X obj 266 332 vsl 15 90 0 1 0 0 empty empty empty 0 -9 0 10 -228856
-1 -1 0 1;
#X obj 199 197 pulse~ 0.5;
#X obj 199 225 display~;
#X obj 266 306 s2f~;
#X obj 199 261 slew~ 1000 500;
#X floatatom 293 202 5 0 0 0 - - -;
#X floatatom 294 228 5 0 0 0 - - -;
#X text 337 201 up;
#X text 340 226 down;
#X text 107 102 The [slew~] objetc is like [glide~]. It generates linear
ramps but offers a different time ramp for both up ("fade in") or down
("fade out")., f 45;
#X obj 315 41 declare -path else;
#X connect 0 0 2 0;
#X connect 0 0 2 1;
#X connect 1 0 0 0;
#X connect 5 0 6 0;
#X connect 6 0 8 0;
#X connect 7 0 4 0;
#X connect 8 0 0 1;
#X connect 8 0 7 0;
#X connect 9 0 8 1;
#X connect 10 0 8 2;
