#N canvas 883 25 560 600 12;
#X declare -path else;
#X obj 282 45 declare -path else;
#X obj 140 218 keyboard 17 80 2 4 0 0 empty empty;
#X obj 139 467 out~;
#X msg 159 383 all size \$1 \, all loop 112128 130067;
#X obj 139 317 voices 6 -list;
#X obj 139 425 clone 6 sampvoice \$0-sample;
#X obj 159 357 sample~ \$0-sample Nose_flute.wav;
#X text 87 115 This example is the same as the previous one \, but
adapted to include [clone] loading an abstraction that holds one voice
of the sampler synth., f 51;
#X text 342 425 <= open to check it out.;
#X connect 1 0 4 0;
#X connect 3 0 5 0;
#X connect 4 0 5 0;
#X connect 5 0 2 0;
#X connect 6 0 3 0;
