#N canvas 549 53 697 522 12;
#N canvas 179 95 483 427 oscillator 0;
#X obj 175 343 outlet~;
#X obj 175 270 sine~;
#X obj 221 200 sig~;
#X obj 263 270 square~;
#X obj 323 270 saw~;
#X obj 221 270 tri~;
#X obj 107 106 vradio 17 1 0 4 ehnjyr etaeg5 empty 0 -8 0 10 -228856
-1 -1 3;
#X obj 107 196 + 1;
#X obj 175 307 xselect~ 4 100 1;
#X text 128 108 Sine;
#X text 128 124 Triangular;
#X text 128 141 Square;
#X text 129 157 Sawtooth;
#X obj 221 34 inlet;
#X obj 250 95 initmess \; \$0-carrier 200 \; \$0-mod 50.5 \; \$0-index
90 \; \$0-menu-set 1;
#X connect 1 0 8 0;
#X connect 2 0 1 0;
#X connect 2 0 3 0;
#X connect 2 0 4 0;
#X connect 2 0 5 0;
#X connect 3 0 8 2;
#X connect 4 0 8 3;
#X connect 5 0 8 1;
#X connect 6 0 7 0;
#X connect 7 0 8 0;
#X connect 8 0 0 0;
#X connect 13 0 2 0;
#X coords 0 -1 1 1 108 80 2 100 100;
#X restore 184 288 pd oscillator;
#X text 266 255 Mod;
#X obj 184 255 nbx 5 20 -1e+37 1e+37 0 0 empty \$0-mod empty 82 9 0
15 -228856 -1 -1 50.5 256;
#X obj 166 431 out~;
#X obj 166 389 *~;
#X obj 356 333 cnv 15 298 138 empty empty empty 20 12 0 14 -228856
-66577 0;
#N canvas 0 22 478 328 (subpatch) 0;
#X array \$0-Spectrum 128 float 0;
#X coords 0 1024 127 0 300 140 1 0 0;
#X restore 355 332 graph;
#X text 447 472 500Hz;
#X text 394 471 250Hz;
#X text 354 471 50Hz;
#X text 502 471 750Hz;
#X text 561 471 1KHz;
#X text 606 472 1.25KHz;
#N canvas 280 227 201 168 plot 0;
#X obj 33 21 inlet~;
#X obj 33 56 rfft~;
#X obj 80 60 block~ 4096;
#X obj 33 135 tabwrite~ \$0-Spectrum;
#X obj 33 94 mag~;
#X obj 75 103 tempo 240 -on;
#X connect 0 0 1 0;
#X connect 1 0 4 0;
#X connect 1 1 4 1;
#X connect 4 0 3 0;
#X connect 5 0 3 0;
#X restore 457 245 pd plot \; spectrum;
#X obj 528 245 out~;
#X obj 528 201 *~;
#N canvas 179 95 483 427 oscillator 0;
#X obj 175 343 outlet~;
#X obj 175 270 sine~;
#X obj 221 200 sig~;
#X obj 263 270 square~;
#X obj 323 270 saw~;
#X obj 221 270 tri~;
#X obj 107 106 vradio 17 1 0 4 ehnjyr etaeg5 empty 0 -8 0 10 -228856
-1 -1 0;
#X obj 107 196 + 1;
#X obj 175 307 xselect~ 4 100 1;
#X text 128 108 Sine;
#X text 128 124 Triangular;
#X text 128 141 Square;
#X text 129 157 Sawtooth;
#X obj 221 34 inlet;
#X obj 250 95 initmess \; \$0-carrier 200 \; \$0-mod 50.5 \; \$0-index
90 \; \$0-menu-set 1;
#X connect 1 0 8 0;
#X connect 2 0 1 0;
#X connect 2 0 3 0;
#X connect 2 0 4 0;
#X connect 2 0 5 0;
#X connect 3 0 8 2;
#X connect 4 0 8 3;
#X connect 5 0 8 1;
#X connect 6 0 7 0;
#X connect 7 0 8 0;
#X connect 8 0 0 0;
#X connect 13 0 2 0;
#X coords 0 -1 1 1 108 80 2 100 100;
#X restore 405 86 pd oscillator;
#X obj 405 53 nbx 5 20 -1e+37 1e+37 0 0 empty \$0-mod empty 82 9 0
15 -228856 -1 -1 50.5 256;
#N canvas 179 95 483 427 oscillator 0;
#X obj 175 343 outlet~;
#X obj 175 270 sine~;
#X obj 221 200 sig~;
#X obj 263 270 square~;
#X obj 323 270 saw~;
#X obj 221 270 tri~;
#X obj 107 106 vradio 17 1 0 4 ehnjyr etaeg5 empty 0 -8 0 10 -228856
-1 -1 3;
#X obj 107 196 + 1;
#X obj 175 307 xselect~ 4 100 1;
#X text 128 108 Sine;
#X text 128 124 Triangular;
#X text 128 141 Square;
#X text 129 157 Sawtooth;
#X obj 221 34 inlet;
#X obj 250 95 initmess \; \$0-carrier 200 \; \$0-mod 50.5 \; \$0-index
90 \; \$0-menu-set 1;
#X connect 1 0 8 0;
#X connect 2 0 1 0;
#X connect 2 0 3 0;
#X connect 2 0 4 0;
#X connect 2 0 5 0;
#X connect 3 0 8 2;
#X connect 4 0 8 3;
#X connect 5 0 8 1;
#X connect 6 0 7 0;
#X connect 7 0 8 0;
#X connect 8 0 0 0;
#X connect 13 0 2 0;
#X coords 0 -1 1 1 108 80 2 100 100;
#X restore 546 86 pd oscillator;
#X obj 546 53 nbx 5 20 -1e+37 1e+37 0 0 empty \$0-mod empty 82 9 0
15 -228856 -1 -1 50.5 256;
#X text 51 389 Ring Modulation;
#X obj 546 174 rescale~;
#X text 402 32 carrier;
#X text 554 30 mod;
#X text 562 197 Amplitude Modulation, f 10;
#X text 32 30 More complex modulator signals will create more partials
in any Amplitude Modulation patch (including Ring Modulation). We usually
see just sine waves as the modulator signal because that just might
be enough \, specially as an effects processor. As for synthesis \,
a more interesting and efficient technique to generating complex sounds
is with frequency and phase modulation \, as we'll see next., f 45
;
#X obj 58 193 play.file~ ../../../../samples/bubul.wav 1 1, f 33;
#X connect 0 0 4 1;
#X connect 2 0 0 0;
#X connect 4 0 3 0;
#X connect 4 0 3 1;
#X connect 15 0 14 0;
#X connect 15 0 14 1;
#X connect 15 0 13 0;
#X connect 16 0 15 0;
#X connect 17 0 16 0;
#X connect 18 0 21 0;
#X connect 19 0 18 0;
#X connect 21 0 15 1;
#X connect 26 0 4 0;
