#N canvas 353 100 877 518 12;
#X obj 248 228 bng 15 250 50 0 empty empty empty 17 7 0 10 -228856
-1 -1;
#X obj 139 387 route float bang symbol;
#X floatatom 94 336 5 0 0 0 - - -;
#X obj 139 338 bng 15 250 50 0 empty empty empty 17 7 0 10 -228856
-1 -1;
#X symbolatom 165 337 10 0 0 0 - - -;
#X obj 306 228 bng 15 250 50 0 empty empty empty 17 7 0 10 -228856
-1 -1;
#X text 27 22 The [select] object is a very elementary conditional
function! With [select] and comparatives you can see how we were able
to recreate other objects \, even the "if" function., f 55;
#X text 136 196 if false;
#X text 40 195 if true;
#X obj 96 136 tgl 15 0 empty empty empty 17 7 0 10 -228856 -1 -1 0
1;
#X msg 248 139 symbol true;
#X msg 269 166 symbol false;
#X obj 248 198 select true false;
#X obj 96 197 bng 15 250 50 0 empty empty empty 17 7 0 10 -228856 -1
-1;
#X obj 119 197 bng 15 250 50 0 empty empty empty 17 7 0 10 -228856
-1 -1;
#X obj 96 164 sel 1 0;
#X text 248 88 also works with symbols:, f 13;
#X text 29 267 [route] can also be thought of a conditional \, as it
sends information to a specific outlet depending on what type or what
message it is., f 51;
#X obj 191 433 bng 15 250 50 0 empty empty empty 17 7 0 10 -228856
-1 -1;
#X obj 244 433 bng 15 250 50 0 empty empty empty 17 7 0 10 -228856
-1 -1;
#X obj 139 433 bng 15 250 50 0 empty empty empty 17 7 0 10 -228856
-1 -1;
#X floatatom 139 411 5 0 0 0 - - -;
#X symbolatom 244 411 10 0 0 0 - - -;
#X obj 585 95 moses 40;
#X obj 585 68 nbx 5 14 -1e+37 1e+37 0 0 empty empty empty 0 -8 0 10
-228856 -1 -1 0 256;
#X obj 585 139 nbx 5 14 -1e+37 1e+37 0 0 empty empty empty 0 -8 0 10
-228856 -1 -1 0 256;
#X text 527 137 if < 40;
#X obj 655 139 nbx 5 14 -1e+37 1e+37 0 0 empty empty empty 0 -8 0 10
-228856 -1 -1 0 256;
#X text 716 137 if >= 40;
#X text 447 30 The [moses] object is also a sort of "if" function.
;
#X text 91 452 if float;
#X text 189 452 if bang;
#X text 267 432 if symbol;
#X floatatom 541 268 5 0 0 0 - - -;
#X obj 622 402 f;
#X obj 580 402 f;
#X obj 541 327 >= -4;
#X obj 541 296 trigger f f;
#X obj 541 357 sel 0 1;
#X floatatom 622 429 5 0 0 0 - - -;
#X floatatom 580 428 5 0 0 0 - - -;
#X floatatom 607 267 5 0 0 0 - - -;
#X floatatom 668 428 5 0 0 0 - - -;
#X floatatom 721 428 5 0 0 0 - - -;
#X obj 668 333 moses -4;
#X floatatom 668 268 5 0 0 0 - - -;
#X floatatom 721 267 5 0 0 0 - - -;
#X text 641 334 =;
#X text 495 192 For didactical purposes \, here's how you can program
a [moses] with just a select and a comparative., f 42;
#X connect 1 0 21 0;
#X connect 1 1 18 0;
#X connect 1 2 22 0;
#X connect 2 0 1 0;
#X connect 3 0 1 0;
#X connect 4 0 1 0;
#X connect 9 0 15 0;
#X connect 10 0 12 0;
#X connect 11 0 12 0;
#X connect 12 0 0 0;
#X connect 12 1 5 0;
#X connect 15 0 13 0;
#X connect 15 1 14 0;
#X connect 21 0 20 0;
#X connect 22 0 19 0;
#X connect 23 0 25 0;
#X connect 23 1 27 0;
#X connect 24 0 23 0;
#X connect 33 0 37 0;
#X connect 34 0 39 0;
#X connect 35 0 40 0;
#X connect 36 0 38 0;
#X connect 37 0 36 0;
#X connect 37 1 34 1;
#X connect 37 1 35 1;
#X connect 38 0 35 0;
#X connect 38 1 34 0;
#X connect 41 0 36 1;
#X connect 44 0 42 0;
#X connect 44 1 43 0;
#X connect 45 0 44 0;
#X connect 46 0 44 1;
