#N canvas 483 44 578 673 12;
#X obj 195 322 bng 25 250 50 0 empty empty empty 17 7 0 10 -228856
-1 -1;
#X obj 329 402 out~;
#N canvas 526 230 693 242 IR 0;
#X obj 231 127 soundfiler;
#X obj 343 134 table \$0-IR;
#X obj 110 183 outlet~;
#X obj 109 109 tabplay~ \$0-IR;
#X obj 109 56 inlet;
#X obj 231 100 initmess read -resize ../../../../samples/church.wav
\$0-IR;
#X connect 3 0 2 0;
#X connect 4 0 3 0;
#X connect 5 0 0 0;
#X restore 195 361 pd IR;
#X obj 195 398 out~;
#X obj 407 295 bng 25 250 50 0 empty empty empty 17 7 0 10 -228856
-1 -1;
#N canvas 797 186 322 336 test 0;
#X obj 36 155 osc~;
#X obj 36 257 outlet~;
#X obj 36 211 *~;
#X obj 152 151 vline~;
#X obj 36 37 inlet;
#X obj 36 125 vline~;
#X obj 36 68 trigger bang bang;
#X msg 211 122 0 50;
#X obj 211 84 delay 500;
#X msg 36 97 440 \, 880 500;
#X msg 152 111 0.5 50;
#X connect 0 0 2 0;
#X connect 2 0 1 0;
#X connect 3 0 2 1;
#X connect 4 0 6 0;
#X connect 5 0 0 0;
#X connect 6 0 9 0;
#X connect 6 1 10 0;
#X connect 6 1 8 0;
#X connect 7 0 3 0;
#X connect 8 0 7 0;
#X connect 9 0 5 0;
#X connect 10 0 3 0;
#X restore 329 322 pd test;
#X obj 84 323 bng 25 250 50 0 empty empty empty 17 7 0 10 -228856 -1
-1;
#N canvas 797 186 322 336 test 0;
#X obj 36 155 osc~;
#X obj 36 257 outlet~;
#X obj 36 211 *~;
#X obj 152 151 vline~;
#X obj 36 37 inlet;
#X obj 36 125 vline~;
#X obj 36 68 trigger bang bang;
#X msg 211 122 0 50;
#X obj 211 84 delay 500;
#X msg 36 97 440 \, 880 500;
#X msg 152 111 0.5 50;
#X connect 0 0 2 0;
#X connect 2 0 1 0;
#X connect 3 0 2 1;
#X connect 4 0 6 0;
#X connect 5 0 0 0;
#X connect 6 0 9 0;
#X connect 6 1 10 0;
#X connect 6 1 8 0;
#X connect 7 0 3 0;
#X connect 8 0 7 0;
#X connect 9 0 5 0;
#X connect 10 0 3 0;
#X restore 84 358 pd test;
#X obj 84 398 out~;
#X obj 329 368 conv~ 512 \$0-IR;
#X text 46 31 Natural reverberation is a product of complex sound reflections
patterns \, where a sound source keeps moving and bouncing around innumerous
spots in a room/space. This can be digitally modeled with delay lines.
Ideally \, we'd need thousands of delay lines to properly model every
possible reflection \, but there are efficient techniques that involve
less delay lines with good results., f 64;
#X text 46 147 Before we get into reverb designs with delay lines \,
let's recapitulate the convolution tecnhique that we've already seen.
With an impulse response \, we can capture the reverberation model
of a reverberation space. It's easy to find "IR" sound file libraries
for convolution reverbs \, the one below is an IR of a church., f
64;
#X obj 406 332 impseq~;
#X obj 329 286 bng 25 250 50 0 empty empty empty 17 7 0 10 -228856
-1 -1;
#X connect 0 0 2 0;
#X connect 2 0 3 0;
#X connect 2 0 3 1;
#X connect 4 0 12 0;
#X connect 5 0 9 0;
#X connect 6 0 7 0;
#X connect 7 0 8 0;
#X connect 7 0 8 1;
#X connect 9 0 1 0;
#X connect 9 0 1 1;
#X connect 12 0 9 0;
#X connect 13 0 5 0;
