#N canvas 212 181 546 474 12;
#X obj 150 157 brown~;
#X obj 150 38 inlet~;
#X obj 217 241 sig~ \$1;
#X obj 150 296 tabwriter~ -index hz_\$2, f 10;
#X obj 56 298 tabwriter~ -index \$2-array, f 10;
#X obj 56 158 brown~;
#X obj 181 88 r \$2-step-a;
#X obj 180 123 r \$2-step-f;
#X floatatom 293 139 5 0 0 0 - - - 0;
#X msg 296 109 220;
#X obj 334 204 * 5512.5;
#X floatatom 334 228 5 0 0 0 - - - 0;
#X msg 337 173 2;
#X obj 150 181 rescale~ 5512.5 11025;
#X connect 0 0 13 0;
#X connect 1 0 0 0;
#X connect 1 0 5 0;
#X connect 2 0 3 1;
#X connect 2 0 4 1;
#X connect 5 0 4 0;
#X connect 6 0 5 0;
#X connect 7 0 0 0;
#X connect 8 0 13 1;
#X connect 8 0 13 2;
#X connect 9 0 8 0;
#X connect 10 0 11 0;
#X connect 12 0 10 0;
#X connect 13 0 3 0;
