#N canvas 375 73 888 453 12;
#X declare -path else;
#X obj 69 199 hsl 190 19 0 1 0 0 index \$0-slider empty -2 -8 0 10 #dcdcdc #000000 #000000 0 0;
#X floatatom 66 394 10 0 0 0 - - value 16;
#X obj 322 204 cnv 15 498 198 empty \$0-lin . -10 102 0 44 #f8f8f8 #fc0400 0;
#N canvas 0 22 450 300 (subpatch) 0;
#X array \$0-interp 8 float 3;
#A 0 -0.129999 0.22 -0.159999 0.519999 -0.39 0.7 -0.769998 0.939999;
#X coords 0 1 8 -1 500 200 1 0 0;
#X restore 321 203 graph;
#N canvas 889 263 439 311 plot 0;
#X msg 151 237 label_pos \$2 \$1;
#X obj 151 211 pack;
#X obj 117 123 r value;
#X obj 117 149 * -100;
#X obj 181 117 r index;
#X obj 117 176 + 90;
#X obj 181 185 - 13;
#X obj 151 265 s \$0-lin;
#X obj 181 158 * 500;
#X obj 95 26 initmess \; \$0-interp xticks 0 1 1 \, xlabel -1.1 0 1 2 3 4 5 6 7, f 27;
#X connect 0 0 7 0;
#X connect 1 0 0 0;
#X connect 2 0 3 0;
#X connect 3 0 5 0;
#X connect 4 0 8 0;
#X connect 5 0 1 0;
#X connect 6 0 1 1;
#X connect 8 0 6 0;
#X restore 768 184 pd plot;
#X text 798 412 (n = 8);
#X obj 680 18 declare -path else;
#X floatatom 66 231 11 0 0 0 - - - 0;
#X msg 99 290 lin;
#X msg 85 262 lagrange;
#X text 104 200 index from 0 to 1;
#X msg 109 321 none;
#X text 21 19 The ELSE library provides many objects that can read arrays with different interpolation methods. Let's start with the [tabreader] object. By default \, it uses the same 4 point cubic interpolation method as used in Pd Vanilla ('lagrange') \, but it can also perform linear interpolation \, no interpolation at all and other interpolation methods we'll see later., f 52;
#X text 153 263 default;
#X text 132 291 linear;
#X text 148 322 no interpolation;
#X text 21 125 One big difference that makes things simpler is that you don't need to worry about guard points. Copies are made internally in the object., f 52;
#X obj 66 359 tabreader -lin \$0-interp;
#X text 433 58 The input is from 0 to 1 by default and it's mapped from 0 to the table size. In this case it is mapped from 0 to 8 \, and note that point number 8 is the same as point 0 \, so it is 'looped' or 'circular'. Below you can test both 'linear' and 'lagrange' methods. The '-lin' flag sets it to 'linear' initially instead of lagrange., f 53;
#X connect 0 0 7 0;
#X connect 7 0 17 0;
#X connect 8 0 17 0;
#X connect 9 0 17 0;
#X connect 11 0 17 0;
#X connect 17 0 1 0;
