#N canvas 380 23 702 605 10;
#X obj 81 141 hsl 150 18 0 1 0 0 empty empty empty -2 -8 0 10 #dcdcdc #000000 #000000 0 1;
#X text 163 176 index;
#X obj 78 403 nbx 7 20 -1e+37 1e+37 0 0 empty empty empty 0 -8 0 14 #dcdcdc #000000 #000000 0 256;
#X obj 78 174 nbx 8 14 -1e+37 1e+37 0 0 empty empty empty 0 -8 0 10 #dcdcdc #000000 #000000 0 256;
#X msg 95 201 none;
#X msg 106 224 lin;
#X msg 116 246 sin;
#X msg 135 290 cubic;
#X msg 143 312 spline;
#X msg 152 334 hermite 0.3 0.6;
#X obj 78 110 bng 19 250 50 0 empty empty empty 0 -8 0 10 #dfdfdf #000000 #000000;
#X msg 125 268 lagrange;
#X obj 319 122 cnv 16 198 138 empty empty empty 20 12 0 10 #e0e0e0 #404040 0;
#N canvas 0 22 450 278 (subpatch) 0;
#X array \$0-array 10 float 3;
#A 0 -0.528571 0.157142 0.685714 -0.757141 -0.214285 -0.72857 -0.371428 0.557142 -0.62857 0.814284;
#X coords 0 1 10 -1 200 140 1;
#X restore 318 121 graph;
#X text 294 308 You can set interpolation types as messages or flags. The hermite type needs two floats for bias and tension. Check the subpatch below for more details., f 43;
#X text 81 22 Unlike [tabread4] \, [tabreader] does not use guard points for interpolating between the end and the beginning of the array \, but instead treats the range as a circular buffer \, where phases 0 and 1 point to the first element of the table. Input phase is clipped to the 0-1 range., f 82;
#X obj 78 376 else/tabreader \$0-array;
#N canvas 412 105 717 551 examples 0;
#X obj 17 30 cnv 15 183 99 empty empty empty 20 12 0 14 #dcdcdc #404040 0;
#N canvas 0 22 450 278 (subpatch) 0;
#X array \$0-source 12 float 2;
#X coords 0 1.1 12 -1.1 185 100 2 0 0;
#X restore 16 30 graph;
#X obj 477 53 bng 35 250 50 0 \$0-impulse \$0-impulse-set Impulse -10 -20 0 14 #b8b8b8 #606060 #000000;
#X obj 552 52 bng 35 250 50 0 \$0-step \$0-dummy Step 2 -20 0 14 #b8b8b8 #606060 #000000;
#X obj 554 113 hradio 15 1 1 2 \$0-step-dir-snd \$0-step-dir-rcv empty 0 -8 0 10 #b8b8b8 #606060 #000000 0;
#X text 547 95 Up;
#X text 567 95 Down;
#X obj 629 52 bng 35 250 50 0 \$0-cosine \$0-dummy Cosine -6 -20 0 14 #b8b8b8 #606060 #000000;
#X obj 618 113 hradio 15 1 1 4 \$0-cos-period-snd \$0-cos-period-rcv Period 12 -10 0 10 #b8b8b8 #606060 #000000 0;
#X text 618 131 2;
#X text 633 131 3;
#X text 649 131 4;
#X obj 406 54 bng 35 250 50 0 \$0-noise \$0-dummy Noise -2 -20 0 14 #b8b8b8 #606060 #000000;
#X obj 223 45 bng 35 250 50 0 \$0-read-write \$0-dummy Draw 1 -20 0 14 #b8b8b8 #606060 #000000;
#X obj 348 98 bng 35 250 50 0 \$0-clear \$0-dummy empty -2 -20 0 14 #b8b8b8 #606060 #000000;
#X text 472 96 L;
#X text 489 96 M;
#X text 506 96 R;
#X obj 471 116 vsl 15 45 -1 1 0 0 \$0-left-impulse-snd \$0-left-impulse-rcv empty 0 -9 0 10 #b8b8b8 #000000 #000000 0 1;
#X obj 487 116 vsl 15 45 -1 1 0 0 \$0-mid-impulse-snd \$0-mid-impulse-rcv empty 0 -9 0 10 #b8b8b8 #000000 #000000 0 1;
#X obj 503 116 vsl 15 45 -1 1 0 0 \$0-right-impulse-snd \$0-right-impulse-rcv empty 0 -9 0 10 #b8b8b8 #000000 #000000 0 1;
#X text 270 44 Draw function in source window \, then click this bang., f 19;
#X text 667 131 8;
#X obj 34 193 nbx 3 20 0 256 0 0 \$0-periods-snd \$0-periods-rcv empty 0 -8 0 16 #dcdcdc #000000 #000000 0 256;
#X obj 226 104 nbx 2 15 4 48 0 0 \$0-draw-samps-snd \$0-draw-samps-rcv empty -10 -8 0 12 #b8b8b8 #000000 #000000 0 256;
#X text 222 86 Samples;
#X obj 410 115 nbx 2 15 4 48 0 0 \$0-noise-samps-snd \$0-noise-samps-rcv empty -10 -8 0 12 #b8b8b8 #000000 #000000 0 256;
#X text 401 97 Samples;
#N canvas 765 255 397 286 guts 1;
#X msg 203 58 resize \$1;
#X obj 203 95 s \$0-source;
#X obj 203 29 r \$0-draw-samps-snd;
#X msg 206 212 1;
#X obj 206 240 s \$0-left-impulse-rcv;
#X obj 206 146 loadbang;
#X obj 219 179 s \$0-impulse-set;
#X text 117 40 <---;
#N canvas 294 76 427 599 clear 0;
#X obj 174 38 loadbang;
#X msg 44 86 const 0;
#X obj 274 38 r \$0-clear;
#X obj 164 361 s \$0-source;
#X obj 144 391 s \$0-1-Linear;
#X obj 124 421 s \$0-3-Cosine;
#X obj 104 451 s \$0-4-Cubic;
#X obj 84 481 s \$0-5-Spline;
#X obj 64 511 s \$0-6-Hermite;
#X obj 44 541 s \$0-7-Lagrange-(Pd-Cubic);
#X obj 174 331 s \$0-left-impulse-rcv;
#X msg 174 86 0;
#X obj 194 301 s \$0-mid-impulse-rcv;
#X obj 204 271 s \$0-right-impulse-rcv;
#X obj 214 241 s \$0-step-dir-rcv;
#X obj 224 211 s \$0-cos-period-rcv;
#X obj 234 181 s \$0-periods-rcv;
#X msg 234 87 1;
#X obj 274 151 s \$0-noise-samps-rcv;
#X msg 274 87 8;
#X obj 284 121 s \$0-draw-samps-rcv;
#X connect 0 0 1 0;
#X connect 0 0 11 0;
#X connect 0 0 17 0;
#X connect 0 0 19 0;
#X connect 1 0 3 0;
#X connect 1 0 4 0;
#X connect 1 0 5 0;
#X connect 1 0 6 0;
#X connect 1 0 9 0;
#X connect 1 0 8 0;
#X connect 1 0 7 0;
#X connect 2 0 1 0;
#X connect 2 0 11 0;
#X connect 2 0 17 0;
#X connect 2 0 19 0;
#X connect 11 0 10 0;
#X connect 11 0 13 0;
#X connect 11 0 12 0;
#X connect 11 0 14 0;
#X connect 11 0 15 0;
#X connect 17 0 16 0;
#X connect 19 0 18 0;
#X connect 19 0 20 0;
#X restore 45 210 pd clear;
#N canvas 727 399 263 142 read-write 1;
#N canvas 504 321 431 356 phasor 0;
#X obj 57 247 phasor~;
#X msg 216 131 0;
#X obj 57 95 samplerate~;
#X obj 57 49 r \$0-read-write;
#X obj 57 276 s~ \$0-phasor;
#X obj 57 321 outlet~;
#X obj 57 141 / 512;
#X obj 57 212 *;
#X obj 72 164 r \$0-periods-snd;
#X connect 0 0 4 0;
#X connect 1 0 0 1;
#X connect 2 0 6 0;
#X connect 3 0 2 0;
#X connect 3 0 1 0;
#X connect 6 0 7 0;
#X connect 7 0 0 0;
#X connect 8 0 7 1;
#X restore 33 40 pd phasor;
#N canvas 257 75 969 671 wave-tabwrite 0;
#X obj 42 33 inlet~;
#X obj 59 150 r \$0-read-write;
#X obj 42 176 tabwrite~ \$0-1-Linear;
#X obj 42 89 r~ \$0-phasor;
#X obj 299 150 r \$0-read-write;
#X obj 282 89 r~ \$0-phasor;
#X obj 282 176 tabwrite~ \$0-3-Cosine;
#X obj 59 310 r \$0-read-write;
#X obj 42 249 r~ \$0-phasor;
#X obj 299 310 r \$0-read-write;
#X obj 282 249 r~ \$0-phasor;
#X obj 59 560 r \$0-read-write;
#X obj 42 399 r~ \$0-phasor;
#X obj 485 188 r \$0-read-write;
#X obj 468 127 r~ \$0-phasor;
#X obj 42 336 tabwrite~ \$0-4-Cubic;
#X obj 282 336 tabwrite~ \$0-5-Spline;
#X obj 42 591 tabwrite~ \$0-6-Hermite;
#X obj 468 214 tabwrite~ \$0-7-Lagrange-(Pd-Cubic);
#X obj 42 115 tabreader~ -lin \$0-source;
#X obj 42 275 tabreader~ -cubic \$0-source;
#X obj 282 275 tabreader~ -spline \$0-source;
#X obj 282 115 tabreader~ -sin \$0-source;
#X obj 468 153 tabreader~ \$0-source;
#X obj 42 525 tabreader~ -hermite 0 0 \$0-source;
#X obj 71 489 pack2 hermite f f;
#X obj 120 436 r \$0-tension;
#X obj 170 463 r \$0-bias;
#X connect 1 0 2 0;
#X connect 3 0 19 0;
#X connect 4 0 6 0;
#X connect 5 0 22 0;
#X connect 7 0 15 0;
#X connect 8 0 20 0;
#X connect 9 0 16 0;
#X connect 10 0 21 0;
#X connect 11 0 17 0;
#X connect 12 0 24 0;
#X connect 13 0 18 0;
#X connect 14 0 23 0;
#X connect 19 0 2 0;
#X connect 20 0 15 0;
#X connect 21 0 16 0;
#X connect 22 0 6 0;
#X connect 23 0 18 0;
#X connect 24 0 17 0;
#X connect 25 0 24 0;
#X connect 26 0 25 1;
#X connect 27 0 25 2;
#X restore 33 71 pd wave-tabwrite;
#X connect 0 0 1 0;
#X restore 32 41 pd read-write;
#N canvas 291 103 300 402 impulse 0;
#X obj 70 194 r \$0-left-impulse-snd;
#X obj 93 215 r \$0-mid-impulse-snd;
#X obj 116 238 r \$0-right-impulse-snd;
#X obj 47 263 pack 0 0 0 0;
#X obj 28 49 r \$0-impulse;
#X obj 47 319 s \$0-source;
#X obj 28 350 s \$0-read-write;
#X msg 47 292 0 \$2 0 0 0 0 0 \$3 0 0 0 0 \$4;
#X obj 28 81 t b b b;
#X msg 67 116 resize 12;
#X obj 67 147 s \$0-source;
#X connect 0 0 3 1;
#X connect 1 0 3 2;
#X connect 2 0 3 3;
#X connect 3 0 7 0;
#X connect 4 0 8 0;
#X connect 7 0 5 0;
#X connect 8 0 6 0;
#X connect 8 1 3 0;
#X connect 8 2 9 0;
#X connect 9 0 10 0;
#X restore 44 82 pd impulse;
#N canvas 322 149 524 433 step 0;
#X obj 28 49 r \$0-step;
#X obj 271 235 sel 0 1;
#X obj 271 210 f;
#X obj 28 360 s \$0-read-write;
#X obj 45 329 s \$0-source;
#X obj 286 181 r \$0-step-dir-snd;
#X msg 57 266 0 -1 -1 -1 -1 0 0 0 0 1 1 1 1;
#X msg 290 266 0 1 1 1 1 0 0 0 0 -1 -1 -1 -1;
#X msg 45 217 normalize 0.75;
#X obj 28 81 t b b b b;
#X msg 286 116 resize 12;
#X obj 286 147 s \$0-source;
#X connect 0 0 9 0;
#X connect 1 0 6 0;
#X connect 1 1 7 0;
#X connect 2 0 1 0;
#X connect 5 0 2 1;
#X connect 6 0 4 0;
#X connect 7 0 4 0;
#X connect 8 0 4 0;
#X connect 9 0 3 0;
#X connect 9 1 8 0;
#X connect 9 2 2 0;
#X connect 9 3 10 0;
#X connect 10 0 11 0;
#X restore 44 112 pd step;
#N canvas 170 180 1163 394 cosine 0;
#X obj 218 110 f;
#X obj 28 340 s \$0-read-write;
#X obj 47 309 s \$0-source;
#X obj 28 81 t b b b;
#X obj 28 49 r \$0-cosine;
#X obj 233 81 r \$0-cos-period-snd;
#X obj 218 135 sel 0 1 2 3;
#X obj 73 195 t b b;
#X msg 47 117 normalize 0.95;
#X msg 148 227 resize 4;
#X msg 59 226 0 1 -1 1 -1;
#X obj 233 195 t b b;
#X msg 388 226 resize 6;
#X msg 219 226 0 1 -0.5 -0.5 1 -0.5 -0.5;
#X obj 473 195 t b b;
#X msg 459 226 0 1 0 -1 0 1 0 -1 0;
#X msg 628 226 resize 4;
#X obj 703 75 t b b;
#X msg 1068 106 resize 7;
#X msg 689 106 0 1 0.62349 -0.222521 -0.900969 -0.900969 -0.222521 0.62349;
#X obj 703 225 t b b;
#X msg 1068 256 resize 8;
#X msg 689 256 0 1 0.707107 0 -0.707107 -1 -0.707107 0 0.707107;
#X connect 0 0 6 0;
#X connect 3 0 1 0;
#X connect 3 1 8 0;
#X connect 3 2 0 0;
#X connect 4 0 3 0;
#X connect 5 0 0 1;
#X connect 6 0 7 0;
#X connect 6 1 11 0;
#X connect 6 2 14 0;
#X connect 6 3 17 0;
#X connect 6 3 20 0;
#X connect 7 0 10 0;
#X connect 7 1 9 0;
#X connect 8 0 2 0;
#X connect 9 0 2 0;
#X connect 10 0 2 0;
#X connect 11 0 13 0;
#X connect 11 1 12 0;
#X connect 12 0 2 0;
#X connect 13 0 2 0;
#X connect 14 0 15 0;
#X connect 14 1 16 0;
#X connect 15 0 2 0;
#X connect 16 0 2 0;
#X connect 17 0 19 0;
#X connect 17 1 18 0;
#X connect 20 0 22 0;
#X connect 20 1 21 0;
#X connect 21 0 2 0;
#X connect 22 0 2 0;
#X restore 44 142 pd cosine;
#N canvas 926 45 353 517 noise 0;
#X obj 28 420 s \$0-read-write;
#X obj 103 229 s \$0-source;
#X msg 103 198 resize \$1;
#X obj 47 151 f;
#X obj 47 176 t f f;
#X obj 47 229 until;
#X obj 47 382 tabwrite \$0-source;
#X msg 206 121 0;
#X obj 152 302 f;
#X obj 201 302 + 1;
#X obj 28 81 t b b b;
#X obj 47 260 t b b;
#X obj 47 302 random 32768;
#X obj 47 332 / 16389;
#X obj 47 354 - 1;
#X obj 28 49 r \$0-noise;
#X obj 62 121 r \$0-noise-samps-snd;
#X connect 2 0 1 0;
#X connect 3 0 4 0;
#X connect 4 0 5 0;
#X connect 4 1 2 0;
#X connect 5 0 11 0;
#X connect 7 0 8 1;
#X connect 8 0 9 0;
#X connect 8 0 6 1;
#X connect 9 0 8 1;
#X connect 10 0 0 0;
#X connect 10 1 3 0;
#X connect 10 2 7 0;
#X connect 11 0 12 0;
#X connect 11 1 8 0;
#X connect 12 0 13 0;
#X connect 13 0 14 0;
#X connect 14 0 6 0;
#X connect 15 0 10 0;
#X connect 16 0 3 1;
#X restore 44 172 pd noise;
#X connect 0 0 1 0;
#X connect 2 0 0 0;
#X connect 3 0 4 0;
#X connect 5 0 3 0;
#X connect 5 0 6 0;
#X restore 637 510 pd guts;
#X obj 42 307 hsl 128 15 0 1 0 0 empty empty empty -2 -8 0 10 #dcdcdc #000000 #000000 0 1;
#X obj 39 336 nbx 7 14 -1e+37 1e+37 0 0 empty empty empty 0 -8 0 10 #dcdcdc #000000 #000000 0 256;
#N canvas 192 23 573 338 Mode_3) 0;
#X obj 33 49 cnv 15 512 192 empty empty empty 20 12 0 14 #dcdcdc #404040 0;
#N canvas 0 22 450 278 (subpatch) 0;
#X array \$0-3-Cosine 513 float 2;
#X coords 0 1 513 -1 513 192 1 0 0;
#X restore 32 49 graph;
#X restore 119 223 pd Mode_3) Cosine;
#N canvas 192 23 577 277 Mode_4) 0;
#X obj 38 36 cnv 15 512 192 empty empty empty 20 12 0 14 #dcdcdc #404040 0;
#N canvas 0 22 450 278 (subpatch) 0;
#X array \$0-4-Cubic 513 float 2;
#X coords 0 1 513 -1 513 192 1 0 0;
#X restore 37 36 graph;
#X restore 119 249 pd Mode_4) Cubic;
#N canvas 192 23 577 277 Mode_5) 0;
#X obj 28 33 cnv 15 512 192 empty empty empty 20 12 0 14 #dcdcdc #404040 0;
#N canvas 0 22 450 278 (subpatch) 0;
#X array \$0-5-Spline 513 float 2;
#X coords 0 1 513 -1 513 192 1 0 0;
#X restore 27 33 graph;
#X restore 247 196 pd Mode_5) Spline;
#N canvas 192 23 577 277 Mode_6) 0;
#X obj 27 33 cnv 15 512 192 empty empty empty 20 12 0 14 #dcdcdc #404040 0;
#N canvas 0 22 450 278 (subpatch) 0;
#X array \$0-6-Hermite 513 float 2;
#X coords 0 1 513 -1 513 192 1 0 0;
#X restore 26 33 graph;
#X restore 247 223 pd Mode_6) Hermite;
#N canvas 201 24 588 341 Mode_7) 0;
#X obj 54 51 cnv 15 512 192 empty empty empty 20 12 0 14 #dcdcdc #404040 0;
#N canvas 0 22 450 278 (subpatch) 0;
#X array \$0-7-Lagrange-(Pd-Cubic) 513 float 2;
#X coords 0 1 513 -1 513 192 1 0 0;
#X restore 53 51 graph;
#X restore 248 249 pd Mode_7) Lagrange;
#N canvas 0 22 450 278 (subpatch) 0;
#X coords 0 1 100 -1 360 140 1 0 0;
#X restore 22 147 graph;
#N canvas 0 22 450 278 (subpatch) 0;
#X coords 0 1 100 -1 210 160 1 0 0;
#X restore 397 14 graph;
#N canvas 0 22 450 278 (subpatch) 0;
#X coords 0 1 100 -1 80 160 1 0 0;
#X restore 457 14 graph;
#N canvas 0 22 450 278 (subpatch) 0;
#X coords 0 1 100 -1 80 160 1 0 0;
#X restore 607 14 graph;
#N canvas 0 22 450 278 (subpatch) 0;
#X coords 0 1 100 -1 180 127 1 0 0;
#X restore 217 14 graph;
#N canvas 0 22 450 278 (subpatch) 0;
#X coords 0 1 100 -1 150 100 1 0 0;
#X restore 400 186 graph;
#X obj 203 504 nbx 7 14 -1e+37 1e+37 0 0 empty empty empty 0 -8 0 10 #dcdcdc #000000 #000000 0 256;
#X obj 55 155 else/note 8 10 Menlo empty 0 0 0 0 0 255 255 255 0 0 note;
#X obj 28 221 else/note 0 10 Menlo empty 0 0 0 0 0 255 255 255 0 0 note;
#X obj 351 398 else/pack2 hermite f f;
#X obj 351 363 bng 19 250 50 0 empty empty empty 0 -8 0 10 #dfdfdf #000000 #000000;
#X floatatom 415 253 5 -1 1 0 - - - 16;
#X text 421 196 Usual range for both: -1 to +1, f 15;
#X text 416 232 Tension;
#X text 487 232 Bias;
#N canvas 693 36 563 327 Linear 0;
#X obj 30 69 cnv 15 512 192 empty empty empty 20 12 0 14 #dcdcdc #404040 0;
#N canvas 0 22 450 278 (subpatch) 0;
#X array \$0-1-Linear 513 float 2;
#X coords 0 1 513 -1 513 192 1 0 0;
#X restore 29 69 graph;
#X restore 119 197 pd Linear;
#X obj 203 439 else/display;
#X msg 193 298 none;
#X msg 203 319 lin;
#X msg 212 342 sin;
#X msg 219 363 lagrange;
#X msg 228 385 spline;
#X msg 237 406 cubic;
#X obj 203 475 else/tabreader -none \$0-source;
#X text 307 107 Clear;
#X floatatom 480 253 5 -1 1 0 - - - 16;
#X obj 427 300 s t;
#X obj 491 300 s b;
#X connect 29 0 30 0;
#X connect 30 0 59 0;
#X connect 45 0 52 0;
#X connect 46 0 45 0;
#X connect 47 0 45 1;
#X connect 47 0 62 0;
#X connect 52 0 59 0;
#X connect 53 0 52 0;
#X connect 54 0 52 0;
#X connect 55 0 52 0;
#X connect 56 0 52 0;
#X connect 57 0 52 0;
#X connect 58 0 52 0;
#X connect 59 0 42 0;
#X connect 61 0 45 2;
#X connect 61 0 63 0;
#X restore 500 484 pd examples;
#X text 103 547 - Lagrange (default), f 25;
#X text 317 397 Most of the interpolation formulas can be found in: <http://paulbourke.net/miscellaneous/interpolation>;
#X text 103 470 - linear, f 25;
#X text 103 486 - sine, f 25;
#X text 277 516 All interpolators besides linear and sine are 'cubic' \, find more theoretical details and examples below:, f 39;
#N canvas 439 44 852 513 cubic_interpolators 0;
#X text 35 145 Lagrange:;
#X text 34 168 To interpolate between points b and c \, the Lagrange interpolator finds a cubic polynomial curve that passes through "a \, b \, c \, and d". This is the the kind of interpolation used in Pd Vanilla's objects (like [tabread4~]) and in cubic interpolating functions in Csound., f 52;
#X text 34 243 Its advantage is that the drawn curve has low RMS error with respect to that of an ideal (sinc) interpolator. A disadvantage is that the first derivative (the instantaneous slope of the curve) is not usually continuous at breakpoints \, which can cause sharp corners in the curve (see examples in the parent patch)., f 52;
#X text 30 25 The cubic interpolators are lagrange and hermite. There's a general hermite interpolator that you can set its parameters and two special cases: spline and cubic. Both lagrange and hermite draw polynomial curves between the interpolating points and use one point to the left and another to the right of the interpolating points (hence 4 points are used). Let us label these 4 points as: a \, b \, c \, and d \, where the interpolation is between points b and c. Check more technical details below., f 53;
#X text 34 371 This type addresses the first derivative problem by deliberately making it continuous at breakpoints. It finds a cubic polynomial curve that passes through b and c but it does not usually pass through a and d. Instead \, it uses the pairs (a \, c) and (b \, d) to set the curve slope at points b and c \, respectively., f 52;
#X text 401 21 Spline (Catmull-Rom Spline) interpolator (tension 0 \, bias 0):, f 61;
#X text 401 168 Cubic (tension -1 \, bias 0):;
#X text 34 456 There's a general hermite interpolator that you can set the tension and bias parameters. But first let's talk about two special cases: spline and cubic., f 52;
#X text 401 49 This most basic form sets the curve slope at point b as the slope of the line passing through a and c \, which is defined (c - a)/2. The curve slope at point c is set to (d - b)/2. In the provided examples \, it is easy to see that there are no sharp corners. However \, the second derivative is discontinuous \, so there are occasional abrupt changes in concavity \, e.g. at zero-crossings in the 4-period cosine example. There are no such abrupt changes in concavity with Lagrange interpolation. This type of interpolation is used in SuperCollider's interpolating functions., f 67;
#X text 400 195 The "tension" setting adjusts the curve slope at breakpoints. At point b \, the slope is (1 - tension)*((c - a)/2). At tension = -1 \, the slope at breakpoints is double that of 'spline' and represents the "Cubic" interpolation., f 67;
#X text 403 273 Other settings:;
#X text 403 294 You can set other tension values as well as a bias parameter with the general 'hermite' interpolator. The period-8 cosine example in the [pd examples] subpatch is a good illustration of how tension works. Other slope values can be used to accentuate or attenuate the shape of the curve. When tension is +1 \, the slope is 0 (horizontal) at all breakpoints. Between 0 and 1 \, the slope at breakpoints is less than that for the 'spline' case \, and the maxima and curve is shallower. Tension values between 0 and -1 increase the slope at breakpoints and make the curve deeper., f 67;
#X text 403 400 Bias is related to tension in that it changes slope at breakpoints and depth of curve \, but it does so by giving one of the two points surrounding the breakpoint more control over the slope at that breakpoint than the other. Bias values between 0 and 1 give the left point more influence than the right \, bias values between 0 and -1 do the opposite. The normal range for both tension and bias values is -1 to +1. Outside of that range the curves can be unpredictable., f 67;
#X text 37 337 Hermite interpolator:;
#X restore 315 485 pd cubic_interpolators;
#X text 103 501 - cubic, f 25;
#X text 103 516 - spline, f 25;
#X text 103 531 - hermite, f 25;
#X connect 0 0 3 0;
#X connect 3 0 16 0;
#X connect 4 0 16 0;
#X connect 5 0 16 0;
#X connect 6 0 16 0;
#X connect 7 0 16 0;
#X connect 8 0 16 0;
#X connect 9 0 16 0;
#X connect 10 0 0 0;
#X connect 11 0 16 0;
#X connect 16 0 2 0;
