#N canvas 425 52 711 379 10;
#N canvas 363 153 820 585 vowels 0;
#X obj 60 47 r a-message;
#X text 687 268 syntax;
#X obj 60 69 sel 1;
#X obj 290 68 sel 1;
#X obj 290 46 r e-message;
#X obj 61 316 sel 1;
#X obj 301 315 sel 1;
#X obj 510 67 sel 1;
#X obj 510 45 r i-message;
#X obj 61 294 r o-message;
#X obj 301 293 r u-message;
#X msg 60 202 \; a-tgl color 13 13 3 \; e-tgl color 23 13 3 \, 0 \; i-tgl color 23 13 3 \, 0 \; o-tgl color 23 13 3 \, 0 \; u-tgl color 23 13 3 \, 0;
#X msg 61 449 \; a-tgl color 23 13 3 \, 0 \; e-tgl color 23 13 3 \, 0 \; i-tgl color 23 13 3 \, 0 \; o-tgl color 13 13 3 \; u-tgl color 23 13 3 \, 0;
#X msg 290 201 \; a-tgl color 23 13 3 \, 0 \; e-tgl color 13 13 3 \; i-tgl color 23 13 3 \, 0 \; o-tgl color 23 13 3 \, 0 \; u-tgl color 23 13 3 \, 0;
#X msg 510 200 \; a-tgl color 23 13 3 \, 0 \; e-tgl color 23 13 3 \, 0 \; i-tgl color 13 13 3 \; o-tgl color 23 13 3 \, 0 \; u-tgl color 23 13 3 \, 0;
#X msg 301 448 \; a-tgl color 23 13 3 \, 0 \; e-tgl color 23 13 3 \, 0 \; i-tgl color 23 13 3 \, 0 \; o-tgl color 23 13 3 \, 0 \; u-tgl color 13 13 3;
#X msg 68 344 \; filt1_env 440 440 50 300 200 \; filt1_amp 99 \; filt2_env 1020 1020 50 870 200 \; filt2_amp 88 \; filt3_env 2240 2240 50 2240 200 \; filt3_amp 66 \; amp_env 50 0.8 50 250 \;;
#X msg 70 90 \; filt1_env 530 530 50 270 200 \; filt1_amp 98 \; filt2_env 1840 1840 50 2290 200 \; filt2_amp 83 \; filt3_env 2480 2480 50 3010 200 \; filt3_amp 76 \; amp_env 50 0.8 50 250 \;;
#X msg 520 88 \; filt1_env 730 730 50 270 200 \; filt1_amp 99 \; filt2_env 1090 1090 50 2290 200 \; filt2_amp 95 \; filt3_env 2440 2440 50 3010 200 \; filt3_amp 72 \; amp_env 50 0.8 0 250 \;;
#X msg 300 89 \; filt1_env 270 270 50 440 90 \; filt1_amp 96 \; filt2_env 2290 2290 50 1020 90 \; filt2_amp 76 \; filt3_env 2010 2010 50 2240 90 \; filt3_amp 72 \; amp_env 50 0.8 0 100 \;;
#X msg 311 336 \; filt1_env 270 300 150 440 90 \; filt1_amp 97 \; filt2_env 2290 870 150 1020 90 \; filt2_amp 81 \; filt3_env 3010 2240 150 2240 90 \; filt3_amp 57 \; amp_env 100 0.8 50 100 \;;
#X text 563 299 filt1_env [startfreq] [susfreq] [atttime] [endfreq] [reltime] \; \; filt1_amp [level] \; \; filt2_env [startfreq] [susfreq] [atttime] [endfreq] [reltime] \; \; filt2_amp [level] \; \; filt3_env [startfreq] [susfreq] [atttime] [endfreq] [reltime] \; \; filt3_amp [level] \; \; amp_env [atttime] [suslevel] [dectime] [reltime] \;, f 31;
#X text 563 494 \; [letter1]-tgl color 13 13 3 \, 1 \; [letter2]-tgl color 23 13 3 \, 0 \; etc...;
#X connect 0 0 2 0;
#X connect 2 0 17 0;
#X connect 2 0 11 0;
#X connect 3 0 19 0;
#X connect 3 0 13 0;
#X connect 4 0 3 0;
#X connect 5 0 16 0;
#X connect 5 0 12 0;
#X connect 6 0 20 0;
#X connect 6 0 15 0;
#X connect 7 0 18 0;
#X connect 7 0 14 0;
#X connect 8 0 7 0;
#X connect 9 0 5 0;
#X connect 10 0 6 0;
#X restore 391 327 pd vowels;
#X obj 279 210 hsl 128 15 0 127 0 0 res-nbx res-gui resonance 5 7 0 10 #541010 #fc0400 #fcc4c4 0 1;
#X obj 409 210 nbx 5 15 -1e+37 1e+37 0 0 res res-nbx empty 0 -6 0 10 #541010 #fcc4c4 #fcc4c4 0 256;
#X obj 279 225 hsl 128 15 0 127 0 0 Q-nbx Q-gui Q 5 7 0 10 #541010 #fc0400 #fcc4c4 0 1;
#X obj 409 225 nbx 5 15 -1e+37 1e+37 0 0 Q Q-nbx empty 0 -6 0 10 #541010 #fcc4c4 #000000 0 256;
#X obj 307 156 tgl 20 0 a-message a-tgl a 5 9 0 16 #8c0808 #fc2828 #fce0e0 0 1;
#X obj 329 156 tgl 20 0 e-message e-tgl e 5 9 0 16 #8c0808 #fc2828 #fce0e0 0 1;
#X obj 351 156 tgl 20 0 i-message i-tgl i 5 9 0 16 #fc2828 #fc2828 #fce0e0 0 1;
#X obj 373 156 tgl 20 0 o-message o-tgl o 5 9 0 16 #8c0808 #fc2828 #fce0e0 0 1;
#X obj 395 156 tgl 20 0 u-message u-tgl u 5 9 0 16 #8c0808 #fc2828 #fce0e0 0 1;
#X obj 279 240 hsl 128 15 50 100 0 0 PWM-nbx PWM-gui PWM 5 7 0 10 #541010 #fc0400 #fcc4c4 0 1;
#X obj 409 240 nbx 5 15 50 100 0 0 PWM PWM-nbx empty 0 -6 0 10 #541010 #fcc4c4 #000000 0 256;
#X obj 279 255 hsl 128 15 30 200 0 0 BPM-nbx BPM-gui tempo 5 7 0 10 #541010 #fc0400 #fcc4c4 0 1;
#X obj 409 255 nbx 5 15 30 200 0 0 BPM BPM-nbx empty 0 -6 0 10 #541010 #fcc4c4 #000000 0 256;
#N canvas 799 236 414 293 sequencer 0;
#X obj 38 112 swap 100;
#X obj 38 133 /;
#X msg 38 153 tempo \$1;
#X obj 119 215 qlist;
#X msg 146 146 read Sequence.txt;
#X msg 135 85 clear;
#X obj 38 49 r BPM;
#X obj 38 71 swap 60000;
#X obj 38 91 /;
#X obj 146 121 loadbang;
#X obj 285 68 loadbang;
#X obj 119 26 inlet;
#X msg 285 106 \; res-gui 1 \; Q-gui 35 \; PWM-gui 90 \; a-tgl 1 \; BPM-gui 70 \; res 2;
#X connect 0 0 1 0;
#X connect 0 1 1 1;
#X connect 1 0 2 0;
#X connect 2 0 3 0;
#X connect 4 0 3 0;
#X connect 5 0 3 0;
#X connect 6 0 7 0;
#X connect 7 0 8 0;
#X connect 7 1 8 1;
#X connect 8 0 0 0;
#X connect 9 0 4 0;
#X connect 10 0 12 0;
#X connect 11 0 3 0;
#X restore 299 327 pd sequencer;
#X obj 299 295 bng 21 250 50 0 empty empty empty 0 -8 0 10 #dfdfdf #000000 #000000;
#X text 324 297 Play;
#X obj 95 137 r mel_note;
#X obj 77 36 keyboard 17 80 5 1 0 0 empty empty;
#X obj 76 177 voices 4 1;
#X obj 76 206 clone voice 4;
#X obj 76 234 out~;
#X connect 15 0 14 0;
#X connect 17 0 19 0;
#X connect 18 0 19 0;
#X connect 19 0 20 0;
#X connect 20 0 21 0;
