#N canvas 425 52 576 647 10;
#N canvas 201 188 497 510 ampenv 0;
#X obj 151 267 f;
#X obj 190 266 f;
#X obj 203 293 pack f f;
#X obj 203 363 line~;
#X obj 203 391 outlet~;
#X obj 234 87 r amp_env;
#X obj 190 245 delay 100;
#X msg 276 287 0 \$1;
#X obj 276 266 f;
#X obj 150 126 bng 15 250 50 0 empty empty empty 0 -6 0 10 #fcfcfc #000000 #000000;
#X msg 151 290 1 \$1;
#X obj 234 111 unpack f f f f;
#X obj 150 189 t b b;
#X obj 291 246 f;
#X obj 105 81 r \$0-gate;
#X obj 105 104 select 0;
#X connect 0 0 10 0;
#X connect 1 0 2 0;
#X connect 2 0 3 0;
#X connect 3 0 4 0;
#X connect 5 0 11 0;
#X connect 6 0 1 0;
#X connect 7 0 3 0;
#X connect 8 0 7 0;
#X connect 9 0 12 0;
#X connect 10 0 3 0;
#X connect 11 0 0 1;
#X connect 11 0 6 1;
#X connect 11 1 1 1;
#X connect 11 2 2 1;
#X connect 11 3 13 1;
#X connect 12 0 6 0;
#X connect 12 0 13 0;
#X connect 12 1 0 0;
#X connect 13 0 8 1;
#X connect 14 0 15 0;
#X connect 15 0 8 0;
#X connect 15 1 9 0;
#X restore 229 431 pd ampenv;
#X obj 214 461 *~;
#X obj 214 507 outlet~;
#X obj 134 138 inlet;
#X obj 134 181 unpack f f;
#X obj 134 273 mtof;
#X obj 175 253 r PWM;
#X obj 191 222 s \$0-gate;
#X obj 265 319 sel 1;
#X obj 265 212 > 0;
#X obj 175 296 / 100;
#N canvas 235 177 486 462 reson1 0;
#X obj 134 49 inlet~;
#N canvas 213 126 393 441 filt1env 0;
#X obj 121 152 unpack f f f f f;
#X obj 87 216 f;
#X obj 132 216 f;
#X obj 132 237 pack f f;
#X obj 190 215 f;
#X obj 190 236 pack f f;
#X obj 118 304 line~;
#X msg 87 237 \$1 0;
#X obj 138 59 sel 0;
#X obj 118 332 outlet~;
#X obj 121 129 r filt1_env;
#X obj 205 195 f;
#X obj 229 195 f;
#X obj 165 83 t b b b;
#X obj 138 36 r \$0-gate;
#X connect 0 0 1 1;
#X connect 0 1 2 1;
#X connect 0 2 3 1;
#X connect 0 3 11 1;
#X connect 0 4 12 1;
#X connect 1 0 7 0;
#X connect 2 0 3 0;
#X connect 3 0 6 0;
#X connect 4 0 5 0;
#X connect 5 0 6 0;
#X connect 6 0 9 0;
#X connect 7 0 6 0;
#X connect 8 0 4 0;
#X connect 8 1 13 0;
#X connect 10 0 0 0;
#X connect 11 0 4 1;
#X connect 12 0 5 1;
#X connect 13 0 11 0;
#X connect 13 0 12 0;
#X connect 13 1 2 0;
#X connect 13 2 1 0;
#X connect 14 0 8 0;
#X restore 150 194 pd filt1env;
#X obj 128 240 reson~;
#X obj 139 167 r res;
#X obj 161 219 r Q;
#X obj 250 232 r filt1_amp;
#X obj 214 296 *~ 0;
#X obj 250 254 dbtorms;
#X obj 235 274 f;
#X obj 238 51 inlet;
#X obj 214 357 outlet~;
#X connect 0 0 2 0;
#X connect 1 0 2 2;
#X connect 2 0 6 0;
#X connect 3 0 2 1;
#X connect 4 0 2 3;
#X connect 5 0 7 0;
#X connect 6 0 10 0;
#X connect 7 0 8 1;
#X connect 8 0 6 1;
#X connect 9 0 8 0;
#X restore 60 398 pd reson1;
#N canvas 235 177 486 462 reson2 0;
#X obj 134 49 inlet~;
#X obj 128 240 reson~;
#X obj 139 167 r res;
#X obj 161 219 r Q;
#X obj 214 296 *~ 0;
#X obj 250 254 dbtorms;
#X obj 235 274 f;
#X obj 238 51 inlet;
#X obj 214 357 outlet~;
#N canvas 213 126 393 441 filt2env 0;
#X obj 121 152 unpack f f f f f;
#X obj 87 216 f;
#X obj 132 216 f;
#X obj 132 237 pack f f;
#X obj 190 215 f;
#X obj 190 236 pack f f;
#X obj 118 304 line~;
#X msg 87 237 \$1 0;
#X obj 138 59 sel 0;
#X obj 118 332 outlet~;
#X obj 205 195 f;
#X obj 229 195 f;
#X obj 165 83 t b b b;
#X obj 138 36 r \$0-gate;
#X obj 121 129 r filt2_env;
#X connect 0 0 1 1;
#X connect 0 1 2 1;
#X connect 0 2 3 1;
#X connect 0 3 10 1;
#X connect 0 4 11 1;
#X connect 1 0 7 0;
#X connect 2 0 3 0;
#X connect 3 0 6 0;
#X connect 4 0 5 0;
#X connect 5 0 6 0;
#X connect 6 0 9 0;
#X connect 7 0 6 0;
#X connect 8 0 4 0;
#X connect 8 1 12 0;
#X connect 10 0 4 1;
#X connect 11 0 5 1;
#X connect 12 0 10 0;
#X connect 12 0 11 0;
#X connect 12 1 2 0;
#X connect 12 2 1 0;
#X connect 13 0 8 0;
#X connect 14 0 0 0;
#X restore 150 194 pd filt2env;
#X obj 250 232 r filt2_amp;
#X connect 0 0 1 0;
#X connect 1 0 4 0;
#X connect 2 0 1 1;
#X connect 3 0 1 3;
#X connect 4 0 8 0;
#X connect 5 0 6 1;
#X connect 6 0 4 1;
#X connect 7 0 6 0;
#X connect 9 0 1 2;
#X connect 10 0 5 0;
#X restore 134 396 pd reson2;
#N canvas 235 177 486 462 reson3 0;
#X obj 134 49 inlet~;
#X obj 128 240 reson~;
#X obj 139 167 r res;
#X obj 161 219 r Q;
#X obj 214 296 *~ 0;
#X obj 250 254 dbtorms;
#X obj 235 274 f;
#X obj 238 51 inlet;
#X obj 214 357 outlet~;
#N canvas 213 126 393 441 filt3env 0;
#X obj 121 152 unpack f f f f f;
#X obj 87 216 f;
#X obj 132 216 f;
#X obj 132 237 pack f f;
#X obj 190 215 f;
#X obj 190 236 pack f f;
#X obj 118 304 line~;
#X msg 87 237 \$1 0;
#X obj 138 59 sel 0;
#X obj 118 332 outlet~;
#X obj 205 195 f;
#X obj 229 195 f;
#X obj 165 83 t b b b;
#X obj 138 36 r \$0-gate;
#X obj 121 129 r filt3_env;
#X connect 0 0 1 1;
#X connect 0 1 2 1;
#X connect 0 2 3 1;
#X connect 0 3 10 1;
#X connect 0 4 11 1;
#X connect 1 0 7 0;
#X connect 2 0 3 0;
#X connect 3 0 6 0;
#X connect 4 0 5 0;
#X connect 5 0 6 0;
#X connect 6 0 9 0;
#X connect 7 0 6 0;
#X connect 8 0 4 0;
#X connect 8 1 12 0;
#X connect 10 0 4 1;
#X connect 11 0 5 1;
#X connect 12 0 10 0;
#X connect 12 0 11 0;
#X connect 12 1 2 0;
#X connect 12 2 1 0;
#X connect 13 0 8 0;
#X connect 14 0 0 0;
#X restore 150 194 pd filt3env;
#X obj 250 232 r filt3_amp;
#X connect 0 0 1 0;
#X connect 1 0 4 0;
#X connect 2 0 1 1;
#X connect 3 0 1 3;
#X connect 4 0 8 0;
#X connect 5 0 6 1;
#X connect 6 0 4 1;
#X connect 7 0 6 0;
#X connect 9 0 1 2;
#X connect 10 0 5 0;
#X restore 214 398 pd reson3;
#X floatatom 175 276 7 0 0 0 - - - 0;
#X floatatom 134 237 5 0 0 0 - - - 0;
#X obj 134 330 else/bl.square~;
#X connect 0 0 1 1;
#X connect 1 0 2 0;
#X connect 3 0 4 0;
#X connect 4 0 15 0;
#X connect 4 1 7 0;
#X connect 4 1 9 0;
#X connect 5 0 16 0;
#X connect 6 0 14 0;
#X connect 8 0 11 1;
#X connect 8 0 12 1;
#X connect 8 0 13 1;
#X connect 9 0 8 0;
#X connect 10 0 16 1;
#X connect 11 0 1 0;
#X connect 12 0 1 0;
#X connect 13 0 1 0;
#X connect 14 0 10 0;
#X connect 15 0 5 0;
#X connect 16 0 11 0;
#X connect 16 0 12 0;
#X connect 16 0 13 0;
