#N canvas 338 23 946 433 12;
#X floatatom 376 76 5 0 0 0 - freq5 -, f 5;
#X text 414 76 freq_5;
#X floatatom 386 97 5 0 1 0 - index_5 -, f 5;
#X text 424 96 index_5;
#X floatatom 397 119 5 0 0 0 - freq6 -, f 5;
#X floatatom 408 141 5 0 1 0 - index_6 -, f 5;
#X text 435 120 freq_6;
#X text 447 141 index_6;
#X obj 76 185 *~;
#X floatatom 40 34 5 0 0 0 - freq1 -, f 5;
#X floatatom 94 137 5 0 1 0 - index_1 -, f 5;
#X text 76 34 freq_1;
#X text 132 137 index_1;
#X floatatom 53 61 5 0 0 0 - freq2 -, f 5;
#X text 90 61 freq_2;
#X text 103 87 index_2;
#X obj 244 177 *~;
#X floatatom 206 27 5 0 0 0 - freq3 -, f 5;
#X floatatom 219 52 5 0 0 0 - freq4 -, f 5;
#X text 244 27 freq_3;
#X text 300 129 index_3;
#X text 259 52 freq_4;
#X text 270 77 index_4;
#X floatatom 66 87 5 0 1 0 - index_2 -, f 5;
#X floatatom 262 129 5 0 1 0 - index_3 -, f 5;
#X floatatom 232 77 5 0 1 0 - index_4 -, f 5;
#X obj 719 201 pic ./files/ex6.gif;
#X obj 376 165 xmod~;
#X obj 244 225 pan2~;
#X obj 233 300 out~;
#X obj 40 142 pmosc~;
#X obj 206 129 pmosc~;
#X obj 352 263 graph~ 500 8;
#N canvas 214 45 930 618 DX7_patches 0;
#X obj 463 314 pic ./files/DX7.gif;
#X restore 706 332 pd DX7_patches;
#N canvas 382 430 267 286 init 0;
#X obj 71 58 initmess \; freq1 100 \; index_1 0.3 \; freq2 200.1 \;
index_2 0.2 \; freq3 149.7 \; index_3 0.3 \; freq4 300.2 \; index_4
0.5 \; freq5 50 \; index_5 0.25 \; freq6 99.5 \; index_6 0.2 \;;
#X restore 509 209 pd init;
#X text 534 30 The DX7 was the first digital synth of great comercial
success. Famous for being a FM synth \, it's actually implemented as
phase modulation. It has 6 sine wave oscillators \, each has a frequency
and amplitude (index) parameter. The oscillators are organized in 32
patches (or presets). This example recreates patch number 6 \, from
the diagram below., f 55;
#X text 629 281 The subpatch below contain the diagrams for all DX7's
32 patches!, f 34;
#X obj 66 110 f2s~ 10;
#X obj 94 160 f2s~ 10;
#X obj 232 99 f2s~ 10;
#X obj 262 151 f2s~ 10;
#X connect 0 0 27 0;
#X connect 2 0 27 1;
#X connect 4 0 27 2;
#X connect 5 0 27 3;
#X connect 8 0 28 0;
#X connect 9 0 30 0;
#X connect 10 0 38 0;
#X connect 13 0 30 1;
#X connect 16 0 28 0;
#X connect 17 0 31 0;
#X connect 18 0 31 1;
#X connect 23 0 37 0;
#X connect 24 0 40 0;
#X connect 25 0 39 0;
#X connect 27 0 28 0;
#X connect 28 0 29 0;
#X connect 28 1 29 1;
#X connect 28 1 32 0;
#X connect 30 0 8 0;
#X connect 31 0 16 0;
#X connect 37 0 30 2;
#X connect 38 0 8 1;
#X connect 39 0 31 2;
#X connect 40 0 16 1;
