#N canvas 410 104 945 502 12;
#X obj 118 214 nbx 5 16 -2000 2000 0 0 empty \$0-carrier empty 0 -8
0 13 -228856 -1 -1 220 256;
#X obj 292 287 *~;
#X obj 292 250 osc~;
#N canvas 1110 191 273 274 PM_ssb 0;
#X obj 89 225 outlet~;
#X obj 142 160 +~;
#X obj 78 31 inlet~;
#X obj 160 28 inlet~;
#X obj 78 92 hilbert~;
#X obj 89 124 car2pol~;
#X obj 89 190 pol2car~;
#X connect 1 0 6 1;
#X connect 2 0 4 0;
#X connect 3 0 1 1;
#X connect 4 0 5 0;
#X connect 4 1 5 1;
#X connect 5 0 6 0;
#X connect 5 1 1 0;
#X connect 6 0 0 0;
#X restore 655 383 pd PM_ssb;
#X obj 292 220 nbx 5 16 -2000 2000 0 0 empty \$0-mod empty 0 -8 0 13
-228856 -1 -1 1 256;
#X obj 375 242 nbx 5 16 0 2000 0 0 empty \$0-index empty 0 -8 0 13
-228856 -1 -1 50 256;
#X obj 715 336 *~;
#X obj 545 289 osc~;
#X obj 375 273 f2s~ 10;
#X text 385 218 Index;
#X text 119 193 Carrier;
#X text 293 199 Modulating;
#X obj 175 413 out~;
#X obj 612 424 out~;
#X obj 798 322 f2s~ 10;
#X text 474 35 A complex signal also gives us access to the phase \,
so we can modulate it and also achieve a frequency modulation. Open
the subpatch to see how this is implemented.;
#X obj 715 299 tri~;
#X text 475 95 Note that the same properties we've seen about Phase
Modulation still applies. For instance \, changing the modulation frequency
has an effect on the frequency deviation (or index). Also \, the waveform
of the modulator has a different result (a triangular waveform acts
like a square wave in frequency modulation).;
#X text 43 143 You can try other signal inputs \, such as a live input.
;
#X obj 218 358 freq.shift~;
#X obj 227 262 adc~ 1;
#X obj 118 302 xselect~ 2 100 1;
#X obj 73 231 tgl 20 0 empty empty empty 17 7 0 10 -228856 -1 -1 0
1;
#X text 41 41 Frequency shifting allows for a Frequency modulation
into any signal. This is not exactly like FM because changing the frequency
on a sawtooth oscillator changes the pitch \, and (as previously mentioned)
we're not doing pitch shifting! But it is the same thing for a sinisoid
anyway..., f 57;
#X obj 118 260 bl.saw~;
#X obj 73 260 + 1;
#X obj 390 365 initmess \; \$0-carrier 220 \; \$0-mod 1 \; \$0-index
50;
#X obj 546 247 nbx 5 16 -2000 2000 0 0 empty \$0-carrier empty 0 -8
0 13 -228856 -1 -1 220 256;
#X obj 715 270 nbx 5 16 -2000 2000 0 0 empty \$0-mod empty 0 -8 0 13
-228856 -1 -1 1 256;
#X obj 798 292 nbx 5 16 0 2000 0 0 empty \$0-index empty 0 -8 0 13
-228856 -1 -1 50 256;
#X text 808 268 Index;
#X text 547 226 Carrier;
#X text 716 249 Modulating;
#X obj 545 325 xselect~ 2 100 1;
#X obj 507 260 tgl 20 0 empty empty empty 17 7 0 10 -228856 -1 -1 0
1;
#X obj 507 289 + 1;
#X obj 654 290 adc~ 1;
#X connect 0 0 24 0;
#X connect 1 0 19 1;
#X connect 2 0 1 0;
#X connect 3 0 13 0;
#X connect 3 0 13 1;
#X connect 4 0 2 0;
#X connect 5 0 8 0;
#X connect 6 0 3 1;
#X connect 7 0 33 0;
#X connect 8 0 1 1;
#X connect 14 0 6 1;
#X connect 16 0 6 0;
#X connect 19 0 12 0;
#X connect 19 0 12 1;
#X connect 20 0 21 1;
#X connect 21 0 19 0;
#X connect 22 0 25 0;
#X connect 24 0 21 0;
#X connect 25 0 21 0;
#X connect 27 0 7 0;
#X connect 28 0 16 0;
#X connect 29 0 14 0;
#X connect 33 0 3 0;
#X connect 34 0 35 0;
#X connect 35 0 33 0;
#X connect 36 0 33 1;
