#N canvas 183 76 536 565 12;
#X obj 124 156 fexpr~ ($x1[0] + $x1[-1] + $x1[-2] + $x1[-3] + $x1[-4]
+ $x1[-5] + $x1[-6] + $x1[-7]) * 0.125, f 46;
#X obj 290 368 v a;
#X obj 293 323 hsl 128 15 0 0.999 0 0 empty empty empty -2 -8 0 10
-228856 -1 -1 0 1;
#X floatatom 290 344 0 0 0.999 0 - - -;
#X text 104 339 IIR:;
#X text 88 163 FIR:;
#X obj 140 311 noise~;
#X obj 140 340 fexpr~ $x + a * $y;
#X obj 140 378 out~;
#X text 46 35 A filter with only feedforward lines is called "non recursive"
and "Finite Impulse Response" \, or just FIR. On the other hand \,
a filter with feedback is known as "recursive" or Ininite Impulse Response
(IIR). This is because a feedback can lead to infinite repetition.
, f 55;
#X text 47 120 An example of FIR filter is the average filter:;
#X text 317 369 coefficient;
#X text 49 231 And now as an example of IIR \, the one sample feedback
filter from the last example - the difference is that we're abreviatting
the variables and using a value object to insert in the equation as
the coefficient:;
#X text 50 463 Note that if the coefficient is equal to 1 \, then the
filter becomes indeed infinite. Values over 1 explodes the filter pretty
quickly!;
#X connect 2 0 3 0;
#X connect 3 0 1 0;
#X connect 6 0 7 0;
#X connect 7 0 8 0;
#X connect 7 0 8 1;
