#N canvas 669 69 527 480 12;
#X declare -path else;
#X obj 140 353 +~;
#X obj 140 385 out~;
#X obj 321 29 declare -path else;
#X floatatom 140 176 5 0 0 0 - - - 0;
#X floatatom 237 249 5 0 0 0 - - - 0;
#X floatatom 316 249 5 0 0 0 - - - 0;
#X obj 316 188 knob 50 -0.95 0.95 0 0 empty empty #dfdfdf #7c7c7c #000000 1 0 0 0 1 320 0 0 0 empty empty 0 12 0 -15 0 1 0 0 0 0 0;
#X obj 316 278 f2s~;
#N canvas 113 101 350 425 lfo 0;
#X obj 37 37 inlet;
#X obj 37 185 hz2rad;
#X obj 37 212 * 0.5;
#X obj 37 317 f2s~;
#X obj 37 104 rescale 31 90;
#X obj 37 129 mtof;
#X floatatom 37 158 10 0 0 0 - - - 0;
#X text 114 150 around 49 hz to around 1480 hz, f 15;
#X obj 37 238 tan;
#X obj 37 272 expr (1 - $f1) / (1 + $f1), f 14;
#X text 138 104 range;
#X obj 37 361 outlet~;
#X obj 37 72 lfo -tri 0 0 10;
#X connect 0 0 12 0;
#X connect 1 0 2 0;
#X connect 2 0 8 0;
#X connect 3 0 11 0;
#X connect 4 0 5 0;
#X connect 5 0 6 0;
#X connect 6 0 1 0;
#X connect 8 0 9 0;
#X connect 9 0 3 0;
#X connect 12 0 4 0;
#X restore 237 278 pd lfo;
#X text 197 249 rate;
#X text 358 249 feedback;
#X obj 237 188 knob 50 0.1 1 1 0.5 empty empty #dfdfdf #7c7c7c #000000 1 0 0 0 1 320 0 0 0.1 empty empty 0 12 0 -15 0 1 0 0 0 0 0.5;
#N canvas 866 226 377 366 stages-with-feedback 0;
#N canvas 426 208 390 376 2nd.order 0;
#X obj 130 152 rpole~;
#X obj 87 125 rzero_rev~;
#X obj 194 246 rpole~;
#X obj 131 216 rzero_rev~;
#X obj 198 88 r~ \$0-coef;
#X obj 87 35 inlet~;
#X obj 194 296 outlet~;
#X connect 0 0 3 0;
#X connect 1 0 0 0;
#X connect 2 0 6 0;
#X connect 3 0 2 0;
#X connect 4 0 1 1;
#X connect 4 0 0 1;
#X connect 4 0 3 1;
#X connect 4 0 2 1;
#X connect 5 0 1 0;
#X restore 77 158 pd 2nd.order;
#N canvas 428 205 390 376 2nd.order 0;
#X obj 130 152 rpole~;
#X obj 87 125 rzero_rev~;
#X obj 194 246 rpole~;
#X obj 131 216 rzero_rev~;
#X obj 198 88 r~ \$0-coef;
#X obj 87 35 inlet~;
#X obj 194 296 outlet~;
#X connect 0 0 3 0;
#X connect 1 0 0 0;
#X connect 2 0 6 0;
#X connect 3 0 2 0;
#X connect 4 0 1 1;
#X connect 4 0 0 1;
#X connect 4 0 3 1;
#X connect 4 0 2 1;
#X connect 5 0 1 0;
#X restore 77 188 pd 2nd.order;
#N canvas 413 204 390 376 2nd.order 0;
#X obj 130 152 rpole~;
#X obj 87 125 rzero_rev~;
#X obj 194 246 rpole~;
#X obj 131 216 rzero_rev~;
#X obj 198 88 r~ \$0-coef;
#X obj 87 35 inlet~;
#X obj 194 296 outlet~;
#X connect 0 0 3 0;
#X connect 1 0 0 0;
#X connect 2 0 6 0;
#X connect 3 0 2 0;
#X connect 4 0 1 1;
#X connect 4 0 0 1;
#X connect 4 0 3 1;
#X connect 4 0 2 1;
#X connect 5 0 1 0;
#X restore 77 218 pd 2nd.order;
#X obj 77 43 inlet~;
#X obj 77 105 +~;
#X obj 77 312 outlet~;
#X obj 105 271 s~ \$0-fb;
#X obj 232 223 block~ 1;
#X obj 255 99 r~ \$0-fb;
#X obj 237 132 *~;
#X obj 237 43 inlet~;
#X obj 153 43 inlet~;
#X obj 153 82 s~ \$0-coef;
#X connect 0 0 1 0;
#X connect 1 0 2 0;
#X connect 2 0 5 0;
#X connect 2 0 6 0;
#X connect 3 0 4 0;
#X connect 4 0 0 0;
#X connect 8 0 9 1;
#X connect 9 0 4 1;
#X connect 10 0 9 0;
#X connect 11 0 12 0;
#X restore 158 310 pd stages-with-feedback;
#X text 56 69 We now have a phaser with 6 stages and a feedback look from the last stage back to the first one. We can implement this in Vanilla by expanding from the last example and have a subpatch with [block~ 1] and the feedback implemented with a [send~] and [receive~] pair.;
#X obj 140 207 bl.saw~ 60;
#X connect 0 0 1 0;
#X connect 3 0 14 0;
#X connect 4 0 8 0;
#X connect 5 0 7 0;
#X connect 6 0 5 0;
#X connect 7 0 12 2;
#X connect 8 0 12 1;
#X connect 11 0 4 0;
#X connect 12 0 0 1;
#X connect 14 0 0 0;
#X connect 14 0 12 0;
