#N canvas 531 115 560 528 12;
#X declare -path else;
#X obj 94 436 out~;
#X obj 182 200 nbx 5 14 -1e+37 1e+37 0 0 empty empty empty 0 -8 0 10 #fcfcfc #000000 #000000 0 256;
#X obj 182 173 initmess 40;
#X text 244 198 Hz;
#X obj 347 130 declare -path else;
#X obj 84 255 bl.saw~;
#X obj 181 263 bl.saw~;
#X obj 84 392 phaser~ 16;
#X obj 181 393 phaser~ 14;
#X obj 181 236 + 0.5;
#X obj 258 293 rescale~ 100 1000;
#X obj 258 266 vsaw~ 0.2 0.7;
#X obj 258 317 snake~ out;
#X obj 316 236 sig~ 0 0.25;
#X text 33 37 We get back to the earlier stereo phaser example and now we expand it by also having the LFO provide a different input for each channel. We do that by having the same LFO with two outputs out of phase. Below we have a variable saw and two outputs that differ in phase by 90º., f 70;
#X text 315 378 But note that phaser is multichannel aware and you can have a stereo input and different frequency parameters \, but the number of stages would be fixed for both., f 26;
#X connect 1 0 5 0;
#X connect 1 0 9 0;
#X connect 2 0 1 0;
#X connect 5 0 7 0;
#X connect 6 0 8 0;
#X connect 7 0 0 0;
#X connect 8 0 0 1;
#X connect 9 0 6 0;
#X connect 10 0 12 0;
#X connect 11 0 10 0;
#X connect 12 0 7 1;
#X connect 12 1 8 1;
#X connect 13 0 11 2;
