#N canvas 607 211 576 448 12;
#X declare -path else;
#X obj 383 137 declare -path else;
#X obj 85 179 meter;
#X floatatom 85 218 5 0 0 0 - - -;
#X obj 85 257 stdout;
#X obj 214 213 bng 15 250 50 0 empty empty empty 17 7 0 10 -228856
-1 -1;
#X msg 198 145 set 512 50 290;
#X obj 198 113 loadbang;
#X obj 198 265 fdn.rev~ -time 4;
#X obj 214 181 tempo 60 100 -on;
#X obj 214 236 impseq~;
#X obj 432 212 setdsp~ 1;
#X obj 247 318 dac~;
#X text 87 34 This is the patch used in the pd~ example \, which is
very CPU intensive., f 42;
#X connect 1 0 2 0;
#X connect 2 0 3 0;
#X connect 4 0 9 0;
#X connect 5 0 7 0;
#X connect 6 0 5 0;
#X connect 7 0 11 0;
#X connect 7 1 11 1;
#X connect 8 0 4 0;
#X connect 9 0 7 0;
