#N canvas 596 80 502 586 12;
#X obj 295 170 inlet;
#X obj 209 410 *~;
#X obj 209 451 outlet~;
#X obj 86 169 inlet~;
#X obj 227 170 inlet~;
#X obj 295 201 route float q;
#X obj 339 289 else/f2s~ 10;
#X obj 274 260 else/f2s~ 10;
#X obj 133 290 else/f2s~ 10;
#X obj 86 329 else/bandpass~;
#X obj 227 335 else/bandpass~;
#X obj 227 363 else/mov.rms~ 512;
#X obj 274 230 mtof;
#X connect 0 0 5 0;
#X connect 1 0 2 0;
#X connect 3 0 9 0;
#X connect 4 0 10 0;
#X connect 5 0 12 0;
#X connect 5 1 6 0;
#X connect 6 0 9 2;
#X connect 6 0 10 2;
#X connect 7 0 10 1;
#X connect 8 0 9 1;
#X connect 9 0 1 0;
#X connect 10 0 11 0;
#X connect 11 0 1 1;
#X connect 12 0 7 0;
#X connect 12 0 8 0;
