#N canvas 195 283 1074 467 10;
#X obj 266 221 r \$0-clone;
#X obj 539 220 unpack;
#X obj 539 274 s \$0-bottom;
#X obj 578 246 s \$0-steps;
#X obj 138 80 inlet~;
#X obj 77 79 inlet~;
#X obj 77 272 else/norm~ -6;
#X obj 139 363 outlet~;
#X obj 272 77 inlet;
#X obj 138 120 else/noisegate~;
#X obj 240 263 glide~ 10;
#X obj 139 323 *~;
#X msg 803 164 step \$1;
#X msg 912 194 offset \$1;
#X msg 736 242 reset;
#X obj 757 141 t b b f;
#X obj 866 170 t b b f;
#X msg 272 138 all q \$1;
#X obj 866 144 r \$0-bottom;
#X obj 757 117 r \$0-steps;
#X obj 736 292 else/count;
#X obj 810 327 pack;
#X obj 803 260 t b f;
#X obj 539 192 else/initmess 20 4;
#X obj 342 138 else/order;
#X obj 272 104 route q freq;
#X obj 810 360 s \$0-clone;
#X obj 77 214 clone \$1 vocoder.band.clone, f 18;
#X obj 803 233 else/loop \$1;
#X msg 389 105 50;
#X obj 389 73 lb;
#X connect 0 0 27 2;
#X connect 1 0 2 0;
#X connect 1 1 3 0;
#X connect 4 0 9 0;
#X connect 5 0 27 0;
#X connect 6 0 11 0;
#X connect 8 0 25 0;
#X connect 9 0 27 1;
#X connect 9 1 10 0;
#X connect 10 0 11 1;
#X connect 11 0 7 0;
#X connect 12 0 28 0;
#X connect 13 0 28 0;
#X connect 14 0 20 0;
#X connect 15 0 28 0;
#X connect 15 1 14 0;
#X connect 15 2 12 0;
#X connect 16 0 28 0;
#X connect 16 1 14 0;
#X connect 16 2 13 0;
#X connect 17 0 27 2;
#X connect 18 0 16 0;
#X connect 19 0 15 0;
#X connect 20 0 21 0;
#X connect 21 0 26 0;
#X connect 22 0 20 0;
#X connect 22 1 21 1;
#X connect 23 0 1 0;
#X connect 24 0 27 2;
#X connect 25 0 17 0;
#X connect 25 1 24 0;
#X connect 27 0 6 0;
#X connect 28 0 22 0;
#X connect 29 0 17 0;
#X connect 30 0 29 0;
