#N canvas 465 25 798 680 12;
#X declare -path else;
#X obj 161 203 tgl 22 0 empty empty empty 0 -10 0 12 #dfdfdf #000000 #000000 0 1;
#X obj 426 240 declare -path else;
#X obj 161 347 mtof;
#X obj 161 381 bl.saw~;
#X obj 161 527 out~;
#X obj 161 417 *~;
#X obj 230 424 decay2~ 50 1500;
#X obj 464 368 bonk~;
#X obj 585 430 onset~;
#X obj 230 352 bng 19 250 50 0 empty empty empty 0 -10 0 12 #dfdfdf #000000 #000000;
#X obj 634 291 bng 19 250 50 0 empty empty empty 0 -10 0 12 #ffffff #000000 #000000;
#X obj 650 356 timer;
#X obj 650 329 t b b;
#X listbox 650 388 8 0 0 0 - - - 0;
#X obj 650 411 print;
#X obj 634 262 onset~ 0.5;
#X obj 39 349 out~;
#X obj 369 380 onset~ 0.5;
#X obj 413 552 out~;
#X obj 435 451 decay2~ 5 150;
#X obj 370 490 noise~;
#X obj 415 525 *~;
#X obj 464 402 bng 19 250 50 0 empty empty empty 0 -10 0 12 #ffffff #000000 #000000;
#X text 124 27 Onset or attack detection is when we analyze a signal and find the moment that a musical note started. Usually \, the beggining of a note in a accoustic musical instrument produces an unstable sound for a short moment before reaching a pitched stability. This happens \, for instance \, when hammering a piano string or plucking a guitar. We call these components 'transients' and they can be recognized by a quick increase in amplitude and non-periodic (and/or noisy) components., f 69;
#X text 124 136 The [sigmund~] object also reports "note" output and this happens when it detects a note attack. So we have a pitch detection as well as an onset detection., f 69;
#X obj 161 286 sigmund~ -npts 2048 -hop 256 notes;
#X obj 161 241 player~ -loop;
#X connect 0 0 26 0;
#X connect 2 0 3 0;
#X connect 3 0 5 0;
#X connect 5 0 4 0;
#X connect 6 0 5 1;
#X connect 7 0 22 0;
#X connect 9 0 6 0;
#X connect 10 0 12 0;
#X connect 11 0 13 0;
#X connect 12 0 11 0;
#X connect 12 1 11 1;
#X connect 13 0 14 0;
#X connect 15 0 10 0;
#X connect 19 0 21 1;
#X connect 20 0 21 0;
#X connect 21 0 18 0;
#X connect 22 0 19 0;
#X connect 25 0 2 0;
#X connect 25 0 9 0;
#X connect 26 0 17 0;
#X connect 26 0 16 0;
#X connect 26 0 7 0;
#X connect 26 0 25 0;
