#N canvas 224 109 908 530 12;
#X declare -path else;
#X obj 50 322 vsl 16 100 0 1 0 0 empty empty empty 0 -9 0 10 #dcdcdc #000000 #000000 0 1;
#X obj 103 295 *~;
#X obj 49 233 osc~ 440;
#X obj 103 335 out~;
#X text 39 160 Here we have an attack stage of 50 ms and a release stage of 450 ms - the total duration of the envelope is 500 ms.;
#X obj 121 244 envgen~ 50 1 450 0;
#X text 70 413 0;
#X text 70 314 1;
#X obj 50 288 s2f~;
#X obj 304 11 declare -path else;
#X obj 293 325 vsl 16 100 0 1 0 0 empty empty empty 0 -9 0 10 #dcdcdc #000000 #000000 0 1;
#X obj 346 298 *~;
#X obj 292 236 osc~ 440;
#X obj 346 338 out~;
#X text 313 416 0;
#X text 313 317 1;
#X obj 293 291 s2f~;
#X obj 364 247 vline~;
#X msg 364 220 1 50 \, 0 450 50;
#X obj 121 212 bng 21 250 50 0 empty empty empty 17 7 0 10 #dcdcdc #000000 #000000;
#X text 58 462 Just note and remember that [envgen~] has different curve settings other than linear.;
#X text 39 50 An "AR" envelope has an "attack" and a "release" stage. Arguably \, it can be considered an attack/decay envelope instead. The attack is the first stage that starts at 0 and goes to the peak amplitude. Right after the attack is finished we have the release stage (going back to 0). Let's see this first implemented with [envgen~] and [vline~] \, both linearly .;
#X obj 636 156 function 200 100 empty empty 0 1 220 220 220 50 50 50 0 0 0 0 0 750 1 250 0;
#X obj 735 398 vsl 16 100 0 1 0 0 empty empty empty 0 -9 0 10 #dcdcdc #000000 #000000 0 1;
#X obj 618 361 *~;
#X obj 557 314 osc~ 440;
#X obj 618 401 out~;
#X text 755 489 0;
#X text 755 390 1;
#X obj 735 364 s2f~;
#X obj 591 168 bng 21 250 50 0 empty empty empty 17 7 0 10 #dcdcdc #000000 #000000;
#X msg 636 118 0 750 1 250 0;
#X msg 532 253 legato \$1;
#X obj 532 226 tgl 19 0 empty empty empty 17 7 0 10 #dcdcdc #000000 #000000 0 1;
#X obj 636 310 envgen~;
#X obj 636 87 loadbang;
#X msg 653 272 retrigger 20;
#X text 618 21 You can also use [function] in conjunction with [envgen~]., f 30;
#X connect 1 0 3 0;
#X connect 2 0 1 0;
#X connect 5 0 1 1;
#X connect 5 0 8 0;
#X connect 8 0 0 0;
#X connect 11 0 13 0;
#X connect 12 0 11 0;
#X connect 16 0 10 0;
#X connect 17 0 11 1;
#X connect 17 0 16 0;
#X connect 18 0 17 0;
#X connect 19 0 5 0;
#X connect 22 0 34 0;
#X connect 24 0 26 0;
#X connect 25 0 24 0;
#X connect 29 0 23 0;
#X connect 30 0 34 0;
#X connect 31 0 22 0;
#X connect 32 0 34 0;
#X connect 33 0 32 0;
#X connect 34 0 24 1;
#X connect 34 0 29 0;
#X connect 35 0 31 0;
#X connect 36 0 34 0;
