#N canvas 414 70 512 511 12;
#X declare -path else;
#X obj 50 302 vsl 16 100 0 1 0 0 empty empty empty 0 -9 0 10 #dcdcdc #000000 #000000 0 1;
#X obj 103 275 *~;
#X obj 49 213 osc~ 440;
#X obj 103 315 out~;
#X text 39 140 Here we have an attack stage of 50 ms and a release stage of 450 ms - the total duration of the envelope is 500 ms.;
#X obj 121 224 envgen~ 50 1 450 0;
#X text 70 393 0;
#X text 70 294 1;
#X obj 50 268 s2f~;
#X obj 304 21 declare -path else;
#X obj 293 305 vsl 16 100 0 1 0 0 empty empty empty 0 -9 0 10 #dcdcdc #000000 #000000 0 1;
#X obj 346 278 *~;
#X obj 292 216 osc~ 440;
#X obj 346 318 out~;
#X text 313 396 0;
#X text 313 297 1;
#X obj 293 271 s2f~;
#X obj 364 227 vline~;
#X msg 364 200 1 50 \, 0 450 50;
#X obj 121 192 bng 21 250 50 0 empty empty empty 17 7 0 10 #dcdcdc #000000 #000000;
#X text 39 60 An "AR" envelope has an "attack" and a "release" stage. The attack is the first stage that starts at 0 and goes to the peak amplitude. Right after the attack is finished we have the release stage (going back to 0). Let's see this first implemented with [envgen~] and [vline~] \, both linearly ., f 60;
#X text 58 442 Just note and remember that [envgen~] has different curve settings other than linear.;
#X connect 1 0 3 0;
#X connect 2 0 1 0;
#X connect 5 0 1 1;
#X connect 5 0 8 0;
#X connect 8 0 0 0;
#X connect 11 0 13 0;
#X connect 12 0 11 0;
#X connect 16 0 10 0;
#X connect 17 0 11 1;
#X connect 17 0 16 0;
#X connect 18 0 17 0;
#X connect 19 0 5 0;
