#N canvas 417 25 512 575 12;
#X declare -path else;
#X obj 304 21 declare -path else;
#X obj 125 336 vline~;
#X obj 219 336 expr 1000./$f1;
#X obj 342 387 expr 1000./$f1;
#X obj 106 437 *~;
#X obj 44 352 osc~ 440;
#X floatatom 342 417 6 0 0 0 - - - 0;
#X floatatom 219 368 6 0 0 0 - - - 0;
#X floatatom 342 364 6 0 0 0 - - - 0;
#X floatatom 201 250 6 0 0 0 - - - 0;
#X obj 125 396 slop~, f 23;
#X obj 125 245 pack f f;
#X msg 125 294 \$1 \, 0 0 \$2;
#X msg 125 190 1;
#X obj 106 476 out~;
#X obj 318 241 initmess 50 450;
#X text 320 205 initialize attack/release, f 15;
#X floatatom 219 310 5 0 0 0 - - - 0;
#X obj 318 273 dispatch \$0-A \$0-R;
#X obj 201 224 r \$0-A;
#X obj 219 283 r \$0-R;
#X obj 342 340 r \$0-A;
#X text 49 62 For a pure vanilla exponential envelope \, we can rely again on [slop~]. For something like an "AR" envelope triggered by a control value that relates to an "impulse" value \, we just need to use [vline~] to schedule the gate on and off according to the attack phase. The attack and release stage periods are converted to a filter frequency in hertz., f 62;
#X text 154 188 'impulse' value;
#X connect 1 0 10 0;
#X connect 2 0 7 0;
#X connect 3 0 6 0;
#X connect 4 0 14 0;
#X connect 5 0 4 0;
#X connect 6 0 10 5;
#X connect 7 0 10 3;
#X connect 8 0 3 0;
#X connect 9 0 11 1;
#X connect 10 0 4 1;
#X connect 11 0 12 0;
#X connect 12 0 1 0;
#X connect 13 0 11 0;
#X connect 15 0 18 0;
#X connect 17 0 2 0;
#X connect 19 0 9 0;
#X connect 20 0 17 0;
#X connect 21 0 8 0;
