#N canvas 471 23 515 344 12;
#X obj 69 141 noise~;
#X obj 69 227 else/out~;
#X obj 69 177 bpbank~ 4 -freq 250 600 1050 1470 -q 30 25 30 20, f
24;
#X obj 260 141 noise~;
#X obj 260 227 else/out~;
#X obj 260 177 resonbank~ 4 -freq 150 400 950 1270 -decay 50 100 70
90, f 31;
#X text 54 25 The ELSE library has a few filterbank objects. These
are banks of filters in parallel. For instance \, we have bpbank~]
is a bank made of [bandpass~] objects in parallel. Another example
is [resonbank~] \, which is composed of [resonant~] objects in parallel.
Check help files for more info.;
#X connect 0 0 2 0;
#X connect 2 0 1 0;
#X connect 2 0 1 1;
#X connect 3 0 5 0;
#X connect 5 0 4 0;
#X connect 5 0 4 1;
