#N canvas 829 118 448 340 12;
#X obj 102 146 bng 30 250 50 0 empty empty empty 17 7 0 10 -228856
-1 -1;
#N canvas 698 23 458 587 reverb-echo 0;
#X obj 251 92 inlet~;
#X obj 113 535 outlet~;
#X obj 179 535 outlet~;
#X obj 112 179 +~;
#X obj 251 181 -~;
#X obj 112 247 +~;
#X obj 233 246 -~;
#X obj 112 320 +~;
#X obj 215 320 -~;
#X obj 113 396 +~;
#X obj 197 395 -~;
#X obj 113 465 +~;
#X obj 179 465 -~;
#X obj 269 141 ffdelay~ 5;
#X obj 251 210 ffdelay~ 8;
#X obj 233 279 ffdelay~ 13;
#X obj 215 357 ffdelay~ 21;
#X obj 197 428 ffdelay~ 34;
#X obj 179 498 ffdelay~ 55;
#X text 54 22 We have a six stage delay chain \, where an input is
summed to each stage. Note that the [-~] object means the signal is
summed to the inverted polarity signal., f 53;
#X connect 0 0 3 0;
#X connect 0 0 4 0;
#X connect 0 0 13 0;
#X connect 3 0 5 0;
#X connect 3 0 6 0;
#X connect 4 0 14 0;
#X connect 5 0 7 0;
#X connect 5 0 8 0;
#X connect 6 0 15 0;
#X connect 7 0 9 0;
#X connect 7 0 10 0;
#X connect 8 0 16 0;
#X connect 9 0 11 0;
#X connect 9 0 12 0;
#X connect 10 0 17 0;
#X connect 11 0 1 0;
#X connect 12 0 18 0;
#X connect 13 0 4 1;
#X connect 13 0 3 1;
#X connect 14 0 6 1;
#X connect 14 0 5 1;
#X connect 15 0 8 1;
#X connect 15 0 7 1;
#X connect 16 0 10 1;
#X connect 16 0 9 1;
#X connect 17 0 12 1;
#X connect 17 0 11 1;
#X connect 18 0 2 0;
#X restore 255 201 pd reverb-echo;
#X obj 255 121 bng 30 250 50 0 empty empty empty 17 7 0 10 -228856
-1 -1;
#X obj 102 233 out~;
#X obj 255 238 out~;
#X text 48 27 This is a simple echo/reverberator patch. Below to the
left we have a test sound (a sine wave sweep) to be compared to the
right. We have a mono input but a stereo output. Open [reverb-echo]
for implementation details., f 52;
#N canvas 797 186 322 276 test 0;
#X obj 63 116 osc~;
#X obj 96 218 outlet~;
#X obj 96 172 *~;
#X obj 114 33 inlet;
#X obj 114 127 envgen~ 50 1 450 1 50 0;
#X obj 63 86 envgen~ 440 500 800;
#X connect 0 0 2 0;
#X connect 2 0 1 0;
#X connect 3 0 5 0;
#X connect 3 0 4 0;
#X connect 4 0 2 1;
#X connect 5 0 0 0;
#X restore 255 164 pd test;
#N canvas 830 223 313 262 test 0;
#X obj 60 114 osc~;
#X obj 93 216 outlet~;
#X obj 93 170 *~;
#X obj 111 31 inlet;
#X obj 111 125 envgen~ 50 1 450 1 50 0;
#X obj 60 84 envgen~ 440 500 800;
#X connect 0 0 2 0;
#X connect 2 0 1 0;
#X connect 3 0 5 0;
#X connect 3 0 4 0;
#X connect 4 0 2 1;
#X connect 5 0 0 0;
#X restore 102 189 pd test;
#X connect 0 0 7 0;
#X connect 1 0 4 0;
#X connect 1 1 4 1;
#X connect 2 0 6 0;
#X connect 6 0 1 0;
#X connect 7 0 3 0;
#X connect 7 0 3 1;
