#N canvas 576 172 481 467 12;
#N canvas 677 23 708 510 reverb-feedback 0;
#X obj 147 223 +~;
#X obj 208 223 +~;
#X obj 147 444 outlet~;
#X obj 208 444 outlet~;
#X obj 165 173 delread~ \$0-fb1 60;
#X obj 240 404 delwrite~ \$0-fb1 60;
#X text 502 147 Feedback;
#X obj 240 258 expr~ ($v1 + $v2 + $v3 + $v4) * $v5 \; (($v1 - $v2)
+ ($v3 - $v4)) * $v5 \; (($v1 + $v2) - ($v3 + $v4)) * $v5 \; (($v1
- $v2) - ($v3 - $v4)) * $v5;
#X obj 226 198 delread~ \$0-fb2 72;
#X obj 364 198 delread~ \$0-fb3 87;
#X obj 426 226 delread~ \$0-fb4 96;
#X obj 489 331 delwrite~ \$0-fb4 96;
#X obj 406 355 delwrite~ \$0-fb3 87;
#X obj 323 380 delwrite~ \$0-fb2 72;
#X obj 28 146 inlet~;
#X obj 88 147 inlet~;
#X obj 571 149 inlet;
#X obj 571 232 / 2;
#X obj 571 283 f2s~ 10;
#X text 146 29 The stereo input is summed to two feedback delay lines
\, but we have a total of 4 lines and the other two interfere by being
summed in different ways (also with polarity inevrsions by subtraction).
;
#X connect 0 0 2 0;
#X connect 0 0 7 0;
#X connect 1 0 3 0;
#X connect 1 0 7 1;
#X connect 4 0 0 1;
#X connect 7 0 5 0;
#X connect 7 1 13 0;
#X connect 7 2 12 0;
#X connect 7 3 11 0;
#X connect 8 0 1 1;
#X connect 9 0 7 2;
#X connect 10 0 7 3;
#X connect 14 0 0 0;
#X connect 15 0 1 0;
#X connect 16 0 17 0;
#X connect 17 0 18 0;
#X connect 18 0 7 4;
#X restore 148 342 pd reverb-feedback;
#X obj 271 312 nbx 5 16 -1e+37 1e+37 0 0 empty empty empty 0 -8 0 12
-228856 -1 -1 0 256;
#X obj 148 377 out~;
#X obj 274 286 hsl 128 15 0 0.9 0 0 empty empty empty -2 -8 0 10 -228856
-1 -1 0 1;
#X text 304 285 Feedback;
#X obj 245 101 bng 30 250 50 0 empty empty empty 17 7 0 10 -228856
-1 -1;
#X obj 245 188 out~;
#N canvas 830 223 313 262 test 0;
#X obj 60 114 osc~;
#X obj 93 216 outlet~;
#X obj 93 170 *~;
#X obj 111 31 inlet;
#X obj 111 125 envgen~ 50 1 450 1 50 0;
#X obj 60 84 envgen~ 440 500 800;
#X connect 0 0 2 0;
#X connect 2 0 1 0;
#X connect 3 0 5 0;
#X connect 3 0 4 0;
#X connect 4 0 2 1;
#X connect 5 0 0 0;
#X restore 245 144 pd test;
#X text 51 290 same as last ==>, f 8;
#X obj 114 225 bng 30 250 50 0 empty empty empty 17 7 0 10 -228856
-1 -1;
#N canvas 830 223 313 262 test 0;
#X obj 60 114 osc~;
#X obj 93 216 outlet~;
#X obj 93 170 *~;
#X obj 111 31 inlet;
#X obj 111 125 envgen~ 50 1 450 1 50 0;
#X obj 60 84 envgen~ 440 500 800;
#X connect 0 0 2 0;
#X connect 2 0 1 0;
#X connect 3 0 5 0;
#X connect 3 0 4 0;
#X connect 4 0 2 1;
#X connect 5 0 0 0;
#X restore 114 268 pd test;
#X text 286 342 <= click & open;
#X text 50 27 Now besides the last example \, we have a feedback reverb
stage. Open and check it out. This example is the same as the G08.reverb
example from Pd., f 49;
#N canvas 698 23 458 587 reverb-echo 0;
#X obj 251 92 inlet~;
#X obj 113 535 outlet~;
#X obj 179 535 outlet~;
#X obj 112 179 +~;
#X obj 251 181 -~;
#X obj 112 247 +~;
#X obj 233 246 -~;
#X obj 112 320 +~;
#X obj 215 320 -~;
#X obj 113 396 +~;
#X obj 197 395 -~;
#X obj 113 465 +~;
#X obj 179 465 -~;
#X obj 269 141 ffdelay~ 5;
#X obj 251 210 ffdelay~ 8;
#X obj 233 279 ffdelay~ 13;
#X obj 215 357 ffdelay~ 21;
#X obj 197 428 ffdelay~ 34;
#X obj 179 498 ffdelay~ 55;
#X text 54 22 We have a six stage delay chain \, where an input is
summed to each stage. Note that the [-~] object means the signal is
summed to the inverted polarity signal., f 53;
#X connect 0 0 3 0;
#X connect 0 0 4 0;
#X connect 0 0 13 0;
#X connect 3 0 5 0;
#X connect 3 0 6 0;
#X connect 4 0 14 0;
#X connect 5 0 7 0;
#X connect 5 0 8 0;
#X connect 6 0 15 0;
#X connect 7 0 9 0;
#X connect 7 0 10 0;
#X connect 8 0 16 0;
#X connect 9 0 11 0;
#X connect 9 0 12 0;
#X connect 10 0 17 0;
#X connect 11 0 1 0;
#X connect 12 0 18 0;
#X connect 13 0 4 1;
#X connect 13 0 3 1;
#X connect 14 0 6 1;
#X connect 14 0 5 1;
#X connect 15 0 8 1;
#X connect 15 0 7 1;
#X connect 16 0 10 1;
#X connect 16 0 9 1;
#X connect 17 0 12 1;
#X connect 17 0 11 1;
#X connect 18 0 2 0;
#X restore 114 304 pd reverb-echo;
#X connect 0 0 2 0;
#X connect 0 1 2 1;
#X connect 1 0 0 2;
#X connect 3 0 1 0;
#X connect 5 0 7 0;
#X connect 7 0 6 0;
#X connect 7 0 6 1;
#X connect 9 0 10 0;
#X connect 10 0 13 0;
#X connect 13 0 0 0;
#X connect 13 1 0 1;
