#N canvas 736 120 487 469 12;
#X obj 163 130 tgl 15 0 empty empty empty 17 7 0 10 -228856 -1 -1 0
127;
#X msg 163 162 30 \$1;
#X obj 216 130 tgl 15 0 empty empty empty 17 7 0 10 -228856 -1 -1 0
127;
#X msg 216 162 33 \$1;
#X obj 272 131 tgl 15 0 empty empty empty 17 7 0 10 -228856 -1 -1 0
127;
#X msg 272 163 36 \$1;
#X obj 324 132 tgl 15 0 empty empty empty 17 7 0 10 -228856 -1 -1 0
127;
#X msg 324 164 39 \$1;
#X obj 205 329 *~;
#X obj 163 267 mtof;
#X obj 223 266 / 127;
#X obj 205 380 else/out~;
#X obj 223 235 else/display;
#X obj 163 236 else/display;
#X obj 223 296 adsr~ 200 50 0.75 500;
#X obj 163 297 bl.saw~;
#X obj 163 210 mono, f 9;
#X text 40 20 The [mono] object \, from ELSE \, manages note messages
and emulates the behaviour of classic monophonic synthesizers.;
#X text 39 56 The object keeps track of up the pressed notes. By default
\, any new note is played \, but when you release it \, it plays back
the last pressed note. Check the help file for more information.;
#X connect 0 0 1 0;
#X connect 1 0 16 0;
#X connect 2 0 3 0;
#X connect 3 0 16 0;
#X connect 4 0 5 0;
#X connect 5 0 16 0;
#X connect 6 0 7 0;
#X connect 7 0 16 0;
#X connect 8 0 11 0;
#X connect 8 0 11 1;
#X connect 9 0 15 0;
#X connect 10 0 14 0;
#X connect 12 0 10 0;
#X connect 13 0 9 0;
#X connect 14 0 8 1;
#X connect 15 0 8 0;
#X connect 16 0 13 0;
#X connect 16 1 12 0;
