#N canvas 572 99 575 583 12;
#X declare -path else;
#X obj 329 31 declare -path else;
#X obj 228 225 pow~ 2;
#X floatatom 228 394 12 0 0 0 - - - 16;
#X floatatom 228 371 12 0 0 0 - - - 16;
#X obj 391 331 else/setdsp~;
#X obj 228 287 sqrt~;
#X obj 99 277 mov.rms~ 1024;
#X obj 99 310 s2f~ 750;
#X obj 228 340 s2f~ 750;
#X obj 228 312 lin2db~;
#X obj 228 257 mov.avg~ 1024;
#X obj 228 184 play.file~ kantele.flac 1 1;
#X text 64 75 With a moving sum you can not only average it to implement an average filter \, but you can also implement another kind of average \, the Root Mean Square (RMS). This is how [mov.rms~] relates to [mov.avg~] and how to implement it with it.;
#X text 95 459 A moving RMS is important to implement effects like a compressor and other dinamic processors. You can refer back to those examples or check the object below., f 54;
#X obj 365 531 compress~;
#X connect 1 0 10 0;
#X connect 5 0 9 0;
#X connect 6 0 7 0;
#X connect 7 0 2 0;
#X connect 8 0 3 0;
#X connect 9 0 8 0;
#X connect 10 0 5 0;
#X connect 11 0 1 0;
#X connect 11 0 6 0;
