#N canvas 215 35 795 465 12;
#X obj 421 108 nbx 5 14 -1e+37 1e+37 0 0 empty Hz empty 0 -8 0 10 -228856
-1 -1 0 256;
#X obj 132 80 nbx 5 14 -1e+37 1e+37 0 0 empty empty empty 0 -8 0 10
-228856 -1 -1 0 256;
#X obj 62 79 nbx 5 14 -1e+37 1e+37 0 0 empty empty empty 0 -8 0 10
-228856 -1 -1 0 256;
#X text 195 135 width;
#X obj 132 135 rescale~;
#X obj 65 232 out~;
#X obj 175 210 graph~ 500 7 1.1 -1.1;
#X obj 108 163 square~ 200;
#X obj 434 279 out~;
#X obj 477 197 vsaw~ 300;
#X obj 542 237 else/graph~ 447 12;
#X text 43 17 We can use an oscillator to modulate the pulse width
of a square wave. This is "Pulse Width Modulation" - or "PMW" for short.
, f 46;
#X text 44 379 Modulation frequencies above 20Hz also generates spectral
components similarly to FM/PM. The same is true with the saw/triangular
wave example.;
#X obj 497 108 nbx 5 14 -1e+37 1e+37 0 0 empty mod empty 0 -8 0 10
-228856 -1 -1 0 256;
#X obj 497 134 osc~ 0.5;
#X text 561 164 width;
#X obj 497 164 rescale~;
#X obj 132 106 osc~ 0.25;
#X text 399 56 The PWM concept also applies to [vsaw~] \, which generates
sawtooth/triangular waves., f 42;
#X connect 0 0 9 0;
#X connect 1 0 17 0;
#X connect 2 0 7 0;
#X connect 4 0 7 1;
#X connect 7 0 5 0;
#X connect 7 0 5 1;
#X connect 7 0 6 0;
#X connect 9 0 8 0;
#X connect 9 0 8 1;
#X connect 9 0 10 0;
#X connect 13 0 14 0;
#X connect 14 0 16 0;
#X connect 16 0 9 1;
#X connect 17 0 4 0;
