#N canvas 601 234 557 301 12;
#X obj 111 68 inlet;
#X obj 111 216 outlet;
#X obj 111 161 nbx 5 25 -1e+37 1e+37 0 0 empty empty empty 0 -8 0 15
-228856 -1 -1 0 256;
#X text 120 121 graph on parent, f 8;
#X text 235 158 The size of the graph can also be set in the same properties
windows in the “Range and Size” section, f 38;
#X text 235 88 This is an abstraction with "graph on parent". Right
click into an empty spot on the patch and choose "properties" to access
this option., f 38;
#X connect 0 0 2 0;
#X connect 2 0 1 0;
#X coords 0 -1 1 1 100 100 1 100 100;
