#N canvas 326 105 859 479 12;
#X obj 190 280 sig2float~;
#X obj 190 306 vsl 16 80 0 1 0 0 empty empty empty 0 -9 0 10 -228856
-1 -1 0 1;
#X obj 115 279 *~;
#X obj 49 235 osc~ 440;
#X obj 72 328 out~;
#X obj 133 159 tgl 20 0 empty empty empty 17 7 0 10 -228856 -1 -1 0
1;
#X text 156 159 gate;
#X obj 486 131 envelope;
#X obj 432 220 bng 18 250 50 0 empty empty empty 17 7 0 10 -228856
-1 -1;
#X text 695 125 1;
#X obj 324 274 *~;
#X obj 281 351 else/out~;
#X text 694 221 0;
#X obj 324 205 nbx 5 14 -1e+37 1e+37 0 0 empty empty empty 0 -8 0 10
-262144 -1 -1 200 256;
#X msg 483 272 0 200 1 200 0.6 400 0.6 200 1 200 0;
#X obj 432 341 sig2float~;
#X obj 432 367 vsl 16 80 0 1 0 0 empty empty empty 0 -9 0 10 -228856
-1 -1 0 1;
#X text 78 32 The [envgen~] object`can be used for more complex and
custom envelope types. Below we have an example where there's the release
is preceeded by another attack., f 42;
#X text 699 172 <= envelope;
#X text 402 30 You can also use [envelope] to generate breakpoints
functions for [envgen~]. Below we also have an attack before the release.
, f 52;
#X obj 324 176 initmess 200;
#X obj 133 188 envgen~ 50 1 50 0.5 200 1 100 0 -suspoint 2, f 15;
#X obj 483 98 initmess 0 200 1 200 0.6 400 0.6 200 1 200 0;
#X obj 324 238 bl.tri~;
#X obj 432 300 envgen~;
#X obj 483 244 setmess;
#X text 565 362 Check the help file of [envgen~] and [envelope] for
more details., f 32;
#X connect 0 0 1 0;
#X connect 2 0 4 1;
#X connect 2 0 4 0;
#X connect 3 0 2 0;
#X connect 5 0 21 0;
#X connect 7 0 25 0;
#X connect 8 0 24 0;
#X connect 10 0 11 1;
#X connect 10 0 11 0;
#X connect 13 0 23 0;
#X connect 15 0 16 0;
#X connect 20 0 13 0;
#X connect 21 0 0 0;
#X connect 21 0 2 1;
#X connect 22 0 7 0;
#X connect 23 0 10 0;
#X connect 24 0 10 1;
#X connect 24 0 15 0;
#X connect 25 0 14 0;
#X connect 25 0 24 0;
