#N canvas 397 43 438 387 12;
#X obj 81 201 sig~ 100;
#X obj 143 314 out~;
#X obj 143 278 bob~;
#X obj 81 222 bl.saw~;
#X obj 309 312 initmess \; cutoff 500 \; Q 3;
#X obj 155 180 nbx 5 14 -1e+37 1e+37 0 0 empty empty empty 0 -8 0 10
-228856 -1 -1 500 256;
#X obj 168 232 nbx 5 14 0 4 0 0 empty empty empty 0 -8 0 10 -228856
-1 -1 3 256;
#X obj 158 155 hsl 128 15 100 5000 0 0 empty cutoff empty -2 -8 0 10
-228856 -1 -1 1037 1;
#X obj 171 211 hsl 128 15 0 4 0 0 empty Q empty -2 -8 0 10 -228856
-1 -1 9525 1;
#X text 40 209 Input;
#X text 31 26 The vanilla [bob~] is the latest addition to Pure Data.
It accepts audio signals for both resonant frequency and Q!, f 55
;
#X text 186 154 Frequency;
#X text 193 210 Q/Resonance;
#X text 31 77 This object emulates the famous and iconic moog filter
designed by Robert Moog (hence the name \, [bob~]). Though not specified
as such \, this is is a lowpass resonant filter. Check its help file
for more details., f 55;
#X connect 0 0 3 0;
#X connect 2 0 1 0;
#X connect 2 0 1 1;
#X connect 3 0 2 0;
#X connect 5 0 2 1;
#X connect 6 0 2 2;
#X connect 7 0 5 0;
#X connect 8 0 6 0;
