#N canvas 371 70 1018 569 12;
#X declare -path else;
#X obj 796 29 declare -path else;
#X obj 138 255 *~;
#X obj 138 298 out~;
#X obj 156 209 adsr~ 0 2000 0 0, f 21;
#X obj 94 210 brown~;
#X floatatom 228 172 5 0 0 0 - - - 0;
#X obj 300 239 tgl 19 0 empty empty empty 0 -10 0 12 #dfdfdf #000000 #000000 0 1;
#X obj 186 241 numbox~ 6 12 100 #C0C0C4 #440008 10 0 0 0;
#X text 288 269 status;
#X obj 508 310 *~;
#X obj 526 190 bng 21 250 50 0 empty empty empty 17 7 0 10 #dcdcdc #000000 #000000;
#X obj 508 353 out~;
#X obj 526 226 float2imp~;
#X obj 454 254 brown~;
#X floatatom 622 235 5 0 0 0 - - - 0;
#X obj 670 294 tgl 19 0 empty empty empty 0 -10 0 12 #dfdfdf #000000 #000000 0 1;
#X obj 556 296 numbox~ 6 12 100 #C0C0C4 #440008 10 0 0 0;
#X text 658 324 status;
#X obj 526 264 asr~ 0 2000, f 21;
#X text 227 149 Decay;
#X text 613 209 'Decay';
#X text 28 375 The arguments set the attack \, decay \, sustain point and release parameters. Hence \, you can see we have the decay parameter set to "2000" ms. The 4th inlet sets the decay parameter as well. The decay stage \, by default is non linear \, simliar to but not like the [decay~] object. There's also a curve factor that sets this exponential curve (same as with the [smooth~] object. The object has more features \, it also has a 'lag' mode \, which is in fact a one-pole filter like [decay~]. You can see above it also has a status right outlet \, which shows when the envelope is done., f 58;
#X obj 761 314 vsl 16 100 0 1 0 0 empty empty empty 0 -9 0 10 #dcdcdc #000000 #000000 0 1;
#X obj 811 287 *~;
#X obj 811 327 out~;
#X msg 829 187 1;
#X msg 865 187 0.5;
#X text 781 402 0;
#X text 781 309 1;
#X obj 761 285 s2f~;
#X obj 758 229 brown~;
#X msg 829 224 \$1 2000 0 \, bang;
#X obj 829 252 envgen~ -curve 1;
#X text 536 460 Note that [envgen~] \, with all its several features and curve settings \, also includes the same curve factor used in [adsr~] and [asr~] \, used in [smooth~]. Just set the curve value as a float., f 56;
#X obj 156 148 tgl 19 0 empty empty empty 0 -10 0 12 #dfdfdf #000000 #000000 0 1;
#X obj 156 172 sig~;
#X text 25 24 The [adsr~] object has attack \, decay \, sustain point and release \, but we can just use the 'decay' phase of it. We'll see more examples and details about this object. For now \, note that it can be controlled by gates (which is the case in the example below) or impulses with a minimum sustain flag., f 52;
#X text 451 73 On the other hand \, the [asr~] object is a simplified version of [adsr~] \, without the decay section and also without the sustain point parameter. By only setting the release phase \, we also implement just a 'decay' envelope. Note that in order for this to work you need to trigger it with an impulse \, which immediately goes to the release phase. We'll see more about this object later as well and for now you can have a good check in the help file of both., f 77;
#X connect 1 0 2 0;
#X connect 3 0 1 1;
#X connect 3 0 7 0;
#X connect 3 1 6 0;
#X connect 4 0 1 0;
#X connect 5 0 3 3;
#X connect 9 0 11 0;
#X connect 10 0 12 0;
#X connect 12 0 18 0;
#X connect 13 0 9 0;
#X connect 14 0 18 2;
#X connect 18 0 9 1;
#X connect 18 0 16 0;
#X connect 18 1 15 0;
#X connect 23 0 24 0;
#X connect 25 0 31 0;
#X connect 26 0 31 0;
#X connect 29 0 22 0;
#X connect 30 0 23 0;
#X connect 31 0 32 0;
#X connect 32 0 23 1;
#X connect 32 0 29 0;
#X connect 34 0 35 0;
#X connect 35 0 3 0;
