#N canvas 285 25 956 618 12;
#X obj 605 48 loadbang;
#X obj 272 127 nbx 5 14 0 1e+37 0 0 empty empty empty 0 -8 0 10 -228856
-1 -1 1 256;
#X text 285 544 signal;
#X obj 303 401 nbx 5 14 0 1e+37 0 0 empty empty empty 0 -8 0 10 -228856
-1 -1 1 256;
#X text 309 193 signal;
#X obj 548 172 noise~;
#N canvas 411 67 503 581 Spectral-Gate(median) 0;
#X obj 227 366 *~;
#X obj 89 22 inlet~;
#X obj 188 367 *~;
#X obj 89 79 rfft~;
#X obj 188 397 rifft~;
#X obj 188 528 outlet~;
#X obj 123 369 *~;
#X obj 84 370 *~;
#X obj 84 400 rifft~;
#X obj 84 528 outlet~;
#X obj 84 429 /~ 1536;
#X obj 357 22 inlet;
#X obj 188 427 /~ 1536;
#X obj 224 76 block~ 1024 4;
#X obj 199 156 mag~ power;
#X obj 89 50 hann~;
#X obj 84 501 hann~;
#X obj 188 498 hann~;
#X obj 199 220 expr~ $v1 < ($v2 * $f3);
#X obj 245 301 expr~ 1 - $v1;
#X obj 278 193 median~ 32;
#X connect 0 0 4 1;
#X connect 1 0 15 0;
#X connect 2 0 4 0;
#X connect 3 0 7 0;
#X connect 3 0 2 0;
#X connect 3 0 14 0;
#X connect 3 1 6 0;
#X connect 3 1 0 0;
#X connect 3 1 14 1;
#X connect 4 0 12 0;
#X connect 6 0 8 1;
#X connect 7 0 8 0;
#X connect 8 0 10 0;
#X connect 10 0 16 0;
#X connect 11 0 18 2;
#X connect 12 0 17 0;
#X connect 14 0 18 0;
#X connect 14 0 20 0;
#X connect 15 0 3 0;
#X connect 16 0 9 0;
#X connect 17 0 5 0;
#X connect 18 0 6 1;
#X connect 18 0 7 1;
#X connect 18 0 19 0;
#X connect 19 0 0 1;
#X connect 19 0 2 1;
#X connect 20 0 18 1;
#X restore 571 423 pd Spectral-Gate(median);
#X obj 131 488 out~;
#X obj 260 489 out~;
#X obj 163 224 out~;
#X obj 272 224 out~;
#N canvas 270 157 566 616 Spectral-Gate 0;
#X obj 111 38 inlet~;
#X obj 40 546 outlet~;
#X obj 111 133 rfft~;
#X obj 40 424 rifft~;
#X obj 40 514 /~ 1536;
#X obj 291 134 block~ 1024 4;
#X obj 40 366 *~;
#X obj 73 366 *~;
#X obj 111 365 *~;
#X obj 144 365 *~;
#X obj 111 547 outlet~;
#X obj 111 425 rifft~;
#X obj 111 522 /~ 1536;
#X obj 162 206 mag~;
#X obj 40 483 hann~;
#X obj 111 489 hann~;
#X obj 162 287 expr~ 1 - $v1;
#X obj 111 93 hann~;
#X obj 162 240 expr~ $v1 < $f2;
#X obj 264 35 inlet;
#X connect 0 0 17 0;
#X connect 2 0 6 0;
#X connect 2 0 8 0;
#X connect 2 0 13 0;
#X connect 2 1 7 0;
#X connect 2 1 9 0;
#X connect 2 1 13 1;
#X connect 3 0 14 0;
#X connect 4 0 1 0;
#X connect 6 0 3 0;
#X connect 7 0 3 1;
#X connect 8 0 11 0;
#X connect 9 0 11 1;
#X connect 11 0 15 0;
#X connect 12 0 10 0;
#X connect 13 0 18 0;
#X connect 14 0 4 0;
#X connect 15 0 12 0;
#X connect 16 0 9 1;
#X connect 16 0 8 1;
#X connect 17 0 2 0;
#X connect 18 0 6 1;
#X connect 18 0 7 1;
#X connect 18 0 16 0;
#X connect 19 0 18 1;
#X restore 163 160 pd Spectral-Gate;
#X msg 605 146 open ../../../samples/\$1.wav;
#X msg 605 79 symbol kantele;
#X msg 619 108 symbol bubul;
#X text 79 189 noise floor;
#X text 75 19 Here we divide the spectral components above and below
an amplitude threshold. We'll consider the components above as the
signal and the ones below as the noise floor. The first example considers
a threshold., f 49;
#X text 360 400 level;
#N canvas 460 23 558 701 Spectral-Gate(average) 0;
#X obj 198 460 *~;
#X obj 166 46 inlet~;
#X obj 157 461 *~;
#X obj 166 113 rfft~;
#X obj 157 491 rifft~;
#X obj 157 622 outlet~;
#X obj 255 125 block~ 1024 4;
#X obj 104 461 *~;
#X obj 63 462 *~;
#X obj 63 494 rifft~;
#X obj 63 622 outlet~;
#X obj 63 523 /~ 1536;
#X obj 374 48 inlet;
#X obj 157 521 /~ 1536;
#X obj 216 198 mag~;
#X obj 166 84 hann~;
#X obj 63 565 hann~;
#X obj 157 562 hann~;
#X obj 216 402 expr~ 1 - $v1;
#X obj 216 357 expr~ $v1 < ($v2 * $f3);
#X obj 295 251 mov.avg~ 512;
#X connect 0 0 4 1;
#X connect 1 0 15 0;
#X connect 2 0 4 0;
#X connect 3 0 2 0;
#X connect 3 0 8 0;
#X connect 3 0 14 0;
#X connect 3 1 0 0;
#X connect 3 1 7 0;
#X connect 3 1 14 1;
#X connect 4 0 13 0;
#X connect 7 0 9 1;
#X connect 8 0 9 0;
#X connect 9 0 11 0;
#X connect 11 0 16 0;
#X connect 12 0 19 2;
#X connect 13 0 17 0;
#X connect 14 0 19 0;
#X connect 14 0 20 0;
#X connect 15 0 3 0;
#X connect 16 0 10 0;
#X connect 17 0 5 0;
#X connect 18 0 2 1;
#X connect 18 0 0 1;
#X connect 19 0 7 1;
#X connect 19 0 8 1;
#X connect 19 0 18 0;
#X connect 20 0 19 1;
#X restore 131 422 pd Spectral-Gate(average);
#X text 143 546 noise floor;
#X text 76 305 The next example considers an average as the threshold.
A level parameter is multiplied by this average., f 45;
#X obj 736 400 nbx 5 14 0 1e+37 0 0 empty empty empty 0 -8 0 10 -228856
-1 -1 1 256;
#X text 793 399 level;
#X obj 528 470 out~;
#X obj 736 466 out~;
#X obj 605 207 s~ \$0-in;
#X obj 571 395 r~ \$0-in;
#X obj 131 379 r~ \$0-in;
#X obj 163 127 r~ \$0-in;
#X text 503 313 The last example also uses an average value for the
threshold \, but now it's a median instead of an avegrage. This seems
to work better for extracting tonal peaks.;
#X obj 736 373 initmess 1;
#X obj 303 370 initmess 1;
#X obj 272 101 initmess 1;
#X text 759 523 signal;
#X text 557 526 noise floor;
#X obj 605 173 play.file~ -loop;
#X connect 0 0 13 0;
#X connect 1 0 11 1;
#X connect 3 0 18 1;
#X connect 6 0 23 0;
#X connect 6 0 23 1;
#X connect 6 1 24 0;
#X connect 6 1 24 1;
#X connect 11 0 9 0;
#X connect 11 0 9 1;
#X connect 11 1 10 0;
#X connect 11 1 10 1;
#X connect 12 0 35 0;
#X connect 13 0 12 0;
#X connect 14 0 12 0;
#X connect 18 0 7 0;
#X connect 18 0 7 1;
#X connect 18 1 8 0;
#X connect 18 1 8 1;
#X connect 21 0 6 1;
#X connect 26 0 6 0;
#X connect 27 0 18 0;
#X connect 28 0 11 0;
#X connect 30 0 21 0;
#X connect 31 0 3 0;
#X connect 32 0 1 0;
#X connect 35 0 25 0;
