#N canvas 290 86 846 448 12;
#X declare -path else;
#X obj 249 323 nbx 5 14 0 10 0 0 \$0-reson \$0-reson-set empty 0 -8 0 10 #dcdcdc #000000 #000000 0 256;
#X obj 154 273 nbx 8 14 20 20000 0 0 \$0-freq \$0-freq-set empty 0 -8 0 10 #dcdcdc #000000 #000000 0 256;
#X obj 157 248 hsl 200 15 200 10000 1 0 empty \$0-freq-slider-set empty -2 -8 0 10 #dcdcdc #000000 #000000 0 1;
#X obj 252 301 hsl 150 15 1 100 1 0 empty \$0-reson-slider-set empty -2 -8 0 10 #dcdcdc #000000 #000000 0 1;
#X obj 506 182 noise~;
#X obj 103 362 out~;
#X obj 524 264 out~;
#X obj 654 220 nbx 5 14 10 100 0 0 \$0-reson \$0-reson-set empty 0 -8 0 10 #dcdcdc #000000 #000000 0 256;
#X obj 578 197 nbx 5 14 20 20000 0 0 \$0-freq \$0-freq-set empty 0 -8 0 10 #dcdcdc #000000 #000000 0 256;
#X obj 581 172 hsl 200 15 200 10000 1 0 empty \$0-freq-slider-set empty -2 -8 0 10 #dcdcdc #000000 #000000 0 1;
#X obj 657 198 hsl 150 15 10 100 0 0 empty \$0-reson-slider-set empty -2 -8 0 10 #dcdcdc #000000 #000000 0 1;
#X text 192 247 Resonant Frequency;
#X text 282 300 Q/Resonance;
#X obj 524 221 bandpass~ 500 50;
#X text 608 171 Resonant Frequency;
#X text 684 197 Q/Resonance;
#X obj 154 299 f2s~ 10 500;
#X text 39 98 To filter a sound is to either attenuate or boost some of its frequency content. We'll see filters in details in the next section. Most commonly \, subtractive synthesis uses Lowpass Resonant filters \, such as [lowpass~] \, from ELSE. This filter "passes" frequencies below the resonant frequency and a resonance parameter boosts the resonant frequency., f 49;
#X text 496 352 You can check the help files of these filters for more details \, before the next section where we have a deeper look into basic filters., f 38;
#X obj 649 16 declare -path else;
#X text 461 51 Noise sources are also suitable for filtering in subtractive synthesis. Here's [noise~] going through [bandpass~] \, a filter that only passes a band/range of frequency and whose resonance controls the width of this frequency band. For a vey high Q/Resonance \, note how we can perceive a clear pitch., f 48;
#X obj 62 270 bl.saw~ 50;
#X obj 103 325 lowpass~ 500 10;
#X text 39 15 Subtractive Synthesis is a technique that can be generalized as simply applying filtering into a sound source \, preferably a rich and complex sound like a sawtooth oscillator. Particularly \, it's important that the filter is modulated somehow., f 49;
#X connect 0 0 22 2;
#X connect 1 0 16 0;
#X connect 2 0 1 0;
#X connect 3 0 0 0;
#X connect 4 0 13 0;
#X connect 7 0 13 2;
#X connect 8 0 13 1;
#X connect 9 0 8 0;
#X connect 10 0 7 0;
#X connect 13 0 6 0;
#X connect 16 0 22 1;
#X connect 21 0 22 0;
#X connect 22 0 5 0;
