#N canvas 624 89 510 653 12;
#X declare -path else;
#X text 184 223 LFO;
#X text 95 339 Hz;
#X obj 72 456 out~;
#X obj 288 16 declare -path else;
#X obj 116 340 numbox~ 6 12 100 #C0C0C4 #440008 10 0 0 0;
#X obj 116 309 mtof~;
#X obj 116 281 rescale~ 48 72;
#X obj 72 421 lowpass~ 0 15;
#X obj 158 375 bl.saw~ 50;
#X obj 256 281 rescale~ 130.813 523.251;
#X obj 214 456 out~;
#X obj 214 421 lowpass~ 0 15;
#X obj 256 319 numbox~ 6 12 100 #C0C0C4 #440008 10 0 0 0;
#X obj 116 223 osc~ 0.1;
#X floatatom 116 193 5 0 0 0 - - - 0;
#X text 52 63 The filter cuttof input in Pd objects are in hertz \, but the cutoff frequency sweep/modulation is usually done exponentially \, as with oscillatos \, which means we should have a proper input in MIDI pitches and convert to frequency. Below we can compare both ways and try to note the difference \, which can be quite subtle to hear \, but it's easy to understand why it exists., f 56;
#X text 60 559 The sweep from the left \, for the middle point \, is '60' (middle C \, around 261.62 hz). To the right we have the same frequency range (C3 to C4) but the middle frequency position is close to E4 instead (around 327.03 Hz)., f 57;
#X text 25 282 Exponential;
#X text 434 281 linear;
#X connect 4 0 7 1;
#X connect 5 0 4 0;
#X connect 6 0 5 0;
#X connect 7 0 2 0;
#X connect 8 0 7 0;
#X connect 8 0 11 0;
#X connect 9 0 12 0;
#X connect 11 0 10 0;
#X connect 12 0 11 1;
#X connect 13 0 6 0;
#X connect 13 0 9 0;
#X connect 14 0 13 0;
