#N canvas 555 161 614 698 12;
#X declare -path else;
#X obj 386 22 declare -path else;
#X text 499 839 Eu to tocando C3 e mudo o tracking amount e o som muda. Eu posso ajustar pra fazer soar igual se eu mudar;
#X obj 123 332 mtof;
#X obj 123 368 nbx 5 14 -1e+37 1e+37 0 0 empty empty empty 0 -8 0 10 #dcdcdc #000000 #000000 0 256;
#X text 102 366 Hz;
#X obj 123 269 tempo 60 100;
#X obj 290 588 out~;
#N canvas 751 343 466 348 oscillator 0;
#X obj 193 155 *~ 0.5;
#X obj 193 211 outlet~;
#X text 63 85 detuned octave above, f 7;
#X obj 123 78 *~ 2.01;
#X obj 193 34 inlet~;
#X obj 193 112 bl.square~;
#X obj 123 112 bl.saw~;
#X obj 284 143 brown~;
#X obj 284 167 dbgain~ -22;
#X connect 0 0 1 0;
#X connect 3 0 6 0;
#X connect 4 0 3 0;
#X connect 4 0 5 0;
#X connect 5 0 0 0;
#X connect 6 0 0 0;
#X connect 7 0 8 0;
#X connect 8 0 1 0;
#X restore 123 436 pd oscillator;
#X text 46 405 Portamento;
#X obj 123 405 f2s~ 125;
#X text 59 226 Generate Random pitches, f 9;
#X obj 123 300 rand.i 24 51;
#X obj 123 231 tgl 30 0 empty empty empty 0 -6 0 8 #dcdcdc #000000 #000000 0 1;
#X obj 123 204 loadbang;
#X obj 333 509 mtof~;
#X obj 333 411 osc~ 2;
#X obj 333 475 +~ 70;
#X obj 333 441 *~ 2;
#X text 58 64 Below we have the oscillator section in a subpatch where we use a rich sound that combines a square and a sawtooth oscillator \, hence we have wave stacking \, which is a kind of additive synthesis. Not only that \, but we're also adding some noise \, which can be of any kind but this example uses 'brown'. This means that subtractive synthesis is also about adding before filtring (and "subtracting")., f 66;
#X obj 210 480 drive~;
#X obj 248 359 knob 50 1 10 1 1 empty empty #dfdfdf #7c7c7c #000000 1 0 0 0 1 320 0 0 1 empty empty 0 12 0 -15 0 1 0 0 1 0;
#X floatatom 248 423 5 0 0 0 - - - 0;
#X text 333 385 LFO;
#X obj 289 542 lowpass~ 0 10;
#X obj 431 453 knob 50 1 20 1 10 empty empty #dfdfdf #7c7c7c #000000 1 0 0 0 1 320 0 0 1 empty empty 0 12 0 -15 0 1 0 0 1 0;
#X floatatom 431 508 5 0 0 0 - - - 0;
#X text 429 426 resonance;
#X text 254 334 DRIVE;
#X text 254 195 Another common practive is to pass the sound source through an overdrive before filtering \, which changes the spectral content before filtering. In this case we're using a 'tanh' function in drive (a waveshaping distortion)., f 37;
#X connect 2 0 3 0;
#X connect 3 0 9 0;
#X connect 5 0 11 0;
#X connect 7 0 19 0;
#X connect 9 0 7 0;
#X connect 11 0 2 0;
#X connect 12 0 5 0;
#X connect 13 0 12 0;
#X connect 14 0 23 1;
#X connect 15 0 17 0;
#X connect 16 0 14 0;
#X connect 17 0 16 0;
#X connect 19 0 23 0;
#X connect 20 0 21 0;
#X connect 21 0 19 1;
#X connect 23 0 6 0;
#X connect 24 0 25 0;
#X connect 25 0 23 2;
