#N canvas 494 51 819 849 12;
#X declare -path else;
#X obj 137 346 mtof;
#X obj 137 382 nbx 5 14 -1e+37 1e+37 0 0 empty empty empty 0 -8 0 10 #dcdcdc #000000 #000000 0 256;
#X text 116 380 Hz;
#X obj 544 490 vcf~ 7;
#X obj 520 219 vcf~ 15;
#X obj 472 150 *~ 5;
#X obj 137 283 tempo 60 100;
#X obj 215 532 out~;
#X obj 240 381 stepnoise~ 5;
#X obj 310 411 rampnoise~ 0.5;
#X obj 472 124 bl.saw~;
#X obj 472 93 rescale~ 30 130;
#X obj 472 58 rampnoise~ 1.5;
#X obj 543 151 stepnoise~ 15;
#X obj 543 180 rescale~ 100 500;
#X obj 544 524 out~;
#X obj 478 434 bl.saw~;
#X obj 478 393 rescale~ 500 1500, f 8;
#X obj 478 365 stepnoise~ 8;
#X obj 563 396 rampnoise~ 15;
#X text 40 62 Instead of LFOs \, we can use random generators such as low frequency noise objects like [stepnoise~] and [rampnoise~]., f 45;
#N canvas 751 343 375 257 oscillator 0;
#X obj 193 155 *~ 0.5;
#X obj 193 194 outlet~;
#X text 63 85 detuned octave above, f 7;
#X obj 123 78 *~ 2.01;
#X obj 193 34 inlet~;
#X obj 193 112 bl.square~;
#X obj 123 112 bl.saw~;
#X connect 0 0 1 0;
#X connect 3 0 6 0;
#X connect 4 0 3 0;
#X connect 4 0 5 0;
#X connect 5 0 0 0;
#X connect 6 0 0 0;
#X restore 137 450 pd oscillator;
#X text 60 419 Portamento;
#X obj 137 419 f2s~ 125;
#X obj 310 438 rescale~ 1 50, f 8;
#X text 73 240 Generate Random pitches, f 9;
#X text 332 381 Frequency;
#X text 418 413 Q;
#X text 470 17 More examples:;
#X text 587 374 Frequency;
#X text 557 126 Frequency;
#X obj 137 314 rand.i 24 51;
#X obj 137 245 tgl 30 0 empty empty empty 0 -6 0 8 #dcdcdc #000000 #000000 0 1;
#X obj 137 218 loadbang;
#X obj 48 24 declare -path else;
#X obj 480 258 out~;
#X obj 563 423 rescale~ 40 100, f 8;
#X obj 563 461 mtof~;
#X obj 240 449 mtof~;
#X obj 214 486 lowpass~;
#X obj 240 411 rescale~ 60 90, f 8;
#X text 40 116 Below we have the oscillator section in a subpatch. We use a rich sound that combines a square and a sawtooth oscillator. The cutoff frequency modulation is on random steps and exponential., f 45;
#X text 596 207 This time is linear cause it's not forbidden..., f 13;
#X text 649 443 linear frequency for the oscilator and exponential for the cutoff., f 17;
#X text 133 663 comment;
#X connect 0 0 1 0;
#X connect 1 0 23 0;
#X connect 3 0 15 0;
#X connect 4 0 35 0;
#X connect 4 1 35 1;
#X connect 5 0 4 0;
#X connect 6 0 31 0;
#X connect 8 0 40 0;
#X connect 9 0 24 0;
#X connect 10 0 5 0;
#X connect 11 0 10 0;
#X connect 12 0 11 0;
#X connect 13 0 14 0;
#X connect 14 0 4 1;
#X connect 16 0 3 0;
#X connect 17 0 16 0;
#X connect 18 0 17 0;
#X connect 19 0 36 0;
#X connect 21 0 39 0;
#X connect 23 0 21 0;
#X connect 24 0 39 2;
#X connect 31 0 0 0;
#X connect 32 0 6 0;
#X connect 33 0 32 0;
#X connect 36 0 37 0;
#X connect 37 0 3 1;
#X connect 38 0 39 1;
#X connect 39 0 7 0;
#X connect 40 0 38 0;
