#N canvas 494 51 840 608 12;
#X declare -path else;
#X obj 73 237 mtof;
#X obj 73 273 nbx 5 14 -1e+37 1e+37 0 0 empty empty empty 0 -8 0 10 #dcdcdc #000000 #000000 0 256;
#X text 136 271 Hz;
#X obj 551 489 vcf~ 7;
#X obj 548 216 vcf~ 15;
#X obj 73 174 tempo 60 100;
#X obj 174 480 out~;
#X obj 186 312 stepnoise~ 5;
#X obj 259 354 rampnoise~ 0.5;
#X obj 500 121 bl.saw~;
#X obj 500 90 rescale~ 30 130;
#X obj 500 55 rampnoise~ 1.5;
#X obj 571 148 stepnoise~ 15;
#X obj 571 177 rescale~ 100 500;
#X obj 551 523 out~;
#X obj 485 423 bl.saw~;
#X obj 485 354 stepnoise~ 8;
#X obj 570 385 rampnoise~ 15;
#N canvas 751 343 403 271 oscillator 0;
#X obj 193 155 *~ 0.5;
#X obj 193 214 outlet~;
#X text 63 85 detuned octave above, f 7;
#X obj 123 78 *~ 2.01;
#X obj 193 34 inlet~;
#X obj 193 112 bl.square~;
#X obj 123 112 bl.saw~;
#X obj 286 125 brown~;
#X obj 286 149 dbgain~ -22;
#X connect 0 0 1 0;
#X connect 3 0 6 0;
#X connect 4 0 3 0;
#X connect 4 0 5 0;
#X connect 5 0 0 0;
#X connect 6 0 0 0;
#X connect 7 0 8 0;
#X connect 8 0 1 0;
#X restore 73 341 pd oscillator;
#X obj 73 310 f2s~ 125;
#X text 116 120 Generate Random pitches, f 9;
#X text 278 312 Frequency;
#X text 367 354 Q;
#X text 594 363 Frequency;
#X text 585 123 Frequency;
#X obj 73 205 rand.i 24 51;
#X obj 73 126 tgl 30 0 empty empty empty 0 -6 0 8 #dcdcdc #000000 #000000 0 1;
#X obj 73 89 loadbang;
#X obj 253 48 declare -path else;
#X obj 508 255 out~;
#X obj 570 412 rescale~ 40 100, f 8;
#X obj 570 457 mtof~;
#X obj 186 380 mtof~;
#X obj 186 342 rescale~ 60 90, f 8;
#X text 624 204 This time is linear cause it's not forbidden..., f 13;
#X text 656 432 linear frequency for the oscilator and exponential for the cutoff., f 17;
#X text 202 119 Instead of LFOs \, we can use random generators such as low frequency noise objects like [stepnoise~] and [rampnoise~]. Here the cutoff frequency modulation is on random steps and exponential. The resonance is also modulated by random ramps., f 31;
#X text 667 67 More examples!;
#X obj 500 147 drive~ 5;
#X obj 485 447 drive~ 5;
#X obj 485 382 rescale~ 150 1000, f 8;
#X obj 174 426 bob~;
#X obj 259 389 rescale~ 2 6;
#X connect 0 0 1 0;
#X connect 1 0 19 0;
#X connect 3 0 14 0;
#X connect 4 0 29 0;
#X connect 4 1 29 1;
#X connect 5 0 25 0;
#X connect 7 0 33 0;
#X connect 8 0 42 0;
#X connect 9 0 38 0;
#X connect 10 0 9 0;
#X connect 11 0 10 0;
#X connect 12 0 13 0;
#X connect 13 0 4 1;
#X connect 15 0 39 0;
#X connect 16 0 40 0;
#X connect 17 0 30 0;
#X connect 18 0 41 0;
#X connect 19 0 18 0;
#X connect 25 0 0 0;
#X connect 26 0 5 0;
#X connect 27 0 26 0;
#X connect 30 0 31 0;
#X connect 31 0 3 1;
#X connect 32 0 41 1;
#X connect 33 0 32 0;
#X connect 38 0 4 0;
#X connect 39 0 3 0;
#X connect 40 0 15 0;
#X connect 41 0 6 0;
#X connect 42 0 41 2;
