#N canvas 374 38 586 881 12;
#X declare -path else;
#X obj 380 83 declare -path else;
#X obj 55 127 keyboard 17 80 4 1 0 0 empty empty;
#X obj 55 96 note.in;
#X obj 278 772 out~;
#X obj 55 444 bl.saw~ -midi, f 7;
#X obj 55 223 mono~ 25, f 39;
#X obj 278 704 *~;
#X obj 87 276 -~ 60;
#X floatatom 126 314 5 0 100 0 - - - 0;
#X obj 96 643 lowpass~ 0 10;
#X obj 87 346 *~ 100;
#X floatatom 186 573 5 0 0 0 - - - 0;
#X text 185 547 cutoff;
#X obj 140 465 +~;
#X obj 140 522 cents2ratio~;
#X text 168 298 keyboard tracking amount, f 9;
#X floatatom 204 404 5 0 0 0 - - - 0;
#X text 216 427 envelope mod amount in cents, f 10;
#X obj 140 600 *~ 1500;
#X obj 327 346 osc~ 2;
#X obj 327 461 *~ 100;
#X obj 140 495 +~;
#X floatatom 365 434 5 0 0 0 - - - 0;
#X text 355 387 LFO mod amount in cents, f 8;
#X floatatom 327 320 5 0 0 0 - - - 0;
#X text 370 319 LFO rate;
#X obj 158 434 *~ 2400;
#X text 59 13 In this example we combine keyboard tracking \, envelope and LFO as modulation sources. The modulation amount of each is independent. The envelope and LFO amount are both directly in cents., f 66;
#X obj 278 739 plate.rev~;
#X obj 296 266 adsr~ -lin 50 10 0.75 1500;
#X obj 296 540 pow~ 4;
#X obj 345 691 initmess wet 0.1;
#X connect 1 0 5 0;
#X connect 2 0 1 0;
#X connect 4 0 9 0;
#X connect 5 0 4 0;
#X connect 5 0 7 0;
#X connect 5 1 29 0;
#X connect 5 2 29 1;
#X connect 6 0 28 0;
#X connect 7 0 10 0;
#X connect 8 0 10 1;
#X connect 9 0 6 0;
#X connect 10 0 13 0;
#X connect 11 0 18 1;
#X connect 13 0 21 0;
#X connect 14 0 18 0;
#X connect 16 0 26 1;
#X connect 18 0 9 1;
#X connect 19 0 20 0;
#X connect 20 0 21 1;
#X connect 21 0 14 0;
#X connect 22 0 20 1;
#X connect 24 0 19 0;
#X connect 26 0 13 1;
#X connect 28 0 3 0;
#X connect 28 1 3 1;
#X connect 29 0 26 0;
#X connect 29 0 30 0;
#X connect 30 0 6 1;
#X connect 31 0 28 0;
