#N canvas 330 232 766 777 12;
#X msg 93 616 menuclose;
#X obj 20 209 cnv 15 5 5 empty empty 1 5 0 0 20 -262144 -258699 0;
#X obj 20 452 cnv 15 5 5 empty empty 2 5 0 0 20 -262144 -258699 0;
#X obj 20 492 cnv 15 5 5 empty empty 3 5 0 0 20 -262144 -258699 0;
#X msg 75 482 symbolatom 20 100 0 0 0 0;
#X msg 91 522 connect 0 0 1 0;
#X obj 20 532 cnv 15 5 5 empty empty 4 5 0 0 20 -262144 -258699 0;
#X obj 20 573 cnv 15 5 5 empty empty 5 5 0 0 20 -262144 -258699 0;
#X obj 20 626 cnv 15 5 5 empty empty 6 5 0 0 20 -262144 -258699 0;
#X obj 8 10 cnv 15 400 40 empty empty Create_Save_Patches 20 12 0 24
-262144 -66577 0;
#X msg 59 442 msg 20 27 symbol Olá!;
#X msg 100 568 menusave;
#X obj 59 228 getdir;
#X obj 59 203 bng 15 250 50 0 empty empty empty 17 7 0 10 -258113 -1
-1;
#X msg 59 258 \; pd filename my-new-patch.pd \$1 \; #N canvas \; #X
pop 1 \;;
#X obj 45 663 send pd-my-new-patch.pd;
#X text 8 89 You can create a new patch and also save it. Or just save
any existing patch.;
#X text 14 151 First Lets create a patch named my-new-patch.pd on the
same directory as this patch.;
#X text 119 227 \$1 is this patch's directry given by [getdir];
#X text 292 268 Send to "Pd" the command "filename" plus the file name
and its directory.;
#X text 294 303 Opens the patch;
#X text 49 371 Now we edit this new patch and lets put some stuff in
it;
#X text 238 443 Creates message;
#X text 263 479 Creates atom symbol box;
#X text 214 524 Connects both;
#X text 173 557 Saves the file into your computer (check and see that
now it is there);
#X text 172 616 Closes the Patch;
#X connect 0 0 15 0;
#X connect 4 0 15 0;
#X connect 5 0 15 0;
#X connect 10 0 15 0;
#X connect 11 0 15 0;
#X connect 12 0 14 0;
#X connect 13 0 12 0;
