#N canvas 474 38 538 582 12;
#X declare -path else;
#X obj 378 246 *~ -1;
#X obj 291 211 r~ \$0-sample;
#X obj 239 412 r~ \$0-sample;
#X obj 190 277 out~;
#X text 51 137 Conversely \, we can also get one mono input and create a widened stereo effect by inverting the polarity of one of the tracks. See the difference below., f 55;
#X obj 326 446 ffdelay~ 20;
#X obj 326 473 *~ -1;
#X obj 279 15 declare -path else;
#X obj 239 502 out~;
#X obj 291 276 out~;
#X text 52 60 If you have a stereo track that you sum together into a mono source \, you can have cancelling issues. One way out is to invert or flip the polarity of one of the tracks. This is just multiplying by -1 and deals with cancelling issues., f 55;
#X text 109 366 Now \, how about we also apply the Hass effect?, f 39;
#X obj 54 251 s~ \$0-sample;
#X obj 54 216 play.file~ bubul.mp3 1 1;
#X connect 0 0 9 1;
#X connect 1 0 0 0;
#X connect 1 0 3 0;
#X connect 1 0 9 0;
#X connect 2 0 5 0;
#X connect 2 0 8 0;
#X connect 5 0 6 0;
#X connect 6 0 8 1;
#X connect 13 0 12 0;
