#N canvas 432 28 855 511 12;
#X floatatom 248 271 0 0 0 0 - - -;
#X floatatom 251 178 0 0 0 0 - - -;
#X obj 248 244 receive midinote;
#X obj 405 207 hsl 128 15 -1 1 0 0 slider empty empty -2 -8 0 10 -262144
-1 -1 0 1;
#X obj 405 238 hsl 128 15 -1 1 0 0 empty slider empty -2 -8 0 10 -262144
-1 -1 0 1;
#X obj 246 301 receive slider;
#X floatatom 246 327 5 0 0 0 - - -;
#X text 397 179 built-in send/receive;
#X obj 572 181 send pd;
#X msg 572 118 dsp 1;
#X msg 588 149 dsp 0;
#X msg 732 149 \; pd dsp \$1;
#X obj 732 122 tgl 18 0 empty empty empty 17 7 0 10 -262144 -1 -1 0
1;
#X text 756 121 On/Off;
#X text 485 20 You can also use [send] to send messages to Pd. For
instance \, the “dsp 1” and “dsp 0” messages \, respectively
\, turn the DSP engine on and off. Arrays can also receive commands
from a [send] object that has the array's name as the address., f
48;
#N canvas 0 22 450 278 (subpatch) 0;
#X array array4 100 float 2;
#X coords 0 1 100 -1 200 140 1 0 0;
#X restore 602 333 graph;
#X msg 402 268 const \$1;
#X text 616 118 DSP On;
#X text 632 148 DSP Off;
#X obj 417 430 send~;
#X obj 463 430 receive~;
#X obj 419 462 throw~;
#X obj 472 461 catch~;
#X text 368 341 There are also audio object versions \, but besides
[send~]/[receive~] and we also have [throw~]/[catch~]. Check their
help files., f 28;
#X text 22 20 A [send] and [receive] with the same address argument
allow cordless connections. They communicate anywhere in a patch \,
including subpatches but also to other patches (including abstractions).
, f 61;
#X obj 251 205 send midinote;
#X msg 27 192 \; slider 0.9 \; midinote 56;
#X msg 126 192 \; slider 0.45 \; midinote 77;
#X obj 402 297 send array4;
#X msg 680 252 \; array4 const 0.5;
#X text 22 83 A semicolon in messages behaves as a [send] object \,
which is useful to send things to several places at one click. Atom
boxes and GUI objects in Pd Vanilla also have built in send and receive
functionalities. You can set them by going into the properties window
under “Messages”., f 61;
#X text 45 274 Semicolons will always \; break lines \, this also \;
happens on objects and \; comments!;
#X text 471 267 <==========;
#X text 555 238 send a constant value to all elements =======>, f
18;
#X text 65 384 Additionaly \, you can set receive and send names in
GUI objects with messages., f 34;
#X msg 169 429 receive slider;
#X obj 172 458 hsl 128 15 -1 1 0 0 empty slider empty -2 -8 0 10 -262144
-1 -1 0 1;
#X connect 1 0 25 0;
#X connect 2 0 0 0;
#X connect 4 0 16 0;
#X connect 5 0 6 0;
#X connect 9 0 8 0;
#X connect 10 0 8 0;
#X connect 12 0 11 0;
#X connect 16 0 28 0;
#X connect 35 0 36 0;
