#N struct DS-9 float x float y array table f;
#N struct f float y;
#N struct DS-8 float x float y array table f;
#N canvas 361 46 501 563 12;
#N canvas 1092 231 334 221 display 1;
#X scalar DS-9 10 105 \; 0 \; 0 \; 0 \; 0 \; 0 \; 0 \; 0 \; 0 \; 0
\; 0 \; 0 \; 0 \; 0 \; 0 \; 0 \; 0 \; \;;
#X scalar DS-8 10 105 \; 0 \; 0 \; 0 \; 0 \; 0 \; 0 \; 0 \; 0 \; 0
\; 0 \; 0 \; 0 \; 0 \; 0 \; 0 \; 0 \; \;;
#X coords 0 221 1 220 0 0 0;
#X restore 341 260 pd display;
#X obj 379 362 pointer;
#X obj 60 179 loadbang;
#X obj 277 351 r coords;
#N canvas 833 23 480 272 element 0;
#X text 33 42 The element is defined as a struct of name "f" containing
only a float named "y". Since this is also the special variable name
for the vertical coordinate \, this means you can drag this element
vertically \, as in Pd's arrays.;
#X obj 85 217 filledpolygon 0 0 1 -2 -2 2 -2 2 2 -2 2;
#X text 82 187 draw a black dot to represent the value:;
#X obj 160 139 struct f float y;
#X restore 340 207 pd element;
#X obj 112 419 r size;
#N canvas 391 208 509 380 template 0;
#X obj 169 292 plot table 900 2 0 0 20;
#X text 83 200 The drawing instruction now add more arguments. Besides
the name we have the color number \, a line width \, a coordinates
pair and a spacing value (20) between the floats in the array., f
47;
#X obj 75 128 struct DS-9 float x float y array table f;
#X text 61 46 Data Structure named "DS-9" holding coordinates floats
"x/y" and an array named "table" using the struct named "element" defined
in the other subpatch., f 53;
#X restore 341 233 pd template;
#X obj 112 446 display;
#X obj 379 332 r pointer;
#X msg 60 210 \; pd-display clear \, vis 1 \; pointer traverse pd-display
\, bang \; coords 10 105 \; size 16;
#X obj 92 383 array set -s DS-9 table;
#X obj 277 392 append DS-9 x y;
#X obj 171 349 nbx 3 16 0 15 0 0 empty empty empty 0 -8 0 12 -228856
-1 -1 0 256;
#X obj 92 349 nbx 4 16 -100 100 0 0 empty empty empty 0 -8 0 12 -228856
-1 -1 27 256;
#X text 169 325 index;
#X text 93 326 value;
#X obj 112 484 array size -s DS-9 table;
#X floatatom 112 515 5 0 0 0 - - -;
#X obj 72 446 bng 15 250 50 0 empty empty empty 17 7 0 10 -228856 -1
-1;
#X text 31 440 get size, f 4;
#X text 291 485 <= get/set size;
#X text 68 306 set:;
#X text 140 447 <= sets size;
#X text 72 14 You can also use the relatively recently added [array]
object to set \, get and do all sorts of operations in a Data Structure
array (as well with other regular arrays in Pd)., f 49;
#X text 72 84 We can use it instead of the [setsize] and [getsize]
objects \, and in the case of arrays composed only of floats \, it
eliminates the need of the [element] and [set] objects., f 49;
#X connect 1 0 11 2;
#X connect 2 0 9 0;
#X connect 3 0 11 0;
#X connect 5 0 7 0;
#X connect 7 0 16 0;
#X connect 8 0 1 0;
#X connect 11 0 10 2;
#X connect 11 0 16 1;
#X connect 12 0 10 1;
#X connect 13 0 10 0;
#X connect 16 0 17 0;
#X connect 18 0 16 0;
