#N canvas 361 46 520 606 12;
#N canvas 965 238 334 221 display 1;
#X coords 0 221 1 220 0 0 0;
#X restore 346 300 pd display;
#X obj 421 387 pointer;
#X obj 65 219 loadbang;
#X obj 312 376 r coords;
#N canvas 279 241 508 321 element 0;
#X obj 85 217 filledpolygon 0 0 1 -2 -2 2 -2 2 2 -2 2;
#X text 82 187 draw a black dot to represent the value:;
#X obj 160 139 struct \$0-f float y;
#X text 33 42 Element of the array defined as a struct of name "\$0-f"
containing only a float named "y". Since this is also the special variable
name for the vertical coordinate \, this means you can drag this element
vertically \, as in Pd's arrays.;
#X obj 85 264 drawnumber y;
#X text 186 264 draw instruction for the element;
#X restore 346 248 pd element;
#X obj 119 454 r size;
#N canvas 689 169 474 279 template 0;
#X obj 78 120 struct \$0-DS float x float y array \$0-table \$0-f;
#X text 64 38 Data Structure named "\$0-DS" holding coordinates floats
"x/y" and an array named "table" using the element struct named "\$0-f"
defined in the other subpatch., f 53;
#X text 71 175 The drawing instructions for the array., f 47;
#X obj 190 204 plot \$0-table 900 2 0 0 20;
#X restore 346 274 pd template;
#X obj 119 481 display;
#X obj 421 357 r pointer;
#X msg 65 250 \; pd-display clear \, vis 1 \; pointer traverse pd-display
\, bang \; coords 10 105 \; size 16;
#X obj 190 378 nbx 3 16 0 15 0 0 empty empty empty 0 -8 0 12 -228856
-1 -1 0 256;
#X obj 97 378 nbx 4 16 -100 100 0 0 empty empty empty 0 -8 0 12 -228856
-1 -1 0 256;
#X text 188 354 index;
#X text 98 355 value;
#X floatatom 119 550 5 0 0 0 - - -;
#X obj 79 481 bng 15 250 50 0 empty empty empty 17 7 0 10 -228856 -1
-1;
#X text 38 472 get size, f 4;
#X text 328 520 <= get/set size;
#X text 58 405 set:;
#X text 147 482 <= sets size;
#X text 77 14 You can also use the [array] object to set \, get and
do all sorts of operations in a Data Structure array (as well with
other regular arrays in Pd)., f 49;
#X text 77 84 Here we use it instead of [setsize]/[getsize]. In the
case of arrays composed only of floats \, it eliminates the need of
the [element] and [set] objects as well., f 49;
#X obj 312 418 append \$0-DS x y;
#X obj 119 519 array size -s \$0-DS \$0-table;
#X obj 97 408 array set -s \$0-DS \$0-table;
#X text 77 154 Check in [pd element] that we also added a drawing instruction
for the float element as well.;
#X connect 1 0 22 2;
#X connect 2 0 9 0;
#X connect 3 0 22 0;
#X connect 5 0 7 0;
#X connect 7 0 23 0;
#X connect 8 0 1 0;
#X connect 10 0 24 1;
#X connect 11 0 24 0;
#X connect 15 0 23 0;
#X connect 22 0 23 1;
#X connect 22 0 24 2;
#X connect 23 0 14 0;
