#N canvas 455 25 806 796 12;
#X declare -path else;
#X obj 489 41 declare -path else;
#X obj 363 586 keyboard 17 80 3 2 0 0 empty empty;
#X msg 293 408 play \$1;
#X obj 293 381 change;
#X obj 361 678 keyboard 17 80 3 2 0 0 empty empty;
#X msg 228 408 play \$1;
#X obj 228 381 change;
#X obj 142 527 pan2~ -0.75;
#X obj 372 425 pan2~ 0.75;
#X obj 198 631 out~;
#X obj 68 41 tgl 24 0 empty empty empty 0 -10 0 12 #dfdfdf #000000 #000000 0 1;
#X obj 372 203 note2midi;
#X obj 372 116 tempo -mul 4 62;
#X obj 372 277 bl.saw~ -midi, f 7;
#X obj 372 345 *~;
#X obj 436 277 envgen~ -curve 1 0 50 1 200 0, f 16;
#X obj 372 155 sequencer C2 C2 C3 C4 D#3 D#4 C3 C4 | G#2 G#2 G#3 C4 G2 G2 G3 C4, f 37;
#X obj 67 163 sequencer C2 - C4 C4 - C4 C3 C4 | G#2 - G#3 G#2 G2 G2 A#2 A#3, f 33;
#X obj 161 232 envgen~ -curve 1 0 25 1 25 0.5 100 0.5 220 0, f 16;
#X obj 68 322 bl.vsaw~ -midi 0.9, f 9;
#X obj 67 205 note2midi;
#X obj 142 383 *~;
#X obj 68 96 sel 0;
#X msg 68 120 goto 1;
#X obj 67 232 t f b;
#X obj 372 232 t f b;
#X text 516 351 And here's a classic synth pop example for a sequencer. The synthesis is nothing but simple \, oscillators going through envelope generators and some panning. In order to better reconstruct the original song we need a bit more synthesis sophistication and we'll revisit this later in order to improve it a bit., f 29;
#X text 102 42 <-- sweet dreams are made of these...;
#X connect 2 0 1 0;
#X connect 3 0 2 0;
#X connect 5 0 4 0;
#X connect 6 0 5 0;
#X connect 7 0 9 0;
#X connect 7 1 9 1;
#X connect 8 0 9 0;
#X connect 8 1 9 1;
#X connect 10 0 12 0;
#X connect 10 0 22 0;
#X connect 11 0 25 0;
#X connect 12 0 16 0;
#X connect 12 0 17 0;
#X connect 13 0 14 0;
#X connect 14 0 8 0;
#X connect 15 0 14 1;
#X connect 16 0 11 0;
#X connect 17 0 20 0;
#X connect 18 0 21 1;
#X connect 19 0 21 0;
#X connect 20 0 24 0;
#X connect 21 0 7 0;
#X connect 22 0 23 0;
#X connect 23 0 17 0;
#X connect 23 0 16 0;
#X connect 24 0 19 0;
#X connect 24 0 6 0;
#X connect 24 1 18 0;
#X connect 25 0 13 0;
#X connect 25 0 3 0;
#X connect 25 1 15 0;
