#N canvas 719 236 837 641 12;
#X obj 362 358 envelope~;
#X obj 362 326 envgen~;
#X obj 474 312 tgl 15 0 empty empty empty 17 7 0 10 -262144 -1 -1 0
1;
#X obj 474 339 switch~;
#X obj 204 469 *~;
#X obj 304 228 limit;
#X obj 204 506 pan2~, f 10;
#X obj 204 560 outlet~;
#X obj 271 560 outlet~;
#X obj 304 259 t b f b, f 17;
#X msg 362 299 0 \$1 1;
#X obj 453 388 rand.f 0.1 1;
#X obj 270 350 rand.f -1 1;
#X obj 362 390 *~ 0;
#X obj 46 342 rand.f -200 200;
#X msg 46 366 speed \$1;
#X obj 163 341 rand.f 0 1;
#X msg 163 367 range \$1 1 \, bang, f 11;
#X text 340 492 This patch is used inside [clone] in one of the examples.
;
#X obj 163 416 tabplayer~ \$2 -loop, f 11;
#X text 475 196 The [tabplayer~] object reads from the buffer \, whose
name is passed via an argument to the instances in [clone]. Note the
[tabplayer~] object is also set to loop \, in the case one of the grain
starts too close to the boundaries., f 46;
#X text 475 80 The main difference from the last example is that now
we use [tabplayer~] to play the samples. Instead of a pitch parameter
\, we now have a random speed parameter (where negative values plays
the grain backwards). We also have a random start position to start
playing from., f 46;
#X obj 278 73 inlet;
#X obj 278 122 limit 1000 1;
#N canvas 535 153 565 416 mode 0;
#X obj 180 71 inlet;
#X obj 304 362 outlet;
#X obj 212 277 random 1000;
#X obj 180 248 t b b;
#X obj 180 196 router 2 1;
#X obj 247 71 inlet;
#X obj 304 277 delay;
#X floatatom 437 243 5 0 0 0 - - -;
#X obj 286 166 loadbang;
#X obj 180 277 del;
#X obj 247 142 + 1;
#X obj 247 100 vradio 17 1 0 2 empty empty empty 0 -8 0 10 -228856
-1 -1 1;
#X text 353 276 <= synchronous;
#X text 271 116 synchronous, f 12;
#X text 271 99 asynchronous;
#X text 69 263 asynchronous =>;
#X obj 286 195 expr (\$1 != 0) * 1000 \; \$1 * (1000./16);
#X connect 0 0 4 0;
#X connect 2 0 9 1;
#X connect 3 0 9 0;
#X connect 3 1 2 0;
#X connect 4 0 3 0;
#X connect 4 1 6 0;
#X connect 5 0 11 0;
#X connect 6 0 1 0;
#X connect 7 0 6 1;
#X connect 8 0 16 0;
#X connect 9 0 1 0;
#X connect 10 0 4 1;
#X connect 11 0 10 0;
#X connect 16 0 2 1;
#X connect 16 1 7 0;
#X restore 304 160 pd mode;
#X obj 350 73 inlet;
#X obj 304 197 rand.f 10 50;
#X connect 0 0 13 0;
#X connect 1 0 0 0;
#X connect 1 1 2 0;
#X connect 2 0 3 0;
#X connect 4 0 6 0;
#X connect 5 0 9 0;
#X connect 6 0 7 0;
#X connect 6 1 8 0;
#X connect 9 0 12 0;
#X connect 9 0 16 0;
#X connect 9 0 14 0;
#X connect 9 1 5 1;
#X connect 9 1 10 0;
#X connect 9 2 11 0;
#X connect 10 0 1 0;
#X connect 11 0 13 1;
#X connect 12 0 6 1;
#X connect 13 0 4 1;
#X connect 14 0 15 0;
#X connect 15 0 19 0;
#X connect 16 0 17 0;
#X connect 17 0 19 0;
#X connect 19 0 4 0;
#X connect 22 0 23 0;
#X connect 23 0 24 0;
#X connect 24 0 26 0;
#X connect 25 0 24 1;
#X connect 26 0 5 0;
