#N struct 1084-point float x0 float y0 float size float fg float in
float grid;
#N canvas 397 151 789 613 12;
#X declare -path else;
#X obj 200 182 hsl 128 15 0.05 1 1 1 empty amp empty -2 -8 0 10 -228856
-1 -1 12700 1;
#X text 232 165 Amplitude;
#X obj 70 152 hsl 128 15 0.05 2.5 1 0 empty hz empty -2 -8 0 10 -228856
-1 -1 5225 1;
#X floatatom 81 176 5 0 0 0 - - -;
#X text 97 131 Hertz;
#X floatatom 212 205 5 0 0 0 - - -;
#X text 349 557 === Projection in Time ===>;
#X text 447 355 Seno;
#X text 428 484 Cosseno;
#X obj 459 396 pic sc2.gif;
#X text 19 25 A complex signal has a real and imaginary part. The output
of a FTT is a complex signal but is the frequency domain. Now we're
talking about a complex signal in the time domain \, which is totally
different., f 43;
#X text 371 56 To turn a real signal into a complex signal \, all we
need to do is add the imaginary part \, which is a copy of the real
signal \, but with a phase quadrature difference of (90 degrees). A
complex sine is then composed of two sine waves with this phase difference.
, f 54;
#X text 371 137 The two dimentional slider to the right represents
the complex sine in a cartesian plane \, with the real part in the
horizontal axis and the imaginary part in the vertical axis. By adding
a third dimension of time we have a helicoidal projection of this complex
sinusoid., f 54;
#N canvas 752 208 347 379 Complex-Sinusoid 0;
#X obj 170 46 inlet;
#X text 177 25 Amp;
#X obj 152 172 *~;
#X obj 119 172 *~;
#X msg 120 299 set \$1 \$2;
#X obj 120 246 pack2;
#X obj 120 272 changed;
#X obj 120 327 outlet;
#X obj 67 45 inlet;
#X obj 68 87 phasor~;
#X obj 68 123 cos~;
#X obj 107 123 sin~;
#X obj 119 197 s2f~ 10;
#X obj 152 218 s2f~ 10;
#X text 71 25 Hz;
#X obj 210 107 initmess \; pd dsp 1 \; hz 0.25 \; amp 0.75;
#X connect 0 0 2 1;
#X connect 0 0 3 1;
#X connect 2 0 13 0;
#X connect 3 0 12 0;
#X connect 4 0 7 0;
#X connect 5 0 6 0;
#X connect 6 0 4 0;
#X connect 8 0 9 0;
#X connect 9 0 10 0;
#X connect 9 0 11 0;
#X connect 10 0 3 0;
#X connect 11 0 2 0;
#X connect 12 0 5 0;
#X connect 13 0 5 1;
#X restore 67 205 pd Complex-Sinusoid;
#X obj 591 17 declare -path else;
#X obj 67 347 circle 127 -1 1 -1 1 2 225 225 225 230 230 230 1 0 0
1 1 0 0.51986 -0.854243 empty empty 1;
#X connect 0 0 13 1;
#X connect 0 0 5 0;
#X connect 2 0 3 0;
#X connect 2 0 13 0;
#X connect 13 0 15 0;
