#N canvas 373 38 891 554 12;
#X declare -path else;
#X obj 91 195 noise~;
#X obj 206 43 declare -path else;
#X obj 91 281 out~;
#X text 240 465 These can also output multichannel connections where each filter in the bank is in a different channel. Check the help files for more info., f 57;
#X obj 264 383 resonbank2~;
#X text 360 376 see also [resonbank2~] for a bank of [resonator2~] filters., f 35;
#X text 58 86 The ELSE library has a few filterbank objects. These are banks of filters in parallel. For instance \, we have [bpbank~] is a bank made of [bandpass~] objects in parallel., f 41;
#X obj 496 278 out~;
#X obj 603 166 brown~;
#X text 397 44 Other examples include [resonbank~] and [resonbank2~] \, which are composed \, rspectively \, of [resonator~] and [resonator2~] objects in parallel. The purpose is different than [bpbank~] as these are more suited for sound synthesis as we'll see later.;
#X obj 91 231 bpbank~ -freq 250 600 1050 1470 -q 30 25 30 20 -amp 2 1.5 2 1, f 32;
#X obj 496 204 resonbank~ -partial 1 2.1 2.7 3.8 -decay 1000 205 1000 196 -amp 1 0.1 0.9 0.1, f 31;
#X obj 496 163 sig~ 100;
#X floatatom 496 132 5 0 0 0 - - - 0;
#X connect 0 0 10 0;
#X connect 8 0 11 1;
#X connect 10 0 2 0;
#X connect 11 0 7 0;
#X connect 12 0 11 0;
#X connect 13 0 12 0;
