#N canvas 366 44 823 698 12;
#X declare -path else;
#X obj 612 73 declare -path else;
#X obj 166 281 *~;
#X obj 184 234 glide~ 10;
#X obj 224 550 out~;
#X obj 81 234 bl.saw~ -midi;
#X obj 224 446 lowpass~ 0 10;
#X obj 224 479 drive~ 10;
#X obj 81 59 keyboard 17 80 4 1 0 0 empty empty;
#X obj 81 28 note.in;
#X obj 224 515 dbgain~ -10;
#X obj 402 206 knob 50 -24 24 0 12 empty empty #dfdfdf #7c7c7c #000000 1 0 49 1 1 320 0 0 0 empty empty 0 12 0 -15 0 1 0 0 0 0;
#X floatatom 402 275 4 0 0 0 - - - 0;
#X obj 402 344 f2s~;
#X obj 473 330 knob 50 100 10000 1 500 empty empty #dfdfdf #7c7c7c #000000 1 0 0 0 1 320 0 0 100 empty empty 0 12 0 -15 0 1 0 0 0 0;
#X floatatom 473 391 8 0 0 0 - - - 0;
#X obj 473 418 f2s~;
#X text 529 340 cutoff frequency in Hz, f 9;
#X text 445 265 modulation amount in semitones, f 10;
#X text 485 156 We're back to setting the cutoff via an input in Hz and the modulation amount in semitones. But this time we have a different process where we convert semitones to ratio and multiply it by the cutoff frequency., f 40;
#X obj 402 307 * 100;
#X text 336 300 convert to cents, f 8;
#X obj 268 402 *~;
#X obj 268 318 *~;
#X obj 268 362 cents2ratio~;
#X obj 81 173 voices~ 4, f 27;
#X obj 268 234 adsr~ -lin 0 1500 0 10, f 11;
#X text 362 466 We've seen many examples so far but only considering monophonic synths \, which were mostly common in the early days of modular synthesis. This one is polyphonic though and all we need to do is use [else/voices~] instead., f 56;
#X text 363 530 With [else/lowpass~] we can easily implement the same technique for multiple voices because it is capable of handling multichannel connections (as well as the other objects in the patch that are all from ELSE besides [*~])., f 56;
#X connect 1 0 5 0;
#X connect 2 0 1 1;
#X connect 4 0 1 0;
#X connect 5 0 6 0;
#X connect 6 0 9 0;
#X connect 7 0 24 0;
#X connect 8 0 7 0;
#X connect 9 0 3 0;
#X connect 10 0 11 0;
#X connect 11 0 19 0;
#X connect 12 0 22 1;
#X connect 13 0 14 0;
#X connect 14 0 15 0;
#X connect 15 0 21 1;
#X connect 19 0 12 0;
#X connect 21 0 5 1;
#X connect 22 0 23 0;
#X connect 23 0 21 0;
#X connect 24 0 4 0;
#X connect 24 1 2 0;
#X connect 24 1 25 0;
#X connect 25 0 22 0;
