#N canvas 372 119 967 624 12;
#X obj 599 131 noise~;
#X obj 701 148 nbx 5 14 -1e+37 1e+37 0 0 empty empty empty 0 -8 0 10
-228856 -1 -1 2000 256;
#X obj 704 128 hsl 128 15 20 20000 0 0 empty hz empty -2 -8 0 10 -228856
-1 -1 1259 1;
#N canvas 469 56 464 253 butterworth8 0;
#X obj 83 25 inlet;
#X obj 32 25 inlet~;
#X obj 110 106 clip 0 1;
#X obj 110 162 v r;
#X obj 110 137 expr tan($f1 * pi/2);
#X obj 110 81 expr $f1 / nyquist;
#X obj 83 51 t b f;
#X obj 32 199 outlet~;
#N canvas 53 23 333 262 biquad 0;
#X obj 37 29 inlet~;
#N canvas 594 99 531 367 coeficientes 0;
#X obj 378 248 v sign_\$0;
#X obj 50 257 pack float float float float float;
#X obj 50 82 expr $f1 + $f3 \; -sqrt($f1*$f1 + $f2*$f2) * sqrt($f3*$f3
+ $f4*$f4) * sign_\$0 \; if($f1 > 0 != $f3 > 0 \, -1 \, 1) \; $f9 \;
-$f9 * ($f5 + $f7) \; $f9 * sqrt($f5*$f5 + $f6*$f6) * sqrt($f7*$f7
+ $f8*$f8) * sign_\$0 \; if($f5 > 0 != $f7 > 0 \, -1 \, 1) \;;
#X obj 50 298 outlet;
#X obj 50 47 inlet;
#X connect 1 0 3 0;
#X connect 2 0 1 0;
#X connect 2 1 1 1;
#X connect 2 2 0 0;
#X connect 2 3 1 2;
#X connect 2 4 1 3;
#X connect 2 5 1 4;
#X connect 2 6 0 0;
#X connect 4 0 2 0;
#X restore 89 113 pd coeficientes;
#X obj 89 160 biquad~;
#X obj 89 188 outlet~;
#N canvas 51 23 585 364 polos-zeros 0;
#X obj 218 158 * -1;
#X obj 273 215 expr (pow($f1-1 \, 2) + pow($f2 \, 2)) / 4;
#X obj 108 240 pack float float float float;
#X obj 88 40 inlet;
#X obj 349 127 v theta;
#X obj 108 307 outlet;
#X obj 88 74 expr (1 - r*r) / (1 + r*r + 2*r*cos(theta)) \; 2*r*sin(theta)
/ (1 + r*r + 2*r*cos(theta)) \; pi/2 * (1/8.);
#X text 253 158 conjugado;
#X text 362 74 re;
#X text 363 88 im;
#X text 515 214 ganho;
#X msg 108 274 \$1 \$2 \$1 \$3 -1 0 -1 0 \$4;
#X obj 88 136 t f f;
#X connect 0 0 2 2;
#X connect 1 0 2 3;
#X connect 2 0 11 0;
#X connect 3 0 6 0;
#X connect 6 0 12 0;
#X connect 6 1 0 0;
#X connect 6 1 1 1;
#X connect 6 1 2 1;
#X connect 6 2 4 0;
#X connect 11 0 5 0;
#X connect 12 0 2 0;
#X connect 12 1 1 0;
#X restore 89 85 pd polos-zeros;
#X obj 89 29 inlet;
#X obj 205 188 outlet;
#X obj 89 58 trigger bang bang;
#X connect 0 0 2 0;
#X connect 1 0 2 0;
#X connect 2 0 3 0;
#X connect 4 0 1 0;
#X connect 5 0 7 0;
#X connect 7 0 4 0;
#X connect 7 1 6 0;
#X restore 32 79 pd biquad;
#N canvas 53 23 333 262 biquad 0;
#X obj 37 29 inlet~;
#N canvas 594 99 531 367 coeficientes 0;
#X obj 378 248 v sign_\$0;
#X obj 50 257 pack float float float float float;
#X obj 50 82 expr $f1 + $f3 \; -sqrt($f1*$f1 + $f2*$f2) * sqrt($f3*$f3
+ $f4*$f4) * sign_\$0 \; if($f1 > 0 != $f3 > 0 \, -1 \, 1) \; $f9 \;
-$f9 * ($f5 + $f7) \; $f9 * sqrt($f5*$f5 + $f6*$f6) * sqrt($f7*$f7
+ $f8*$f8) * sign_\$0 \; if($f5 > 0 != $f7 > 0 \, -1 \, 1) \;;
#X obj 50 298 outlet;
#X obj 50 47 inlet;
#X connect 1 0 3 0;
#X connect 2 0 1 0;
#X connect 2 1 1 1;
#X connect 2 2 0 0;
#X connect 2 3 1 2;
#X connect 2 4 1 3;
#X connect 2 5 1 4;
#X connect 2 6 0 0;
#X connect 4 0 2 0;
#X restore 89 113 pd coeficientes;
#X obj 89 160 biquad~;
#X obj 89 188 outlet~;
#X obj 89 29 inlet;
#X obj 205 188 outlet;
#X obj 89 58 trigger bang bang;
#N canvas 51 23 585 364 polos-zeros 0;
#X obj 218 158 * -1;
#X obj 273 215 expr (pow($f1-1 \, 2) + pow($f2 \, 2)) / 4;
#X obj 108 240 pack float float float float;
#X obj 88 40 inlet;
#X obj 349 127 v theta;
#X obj 108 307 outlet;
#X text 253 158 conjugado;
#X text 362 74 re;
#X text 363 88 im;
#X text 515 214 ganho;
#X msg 108 274 \$1 \$2 \$1 \$3 -1 0 -1 0 \$4;
#X obj 88 136 t f f;
#X obj 88 74 expr (1 - r*r) / (1 + r*r + 2*r*cos(theta)) \; 2*r*sin(theta)
/ (1 + r*r + 2*r*cos(theta)) \; pi/2 * (3/8.);
#X connect 0 0 2 2;
#X connect 1 0 2 3;
#X connect 2 0 10 0;
#X connect 3 0 12 0;
#X connect 10 0 5 0;
#X connect 11 0 2 0;
#X connect 11 1 1 0;
#X connect 12 0 11 0;
#X connect 12 1 0 0;
#X connect 12 1 1 1;
#X connect 12 1 2 1;
#X connect 12 2 4 0;
#X restore 89 84 pd polos-zeros;
#X connect 0 0 2 0;
#X connect 1 0 2 0;
#X connect 2 0 3 0;
#X connect 4 0 6 0;
#X connect 6 0 7 0;
#X connect 6 1 5 0;
#X connect 7 0 1 0;
#X restore 32 107 pd biquad;
#N canvas 53 23 333 262 biquad 0;
#X obj 37 29 inlet~;
#N canvas 594 99 531 367 coeficientes 0;
#X obj 378 248 v sign_\$0;
#X obj 50 257 pack float float float float float;
#X obj 50 82 expr $f1 + $f3 \; -sqrt($f1*$f1 + $f2*$f2) * sqrt($f3*$f3
+ $f4*$f4) * sign_\$0 \; if($f1 > 0 != $f3 > 0 \, -1 \, 1) \; $f9 \;
-$f9 * ($f5 + $f7) \; $f9 * sqrt($f5*$f5 + $f6*$f6) * sqrt($f7*$f7
+ $f8*$f8) * sign_\$0 \; if($f5 > 0 != $f7 > 0 \, -1 \, 1) \;;
#X obj 50 298 outlet;
#X obj 50 47 inlet;
#X connect 1 0 3 0;
#X connect 2 0 1 0;
#X connect 2 1 1 1;
#X connect 2 2 0 0;
#X connect 2 3 1 2;
#X connect 2 4 1 3;
#X connect 2 5 1 4;
#X connect 2 6 0 0;
#X connect 4 0 2 0;
#X restore 89 113 pd coeficientes;
#X obj 89 160 biquad~;
#X obj 89 188 outlet~;
#X obj 89 29 inlet;
#X obj 205 188 outlet;
#X obj 89 58 trigger bang bang;
#N canvas 51 23 585 364 polos-zeros 0;
#X obj 218 158 * -1;
#X obj 273 215 expr (pow($f1-1 \, 2) + pow($f2 \, 2)) / 4;
#X obj 108 240 pack float float float float;
#X obj 88 40 inlet;
#X obj 349 127 v theta;
#X obj 108 307 outlet;
#X text 253 158 conjugado;
#X text 362 74 re;
#X text 363 88 im;
#X text 515 214 ganho;
#X msg 108 274 \$1 \$2 \$1 \$3 -1 0 -1 0 \$4;
#X obj 88 136 t f f;
#X obj 88 74 expr (1 - r*r) / (1 + r*r + 2*r*cos(theta)) \; 2*r*sin(theta)
/ (1 + r*r + 2*r*cos(theta)) \; pi/2 * (5/8.);
#X connect 0 0 2 2;
#X connect 1 0 2 3;
#X connect 2 0 10 0;
#X connect 3 0 12 0;
#X connect 10 0 5 0;
#X connect 11 0 2 0;
#X connect 11 1 1 0;
#X connect 12 0 11 0;
#X connect 12 1 0 0;
#X connect 12 1 1 1;
#X connect 12 1 2 1;
#X connect 12 2 4 0;
#X restore 89 83 pd polos-zeros;
#X connect 0 0 2 0;
#X connect 1 0 2 0;
#X connect 2 0 3 0;
#X connect 4 0 6 0;
#X connect 6 0 7 0;
#X connect 6 1 5 0;
#X connect 7 0 1 0;
#X restore 32 139 pd biquad;
#N canvas 53 23 333 262 biquad 0;
#X obj 37 29 inlet~;
#N canvas 594 99 531 367 coeficientes 0;
#X obj 378 248 v sign_\$0;
#X obj 50 257 pack float float float float float;
#X obj 50 82 expr $f1 + $f3 \; -sqrt($f1*$f1 + $f2*$f2) * sqrt($f3*$f3
+ $f4*$f4) * sign_\$0 \; if($f1 > 0 != $f3 > 0 \, -1 \, 1) \; $f9 \;
-$f9 * ($f5 + $f7) \; $f9 * sqrt($f5*$f5 + $f6*$f6) * sqrt($f7*$f7
+ $f8*$f8) * sign_\$0 \; if($f5 > 0 != $f7 > 0 \, -1 \, 1) \;;
#X obj 50 298 outlet;
#X obj 50 47 inlet;
#X connect 1 0 3 0;
#X connect 2 0 1 0;
#X connect 2 1 1 1;
#X connect 2 2 0 0;
#X connect 2 3 1 2;
#X connect 2 4 1 3;
#X connect 2 5 1 4;
#X connect 2 6 0 0;
#X connect 4 0 2 0;
#X restore 89 113 pd coeficientes;
#X obj 89 160 biquad~;
#X obj 89 188 outlet~;
#X obj 89 29 inlet;
#N canvas 51 23 585 364 polos-zeros 0;
#X obj 218 158 * -1;
#X obj 273 215 expr (pow($f1-1 \, 2) + pow($f2 \, 2)) / 4;
#X obj 108 240 pack float float float float;
#X obj 88 40 inlet;
#X obj 349 127 v theta;
#X obj 108 307 outlet;
#X text 253 158 conjugado;
#X text 362 74 re;
#X text 363 88 im;
#X text 515 214 ganho;
#X msg 108 274 \$1 \$2 \$1 \$3 -1 0 -1 0 \$4;
#X obj 88 136 t f f;
#X obj 88 74 expr (1 - r*r) / (1 + r*r + 2*r*cos(theta)) \; 2*r*sin(theta)
/ (1 + r*r + 2*r*cos(theta)) \; pi/2 * (7/8.);
#X connect 0 0 2 2;
#X connect 1 0 2 3;
#X connect 2 0 10 0;
#X connect 3 0 12 0;
#X connect 10 0 5 0;
#X connect 11 0 2 0;
#X connect 11 1 1 0;
#X connect 12 0 11 0;
#X connect 12 1 0 0;
#X connect 12 1 1 1;
#X connect 12 1 2 1;
#X connect 12 2 4 0;
#X restore 89 76 pd polos-zeros;
#X connect 0 0 2 0;
#X connect 1 0 2 0;
#X connect 2 0 3 0;
#X connect 4 0 5 0;
#X connect 5 0 1 0;
#X restore 32 167 pd biquad;
#X obj 280 104 pi;
#X obj 280 133 v pi;
#X obj 328 92 samplerate~;
#X obj 328 116 / 2;
#X obj 328 67 loadbang;
#X obj 328 141 v nyquist;
#X connect 0 0 6 0;
#X connect 1 0 8 0;
#X connect 2 0 4 0;
#X connect 4 0 3 0;
#X connect 5 0 2 0;
#X connect 6 0 8 1;
#X connect 6 1 5 0;
#X connect 8 0 9 0;
#X connect 8 1 9 1;
#X connect 9 0 10 0;
#X connect 9 1 10 1;
#X connect 10 0 11 0;
#X connect 10 1 11 1;
#X connect 11 0 7 0;
#X connect 12 0 13 0;
#X connect 14 0 15 0;
#X connect 15 0 17 0;
#X connect 16 0 14 0;
#X restore 599 177 pd butterworth8;
#X obj 792 194 loadbang;
#X msg 792 223 \; hz 2000;
#X text 680 147 Hz;
#X text 737 127 cutoff;
#X obj 250 450 pic files/butterw.gif;
#X text 37 19 There are different filter topologies and their differences
are more relevant for high order filters. "Bessel" has a phase response
as flat as possible. "Chebyshev" has ripples in the frequency response
\, and "Butterworth" has a flat frequency response \, so it's desired
for filters like [brickwall~] \, which is a 10th order lowpass filter.
This filter has a steep decay after the cutoff frequency \, but a flat
response up to the cutoff. This filter's poles are distributed in angles
that depend on the number of poles like this:;
#X text 139 156 3 poles = (0 & 2/3) * pi/2 \; 4 poles = (1/4 & 3/4)
* pi/2 \; 5 poles = (0 \, 2/5 \, 4/5) * pi/2 \; 6 poles = (1/6 \, 3/6
& 5/6) * pi/2;
#X obj 599 218 out~;
#X text 43 230 Here's a picture from miller puckette's book (Figure
8.17) that plots the poles of a 4 pole butterworth filter (for a lowpass
\, the zeros are at -1). The "r" parameter depends on the cutoff frequency
;
#X text 495 37 For an 8th order lowpass \, we have the angles (1/8
\, 3/8 \, 5/8 & 7/8) * pi/2 - let's implement this with [biquad~] objects.
We could use [cpole~] instead (see H13.butterworth).;
#X obj 525 405 noise~;
#X obj 585 420 nbx 5 14 -1e+37 1e+37 0 0 empty empty empty 0 -8 0 10
-228856 -1 -1 0 256;
#X obj 538 484 else/out~;
#X obj 588 396 hsl 128 15 100 22000 1 0 empty empty empty -2 -8 0 10
-228856 -1 -1 0 1;
#X text 642 421 cuttof;
#X obj 538 447 lop.bw~ 500 10;
#X obj 753 411 noise~;
#X obj 811 426 nbx 5 14 -1e+37 1e+37 0 0 empty empty empty 0 -8 0 10
-228856 -1 -1 0 256;
#X obj 761 490 else/out~;
#X obj 814 402 hsl 128 15 100 22000 1 0 empty empty empty -2 -8 0 10
-228856 -1 -1 0 1;
#X text 868 427 cuttof;
#X obj 761 453 hip.bw~ 1500 10;
#X text 514 305 The ELSE library includes butterworth filters \, they
are: [lop.bw~] (lowpass) and [hip.bw~] (highpass). They are an abstraction
that depend on the [biquads~] object \, also from ELSE. Open help files
for more details.;
#X connect 0 0 3 0;
#X connect 1 0 3 1;
#X connect 2 0 1 0;
#X connect 3 0 11 0;
#X connect 3 0 11 1;
#X connect 4 0 5 0;
#X connect 14 0 19 0;
#X connect 15 0 19 1;
#X connect 17 0 15 0;
#X connect 19 0 16 0;
#X connect 19 0 16 1;
#X connect 20 0 25 0;
#X connect 21 0 25 1;
#X connect 23 0 21 0;
#X connect 25 0 22 0;
#X connect 25 0 22 1;
