#N canvas 418 80 791 610 12;
#X obj 117 458 *~;
#X obj 72 396 osc~ 440;
#X obj 250 380 nbx 5 14 -1e+37 1e+37 0 0 empty empty empty 0 -8 0 10
-228856 -1 -1 0 256;
#X text 307 379 ms;
#X obj 148 367 tgl 25 0 empty empty empty 17 7 0 10 -228856 -1 -1 0
1;
#X obj 515 430 *~;
#X obj 458 326 osc~ 440;
#X obj 650 177 nbx 5 14 -1e+37 1e+37 0 0 empty empty empty 0 -8 0 10
-228856 -1 -1 0 256;
#X text 625 175 ms;
#X text 131 77 Fade In / Out;
#X obj 548 169 tgl 25 0 empty empty empty 17 7 0 10 -228856 -1 -1 0
1;
#X msg 596 267 sin;
#X msg 600 288 sqrt;
#X msg 592 246 quartic;
#X msg 604 308 hann;
#X msg 607 328 lin;
#X msg 610 349 hannsin;
#X msg 613 369 linsin;
#X obj 74 515 out~;
#X obj 148 405 float2sig~ 2000;
#X obj 148 432 pow~ 4;
#X obj 185 482 sig2float~;
#X obj 185 508 vsl 15 70 0 1 0 0 empty empty empty 0 -9 0 10 -228856
-1 -1 0 1;
#X obj 494 467 out~;
#X obj 618 448 sig2float~;
#X obj 548 204 float2sig~ 2000;
#X obj 548 402 fader~ lin;
#X obj 145 180 *~;
#X obj 66 114 osc~ 440;
#X obj 265 113 nbx 5 14 -1e+37 1e+37 0 0 empty empty empty 0 -8 0 10
-228856 -1 -1 0 256;
#X text 322 112 ms;
#X obj 163 98 tgl 25 0 empty empty empty 17 7 0 10 -228856 -1 -1 0
1;
#X obj 102 220 out~;
#X obj 163 139 float2sig~ 2000;
#X obj 216 192 sig2float~;
#X obj 216 218 vsl 15 70 0 1 0 0 empty empty empty 0 -9 0 10 -228856
-1 -1 0 1;
#X obj 618 478 vsl 15 70 0 1 0 0 empty empty empty 0 -9 0 10 -228856
-1 -1 0 1;
#X obj 364 450 setdsp~ 1;
#X text 275 140 fade time;
#X text 31 315 Below we generate a non linear quartic fade (by raising
to the power of 4)., f 45;
#X text 416 38 The [fade~] object from ELSE provides six fading functions.
Input values are from 0 to 1 and the argument specifies which function
to use (linear by default)., f 48;
#X text 416 106 We'll see more about these fading functions later on
\, but you can learn more by checking the "help" file., f 48;
#X text 19 17 We've seen short fade ins/outs to avoid clicks \, whcih
can be done with [line~] or [float2sig~]. But this is only a linear
fade., f 53;
#X connect 0 0 18 0;
#X connect 0 0 18 1;
#X connect 1 0 0 0;
#X connect 2 0 19 1;
#X connect 4 0 19 0;
#X connect 5 0 23 0;
#X connect 5 0 23 1;
#X connect 6 0 5 0;
#X connect 7 0 25 1;
#X connect 10 0 25 0;
#X connect 11 0 26 0;
#X connect 12 0 26 0;
#X connect 13 0 26 0;
#X connect 14 0 26 0;
#X connect 15 0 26 0;
#X connect 16 0 26 0;
#X connect 17 0 26 0;
#X connect 19 0 20 0;
#X connect 20 0 0 1;
#X connect 20 0 21 0;
#X connect 21 0 22 0;
#X connect 24 0 36 0;
#X connect 25 0 26 0;
#X connect 26 0 5 1;
#X connect 26 0 24 0;
#X connect 27 0 32 0;
#X connect 27 0 32 1;
#X connect 28 0 27 0;
#X connect 29 0 33 1;
#X connect 31 0 33 0;
#X connect 33 0 27 1;
#X connect 33 0 34 0;
#X connect 34 0 35 0;
