#N canvas 521 48 786 651 12;
#X declare -path else;
#X obj 220 267 vsl 16 80 0 1 0 0 empty empty empty 0 -9 0 10 #dcdcdc #000000 #000000 0 1;
#X obj 104 246 *~;
#X obj 104 190 osc~ 440;
#X obj 104 295 out~;
#X text 293 173 ASR;
#X text 26 24 An "ASR" ("Attack / Sustain / Release") envelope has a sustain stage in the middle. So after the attack we have the amplitude being sustained before the release stage., f 56;
#X obj 182 200 envgen~ 50 1 450 1 500 0;
#X obj 182 171 bng 19 250 50 0 empty empty empty 17 7 0 10 #dcdcdc #000000 #000000;
#X obj 220 241 s2f~;
#X obj 548 59 declare -path else;
#X obj 244 476 vsl 16 80 0 1 0 0 empty empty empty 0 -9 0 10 #dcdcdc #000000 #000000 0 1;
#X obj 128 455 *~;
#X obj 128 399 osc~ 440;
#X obj 128 504 out~;
#X text 324 378 ASR;
#X obj 244 450 s2f~;
#X obj 206 409 vline~;
#X msg 206 377 1 50 \, 0 450 500;
#X obj 347 237 tgl 19 0 empty empty empty 0 -10 0 12 #dfdfdf #000000 #000000 0 1;
#X text 26 75 Below we use [envgen~] and give it a sustain stage by generating a line with a repeated destination of "1". The attack is then 50 ms \, the sustain stage takes 450 ms and the release is 500 ms long. At the bottom we have the same thing \, now implemented with [vline~]., f 56;
#X text 52 580 These are examples of "one shot" envelope \, with a fixed sustained period. Next we'll see how to control the sustain period with gates., f 55;
#X obj 519 251 function 200 100 empty empty 0 1 220 220 220 50 50 50 0 0 0 0 0 250 1 250 1 250 0;
#X obj 618 493 vsl 16 100 0 1 0 0 empty empty empty 0 -9 0 10 #dcdcdc #000000 #000000 0 1;
#X obj 501 456 *~;
#X obj 440 409 osc~ 440;
#X obj 501 496 out~;
#X text 638 584 0;
#X text 638 485 1;
#X obj 618 459 s2f~;
#X obj 470 295 bng 21 250 50 0 empty empty empty 17 7 0 10 #dcdcdc #000000 #000000;
#X obj 519 182 loadbang;
#X text 501 116 You can also use [function] in conjunction with [envgen~]., f 30;
#X obj 519 405 envgen~ -legato;
#X msg 519 213 0 250 1 250 1 250 0;
#X connect 1 0 3 0;
#X connect 2 0 1 0;
#X connect 6 0 1 1;
#X connect 6 0 8 0;
#X connect 6 1 18 0;
#X connect 7 0 6 0;
#X connect 8 0 0 0;
#X connect 11 0 13 0;
#X connect 12 0 11 0;
#X connect 15 0 10 0;
#X connect 16 0 11 1;
#X connect 16 0 15 0;
#X connect 17 0 16 0;
#X connect 21 0 32 0;
#X connect 23 0 25 0;
#X connect 24 0 23 0;
#X connect 28 0 22 0;
#X connect 29 0 32 0;
#X connect 30 0 33 0;
#X connect 32 0 23 1;
#X connect 32 0 28 0;
#X connect 33 0 21 0;
