#N canvas 313 69 984 760 12;
#X declare -path else;
#X obj 735 50 declare -path else;
#X obj 44 598 *~;
#X obj 44 664 else/out~;
#X obj 111 579 bng 17 250 50 0 empty empty empty 17 7 0 10 #dcdcdc #000000 #000000;
#X obj 118 238 else/out~;
#X obj 118 196 *~;
#X obj 186 154 bng 20 250 50 0 empty empty empty 0 -8 0 10 #dfdfdf #000000 #000000;
#X obj 323 188 sig~ 1;
#X floatatom 323 158 5 0 0 0 - - - 0;
#X msg 323 33 0.5;
#X obj 323 76 else/knob 70 0.25 4 1 1 empty empty #dfdfdf #7c7c7c #000000 1 0 0 0 1 320 0 0 1 empty empty 0 12 0 -15 0 1 0 0 0 0;
#X msg 285 33 0.25;
#X msg 354 33 1, f 2;
#X msg 379 33 2, f 2;
#X msg 405 33 4, f 2;
#X text 72 79 The rightmost inlet of [envgen~] \, [asr~] and [adsr~] sets a time multiplier for the envelope., f 33;
#X obj 118 158 brown~;
#X obj 187 184 adsr~ -minsus 500 250 100 0.5 50, f 17;
#X text 254 233 Here we have a one shot [adsr~] and the time multiplier affects all segments., f 23;
#X text 40 329 This way you can do something like keyboard tracking and have the envelope faster or slower depending on the pitch. Alternatively \, you can just do whatever else comes to your mind \, go crazy!, f 65;
#X obj 44 403 keyboard 17 80 4 2 0 0 empty empty;
#X obj 234 511 - 60;
#X obj 234 564 cents2ratio;
#X floatatom 234 588 5 0 0 0 - - - 0;
#X obj 44 524 t f f;
#X obj 44 500 stripnote, f 10;
#X obj 234 537 * -100;
#X obj 44 554 bl.saw~ -midi, f 7;
#X obj 111 610 envgen~ 50 1 250 0;
#X text 350 524 Here we get the MIDI pitch difference from middle C \, turn to a difference in cents and invert it so higher notes are shorter when we convert to ratio., f 21;
#X floatatom 273 511 5 0 0 0 - - - 0;
#X text 176 652 This way an octave higher means half the time \, but you can try other values with the number box. For instance \, '-50' would make 2 ocatves higher take half the time \, whereas '50' would make 2 octaves below take half the time., f 46;
#X obj 712 391 function 200 100 empty empty 0 1 220 220 220 50 50 50 0 0 0 0 0 75 1 175 0;
#X obj 712 547 envgen~;
#X listbox 712 508 16 0 0 0 - - - 0;
#X msg 723 282 500;
#X msg 733 312 1000;
#X msg 712 253 250;
#X msg 712 353 duration \$1 \, bang;
#X obj 624 395 brown~;
#X obj 624 599 *~;
#X obj 657 449 bng 21 250 50 0 empty empty empty 0 -10 0 12 #dfdfdf #000000 #000000;
#X obj 624 643 out~;
#X text 637 105 The [function] object also has a way to deal with time duration \, but in a more versatile and precise way to set the overall duration., f 28;
#X msg 594 286 0 75 1 175 0;
#X obj 712 224 loadbang;
#X connect 1 0 2 0;
#X connect 3 0 28 0;
#X connect 5 0 4 0;
#X connect 6 0 17 0;
#X connect 7 0 17 6;
#X connect 8 0 7 0;
#X connect 9 0 10 0;
#X connect 10 0 8 0;
#X connect 11 0 10 0;
#X connect 12 0 10 0;
#X connect 13 0 10 0;
#X connect 14 0 10 0;
#X connect 16 0 5 0;
#X connect 17 0 5 1;
#X connect 20 0 25 0;
#X connect 21 0 26 0;
#X connect 22 0 23 0;
#X connect 23 0 28 2;
#X connect 24 0 27 0;
#X connect 24 1 21 0;
#X connect 25 0 24 0;
#X connect 25 1 3 0;
#X connect 26 0 22 0;
#X connect 27 0 1 0;
#X connect 28 0 1 1;
#X connect 30 0 26 1;
#X connect 32 0 34 0;
#X connect 33 0 40 1;
#X connect 34 0 33 0;
#X connect 35 0 38 0;
#X connect 36 0 38 0;
#X connect 37 0 38 0;
#X connect 38 0 32 0;
#X connect 39 0 40 0;
#X connect 40 0 42 0;
#X connect 41 0 33 0;
#X connect 44 0 32 0;
#X connect 45 0 37 0;
#X connect 45 0 44 0;
