#N canvas 540 68 574 498 12;
#X declare -path else;
#X obj 390 211 declare -path else;
#X obj 53 316 *~;
#X obj 53 121 keyboard 17 80 4 2 0 0 empty empty;
#X obj 53 262 bl.saw~ -midi, f 7;
#X obj 53 218 mono~, f 20;
#X obj 121 328 adsr~ 50 25 0.5 250;
#X obj 53 382 out~;
#X msg 209 285 norm \$1;
#X obj 209 252 tgl 21 0 empty empty empty 0 -10 0 12 #dfdfdf #000000 #000000 0 1;
#X text 77 34 The [envgen~] \, [decay~] \, [asr~] and [adsr~] objects have a setting to normalize the gate input. We'll see examples later where this is useful \, like when you want a variable gate value but a constant envelope behaviour to control something., f 57;
#X text 236 253 <-- normalize the gate input;
#X text 309 304 there are also these objects that directly operate on normalizing the gate signal., f 22;
#X obj 304 388 gatenorm;
#X obj 401 388 gatenorm~;
#X connect 1 0 6 0;
#X connect 2 0 4 0;
#X connect 3 0 1 0;
#X connect 4 0 3 0;
#X connect 4 1 5 0;
#X connect 4 2 5 1;
#X connect 5 0 1 1;
#X connect 7 0 5 0;
#X connect 8 0 7 0;
