#N canvas 367 42 907 676 12;
#X declare -lib else;
#X obj 129 252 bng 20 250 50 0 empty empty empty 17 7 0 10 -228856
-1 -1;
#X obj 76 287 adc~ 1;
#X msg 316 160 open \$1;
#X obj 316 115 bng 15 250 50 0 empty empty empty 17 7 0 10 -228856
-1 -1;
#X obj 316 137 savepanel;
#X msg 132 172 stop;
#X obj 147 609 soundfiler;
#X obj 147 510 bng 15 250 50 0 empty empty empty 17 7 0 10 -228856
-1 -1;
#X obj 147 532 savepanel;
#X obj 129 361 tabwrite~ \$0-sample;
#X msg 222 321 stop;
#X msg 147 317 start \$1;
#X obj 147 295 nbx 6 14 0 1e+37 0 0 empty empty empty 0 -8 0 10 -228856
-1 -1 0 256;
#X obj 82 115 adc~ 1;
#X msg 147 584 write \$1 \$2;
#X obj 147 558 list append \$0-sample;
#X obj 117 204 writesf~;
#X obj 316 357 send \$0-sample;
#X floatatom 316 308 0 0 0 0 - - -;
#X obj 316 233 nbx 5 14 100 1e+37 0 0 empty empty empty 0 -8 0 10 -228856
-1 -1 100 256;
#X msg 316 332 resize \$1;
#X obj 329 282 s size;
#X msg 117 145 open ./Test.wav \, start;
#X obj 316 256 ms2samps;
#X text 320 96 choose where;
#X text 341 110 to record;
#X text 78 252 Record;
#X text 310 213 set array size;
#X text 373 231 in ms;
#X text 148 277 index to record;
#X text 62 450 You can also export an array into a sound file with
the [soundfiler] object as below., f 45;
#X text 167 508 <= choose where to save;
#X text 48 23 Similarly to [readsf~] \, the native [writesf~] object
records directly to your hard drive. The native [tabwrite~] object
records into an array - check help files for more info.;
#X obj 209 405 table \$0-sample 4410;
#X text 463 109 The [rec.file~] object \, from the ELSE library \,
is an abstraction based on [writesf~] and makes some things more convenient.
One nice feature is that it includes an [autofade~] object to avoid
clicks when sampling live input - check its help file., f 54;
#X obj 551 221 brown~;
#X obj 688 223 tgl 15 0 empty empty empty 17 7 0 10 -228856 -1 -1 0
1;
#X obj 551 251 rec.file~ ./Test.wav;
#X obj 606 390 sample~ \$0-record -ms 2000;
#X text 471 296 The [sample~] object can be used to load files recorded
with [writesf~] or [rec.file~] \, but it can also be used as a memory
buffer to record audio into by using something like [tabwrite~]. Below
we set a buffer size of 2000 ms., f 55;
#X msg 590 560 rec;
#X msg 629 560 stop;
#X obj 724 560 adc~ 1;
#X obj 629 608 rec~ \$0-record;
#X text 474 432 The [rec~] object \, from the ELSE library can also
be used to record into arrays. One advantage is that you can start
a recording with sample accuracy and it can record up to 64 signal
channels into arrays simultaneously. This object goes well with [sample~]
\, see its help file for more details., f 55;
#X obj 673 46 declare -lib else;
#X connect 0 0 9 0;
#X connect 1 0 9 0;
#X connect 2 0 16 0;
#X connect 3 0 4 0;
#X connect 4 0 2 0;
#X connect 5 0 16 0;
#X connect 7 0 8 0;
#X connect 8 0 15 0;
#X connect 10 0 9 0;
#X connect 11 0 9 0;
#X connect 12 0 11 0;
#X connect 13 0 16 0;
#X connect 14 0 6 0;
#X connect 15 0 14 0;
#X connect 18 0 20 0;
#X connect 19 0 23 0;
#X connect 20 0 17 0;
#X connect 22 0 16 0;
#X connect 23 0 18 0;
#X connect 23 0 21 0;
#X connect 35 0 37 0;
#X connect 36 0 37 1;
#X connect 40 0 43 0;
#X connect 41 0 43 0;
#X connect 42 0 43 1;
