#N canvas 332 40 935 499 12;
#X obj 187 103 osc~ 440;
#X obj 253 136 hsl 128 15 -0.5 0.5 0 0 empty empty empty -2 -6 0 10
-228856 -1 -1 0 0;
#X obj 235 200 +~;
#X obj 187 132 *~ 0.5;
#X obj 250 163 nbx 4 14 -1e+37 1e+37 0 0 empty empty empty 0 -8 0 10
-228856 -1 -1 0 256;
#X obj 609 93 osc~ 440;
#X obj 630 128 hsl 128 15 0 0.5 0 1 empty empty empty -2 -6 0 10 -228856
-1 -1 0 1;
#X obj 609 171 *~;
#X obj 636 202 +~;
#X floatatom 654 172 0 0 0 0 - - -;
#X obj 146 231 setdsp~ 1;
#X obj 235 234 graph~ 441 9;
#X obj 636 229 graph~ 441 9;
#X text 301 163 <= DC Offset;
#X text 490 17 In this other example \, we sum the audio to the same
peak amplitude level \, retaining the signal only in the positive side.
When the signal alternates between negative and positive \, it is called
"bipolar" \, but here it is "unipolar"., f 58;
#X text 27 16 A zero amplitue is the rest or silence \, but this changes
if we add a constant value to a signal. This is called a "DC Offset"
and does not interfere our perception \, but does reduce the dynamic
range and may clip our signal. the DC-Offset component is a constant
value \, that does not oscillate. Therefore it is a 0 Hz component!
, f 62;
#X text 80 390 =================================================================================================================
, f 114;
#X text 233 416 The DC Offset may be undesired and generated by faulty
audio equipments \, but also a useful concept for gain adjustment as
we'll see in this tutorial.;
#X connect 0 0 3 0;
#X connect 1 0 4 0;
#X connect 2 0 11 0;
#X connect 3 0 2 0;
#X connect 4 0 2 1;
#X connect 5 0 7 0;
#X connect 6 0 7 1;
#X connect 6 0 9 0;
#X connect 7 0 8 0;
#X connect 8 0 12 0;
#X connect 9 0 8 1;
