#N canvas 360 38 945 784 12;
#X obj 98 122 brown~;
#X obj 98 162 resonbank~ -freq 200 300 700 800 -decay 900 800 700 900 -amp 0.4 0.3 0.2 0.2, f 32;
#X obj 98 230 out~;
#X obj 98 420 out~;
#X obj 98 352 resonbank2~ -freq 110 220 330 440 -attack 50 100 50 100 -decay 2500 2800 2300 2400, f 33;
#X obj 98 312 imp~ 1;
#X obj 95 580 noise~;
#X obj 95 620 bpbank~ -freq 200 500 900 1700 -q 1.5 5 20 9 -amp 2 1.5 2 1, f 30;
#X obj 95 674 out~;
#X obj 490 148 keyboard 15 60 2 3 0 0 empty empty;
#X obj 490 216 mtof;
#X obj 490 363 out~;
#X obj 704 249 brown~;
#X floatatom 490 247 8 0 0 0 - - - 0;
#X obj 490 275 resonators~ -freq 220 -ratio 1 2 2.803 3.871 5.074 7.81 10.948 14.421 -decay 1000 205 1000 196 339 47 58 47 -amp 1 0.044 0.891 0.0891 0.794 0.1 0.281 0.079, f 31;
#X obj 488 444 keyboard 15 60 2 3 0 0 empty empty;
#X obj 488 545 mtof;
#X obj 488 696 out~;
#X floatatom 488 576 8 0 0 0 - - - 0;
#X obj 488 604 resonators2~ -freq 220 -ratio 1 2 2.803 3.871 5.074 7.81 10.948 14.421 -decay 1000 205 1000 196 339 47 58 47 -amp 1 0.044 0.891 0.0891 0.794 0.1 0.281 0.079, f 40;
#X obj 765 558 impseq~;
#X obj 488 517 stripnote;
#X obj 765 533 / 127;
#X text 72 46 ELSE has some objects that are banks of filters. Below we have banks based on [resonant~] \, [resonant2~]., f 41;
#X text 85 520 The [bpbank~] object is a band composed of [bandpass~] filters., f 33;
#X text 414 24 The [resonators~] object is also based on [resonant~] like [resonbank~] \, but instead of a list of frequencies it takes a list of ratio for an input frequency. This is kinda like the difference between [oscbank~] and [oscbank2~]. This is better suited for sound synthesis as well see later. the [resonators2~] object has the same structure but it's based on [vcf2~] \, so it's like adding many [damp.osc~] objects., f 67;
#X connect 0 0 1 0;
#X connect 1 0 2 0;
#X connect 4 0 3 0;
#X connect 5 0 4 0;
#X connect 6 0 7 0;
#X connect 7 0 8 0;
#X connect 9 0 10 0;
#X connect 10 0 13 0;
#X connect 12 0 14 1;
#X connect 13 0 14 0;
#X connect 14 0 11 0;
#X connect 15 0 21 0;
#X connect 16 0 18 0;
#X connect 18 0 19 0;
#X connect 19 0 17 0;
#X connect 19 1 17 1;
#X connect 20 0 19 1;
#X connect 21 0 16 0;
#X connect 21 1 22 0;
#X connect 22 0 20 0;
