#N canvas 390 49 915 432 12;
#X declare -path else;
#X obj 169 331 out~;
#X obj 169 295 bob~;
#X obj 335 329 initmess \; cutoff 500 \; Q 3;
#X obj 181 197 nbx 5 14 -1e+37 1e+37 0 0 empty empty empty 0 -8 0 10 #dcdcdc #000000 #000000 0 256;
#X obj 194 249 nbx 5 14 0 4 0 0 empty empty empty 0 -8 0 10 #dcdcdc #000000 #000000 0 256;
#X obj 184 172 hsl 128 15 100 5000 0 0 empty cutoff empty -2 -8 0 10 #dcdcdc #000000 #000000 0 1;
#X obj 197 228 hsl 128 15 0 4 0 0 empty Q empty -2 -8 0 10 #dcdcdc #000000 #000000 0 1;
#X text 39 226 Input;
#X text 212 171 Frequency;
#X text 219 227 Q/Resonance;
#X obj 645 36 declare -path else;
#X text 39 27 The vanilla [bob~] is an 'extra' addition to Pure Data. It accepts audio signals for both resonant frequency and Q!, f 55;
#X text 39 78 This object emulates the famous and iconic moog lowpass resonant filter designed by Robert Moog (hence the name \, [bob~]). Check its help file for more details., f 55;
#X text 689 149 resonance;
#X text 627 149 cutoff;
#X obj 558 326 else/out~;
#X obj 558 279 moog~ 1000 0.75 0.1, f 31;
#X obj 629 174 knob 50 110 1760 1 440 empty empty #dfdfdf #7c7c7c #000000 1 0 0 0 0 320 0 0 110 empty empty 0 12 0 -15 0 1 0 0 0 0;
#X floatatom 629 234 8 0 0 0 - - - 0;
#X obj 700 174 knob 50 0 1 0 0.5 empty empty #dfdfdf #7c7c7c #000000 1 0 0 0 0 320 0 0 1 empty empty 0 12 0 -15 0 1 0 0 0 0;
#X obj 772 174 knob 50 0 1 0 0.5 empty empty #dfdfdf #7c7c7c #000000 1 0 0 0 0 320 0 0 1 empty empty 0 12 0 -15 0 1 0 0 0 0;
#X text 773 149 drive;
#X obj 83 226 bl.saw~;
#X obj 83 194 sig~ 100;
#X obj 558 201 sig~ 100;
#X obj 558 235 bl.saw~;
#X floatatom 700 234 8 0 0 0 - - - 0;
#X floatatom 772 234 8 0 0 0 - - - 0;
#X text 488 88 The [moog~] object from ELSE is quite similar to [bob~] with some more features like self oscillation and a built-in overdrive. Check the help file for more details., f 55;
#X connect 1 0 0 0;
#X connect 3 0 1 1;
#X connect 4 0 1 2;
#X connect 5 0 3 0;
#X connect 6 0 4 0;
#X connect 16 0 15 0;
#X connect 17 0 18 0;
#X connect 18 0 16 1;
#X connect 19 0 26 0;
#X connect 20 0 27 0;
#X connect 22 0 1 0;
#X connect 23 0 22 0;
#X connect 24 0 25 0;
#X connect 25 0 16 0;
#X connect 26 0 16 2;
#X connect 27 0 16 3;
