#N canvas 588 23 473 613 12;
#X declare -path else;
#X obj 242 332 declare -path else;
#X obj 53 198 keyboard 17 80 3 3 0 0 empty empty;
#X listbox 53 292 9 0 0 0 - - - 0;
#X obj 53 372 - 60;
#X obj 53 441 numbox~ 6 12 100 #C0C0C4 #440008 10 0 0 0;
#X obj 53 325 stripnote;
#X obj 53 403 /~ 12;
#X obj 53 522 out~;
#X text 56 19 The [plaits~] object from the ELSE library ports a famous eurorack module to Pure Data. Check its help file. It contains many synthesis techniques \, most of which are presented in this tutorial., f 52;
#X text 56 90 The code of this original module takes pitch input in CV and so can the object with the '-cv' flag (default input is in Hertz and you can also have MIDI Pitch). The reference for 0V is middle C (MIDI Pitch 60)., f 52;
#X obj 250 447 out~;
#X text 244 513 input directly in MIDI pitch., f 15;
#X obj 250 403 plaits~ -midi 60;
#X obj 53 478 plaits~ -cv;
#X connect 1 0 2 0;
#X connect 2 0 5 0;
#X connect 3 0 6 0;
#X connect 4 0 13 0;
#X connect 5 0 3 0;
#X connect 5 0 12 0;
#X connect 6 0 4 0;
#X connect 12 0 10 0;
#X connect 12 1 10 1;
#X connect 13 0 7 0;
#X connect 13 1 7 1;
