#N canvas 345 76 869 634 12;
#X declare -path else;
#X obj 681 21 declare -path else;
#X obj 80 367 +~;
#X obj 98 329 *~ 10;
#X obj 140 559 out~;
#X obj 80 412 sine~;
#X text 155 493 <-- multichannel output is automatically summed in [out~], f 23;
#X obj 140 458 *~;
#X obj 80 263 sig~ 200 300 400 500 600 700 800;
#X obj 98 305 rampnoise~ -ch 7 5;
#X obj 158 415 rampnoise~ -ch 7 5;
#X obj 507 559 out~;
#X obj 507 527 plate.rev~;
#X obj 507 252 *~;
#X obj 599 193 bng 21 250 50 0 empty empty empty 0 -10 0 12 #dfdfdf #000000 #000000;
#X obj 507 320 *~;
#X obj 599 224 rand.f -n 24 -1200 1200;
#X obj 507 431 *~;
#X obj 599 252 sort;
#X obj 599 285 f2s~ 10000;
#X obj 598 469 *~ 0.125;
#X obj 600 347 rampnoise~ -ch 24 0.1;
#X obj 507 492 drive~;
#X obj 598 445 rampnoise~ -ch 24 0.15;
#X obj 599 314 cents2ratio~;
#X obj 600 410 cents2ratio~;
#X obj 507 214 sig~ 300;
#X floatatom 507 175 6 0 0 0 - - - 16;
#X obj 600 381 *~ 150;
#X obj 599 169 tempo -on -ms 15000;
#X msg 415 468 wet 0.5;
#X obj 415 438 loadbang;
#X text 627 194 set random intervals;
#X text 639 245 sort them in ascending order, f 15;
#X text 680 279 convert to signal with portamento, f 17;
#X text 653 372 random variation in cents, f 16;
#X text 663 470 random gain variantion, f 11;
#X obj 507 391 bl.tri~;
#X obj 507 463 sum~;
#X text 455 54 We now have 24 channels of a triangular oscillator with a frequency input and random picthes up and down an octave (updated every 15 seconds with 10 seconds portamento). There are also random pitch and gain variations. For last \, we sum the channels into one with [sum~] and add some overdrive and reverb., f 50;
#X text 128 366 random variation in hertz;
#X text 182 447 random gain modulation;
#X text 22 26 The [sine~] object from ELSE library (and all the other oscillators from it) takes and generates multichannel signals. As such \, you can consider it also a bank of oscillators and you can perform hard sync \, frequency and phase modulation \, which isn't possible in the previous oscillator bank options. Check it help file for more details. Please note that ALL oscillators from ELSE are multichannel aware \, so you can do the same with all of them., f 56;
#X text 22 161 In this example \, the frequency of seven oscillators are modulated by independent ramp noise channels. Similarly \, the amplitude is also modulated by independent noise generators. Note that we'll see more about modulation synthesis soon., f 56;
#X connect 1 0 4 0;
#X connect 2 0 1 1;
#X connect 4 0 6 0;
#X connect 6 0 3 0;
#X connect 7 0 1 0;
#X connect 8 0 2 0;
#X connect 9 0 6 1;
#X connect 11 0 10 0;
#X connect 11 1 10 1;
#X connect 12 0 14 0;
#X connect 13 0 15 0;
#X connect 14 0 36 0;
#X connect 15 0 17 0;
#X connect 16 0 37 0;
#X connect 17 0 18 0;
#X connect 18 0 23 0;
#X connect 19 0 16 1;
#X connect 20 0 27 0;
#X connect 21 0 11 0;
#X connect 22 0 19 0;
#X connect 23 0 12 1;
#X connect 24 0 14 1;
#X connect 25 0 12 0;
#X connect 26 0 25 0;
#X connect 27 0 24 0;
#X connect 28 0 13 0;
#X connect 29 0 11 0;
#X connect 30 0 29 0;
#X connect 36 0 16 0;
#X connect 37 0 21 0;
