#N canvas 287 118 1042 521 12;
#X declare -path else;
#X obj 787 50 declare -path else;
#X obj 77 254 tabwrite~ signal;
#N canvas 0 22 450 278 (subpatch) 0;
#X array signal 441 float 0;
#A color 0;
#A width 1;
#X coords 0 1 440 -1 250 157 1 0 0;
#X restore 74 325 graph;
#X obj 278 173 setdsp~;
#X obj 157 208 bng 21 250 50 0 empty empty empty 0 -10 0 12 #dfdfdf #000000 #000000;
#X obj 77 179 osc~ 440;
#X obj 157 175 metro 100;
#X obj 157 144 tgl 21 0 empty empty empty 0 -10 0 12 #dfdfdf #000000 #000000 0 1;
#X text 61 26 This example shows how to plot audio signals in Pd. As already mentioned \, we can use arrays to write audio signals into them \, we can do this with [tabwrite~] \, just send it bangs so it can write the incoming signal into an array \,, f 35;
#X obj 397 179 osc~ 440;
#X obj 397 254 graph~;
#X text 393 48 In this tutorial \, the [graph~] abstraction from ELSE is used a lot \, and it's a simple abstraction based on this structe \, with an array and [tabwrite~]., f 25;
#X obj 699 244 scope~ 254 163 8 3 63 -1 1 0 0 0 0 30 30 30 190 190 190 160 160 160 0 empty;
#X obj 699 191 osc~ 440;
#X text 685 115 ELSE also offers [scope~] \, which is a proper oscilloscope and a compiled GUI object., f 37;
#X text 554 451 Check the help file of both objects above;
#X connect 4 0 1 0;
#X connect 5 0 1 0;
#X connect 6 0 4 0;
#X connect 7 0 6 0;
#X connect 9 0 10 0;
#X connect 13 0 12 0;
