#N canvas 404 95 832 762 10;
#X floatatom 74 174 5 0 500 2 - base-freq - 0;
#X floatatom 111 174 5 0 100 2 - pulse-width - 0;
#X floatatom 389 291 5 0 2 2 Formant_Base formant-base - 0;
#X text 88 26 A speech formant synthesizer by Jim Qode;
#X text 348 174 1- a;
#X text 348 189 2- e;
#X text 348 204 3- I;
#X text 348 219 4- i;
#X text 392 174 5- o;
#X text 392 189 6- :o;
#X text 392 204 7- u;
#X text 392 219 8- :u;
#X obj 74 260 lowpass~ 5000;
#X obj 111 199 / 100;
#X obj 74 402 hip~ 5;
#X obj 200 179 hradio 16 1 0 8 empty vowel empty 0 -8 0 10 #dfdfdf #000000 #000000 0;
#X floatatom 200 203 5 0 0 0 - - - 0;
#X text 54 173 Hz;
#X text 108 145 Pulse Width, f 5;
#X text 85 51 These are Turkish vowels \, but can customized to others. The text files have the center frequency \, Q and amplitude data for 3 formant filters. The input can be switched with a [noise~] object for an annoying whispering voice., f 49;
#X obj 200 229 messcoll -k;
#C store 0 freq 844 1210 2700 \, q 30 80 100 \, amp 6 6 -4;
#C store 1 freq 630 1800 2550 \, q 30 80 100 \, amp 6 5 0;
#C store 2 freq 430 1300 2550 \, q 30 80 100 \, amp 5 2 0;
#C store 3 freq 340 2130 2650 \, q 30 80 100 \, amp 9 2 0;
#C store 4 freq 535 875 2720 \, q 30 80 100 \, amp 7 3 -4;
#C store 5 freq 525 1350 2220 \, q 30 80 100 \, amp 8 3 -4;
#C store 6 freq 346 960 2400 \, q 30 80 100 \, amp 4 4 -2;
#C store 7 freq 350 1705 2240 \, q 30 80 100 \, amp 4 4 -2;
#C keep 1;
#C restore;
#X obj 583 266 initmess \; base-freq 55 \; pulse-width 20 \; vowel 0 \; formant-base 1 \;;
#X obj 200 261 route freq q amp;
#X obj 152 313 else/order;
#X obj 231 313 else/order;
#X obj 310 312 else/order;
#X obj 74 351 clone sformant 3, f 53;
#X msg 389 320 all \$1;
#X obj 74 225 bl.square~ 55 0.2, f 19;
#X obj 180 393 meter~;
#X obj 306 469 clone sformant2 3, f 53;
#X obj 306 497 hip~ 5;
#X obj 306 528 drive~;
#X obj 184 568 xselect~ 2;
#X obj 183 596 out~;
#X obj 115 560 tgl 16 0 empty empty empty 0 -8 0 10 #fcfcfc #000000 #000000 0 1;
#X obj 115 581 + 1;
#X obj 74 433 drive~ 0.2;
#X connect 0 0 28 0;
#X connect 1 0 13 0;
#X connect 2 0 27 0;
#X connect 12 0 26 0;
#X connect 12 0 30 0;
#X connect 13 0 28 1;
#X connect 14 0 37 0;
#X connect 15 0 16 0;
#X connect 16 0 20 0;
#X connect 20 0 22 0;
#X connect 22 0 23 0;
#X connect 22 1 24 0;
#X connect 22 2 25 0;
#X connect 23 0 26 1;
#X connect 23 0 30 1;
#X connect 24 0 26 2;
#X connect 24 0 30 2;
#X connect 25 0 26 3;
#X connect 25 0 30 3;
#X connect 26 0 14 0;
#X connect 27 0 26 4;
#X connect 28 0 12 0;
#X connect 30 0 31 0;
#X connect 31 0 32 0;
#X connect 32 0 33 1;
#X connect 32 0 29 0;
#X connect 33 0 34 0;
#X connect 35 0 36 0;
#X connect 36 0 33 0;
#X connect 37 0 33 0;
