#N canvas 636 362 505 417 10;
#X obj 68 79 inlet~;
#X obj 134 77 inlet;
#X obj 213 78 inlet;
#X obj 287 77 inlet;
#X obj 247 341 outlet~;
#X obj 390 79 inlet;
#X obj 145 138 t b f;
#X text 66 47 Osc Input, f 5;
#X text 131 47 Center Freq, f 6;
#X text 223 57 Q;
#X text 261 58 Amplitude (dB);
#X text 375 58 Formant Base;
#X obj 286 248 f2s~;
#X obj 229 201 f2s~ 100;
#X obj 151 199 f2s~ 100;
#X obj 134 164 * 1;
#X obj 247 284 dbgain~ 0;
#X obj 90 315 resonant~;
#X obj 112 236 resonant~, f 20;
#X connect 0 0 18 0;
#X connect 1 0 15 0;
#X connect 2 0 18 2;
#X connect 3 0 12 0;
#X connect 5 0 6 0;
#X connect 6 0 15 0;
#X connect 6 1 15 1;
#X connect 15 0 18 1;
#X connect 16 0 4 0;
#X connect 18 0 16 0;
