#N canvas 248 38 1068 626 12;
#X declare -path else;
#X obj 88 476 *~;
#X obj 88 523 out~;
#X obj 106 409 rescale~;
#X obj 854 37 declare -path else;
#X obj 106 380 osc~ 3;
#X obj 87 337 osc~ 440;
#X text 115 432 values from 0-1, f 8;
#X text 27 152 One could have the modulator oscillator going from -1 to 1 \, but it would double the actual rate to 6 Hz \, because the 0 to -1 range is another cyle. Another detail is that it flips the polarity., f 64;
#X text 27 28 Tremolo is a slow periodic modulation of the amplitude/dynamics. We'll get back to it when talking about Amplitude Modulation in the Synthesis section \, but we can introduce it in here. Below \, we have a sine wave oscillator with a low frequency (at 3 Hz) controlling the amplitude of another sine wave. We rescale the output of the modulating oscillator \, which is -1 to 1 \, to a 0 to 1 range with the [rescale~] object. This is like setting a DC-offset to 0.5!, f 64;
#X obj 686 167 hsl 128 15 0 1 0 0 empty empty empty -2 -8 0 10 #dcdcdc #000000 #000000 0 1;
#X obj 562 352 *~;
#X obj 612 177 nbx 4 14 0.01 20 1 1 empty \$0-LFO empty 0 -8 0 10 #dcdcdc #000000 #000000 3.0494 256;
#X text 732 166 Depth;
#X text 576 176 LFO;
#X obj 612 202 osc~;
#X obj 562 509 out~;
#X obj 782 518 out~;
#X obj 826 396 nbx 5 14 -1e+37 1e+37 0 0 empty empty empty 0 -8 0 10 #dcdcdc #000000 #000000 0 256;
#X obj 870 450 nbx 5 14 -1e+37 1e+37 0 0 empty empty empty 0 -8 0 10 #dcdcdc #000000 #000000 0 256;
#X obj 873 427 hsl 128 15 0 1 0 0 empty empty empty -2 -8 0 10 #dcdcdc #000000 #000000 0 1;
#X text 885 393 Hz;
#X obj 643 292 rescale~ 0 1;
#X obj 683 212 expr 1 - $f1;
#X floatatom 683 238 9 0 0 0 - - - 0;
#X obj 643 378 vsl 20 100 0 1 0 0 empty empty empty 0 -9 0 10 #dcdcdc #000000 #000000 0 1;
#X obj 683 190 nbx 5 14 -1e+37 1e+37 0 0 empty empty empty 0 -8 0 10 #dcdcdc #000000 #000000 0 256;
#X text 668 470 0;
#X text 667 371 1;
#X obj 683 264 f2s~ 10;
#X obj 643 348 s2f~;
#X obj 562 290 osc~ 440;
#X text 546 74 A simple way to set the depth range is with the [rescale~] object by setting the minimum aplitude. We simply subtract the depth from 1 \, which at 0 depth means a minimum and maximum value at 1 \, and a depth of 1 goes down to 0 (try other values in between)., f 66;
#X obj 263 380 *~;
#X obj 263 407 +~;
#X obj 334 379 clip 0 1;
#X obj 334 407 / 2;
#X obj 263 340 osc~ 1;
#X obj 334 462 expr 1 - $f1;
#X floatatom 334 434 7 0 0 0 - - - 0;
#X floatatom 334 490 9 0 0 0 - - - 0;
#X obj 337 332 hsl 128 15 0 1 0 0 empty empty empty -2 -8 0 10 #dcdcdc #000000 #000000 0 1;
#X text 383 331 Depth;
#X obj 334 355 nbx 5 14 -1e+37 1e+37 0 0 empty empty empty 0 -8 0 10 #dcdcdc #000000 #000000 0 256;
#X obj 263 477 vsl 20 100 0 1 0 0 empty empty empty 0 -9 0 10 #dcdcdc #000000 #000000 0 1;
#X text 288 569 0;
#X text 287 470 1;
#X obj 263 447 s2f~;
#X text 27 218 A proper Tremolo effect has a depth control \, which is a way to control the DC-Offset and gain. Below do it by setting the gain at half the depth value and the DC-offset to 1 minus that value. For instance \, a depth of 0.5 sets the gain to 0.25 (so it goes from -0.25 to 0.25) and the DC-Offset to 0.75 (so it goes from 0.5 to 1)., f 64;
#X obj 780 341 play.file~ bubul.mp3 1 1;
#X text 930 449 Depth;
#X obj 782 475 tremolo~ 10 1;
#X text 812 210 The [tremolo~] object is an abstraction that implements this process. Note how the tremolo effect is well suited for any kind of input and is a common guitar FX pedal., f 29;
#X connect 0 0 1 0;
#X connect 2 0 0 1;
#X connect 4 0 2 0;
#X connect 5 0 0 0;
#X connect 9 0 25 0;
#X connect 10 0 15 0;
#X connect 11 0 14 0;
#X connect 14 0 21 0;
#X connect 17 0 50 1;
#X connect 18 0 50 2;
#X connect 19 0 18 0;
#X connect 21 0 10 1;
#X connect 21 0 29 0;
#X connect 22 0 23 0;
#X connect 23 0 28 0;
#X connect 25 0 22 0;
#X connect 28 0 21 1;
#X connect 29 0 24 0;
#X connect 30 0 10 0;
#X connect 32 0 33 0;
#X connect 33 0 46 0;
#X connect 34 0 35 0;
#X connect 35 0 32 1;
#X connect 35 0 38 0;
#X connect 36 0 32 0;
#X connect 37 0 33 1;
#X connect 37 0 39 0;
#X connect 38 0 37 0;
#X connect 40 0 42 0;
#X connect 42 0 34 0;
#X connect 46 0 43 0;
#X connect 48 0 50 0;
#X connect 50 0 16 0;
