#N canvas 436 61 743 605 12;
#X declare -path else;
#X obj 399 402 nbx 5 14 1 100 0 0 \$0-ratio empty empty 0 -8 0 10 #dcdcdc #000000 #000000 0 256;
#X obj 399 383 nbx 5 14 -100 0 0 0 \$0-thresh empty empty 0 -8 0 10 #dcdcdc #000000 #000000 0 256;
#X obj 399 440 nbx 5 14 0 100 0 0 \$0-release empty empty 0 -8 0 10 #dcdcdc #000000 #000000 0 256;
#X obj 399 421 nbx 5 14 0 100 0 0 \$0-attack empty empty 0 -8 0 10 #dcdcdc #000000 #000000 0 256;
#X text 460 382 Threshold (dB), f 20;
#X text 460 420 Attack (ms), f 20;
#X text 460 439 Release (ms), f 20;
#X text 460 401 Ratio (x:1), f 20;
#X obj 68 487 out~;
#X obj 68 415 *~;
#X obj 188 347 r \$0-release;
#X obj 188 372 r \$0-attack;
#X obj 120 260 -~;
#X obj 162 280 max 1;
#X obj 154 171 r \$0-thresh;
#X obj 162 254 r \$0-ratio;
#X obj 120 305 *~;
#X obj 120 346 min~ 0;
#X obj 138 104 abs~;
#X obj 66 39 noise~;
#X obj 212 32 tgl 21 0 empty empty empty 17 7 0 10 #dcdcdc #000000 #000000 0 1;
#X obj 138 38 adc~ 1;
#X text 65 13 input;
#X text 320 531 The difference is that this object can also mix both signals. Check its help file., f 39;
#X text 321 214 Note that we're using a simple absolute amplitude value instead of a RMS window. This is actually the same as having the [mov.rms~] object with a window size of 1! This is a peak detection mode that acts quicker. You can also have this mode in [compress~] if you set the window size to 1!, f 52;
#X obj 546 42 declare -path else;
#X obj 212 63 glide~ 500;
#X obj 138 130 lin2db~;
#X obj 154 195 f2s~ 10;
#X obj 162 305 f2s~ 10;
#X obj 120 433 db2lin~;
#X obj 120 403 glide2~;
#X obj 554 499 sidechain~;
#X text 321 98 Instead acting when an input exceeds the threshold \, side-chain compression detects when a different signal (known as ‘key signal’ or ‘side-chain input’) exceeds the threshold to compress the input. A common usage is to have a kick drum as the key signal to compress other elements so the kick stands out., f 52;
#X text 293 64 <-- control;
#X text 320 313 Anyway \, for this patch \, we don't have an overall gain \, but try messing with the parameters below:, f 52;
#X text 312 485 This patch is the basis of the [sidechain~] object from ELSE -->, f 33;
#X connect 9 0 8 0;
#X connect 10 0 31 1;
#X connect 11 0 31 2;
#X connect 12 0 16 0;
#X connect 13 0 29 0;
#X connect 14 0 28 0;
#X connect 15 0 13 0;
#X connect 16 0 17 0;
#X connect 17 0 31 0;
#X connect 18 0 27 0;
#X connect 19 0 9 0;
#X connect 20 0 26 0;
#X connect 21 0 18 0;
#X connect 26 0 18 0;
#X connect 27 0 12 1;
#X connect 28 0 12 0;
#X connect 29 0 16 1;
#X connect 30 0 9 1;
#X connect 31 0 30 0;
