#N canvas 465 49 529 462 12;
#X obj 217 319 *~;
#X obj 161 276 osc~ 440;
#X obj 267 173 nbx 5 17 0 2000 0 0 empty empty empty 0 -8 0 12 -228856
-1 -1 0 256;
#X obj 227 170 bng 25 250 50 0 empty empty empty 17 7 0 10 -228856
-1 -1;
#X obj 217 360 out~;
#X obj 235 206 f 500;
#X text 270 151 ms;
#X msg 235 235 0 \$1 1;
#X obj 235 262 envgen~;
#X obj 235 290 envelope~ hann;
#X text 76 44 For more common functions used as envelopes we have the
[envelope~] object from ELSE \, which has "hann" \, "sin" (half the
sine function) and triangular. Like [table~] \, the input are indexes
from 0 to 1!, f 52;
#X connect 0 0 4 0;
#X connect 0 0 4 1;
#X connect 1 0 0 0;
#X connect 2 0 5 1;
#X connect 3 0 5 0;
#X connect 5 0 7 0;
#X connect 7 0 8 0;
#X connect 8 0 9 0;
#X connect 9 0 0 1;
