#N canvas 465 49 680 553 12;
#X obj 108 274 osc~ 440;
#X obj 186 400 *~;
#X obj 143 442 out~;
#X obj 204 281 envgen~;
#X obj 236 184 nbx 5 17 0 2000 0 0 empty empty empty 0 -8 0 12 -228856
-1 -1 500 256;
#X obj 204 176 bng 25 250 50 0 empty empty empty 17 7 0 10 -228856
-1 -1;
#X obj 204 214 f 500;
#X text 239 162 ms;
#X msg 204 245 0 \$1 1;
#X msg 352 199 0 0.5 1 0.5 0;
#X text 454 199 triangular;
#X text 491 170 trapezoid;
#X msg 335 170 0 0.25 1 0.5 1 0.25 0;
#X obj 338 230 function 0 0.5 1 0.5 0;
#X obj 204 358 function~;
#X text 100 40 You can also consider the [function] GUI as a table
generator that you can trigger as an envelope in the same way as the
previous examples. Here we use [function~] to load the table from the
[function] GUI and the [envgen~] object is used again to generate the
ramp with the indexes ., f 64;
#X connect 0 0 1 0;
#X connect 1 0 2 1;
#X connect 1 0 2 0;
#X connect 3 0 14 0;
#X connect 4 0 6 1;
#X connect 5 0 6 0;
#X connect 6 0 8 0;
#X connect 8 0 3 0;
#X connect 9 0 13 0;
#X connect 12 0 13 0;
#X connect 13 0 14 0;
#X connect 14 0 1 1;
