#N canvas 267 138 1082 550 12;
#X declare -path else;
#N struct \$0-point float x0 float y0 float xs float ys float fg float in float gridx float gridy;
#X obj 880 242 declare -path else;
#X obj 284 269 slider2d 166 166 0 1 1 0 1 211 211 211 0 0 0 1 0 0 0.334363 0.273001 empty empty;
#X obj 57 212 nbx 5 17 -1e+37 1e+37 0 0 empty empty empty 0 -10 0 12 #dfdfdf #000000 #000000 0 256;
#X obj 57 258 wt2d~ -n 8 8 \$0-2d-wave;
#X obj 57 294 graph~;
#X obj 57 450 out~;
#X obj 175 160 rescale~;
#X obj 309 155 rescale~;
#X obj 284 231 pack;
#N canvas 187 225 1086 414 2D-table 0;
#X obj 27 206 cnv 19 1022 138 empty empty empty 20 12 0 12 #e0e0e0 #404040 0;
#N canvas 0 22 450 278 (subpatch) 0;
#X array \$0-2d-wave 16384 float 0;
#A color 0;
#A width 1;
#X coords 0 1 16383 -1 1024 140 1 0 0;
#X restore 26 205 graph;
#X obj 219 139 plaits~, f 9;
#X text 54 30 In this example we're loading a wav file downloaded from https://waveeditonline.com/ that is used in the PLAITS module from mutable instruments. By the way \, ELSE has a port of [plaits~] as well \, which has been previously presented briefly. So we're talking about synth engine mode #5 and you can check it out too in the help file of the object., f 57;
#X floatatom 630 154 6 0 0 0 - - - 0;
#X text 22 356 row 0 -----------|;
#X text 152 356 row 1 -----------|;
#X text 282 356 row 2 -----------|;
#X text 412 356 row 3 -----------|;
#X text 542 356 row 4 -----------|;
#X text 672 356 row 5 -----------|;
#X text 802 355 row 6 -----------|;
#X text 932 356 row 7 ----------|;
#X text 494 27 The file is 16384 samples long and is considered to be split in a 8x8 grid. We first split into 8 rows of 2048 points each. You could imagine the rows stacked vertically in your mind. Then each row is split into 8 frames (or columns) of 256 points. We then have 64 frames that can be crossfaded in two dimensions., f 76;
#X text 508 156 number of points;
#X obj 630 129 sfload \$0-2d-wave;
#X obj 630 104 initmess load PLAITS03.wav;
#X text 766 125 Here we also use [sfload] to load a file into the array, f 29;
#X connect 15 0 4 0;
#X connect 16 0 15 0;
#X restore 182 466 pd 2D-table;
#X obj 175 123 rampnoise~ 2;
#X obj 309 122 rampnoise~ 2;
#X obj 195 194 s2f~;
#X obj 309 194 s2f~;
#X obj 57 181 initmess 55;
#X text 40 30 You can use low frequency signal modulation to change the waveform. In this case we have random modulation \, which scans randomly through the possible waveforms.;
#X obj 553 129 keyboard 17 80 4 1 0 0 empty empty;
#X obj 553 234 voices~ 4, f 14;
#X obj 553 327 wt2d~ -midi -n 8 8 \$0-2d-wave, f 11;
#X obj 648 410 adsr~ 25 10 0.5 500;
#X obj 553 409 *~;
#X obj 683 283 rescale~;
#X obj 771 329 rescale~;
#X obj 553 473 out~;
#X obj 683 246 rampnoise~ -ch 4 0.1;
#X obj 771 296 rampnoise~ -ch 4 0.1;
#X text 581 34 And now the same example with a slower modulation and input via keyboard \, plus an [adsr~] to implement a minimal synth. We're using [voices~] to manage polyphony and we have random modulation for each voice.;
#X connect 2 0 3 0;
#X connect 3 0 4 0;
#X connect 4 0 5 0;
#X connect 6 0 3 3;
#X connect 6 0 12 0;
#X connect 7 0 3 4;
#X connect 7 0 13 0;
#X connect 8 0 1 0;
#X connect 10 0 6 0;
#X connect 11 0 7 0;
#X connect 12 0 8 0;
#X connect 13 0 8 1;
#X connect 14 0 2 0;
#X connect 16 0 17 0;
#X connect 17 0 18 0;
#X connect 17 1 19 0;
#X connect 18 0 20 0;
#X connect 19 0 20 1;
#X connect 20 0 23 0;
#X connect 21 0 18 3;
#X connect 22 0 18 4;
#X connect 24 0 21 0;
#X connect 25 0 22 0;
