#N canvas 375 50 638 838 12;
#X declare -path else;
#X obj 458 71 declare -path else;
#X obj 45 106 keyboard 17 80 4 1 0 0 empty empty;
#X obj 45 74 note.in;
#X obj 372 769 out~;
#X obj 372 736 plate.rev~;
#X obj 203 677 initmess wet 0.25;
#N canvas 975 342 298 272 init 0;
#X text 107 45 initialization;
#X obj 101 74 initmess \; lfo-amount 100 \; lfo-rate 2 \; env-amount 2400 \; keytracking 100 \; cutoff 1500 \; reson 0.75 \; drive 0.5 \; amount 100 \; base-freq 400;
#X restore 558 299 pd init;
#X floatatom 234 470 5 0 0 0 - cutoff - 0;
#X text 272 469 cutoff;
#X floatatom 368 302 5 0 0 0 - lfo-rate - 0;
#X text 411 301 LFO rate;
#X floatatom 160 271 5 0 100 0 - keytracking - 0;
#X obj 226 338 cents2ratio;
#X floatatom 226 306 5 0 0 0 - env-amount - 0;
#X obj 208 390 *~;
#X obj 208 260 adsr~ -lin 0 500 0.5 1000, f 13;
#X obj 190 421 *~;
#X floatatom 414 338 4 0 0 0 - lfo-amount - 0;
#X text 452 331 LFO amount in cents, f 10;
#X obj 190 461 *~;
#X obj 368 399 cents2ratio~;
#X obj 331 629 *~;
#X text 264 298 env amount in cents, f 10;
#X obj 46 462 bl.saw~ -midi, f 7;
#X obj 107 461 bl.square~ -midi, f 10;
#X obj 89 515 *~;
#X floatatom 286 543 5 0 1 0 - drive - 0;
#X text 247 543 drive;
#X obj 100 331 keytrack~;
#X obj 368 369 *~;
#X obj 368 330 osc~;
#X obj 190 526 *~;
#X floatatom 238 508 5 0 0 0 - reson - 0;
#X obj 142 575 moog~ 1500 0.75 0.5, f 21;
#X text 277 507 reson;
#X obj 106 427 +~ 12.05;
#X obj 45 202 voices~ 4, f 70;
#X floatatom 449 475 5 0 0 0 - - - 0;
#X obj 452 445 hsl 162 19 0 100 0 0 empty amount empty -2 -10 0 12 #dfdfdf #000000 #000000 0 1;
#X floatatom 452 553 5 0 0 0 - base-freq - 0;
#X text 493 477 track amount (%);
#X text 493 547 base mod frequency, f 10;
#X obj 389 545 *~;
#X obj 389 505 keytrack~;
#X text 152 236 track amount, f 6;
#X obj 372 667 rm~;
#X obj 372 701 sum~;
#X text 407 666 RING MODULATION;
#X text 134 19 And now we have a polyphonic example \, which is trivial \, because [rm~] has support for multichannels.;
#X obj 348 260 adsr~ 250 250 0.5 1500;
#X connect 1 0 36 0;
#X connect 2 0 1 0;
#X connect 4 0 3 0;
#X connect 4 1 3 1;
#X connect 5 0 4 0;
#X connect 7 0 31 1;
#X connect 9 0 30 0;
#X connect 11 0 28 1;
#X connect 12 0 14 1;
#X connect 13 0 12 0;
#X connect 14 0 16 1;
#X connect 15 0 14 0;
#X connect 16 0 19 0;
#X connect 17 0 29 1;
#X connect 19 0 31 0;
#X connect 20 0 19 1;
#X connect 21 0 45 0;
#X connect 23 0 25 0;
#X connect 24 0 25 1;
#X connect 25 0 33 0;
#X connect 26 0 33 3;
#X connect 28 0 16 0;
#X connect 29 0 20 0;
#X connect 30 0 29 0;
#X connect 31 0 33 1;
#X connect 32 0 33 2;
#X connect 33 0 21 0;
#X connect 35 0 24 0;
#X connect 36 0 23 0;
#X connect 36 0 28 0;
#X connect 36 0 35 0;
#X connect 36 0 43 0;
#X connect 36 1 15 0;
#X connect 36 1 49 0;
#X connect 37 0 43 1;
#X connect 38 0 37 0;
#X connect 39 0 42 1;
#X connect 42 0 45 1;
#X connect 43 0 42 0;
#X connect 45 0 46 0;
#X connect 46 0 4 0;
#X connect 49 0 21 1;
