#N canvas 670 38 514 640 12;
#X obj 103 424 +~;
#X obj 175 330 +~;
#X obj 103 543 out~;
#X floatatom 228 249 8 0 0 0 - - - 0;
#X obj 175 163 *~;
#X obj 175 118 noise~;
#X obj 244 141 bng 19 250 50 0 empty empty empty 0 -10 0 12 #dfdfdf #000000 #000000;
#X obj 175 374 allpass.rev~ 11.3605 0.6 1;
#X obj 175 405 allpass.rev~ 16.0317 0.6 1;
#X obj 228 219 initmess 35.8503;
#X obj 262 329 *~ 0.6;
#X obj 175 292 ffdelay~;
#X obj 175 439 allpass.rev~ 20.6576 0.6 1;
#X obj 103 310 *~ -0.6;
#X obj 132 492 del.in~ \$0-fb 40;
#X obj 262 296 del.in~ \$0-fb;
#X text 43 27 You can also have nested allpass filters \, which can be a single one or more in series nested inside an outter allpass filter. Here we have 3 allpass filters nested inside a 4th one., f 55;
#X obj 244 171 timed.gate~ 100;
#X connect 0 0 2 0;
#X connect 0 0 14 0;
#X connect 1 0 7 0;
#X connect 3 0 11 1;
#X connect 3 0 15 0;
#X connect 4 0 13 0;
#X connect 4 0 11 0;
#X connect 5 0 4 0;
#X connect 6 0 17 0;
#X connect 7 0 8 0;
#X connect 8 0 12 0;
#X connect 9 0 3 0;
#X connect 10 0 1 1;
#X connect 11 0 1 0;
#X connect 12 0 0 1;
#X connect 13 0 0 0;
#X connect 15 0 10 0;
#X connect 17 0 4 1;
