#N canvas 411 23 718 658 12;
#X obj 259 72 s~ \$0-in;
#X obj 408 207 r~ \$0-in;
#X obj 472 260 r~ \$0-in;
#X obj 503 314 r~ \$0-in;
#X obj 524 367 r~ \$0-in;
#X obj 472 481 *~ 0.25;
#X obj 79 325 r~ \$0-in;
#X obj 451 557 out~;
#X obj 67 552 out~;
#X obj 199 98 out~;
#X obj 242 43 sampler~ 1 ../../../samples/didge.aif 1 1;
#X obj 79 513 drive~;
#X obj 472 514 drive~;
#X obj 79 484 allpass.rev~ 65 0.8 1;
#X obj 79 453 allpass.rev~ 85 0.66 1;
#X obj 79 421 allpass.rev~ 95 0.77 1;
#X obj 79 391 allpass.rev~ 75 0.99 1;
#X obj 79 359 allpass.rev~ 45 0.88 1;
#X obj 472 454 allpass.rev~ 95 0.88 1;
#X obj 472 422 allpass.rev~ 75 0.77 1;
#X obj 523 389 comb.rev~ 80 1 0 0.7;
#X obj 503 337 comb.rev~ 70 1 0 0.6;
#X obj 472 283 comb.rev~ 50 1 0 0.5;
#X obj 408 231 comb.rev~ 30 1 0 0.4;
#X text 64 184 We can use allpass and comb reverberators with short
delay times to create reverb effects. First we have an example with
4 stages of allpass reverberators in series. Then 4 comb reverberators
in parallel going into 4 allpass reverberators in series - this is
a common setup \, known as Schroeder Reverbs., f 42;
#X connect 1 0 23 0;
#X connect 2 0 22 0;
#X connect 3 0 21 0;
#X connect 4 0 20 0;
#X connect 5 0 12 0;
#X connect 6 0 17 0;
#X connect 10 0 0 0;
#X connect 10 0 9 0;
#X connect 10 0 9 1;
#X connect 11 0 8 0;
#X connect 11 0 8 1;
#X connect 12 0 7 0;
#X connect 12 0 7 1;
#X connect 13 0 11 0;
#X connect 14 0 13 0;
#X connect 15 0 14 0;
#X connect 16 0 15 0;
#X connect 17 0 16 0;
#X connect 18 0 5 0;
#X connect 19 0 18 0;
#X connect 20 0 19 0;
#X connect 21 0 19 0;
#X connect 22 0 19 0;
#X connect 23 0 19 0;
