#N canvas 481 308 1051 411 12;
#X obj 50 206 loadbang;
#X obj 163 209 s~ \$0-in;
#X msg 169 243 \; LFO 0.1 \; depth 50 \; feedback 0.75;
#X msg 50 243 \; LFO 0.7 \; depth 5 \; feedback -0.6;
#X text 48 179 Presets;
#X text 513 93 try also:, f 5;
#X msg 407 243 \; LFO 3 \; depth 1 \; feedback -0.7;
#X msg 291 243 \; LFO 0.15 \; depth 10 \; feedback -0.8;
#X text 49 26 A chorus adds an input to one or more copies with slight
pitch differences. Here we use two delay lines with feedback whose
time are controlled by the same LFO \, but note that the control is
inverted by two different [rescale~] objects., f 61;
#X text 49 89 The original sound is then combined to the feedback delay
objects and we have a gain compensation in the [out~] object., f 61
;
#X text 70 317 Try the presets and other settings. You could also use
the [rampnoise~] object instead of a LFO., f 59;
#X obj 163 178 play.file~ ../../../../samples/guitar.wav 1 1;
#X floatatom 648 63 0 0 0 0 - - -;
#X obj 651 38 hsl 128 15 0.01 3 0 0 empty LFO empty -2 -8 0 10 -228856
-1 -1 2931 1;
#X obj 577 258 +~;
#X obj 864 90 hsl 128 15 -0.95 0.95 0 0 empty feedback empty -2 -8
0 10 -228856 -1 -1 2100 1;
#X text 900 89 Feedback;
#X floatatom 861 118 0 0 0 0 - - -;
#X floatatom 790 62 0 0 0 0 - - -;
#X obj 793 38 hsl 128 15 1 20 1 0 empty depth empty -2 -8 0 10 -228856
-1 -1 6823 1;
#X text 833 36 Depth;
#X text 689 37 Rate;
#X obj 622 259 +~;
#X obj 648 90 osc~;
#X obj 790 88 f2s~ 10;
#X obj 861 146 f2s~ 10;
#X obj 648 138 rescale~ 0;
#X obj 750 132 rescale~ 0 0;
#X obj 577 138 r~ \$0-in;
#X obj 622 197 fbdelay~ 50 -gain, f 8;
#X obj 724 197 fbdelay~ 50 -gain, f 8;
#X obj 559 102 rampnoise~;
#X obj 837 220 r~ \$0-in;
#X obj 837 256 chorus~ 0.7 5 -0.9;
#X obj 837 298 out~;
#X obj 577 300 out~;
#X text 49 129 The [chorus~] object from the ELSE library is based
on this patch., f 61;
#X connect 0 0 3 0;
#X connect 11 0 1 0;
#X connect 12 0 23 0;
#X connect 12 0 31 0;
#X connect 13 0 12 0;
#X connect 14 0 35 0;
#X connect 14 0 35 1;
#X connect 15 0 17 0;
#X connect 17 0 25 0;
#X connect 18 0 24 0;
#X connect 19 0 18 0;
#X connect 22 0 14 1;
#X connect 23 0 27 0;
#X connect 23 0 26 0;
#X connect 24 0 26 2;
#X connect 24 0 27 1;
#X connect 25 0 29 2;
#X connect 25 0 30 2;
#X connect 26 0 29 1;
#X connect 27 0 30 1;
#X connect 28 0 14 0;
#X connect 28 0 29 0;
#X connect 28 0 30 0;
#X connect 29 0 22 0;
#X connect 30 0 22 1;
#X connect 32 0 33 0;
#X connect 33 0 34 0;
#X connect 33 0 34 1;
