#N canvas 475 38 807 587 12;
#X declare -path else;
#X obj 458 174 nbx 5 14 -1e+37 1e+37 0 0 empty Hz empty 0 -8 0 10 #dcdcdc #000000 #000000 0 256;
#X obj 139 93 nbx 5 14 -1e+37 1e+37 0 0 empty empty empty 0 -8 0 10 #dcdcdc #000000 #000000 0 256;
#X obj 61 110 nbx 5 14 -1e+37 1e+37 0 0 empty empty empty 0 -8 0 10 #dcdcdc #000000 #000000 0 256;
#X text 205 147 width;
#X obj 139 148 rescale~;
#X obj 542 154 nbx 5 14 -1e+37 1e+37 0 0 empty mod empty 0 -8 0 10 #dcdcdc #000000 #000000 0 256;
#X obj 542 180 osc~ 0.5;
#X text 610 210 width;
#X obj 542 210 rescale~;
#X obj 139 119 osc~ 0.25;
#X text 437 102 The PWM concept also applies to [vsaw~] \, which generates sawtooth/triangular waves., f 42;
#X obj 573 33 declare -path else;
#X obj 108 394 out~;
#X obj 515 434 out~;
#X obj 108 183 bl.square~ 200;
#X obj 515 243 bl.vsaw~ 300;
#X obj 515 277 graph~;
#X obj 108 232 graph~ 441 10 -1.2 1.2 200 140 #dfdfdf 0 1;
#X text 42 21 We can use an oscillator to modulate the pulse width of a square wave. This is "Pulse Width Modulation" - or "PMW" for short., f 58;
#X text 40 474 This is usually done with Low Frequency and you can also think about low frequency noise Modulation and envelopes \, why not \, right? Frequencies above 20Hz also generates spectral components similarly to FM/PM. The same is true with the saw/triangular wave example. We'll see this in the next example., f 57;
#X connect 0 0 15 0;
#X connect 1 0 9 0;
#X connect 2 0 14 0;
#X connect 4 0 14 1;
#X connect 5 0 6 0;
#X connect 6 0 8 0;
#X connect 8 0 15 1;
#X connect 9 0 4 0;
#X connect 14 0 17 0;
#X connect 15 0 16 0;
#X connect 16 0 13 0;
#X connect 17 0 12 0;
