#N canvas 849 441 540 569 12;
#X obj 178 388 sendOSC;
#X obj 82 213 pddp/pddplink http://opensoundcontrol.org/introduction-osc
;
#X obj 33 4 cnv 15 400 40 empty empty OSC: 20 12 0 24 -262144 -66577
0;
#X text 32 242 ============================================================
;
#X text 39 63 The object [sendOSC] is also part of networking \, and
sends info via UDP.;
#X text 35 112 OSC (Open Sound Control) is a format to exchange messages
between computers \, synthesizers and other multimedia devices. It's
also been used as a substitue of the MIDI protocol \, for being able
to work with bigger data messages.;
#X text 53 185 Introduction to OSC:;
#X obj 165 322 dumpOSC 5000;
#X text 37 449 You can find more info about it also in the "3.Networking"
tutorial.;
#X text 47 280 Check the help files for these objetcs:;
