#N canvas 303 37 807 566 12;
#X declare -path else;
#X obj 445 139 nbx 5 14 -1e+37 1e+37 0 0 empty Hz empty 0 -8 0 10 -228856
-1 -1 0 256;
#X obj 132 80 nbx 5 14 -1e+37 1e+37 0 0 empty empty empty 0 -8 0 10
-228856 -1 -1 0 256;
#X obj 62 79 nbx 5 14 -1e+37 1e+37 0 0 empty empty empty 0 -8 0 10
-228856 -1 -1 0 256;
#X text 195 135 width;
#X obj 132 135 rescale~;
#X obj 122 206 out~;
#X obj 109 272 graph~ 500 7 -1.1 1.1;
#X obj 108 163 square~ 200;
#X obj 525 274 out~;
#X obj 501 228 vsaw~ 300;
#X obj 503 343 graph~ 447 12;
#X text 43 17 We can use an oscillator to modulate the pulse width
of a square wave. This is "Pulse Width Modulation" - or "PMW" for short.
, f 46;
#X text 53 446 Modulation frequencies above 20Hz also generates spectral
components similarly to FM/PM. The same is true with the saw/triangular
wave example., f 48;
#X obj 521 139 nbx 5 14 -1e+37 1e+37 0 0 empty mod empty 0 -8 0 10
-228856 -1 -1 0 256;
#X obj 521 165 osc~ 0.5;
#X text 585 195 width;
#X obj 521 195 rescale~;
#X obj 132 106 osc~ 0.25;
#X text 423 87 The PWM concept also applies to [vsaw~] \, which generates
sawtooth/triangular waves., f 42;
#X obj 583 30 declare -path else;
#X connect 0 0 9 0;
#X connect 1 0 17 0;
#X connect 2 0 7 0;
#X connect 4 0 7 1;
#X connect 7 0 5 0;
#X connect 7 0 6 0;
#X connect 9 0 8 0;
#X connect 9 0 10 0;
#X connect 13 0 14 0;
#X connect 14 0 16 0;
#X connect 16 0 9 1;
#X connect 17 0 4 0;
