#N canvas 336 78 953 532 12;
#X obj 722 102 lop~;
#X obj 688 60 noise~;
#X obj 750 49 hsl 128 15 20 7000 1 0 empty empty empty -2 -8 0 10 -228856
-1 -1 6979 1;
#X obj 747 76 nbx 8 14 -1e+37 1e+37 0 0 \$0-Hz empty empty 0 -8 0 10
-228856 -1 -1 500 256;
#X text 836 75 Hz;
#X text 838 332 -18;
#X text 837 363 -24;
#X text 843 227 0;
#X text 839 260 -6;
#X text 837 295 -12;
#X text 841 383 pi;
#X text 841 465 0;
#X obj 722 142 out~;
#X obj 747 21 initmess 500;
#N canvas 520 239 306 301 coefficients 0;
#X obj 94 118 clip 0 1;
#X obj 94 42 r \$0-Hz;
#X obj 94 80 hz2rad;
#X obj 94 233 outlet;
#X obj 94 154 expr 1 - $f1 \; $f1;
#X obj 94 197 pack f 0 f 0 0;
#X connect 0 0 4 0;
#X connect 1 0 2 0;
#X connect 2 0 0 0;
#X connect 4 0 5 0;
#X connect 4 1 5 2;
#X connect 5 0 3 0;
#X restore 28 140 pd coefficients;
#X obj 28 179 display;
#X obj 28 223 biplot;
#X connect 0 0 12 0;
#X connect 1 0 0 0;
#X connect 2 0 3 0;
#X connect 3 0 0 1;
#X connect 13 0 2 0;
#X connect 14 0 15 0;
#X connect 15 0 16 0;
