#N canvas 479 41 642 517 12;
#X text 491 182 Hz;
#X obj 432 159 hsl 128 15 -5 5 0 0 empty hz empty -2 -8 0 10 -228856
-1 -1 7620 1;
#X obj 429 185 nbx 5 14 -1e+37 1e+37 0 0 empty empty empty 0 -8 0 10
-228856 -1 -1 1 256;
#X obj 429 213 s \$0-freq;
#X floatatom 291 158 0 0 1e+06 0 - grain -;
#X obj 122 232 s~ \$0-pos;
#X obj 291 219 s~ \$0-grain;
#X obj 275 383 +~;
#X obj 293 303 r \$0-freq;
#X obj 275 424 out~;
#X obj 428 330 bng 20 250 50 0 empty empty empty 17 7 0 10 -228856
-1 -1;
#X obj 291 193 ms2samps;
#X text 449 139 frequency;
#N canvas 457 81 342 422 grain-1 0;
#X obj 208 338 *~;
#X obj 48 67 r~ \$0-grain;
#X obj 73 164 *~;
#X obj 104 250 +~;
#X obj 97 195 r~ \$0-pos;
#X obj 208 375 outlet~;
#X obj 141 32 inlet~;
#X obj 141 67 pimp~;
#X obj 115 161 sh~;
#X obj 155 226 sh~;
#X obj 226 301 envelope~;
#X obj 104 282 table~ \$0-buffer, f 10;
#X connect 0 0 5 0;
#X connect 1 0 8 0;
#X connect 2 0 3 0;
#X connect 3 0 11 0;
#X connect 4 0 9 0;
#X connect 6 0 7 0;
#X connect 7 0 2 0;
#X connect 7 0 10 0;
#X connect 7 1 8 1;
#X connect 7 1 9 1;
#X connect 8 0 2 1;
#X connect 9 0 3 1;
#X connect 10 0 0 1;
#X connect 11 0 0 0;
#X restore 207 346 pd grain-1;
#N canvas 681 47 485 287 buffer 0;
#X obj 303 200 table \$0-buffer;
#X obj 197 189 soundfiler;
#X obj 51 62 openpanel;
#X obj 51 85 list append \$0-buffer;
#X msg 51 109 read -resize \$1 \$2;
#X obj 51 36 inlet;
#X obj 197 118 initmess read -resize ../../../samples/bubul.wav \$0-buffer
\; hz 1 \; grain 500, f 38;
#X obj 197 225 s \$0-size;
#X connect 1 0 7 0;
#X connect 2 0 3 0;
#X connect 3 0 4 0;
#X connect 4 0 1 0;
#X connect 5 0 2 0;
#X connect 6 0 1 0;
#X restore 428 356 pd buffer;
#N canvas 457 81 342 422 grain-2 0;
#X obj 208 338 *~;
#X obj 48 67 r~ \$0-grain;
#X obj 73 164 *~;
#X obj 104 250 +~;
#X obj 97 195 r~ \$0-pos;
#X obj 104 282 tabread4~ \$0-buffer, f 10;
#X obj 208 375 outlet~;
#X obj 141 32 inlet~;
#X obj 115 161 sh~;
#X obj 155 226 sh~;
#X obj 226 301 envelope~;
#X obj 141 67 pimp~ 0 0.5;
#X connect 0 0 6 0;
#X connect 1 0 8 0;
#X connect 2 0 3 0;
#X connect 3 0 5 0;
#X connect 4 0 9 0;
#X connect 5 0 0 0;
#X connect 7 0 11 0;
#X connect 8 0 2 1;
#X connect 9 0 3 1;
#X connect 10 0 0 1;
#X connect 11 0 2 0;
#X connect 11 0 10 0;
#X connect 11 1 8 1;
#X connect 11 1 9 1;
#X restore 293 346 pd grain-2;
#X obj 189 165 r \$0-size;
#X obj 122 199 rescale~ 0;
#X text 295 242 grain size;
#X text 122 257 position;
#X obj 68 162 drunkard~ 0.2;
#X obj 68 131 imp~ 1;
#X text 116 31 Here's a good example to use the [drunkard~] object
\, which generates a random walk to set the position and the randomly
scroll through the sample. We just need to rescale its output to the
sample size.;
#X connect 1 0 2 0;
#X connect 2 0 3 0;
#X connect 4 0 11 0;
#X connect 7 0 9 0;
#X connect 7 0 9 1;
#X connect 8 0 13 0;
#X connect 8 0 15 0;
#X connect 10 0 14 0;
#X connect 11 0 6 0;
#X connect 13 0 7 0;
#X connect 15 0 7 1;
#X connect 16 0 17 2;
#X connect 17 0 5 0;
#X connect 20 0 17 0;
#X connect 21 0 20 0;
