#N canvas 314 23 846 688 12;
#X declare -path else;
#X obj 409 249 *~;
#X obj 350 163 osc~ 440;
#X obj 366 299 out~;
#X obj 427 199 glide~ 1000;
#X obj 263 228 setdsp~ 1;
#X obj 494 270 vsl 15 90 0 1 0 0 empty empty empty 0 -9 0 10 -228856
-1 -1 7217 1;
#X obj 427 135 pulse~ 0.5;
#X obj 427 163 display~;
#X obj 661 246 *~;
#X obj 605 160 osc~ 440;
#X obj 618 296 out~;
#X obj 749 241 sig2float~;
#X obj 749 267 vsl 15 90 0 1 0 0 empty empty empty 0 -9 0 10 -228856
-1 -1 5533 1;
#X obj 679 132 pulse~ 0.5;
#X obj 679 160 display~;
#X obj 494 244 s2f~;
#X obj 628 16 declare -path else;
#X obj 679 196 glide2~ 1000 500;
#X obj 430 534 *~;
#X obj 371 448 osc~ 440;
#X obj 387 584 out~;
#X obj 515 555 vsl 15 90 0 1 0 0 empty empty empty 0 -9 0 10 -228856
-1 -1 2407 1;
#X obj 448 420 pulse~ 0.5;
#X obj 448 448 display~;
#X obj 652 531 *~;
#X obj 596 445 osc~ 440;
#X obj 609 581 out~;
#X obj 740 526 sig2float~;
#X obj 740 552 vsl 15 90 0 1 0 0 empty empty empty 0 -9 0 10 -228856
-1 -1 0 1;
#X obj 670 417 pulse~ 0.5;
#X obj 670 445 display~;
#X obj 515 529 s2f~;
#X obj 448 484 slew~ 1000;
#X obj 670 481 slew2~ 1000 500;
#X obj 284 80 sr~ -khz;
#X obj 96 171 slop~ 1e+09 0 0 0 0;
#X obj 81 109 display~;
#X obj 81 58 pulse~ 1;
#X obj 53 257 out~;
#X obj 172 250 vsl 15 90 0 1 0 0 empty empty empty 0 -9 0 10 -228856
-1 -1 0 1;
#X obj 172 224 s2f~;
#X obj 161 46 initmess 1000 500;
#X obj 161 108 expr 1./($f1*$f3) \; 1./($f1*$f3);
#X obj 94 484 slop~ 1e+09 0 0 0 0;
#X obj 94 396 pulse~ 1;
#X obj 94 431 display~;
#X obj 167 558 vsl 15 90 0 1 0 0 empty empty empty 0 -9 0 10 -228856
-1 -1 0 1;
#X obj 167 532 s2f~;
#X obj 51 566 out~;
#X obj 173 384 initmess 1000 500;
#X obj 173 435 expr 1000./$f1 \; 1000./$f1;
#X text 381 51 This examples notes that other objects we've already
seen can be used to generate fade ins/outs. These are: [slop~] \, [glide~]/[glide2~]
and [slew~]/[slew2~]., f 54;
#X connect 0 0 2 0;
#X connect 0 0 2 1;
#X connect 1 0 0 0;
#X connect 3 0 0 1;
#X connect 3 0 15 0;
#X connect 6 0 7 0;
#X connect 7 0 3 0;
#X connect 8 0 10 0;
#X connect 8 0 10 1;
#X connect 9 0 8 0;
#X connect 11 0 12 0;
#X connect 13 0 14 0;
#X connect 14 0 17 0;
#X connect 15 0 5 0;
#X connect 17 0 8 1;
#X connect 17 0 11 0;
#X connect 18 0 20 0;
#X connect 18 0 20 1;
#X connect 19 0 18 0;
#X connect 22 0 23 0;
#X connect 23 0 32 0;
#X connect 24 0 26 0;
#X connect 24 0 26 1;
#X connect 25 0 24 0;
#X connect 27 0 28 0;
#X connect 29 0 30 0;
#X connect 30 0 33 0;
#X connect 31 0 21 0;
#X connect 32 0 18 1;
#X connect 32 0 31 0;
#X connect 33 0 24 1;
#X connect 33 0 27 0;
#X connect 34 0 42 2;
#X connect 35 0 40 0;
#X connect 35 0 38 0;
#X connect 35 0 38 1;
#X connect 36 0 35 0;
#X connect 37 0 36 0;
#X connect 40 0 39 0;
#X connect 41 0 42 0;
#X connect 42 0 35 2;
#X connect 42 1 35 4;
#X connect 43 0 47 0;
#X connect 43 0 48 1;
#X connect 43 0 48 0;
#X connect 44 0 45 0;
#X connect 45 0 43 0;
#X connect 47 0 46 0;
#X connect 49 0 50 0;
#X connect 50 0 43 3;
#X connect 50 1 43 5;
