#N canvas 233 40 911 731 12;
#X declare -path else;
#X obj 115 269 *~;
#X obj 56 209 osc~ 440;
#X obj 72 319 out~;
#X obj 186 287 vsl 15 90 0 1 0 0 empty empty empty 0 -9 0 10 -228856
-1 -1 0 1;
#X obj 133 152 tgl 18 0 empty empty empty 17 7 0 10 -228856 -1 -1 0
1;
#X obj 186 261 s2f~;
#X obj 700 29 declare -path else;
#X obj 133 181 sig~;
#X obj 327 280 *~;
#X obj 268 220 osc~ 440;
#X obj 284 330 out~;
#X obj 398 298 vsl 15 90 0 1 0 0 empty empty empty 0 -9 0 10 -228856
-1 -1 0 1;
#X obj 345 163 tgl 18 0 empty empty empty 17 7 0 10 -228856 -1 -1 0
1;
#X obj 398 272 s2f~;
#X obj 345 192 sig~;
#X obj 345 230 glide~ 50 -exp 4;
#X obj 133 219 glide~ 50;
#X obj 215 582 *~;
#X obj 159 524 osc~ 440;
#X obj 172 632 out~;
#X obj 300 603 vsl 15 90 0 1 0 0 empty empty empty 0 -9 0 10 -228856
-1 -1 0 1;
#X obj 233 496 tgl 18 0 empty empty empty 17 7 0 10 -228856 -1 -1 0
1;
#X obj 300 577 s2f~;
#X text 50 422 [glide2~] is like [glide~] but offers different time
period parameters in ms for the upwards (200 ms in the example below)
and downwards (20 ms) ramps.;
#X obj 676 280 *~;
#X obj 617 220 osc~ 440;
#X obj 633 330 out~;
#X obj 747 298 vsl 15 90 0 1 0 0 empty empty empty 0 -9 0 10 -228856
-1 -1 0 1;
#X obj 694 163 tgl 18 0 empty empty empty 17 7 0 10 -228856 -1 -1 0
1;
#X obj 747 272 s2f~;
#X obj 694 192 sig~;
#X obj 684 587 *~;
#X obj 628 529 osc~ 440;
#X obj 641 637 out~;
#X obj 769 608 vsl 15 90 0 1 0 0 empty empty empty 0 -9 0 10 -228856
-1 -1 0 1;
#X obj 702 501 tgl 18 0 empty empty empty 17 7 0 10 -228856 -1 -1 0
1;
#X obj 769 582 s2f~;
#X text 44 13 The Else library provides alternatives to [slop~] for
smoothening audio signals. The [glide~] object \, by default \, generates
linear smoothening \, but it also takes an exponential parameter. This
object takes a given period in ms for both upwards and downwards ramps.
Below \, to the left \, we have a linear smoothening \, but to the
right we have an exponential quartic smoothening (with the same shape
upwards and downwards \, unlike the exponential curves from [slop~]).
, f 62;
#X obj 233 532 glide2~ 10 50;
#X obj 694 230 lag~ 50;
#X obj 702 537 lag2~ 10 50;
#X text 517 68 The [lag~] object is quite similar to the exponential
curves generated by [slop~] \, they provide different shapes in the
same way. Like [slop~] \, this is also a lowpass filter that we'll
get into the details later in this tutorial., f 46;
#X text 525 426 [lag2~] is like [lag~] but offers different time period
parameters in ms for the upwards (200 ms in the example below) and
downwards (20 ms) ramps., f 45;
#X connect 0 0 2 0;
#X connect 0 0 2 1;
#X connect 1 0 0 0;
#X connect 4 0 7 0;
#X connect 5 0 3 0;
#X connect 7 0 16 0;
#X connect 8 0 10 0;
#X connect 8 0 10 1;
#X connect 9 0 8 0;
#X connect 12 0 14 0;
#X connect 13 0 11 0;
#X connect 14 0 15 0;
#X connect 15 0 8 1;
#X connect 15 0 13 0;
#X connect 16 0 0 1;
#X connect 16 0 5 0;
#X connect 17 0 19 0;
#X connect 17 0 19 1;
#X connect 18 0 17 0;
#X connect 21 0 38 0;
#X connect 22 0 20 0;
#X connect 24 0 26 0;
#X connect 24 0 26 1;
#X connect 25 0 24 0;
#X connect 28 0 30 0;
#X connect 29 0 27 0;
#X connect 30 0 39 0;
#X connect 31 0 33 0;
#X connect 31 0 33 1;
#X connect 32 0 31 0;
#X connect 35 0 40 0;
#X connect 36 0 34 0;
#X connect 38 0 17 1;
#X connect 38 0 22 0;
#X connect 39 0 24 1;
#X connect 39 0 29 0;
#X connect 40 0 31 1;
#X connect 40 0 36 0;
