#N canvas 356 50 993 584 12;
#X floatatom 661 280 5 -1 1 0 - a -;
#X floatatom 704 340 5 -1 1 0 - b -;
#X floatatom 747 401 5 -1 1 0 - c -;
#X floatatom 618 226 5 0 0 0 - del -;
#X obj 113 382 noise~;
#X obj 674 307 s \$0-a;
#X obj 716 370 s \$0-b;
#X obj 768 433 s \$0-c;
#X obj 631 251 s \$0-del;
#N canvas 4 23 457 347 comb 0;
#X obj 149 194 +~;
#X obj 149 234 +~;
#X obj 104 65 delwrite~ \$0-x 1000;
#X obj 164 118 vd~ \$0-x;
#X obj 165 273 delwrite~ \$0-y 1000;
#X obj 241 154 vd~ \$0-y;
#X obj 241 202 *~;
#X obj 256 179 r \$0-c;
#X obj 241 78 r \$0-del;
#X obj 164 165 *~;
#X obj 179 143 r \$0-b;
#X obj 92 143 *~;
#X obj 107 119 r \$0-a;
#X obj 92 31 inlet~;
#X obj 335 176 block~ 1;
#X obj 149 305 outlet~;
#X connect 0 0 1 0;
#X connect 1 0 4 0;
#X connect 1 0 15 0;
#X connect 3 0 9 0;
#X connect 5 0 6 0;
#X connect 6 0 1 1;
#X connect 7 0 6 1;
#X connect 8 0 3 0;
#X connect 8 0 5 0;
#X connect 9 0 0 1;
#X connect 10 0 9 1;
#X connect 11 0 0 0;
#X connect 12 0 11 1;
#X connect 13 0 2 0;
#X connect 13 0 11 0;
#X restore 317 436 pd comb;
#X obj 82 76 cnv 15 320 140 empty empty empty 20 12 0 14 -233017 -66577
0;
#X text 138 94 |;
#X text 138 106 |;
#X text 138 118 |;
#X text 119 129 |;
#X text 168 129 |;
#X text 168 149 |;
#X text 119 149 |;
#X text 122 120 _______;
#X text 122 149 _______;
#X text 138 121 v;
#X text 200 121 |;
#X text 200 132 |;
#X text 200 102 |;
#X text 200 111 |;
#X text 200 97 ^;
#X text 284 95 |;
#X text 284 107 |;
#X text 284 119 |;
#X text 265 130 |;
#X text 314 130 |;
#X text 314 150 |;
#X text 265 150 |;
#X text 268 121 _______;
#X text 268 150 _______;
#X text 284 122 v;
#X text 230 123 |;
#X text 230 133 |;
#X text 230 101 |;
#X text 230 111 |;
#X text 230 96 ^;
#X text 338 88 >;
#X text 231 139 -(*c)-;
#X text 95 88 x[n] -----(*a)--(+)--(+)----------- y[n];
#X text 119 139 | z^-d |;
#X text 265 140 | z^-d |;
#X text 99 186 y[n] = a * x[n] + b * x[n-d] + c * y[n-d];
#X obj 146 411 *~;
#X text 763 370 feedforward;
#X text 814 433 feedback;
#X text 167 138 -(*b)-;
#X obj 103 469 out~;
#X text 48 31 The [comb.rev~] object from ELSE is a comb reverberator
\, whose diagram is:;
#X text 54 237 This is very similar to [allpass.rev~] \, but now we
have independent coefficients for the input \, feedforward and feedback
lines.;
#X obj 575 438 comb.rev~ 100 0.8 0.5 0.9;
#X obj 575 475 out~;
#X obj 164 383 pulse~ 1;
#X text 722 308 gain;
#X obj 317 473 out~;
#X text 58 302 The subpatch below implements a comb reverberator with
native objects \, and to the right we have the external from ELSE.
Check its help file for more information.;
#X obj 166 442 s~ \$0-in;
#X obj 317 407 r~ \$0-in;
#X obj 546 277 r~ \$0-in;
#X text 659 225 delay time;
#X text 484 45 Note that this process has a decay time as a reverberator
\, much like the allpass reverberator \, but unlike allpass it does
filter the input sound. It's frequency response has many amplitude
peaks displayed harmonically \, creating the image of a comb (hence
the name). que é a série relacionada ao período do delay.;
#X text 483 144 Note how the white noise input becomes a pitched output
in this process. And by the way \, the fundamental pitch depends on
the delay time period.;
#X connect 0 0 5 0;
#X connect 0 0 54 2;
#X connect 1 0 6 0;
#X connect 1 0 54 3;
#X connect 2 0 7 0;
#X connect 2 0 54 4;
#X connect 3 0 8 0;
#X connect 3 0 54 1;
#X connect 4 0 47 0;
#X connect 9 0 58 0;
#X connect 9 0 58 1;
#X connect 47 0 51 0;
#X connect 47 0 51 1;
#X connect 47 0 60 0;
#X connect 54 0 55 1;
#X connect 54 0 55 0;
#X connect 56 0 47 1;
#X connect 61 0 9 0;
#X connect 62 0 54 0;
