#N canvas 146 76 1089 712 12;
#X floatatom 655 247 0 0 0 0 - - -;
#X obj 66 520 cnv 15 498 148 empty empty empty 20 12 0 14 -216631 -66577
0;
#N canvas 0 22 450 300 (subpatch) 0;
#X array \$0-Phase 8192 float 0;
#X coords 0 3.14 8191 -3.14 500 150 1 0 0;
#X restore 65 519 graph;
#X obj 63 351 cnv 15 498 148 empty empty empty 20 12 0 14 -228856 -66577
0;
#N canvas 0 22 450 300 (subpatch) 0;
#X array \$0-Amp 8192 float 0;
#X coords 0 0 8192 0 500 150 1;
#X restore 62 350 graph;
#X obj 420 223 tabplay~ \$0-IR;
#X obj 420 188 bng 18 250 50 0 empty empty empty 17 7 0 10 -228856
-1 -1;
#X obj 300 137 hsl 128 15 0.001 0.999 0 0 feedback fb empty -2 -6 0
8 -228856 -1 -1 11440 1;
#X obj 178 111 nbx 5 14 20 1e+37 0 0 Hz hz-set empty 0 -8 0 10 -228856
-1 -1 400 256;
#X text 240 109 Hz;
#N canvas 81 160 548 498 FFT 0;
#X obj 273 107 bang~;
#X msg 336 170 1;
#X obj 83 105 rfft~;
#X msg 288 146 0;
#X obj 273 167 f;
#X obj 301 170 + 1;
#X msg 287 218 0;
#X obj 273 191 sel 1;
#X obj 381 266 switch~;
#X obj 252 75 trigger bang bang bang;
#X msg 381 169 set \$1 1;
#X obj 380 119 v w_size;
#X obj 83 71 tabreceive~ \$0-IR;
#X obj 83 206 tabwrite~ \$0-Amp;
#X obj 252 6 inlet;
#X obj 453 161 / 2;
#X msg 453 184 resize \$1;
#X obj 453 237 s \$0-Amp;
#X obj 463 214 s \$0-Fase;
#X obj 273 418 s \$0-Amp;
#X obj 273 319 v w_size;
#X obj 273 345 / 2;
#X obj 273 370 pack;
#X msg 273 393 bounds 0 \$2 \$1 0;
#X obj 273 291 trigger bang float;
#X obj 83 132 car2pol~;
#X obj 273 266 array max \$0-Amp;
#X obj 134 181 tabwrite~ \$0-Phase;
#X connect 0 0 4 0;
#X connect 1 0 8 0;
#X connect 2 0 25 0;
#X connect 2 1 25 1;
#X connect 3 0 4 1;
#X connect 4 0 5 0;
#X connect 4 0 7 0;
#X connect 5 0 4 1;
#X connect 6 0 8 0;
#X connect 7 0 6 0;
#X connect 7 0 26 0;
#X connect 9 0 13 0;
#X connect 9 0 27 0;
#X connect 9 1 1 0;
#X connect 9 2 3 0;
#X connect 9 2 11 0;
#X connect 10 0 8 0;
#X connect 11 0 10 0;
#X connect 11 0 15 0;
#X connect 12 0 2 0;
#X connect 14 0 9 0;
#X connect 15 0 16 0;
#X connect 16 0 17 0;
#X connect 16 0 18 0;
#X connect 20 0 21 0;
#X connect 21 0 22 0;
#X connect 22 0 23 0;
#X connect 23 0 19 0;
#X connect 24 0 20 0;
#X connect 24 1 22 1;
#X connect 25 0 13 0;
#X connect 25 1 27 0;
#X connect 26 0 24 0;
#X restore 313 287 pd FFT;
#X obj 313 258 bng 18 250 50 0 empty empty empty 17 7 0 10 -228856
-1 -1;
#X obj 97 114 bng 18 250 50 0 empty empty empty 17 7 0 10 -228856 -1
-1;
#X text 82 13 Abaixo gravamos um IR gerado por um Comb Filter. Você
pode tocar o IR e depois analisar para ver a resposta de frequência
e o formato de pente que temos na tabela de amplitude!;
#X floatatom 655 198 0 0 0 0 - feedback -;
#X floatatom 734 233 0 0 0 0 - Hz -;
#X obj 734 262 expr 1 / $f1;
#X obj 655 270 t b f;
#X obj 766 310 v del_t;
#X obj 682 293 v dB;
#X obj 734 286 t b f;
#X text 595 197 feedback;
#X text 763 231 hertz;
#X text 836 262 período em seg;
#X obj 691 336 expr 60 * del_t/-dB;
#X text 657 360 T60;
#X obj 691 360 nbx 8 16 -1e+37 1e+37 0 0 empty empty empty 0 -8 0 12
-228856 -1 -1 0.163908 256;
#X floatatom 691 452 0 0 0 0 - - -;
#N canvas 97 23 295 186 init 0;
#X obj 160 92 v sr_khz;
#X obj 160 57 sr~ -khz;
#X obj 64 59 initmess \; hz-set 400 \; fb 0.9;
#X connect 1 0 0 0;
#X restore 318 196 pd init;
#X obj 691 387 expr -60 * del_t/$f1 \; exp(log(0.001) * del_t/$f1)
;
#X floatatom 878 444 0 0 0 0 - - -;
#X obj 297 162 nbx 8 14 -1e+37 1e+37 0 0 empty fb-set empty 0 -8 0
10 -228856 -1 -1 0.9 256;
#X msg 691 478 \; fb set \$1 \; fb-set \$1;
#X text 599 56 Como um bom filtro ressonante \, é possível também calcular
o tempo de amortecimento após a excitação do filtro com o objeto [click~].
;
#X text 598 110 Confira abaixo a fórmula do cálculo do tempo de decaimento
de 60dB (T60) em função do tempo de delay e valor do coeficiente de
feedback.;
#X text 628 550 A conversão de T60 para coeficiente de feedback também
é dada acima. Desse modo \, dado uma frequência ou período de delay
\, é possível especificar o valor de feedback a partir do tempo de
ressonância (T60).;
#X obj 97 138 impseq~;
#X obj 691 430 db2lin;
#X obj 655 223 lin2db;
#X text 334 255 Analyze;
#X obj 420 257 out~;
#X obj 178 137 expr 1000 / $f1;
#X obj 178 163 f2s~ 10;
#X obj 167 198 comb.rev~ 100 1 0 0;
#X text 319 136 coefficients;
#N canvas 257 57 811 616 Record-IR 0;
#X msg 186 167 stop;
#X msg 134 167 start;
#X obj 54 208 expr $f1 * sr_khz;
#X obj 87 445 v w_size;
#X obj 54 289 expr (log($f1)/log(2));
#X floatatom 54 367 0 0 0 0 - - -;
#X obj 125 241 v length;
#X obj 54 244 t f f;
#X obj 72 468 s window-size;
#X obj 54 311 expr int($f1 + 1);
#X msg 93 394 resize \$1;
#X obj 93 418 s \$0-IR;
#X obj 54 337 expr pow(2 \, $f1);
#X obj 76 133 select 1 0;
#X obj 174 199 tabwrite~ \$0-IR;
#X obj 76 104 change;
#X msg 230 273 resize \$1;
#X msg 299 294 resize 88200;
#X obj 299 268 loadbang;
#X obj 230 327 s \$0-IR;
#X obj 54 178 timer;
#X obj 174 14 inlet~;
#X obj 76 58 env~ 2048 1024;
#X obj 76 82 > 0;
#X text 316 127 Gravamos na tabela somente quando a análise de amplitude
RMS é maior que 0dB.;
#X text 316 167 Encontramos a maior potencia de dois acima do tamanho
do IR e redimensionamos a tabela gravada para análise.;
#X obj 270 397 cnv 15 198 98 empty empty empty 20 12 0 14 -233017 -66577
0;
#N canvas 0 22 450 300 (subpatch) 0;
#X array \$0-IR 88200 float 0;
#X coords 0 1 88199 -1 200 100 1;
#X restore 269 396 graph;
#X obj 197 56 dac~;
#X obj 174 95 ffdelay~ 1024;
#X connect 0 0 14 0;
#X connect 1 0 14 0;
#X connect 2 0 7 0;
#X connect 4 0 9 0;
#X connect 5 0 8 0;
#X connect 5 0 3 0;
#X connect 5 0 10 0;
#X connect 7 0 4 0;
#X connect 7 1 6 0;
#X connect 7 1 16 0;
#X connect 9 0 12 0;
#X connect 10 0 11 0;
#X connect 12 0 5 0;
#X connect 13 0 1 0;
#X connect 13 0 20 0;
#X connect 13 1 0 0;
#X connect 13 1 20 1;
#X connect 15 0 13 0;
#X connect 16 0 19 0;
#X connect 17 0 19 0;
#X connect 18 0 17 0;
#X connect 20 0 2 0;
#X connect 21 0 22 0;
#X connect 21 0 28 0;
#X connect 21 0 28 1;
#X connect 21 0 29 0;
#X connect 22 0 23 0;
#X connect 23 0 15 0;
#X connect 29 0 14 0;
#X restore 167 231 pd Record-IR;
#X text 42 115 Record;
#X text 441 188 PLay;
#X text 759 450 <= feedback =>;
#X connect 0 0 17 0;
#X connect 5 0 40 0;
#X connect 5 0 40 1;
#X connect 6 0 5 0;
#X connect 7 0 31 0;
#X connect 8 0 41 0;
#X connect 11 0 10 0;
#X connect 12 0 36 0;
#X connect 14 0 38 0;
#X connect 15 0 16 0;
#X connect 16 0 20 0;
#X connect 17 0 24 0;
#X connect 17 1 19 0;
#X connect 20 0 24 0;
#X connect 20 1 18 0;
#X connect 24 0 26 0;
#X connect 26 0 29 0;
#X connect 27 0 32 0;
#X connect 29 0 37 0;
#X connect 29 1 30 0;
#X connect 31 0 43 4;
#X connect 31 0 43 3;
#X connect 36 0 43 0;
#X connect 37 0 27 0;
#X connect 38 0 0 0;
#X connect 41 0 42 0;
#X connect 42 0 43 1;
#X connect 43 0 45 0;
