#N canvas 409 60 578 488 12;
#X text 90 31 This is basically the same as the last example \, but
we get the output of both oscillators instead. Now we can't use [pmosc~]
to implement this \, we need two [sine~] objects and get the audio
signal from both \, and not just the signal we feed to the delay line
as the output., f 55;
#N canvas 951 255 553 491 Cross_Phase_Modulation 0;
#X obj 298 57 inlet~;
#X obj 377 57 inlet~;
#X obj 44 56 inlet~;
#X obj 113 56 inlet~;
#X obj 298 434 outlet~;
#X obj 425 247 block~ 1;
#X obj 98 240 *~;
#X obj 362 343 *~;
#X obj 352 366 cnv 15 150 40 empty empty empty 20 12 0 14 -233017 -66577
0;
#X obj 362 380 delwrite~ \$0-pm_fb 1;
#X obj 132 104 cnv 15 150 40 empty empty empty 20 12 0 14 -233017 -66577
0;
#X obj 144 113 delread~ \$0-pm_fb 0;
#X text 166 85 feedback;
#X obj 44 424 outlet~;
#X obj 44 178 else/sine~;
#X obj 298 299 else/sine~;
#X text 111 35 index 1;
#X text 373 31 index 2;
#X text 301 32 freq 2;
#X text 45 35 freq 1;
#X connect 0 0 15 0;
#X connect 1 0 7 1;
#X connect 2 0 14 0;
#X connect 3 0 6 1;
#X connect 6 0 15 2;
#X connect 7 0 9 0;
#X connect 11 0 14 2;
#X connect 14 0 6 0;
#X connect 14 0 13 0;
#X connect 15 0 7 0;
#X connect 15 0 4 0;
#X restore 69 340 pd Cross_Phase_Modulation;
#X obj 129 234 hsl 128 15 0.01 1 1 0 empty index1 empty -2 -8 0 10
-228856 -1 -1 9380 1;
#X obj 126 261 nbx 5 14 -1e+37 1e+37 0 0 empty empty empty 0 -8 0 10
-228856 -1 -1 0.3 256;
#X obj 61 260 nbx 5 14 -1e+37 1e+37 0 0 empty freq1 empty 0 -8 0 10
-228856 -1 -1 150 256;
#X obj 359 235 hsl 128 15 0.01 1 1 0 empty index2 empty -2 -8 0 10
-191407 -1 -1 8262 1;
#X obj 356 262 nbx 5 14 -1e+37 1e+37 0 0 empty empty empty 0 -8 0 10
-191407 -1 -1 0.2 256;
#X obj 289 261 nbx 5 14 -1e+37 1e+37 0 0 empty freq2 empty 0 -8 0 10
-191407 -1 -1 250 256;
#X obj 99 382 else/out~;
#X obj 261 381 else/out~;
#X text 386 234 index 2;
#X text 157 233 index 1;
#X text 69 241 Freq 1;
#X text 289 240 Freq 2;
#X obj 261 341 else/xmod~ -pm;
#X text 90 123 This implies we have a stereo output. Open the subpacth
below to check out how to implement this and see also the [xmod~] object
\, from ELSE \, which does cross modulation for phase and frequency
modulation., f 55;
#X obj 414 321 initmess \; index1 0.3 \; index2 0.2 \; freq1 150 \;
freq2 250;
#X connect 1 0 8 0;
#X connect 1 1 8 1;
#X connect 2 0 3 0;
#X connect 3 0 1 1;
#X connect 3 0 14 1;
#X connect 4 0 1 0;
#X connect 4 0 14 0;
#X connect 5 0 6 0;
#X connect 6 0 1 3;
#X connect 6 0 14 3;
#X connect 7 0 1 2;
#X connect 7 0 14 2;
#X connect 14 0 9 0;
#X connect 14 1 9 1;
