#N canvas 773 32 501 559 12;
#X floatatom 296 222 8 0 0 0 - - -, f 8;
#X obj 278 282 *~;
#X obj 296 164 nbx 5 17 -1e+37 1e+37 0 0 empty empty empty 0 -8 0 13
-228856 -1 -1 0 256;
#X text 271 164 dB;
#X text 58 509 original;
#X obj 296 195 db2lin;
#X obj 58 366 meter~;
#X obj 182 365 meter~;
#X obj 278 375 out~;
#X obj 59 217 player~ ../../../samples/bubul.wav 1 1, f 30;
#X text 178 508 adjusted;
#X text 43 21 This example shows how to adjust the gain of an incoming
audio \, in this case from a sample. The adjustment is made with a
dB input and using [db2lin] to convert it to a ratio., f 57;
#X text 42 84 This way we can add gain (or boost it) with positiver
dB values or decrease its intensity with negative values., f 57;
#X text 357 222 Ratio;
#X text 310 282 gain adjustment;
#X obj 296 253 f2s~ 10 1;
#X text 42 123 Compare the VU meter of the original sound with the
gain adjusted one.;
#X connect 0 0 15 0;
#X connect 1 0 7 0;
#X connect 1 0 8 0;
#X connect 1 0 8 1;
#X connect 2 0 5 0;
#X connect 5 0 0 0;
#X connect 9 0 1 0;
#X connect 9 0 6 0;
#X connect 15 0 1 1;
