#N canvas 668 58 461 519 12;
#X obj 263 181 spigot;
#X obj 302 156 tgl 15 0 empty loop empty 17 7 0 10 -228856 -1 -1 1
1;
#X text 320 155 loop;
#N canvas 575 228 306 323 voice1 0;
#X obj 137 228 *~;
#X obj 47 117 mtof;
#X floatatom 47 147 5 0 0 0 - - -, f 5;
#X obj 47 29 inlet;
#X floatatom 152 93 5 0 0 0 - - -, f 5;
#X floatatom 47 90 5 0 0 0 - - -, f 5;
#X obj 137 260 outlet~;
#X obj 47 60 unpack float float;
#X obj 88 146 *~ 0.8;
#X obj 73 173 bl.vsaw~;
#X obj 88 120 osc~ 0.25;
#X obj 152 190 adsr~ 10 40 0.5 10;
#X obj 152 120 / 127;
#X connect 0 0 6 0;
#X connect 1 0 2 0;
#X connect 2 0 9 0;
#X connect 3 0 7 0;
#X connect 4 0 12 0;
#X connect 5 0 1 0;
#X connect 7 0 5 0;
#X connect 7 1 4 0;
#X connect 8 0 9 1;
#X connect 9 0 0 0;
#X connect 10 0 8 0;
#X connect 11 0 0 1;
#X connect 12 0 11 0;
#X restore 50 253 pd voice1;
#X obj 89 218 voices 2 1;
#X obj 133 188 note.in;
#X msg 133 132 start;
#N canvas 575 228 306 323 voice2 0;
#X obj 137 228 *~;
#X obj 47 117 mtof;
#X floatatom 47 147 5 0 0 0 - - -, f 5;
#X obj 47 29 inlet;
#X floatatom 152 93 5 0 0 0 - - -, f 5;
#X floatatom 47 90 5 0 0 0 - - -, f 5;
#X obj 137 260 outlet~;
#X obj 47 60 unpack float float;
#X obj 88 146 *~ 0.8;
#X obj 73 173 bl.vsaw~;
#X obj 152 190 adsr~ 10 40 0.5 10;
#X obj 152 120 / 127;
#X obj 88 120 osc~ 0.75;
#X connect 0 0 6 0;
#X connect 1 0 2 0;
#X connect 2 0 9 0;
#X connect 3 0 7 0;
#X connect 4 0 11 0;
#X connect 5 0 1 0;
#X connect 7 0 5 0;
#X connect 7 1 4 0;
#X connect 8 0 9 1;
#X connect 9 0 0 0;
#X connect 10 0 0 1;
#X connect 11 0 10 0;
#X connect 12 0 8 0;
#X restore 122 253 pd voice2;
#X obj 99 319 out~;
#X obj 99 286 rotate~;
#X obj 165 286 osc~ 0.5;
#X obj 133 110 bng 15 250 50 0 empty \$0-bang empty 17 7 0 10 -228856
-1 -1;
#X obj 263 208 s \$0-bang;
#X obj 302 132 loadbang;
#X obj 133 156 midi files/bach.mid;
#X text 25 11 The [midi] external \, from ELSE \, can read MIDI files
like in this example \, but it outputs raw MIDI informtaion \, so we
need other objects to extract data such as [note.in] \, which retrieves
only MIDI notes. But [midi] can also record MIDI information from your
controller or your patch. Check its help file for more information.
, f 56;
#X text 45 394 Above \, the [midi] object sends a bang to the right
outlet when the file sequence is over \, and we can use this for looping
it. Here we have a two voice polyphonic synth to play this MIDI file.
Each voice is a variable sawtooth waveform., f 52;
#X connect 0 0 12 0;
#X connect 1 0 0 1;
#X connect 3 0 9 0;
#X connect 4 0 3 0;
#X connect 4 1 7 0;
#X connect 5 0 4 0;
#X connect 5 1 4 1;
#X connect 6 0 14 0;
#X connect 7 0 9 1;
#X connect 9 0 8 0;
#X connect 9 1 8 1;
#X connect 10 0 9 2;
#X connect 11 0 6 0;
#X connect 13 0 1 0;
#X connect 13 0 11 0;
#X connect 14 0 5 0;
#X connect 14 1 0 0;
