#N canvas 456 92 840 414 12;
#X obj 112 212 nbx 5 14 -1e+37 1e+37 0 0 empty empty empty 0 -8 0 10
-228856 -1 -1 100 256;
#X obj 112 158 bng 15 250 50 0 empty empty empty 17 7 0 10 -228856
-1 -1;
#X obj 157 288 *~;
#X obj 157 334 else/out~;
#X obj 112 252 bl.saw~;
#X obj 175 263 decay2~ 50 2000;
#X obj 112 184 sequencer 150 100 80 120 60 150 100 70 100;
#X obj 175 240 b;
#X msg 159 158 50 170 90 140;
#X text 21 22 The [sequencer] object from ELSE is an abstraction based
on the last example. It can initialize a sequence with via arguments
and load any other sequence from an input list. In this example we
have [tempo] with an irregular beat \, check the help file of [tempo]
and [sequence] for more information., f 56;
#X obj 550 257 *~;
#X obj 550 311 else/out~;
#X obj 502 221 bl.saw~;
#X obj 568 220 decay2~ 50 2000;
#X obj 112 131 tempo 120 100 -on;
#X obj 568 113 tempo~ 120 100 -on;
#X obj 502 153 sequencer~ 150 100 80 120 60 150 100 70 100;
#X obj 502 181 display~;
#X text 433 22 ELSE also provides the signal rate versions [tempo~]
and [sequencer~]. The [sequencer~] objects can also be triggered by
impulses \, which isthe output of [tempo~]. Check their help files
for more information., f 54;
#X connect 0 0 4 0;
#X connect 0 0 7 0;
#X connect 1 0 6 0;
#X connect 2 0 3 0;
#X connect 2 0 3 1;
#X connect 4 0 2 0;
#X connect 5 0 2 1;
#X connect 6 0 0 0;
#X connect 7 0 5 0;
#X connect 8 0 6 0;
#X connect 10 0 11 0;
#X connect 10 0 11 1;
#X connect 12 0 10 0;
#X connect 13 0 10 1;
#X connect 14 0 1 0;
#X connect 15 0 16 0;
#X connect 15 0 13 0;
#X connect 16 0 17 0;
#X connect 17 0 12 0;
