#N canvas 351 66 1071 744 12;
#X declare -path else;
#X obj 310 181 keyboard 15 60 5 1 0 0 empty empty;
#X obj 310 265 stripnote;
#X obj 310 299 mtof;
#X obj 310 382 out~;
#X msg 311 49 -ratio 1 1.59 2.14 2.3 2.65 2.92 3.6 4.1;
#X msg 307 76 -amp 1 0.7 0.5 0.3 0.2 0.15 0.1 0.05;
#X text 352 111 center strike;
#X msg 312 133 -decay 1000 800 600 500 400 350 300 250;
#X msg 619 410 -freq 100 -ratio 1 2.756 5.404 8.933 13.34 -amp 1 0.6 0.4 0.3 0.2 -decay 1500 1200 900 700 500;
#X msg 570 542 -ratio 1 1.59 2.14 2.3 2.65 2.92 3.6 4.1 -amp 1 0.7 0.5 0.3 0.2 0.15 0.1 0.05 -decay 1000 800 600 500 400 350 300 250;
#X text 645 521 drum;
#X msg 77 533 -freq 100 -ratio 1 2 3 4 5 6 7 8 -amp 1 0.9 0.8 0.7 0.6 0.5 0.4 0.3 -decay 2000 1800 1600 1400 1200 1000 800 600;
#X obj 508 271 / 127;
#X text 101 508 string;
#X msg 87 632 -freq 100 -ratio 1 2.01 2.73 3.8 4.9 5.8 7.2 8.7 -amp 1 0.9 0.8 0.7 0.6 0.5 0.4 0.3 -decay 4000 3500 3000 2500 2000 1500 1200 1000;
#X text 94 612 bell;
#X msg 610 617 -freq 100 -ratio 1 2.756 5.404 8.933 13.34 -amp 1 0.7 0.5 0.3 0.2 -decay 1200 1000 800 600 400;
#X text 620 596 wooden xylophone;
#X text 55 229 values come from solving the wave equation for a circular membrane with free edges., f 26;
#X obj 814 75 declare -path else;
#X obj 310 328 resonbank2~ -partial 1 2.756 5.404 8.933 13.34 -amp 1 0.7 0.5 0.3 0.2 -decay 1200 1000 800 600 400;
#X obj 508 297 float2imp~;
#X connect 0 0 1 0;
#X connect 1 0 2 0;
#X connect 1 1 12 0;
#X connect 2 0 20 0;
#X connect 12 0 21 0;
#X connect 20 0 3 0;
#X connect 21 0 20 1;
