#N canvas 130 178 665 604 12;
#X obj 278 310 v diff;
#X obj 363 166 max 0;
#X floatatom 363 79 5 0 100 0 - - - 0;
#X obj 401 290 metro 500;
#X obj 401 244 tgl 19 0 empty empty empty 17 7 0 10 #dfdfdf #000000 #000000 0 1;
#X obj 375 321 tabwrite~ \$0-jitter-graph;
#X obj 172 161 slop~ 0 0 1e+09 0 1e+09;
#X obj 363 103 / 1000;
#X text 410 78 jitter range \, 0 to 0.1;
#X text 426 244 <-- start metronome to graph output, f 20;
#X obj 95 393 cnv 19 498 138 empty empty empty 20 12 0 12 #e0e0e0 #404040 0;
#N canvas 0 50 450 250 (subpatch) 0;
#X array \$0-jitter-graph 1000 float 0;
#X coords 0 1 999 -1 500 140 1 0 0;
#X restore 94 392 graph;
#X obj 57 46 osc~ 100;
#X obj 57 77 clip~ -0.3 0.3;
#X obj 175 55 osc~ 1000;
#X obj 175 80 *~ 0.03;
#X obj 157 116 +~;
#X obj 362 194 v jit;
#X obj 154 229 fexpr~ diff = $x - $y2 \; $y2 + if(diff > jit \, diff - jit \, if(diff < -jit \, diff + jit \, 0)), f 32;
#X connect 1 0 17 0;
#X connect 2 0 7 0;
#X connect 3 0 5 0;
#X connect 4 0 3 0;
#X connect 7 0 6 2;
#X connect 7 0 6 4;
#X connect 7 0 1 0;
#X connect 12 0 13 0;
#X connect 13 0 16 0;
#X connect 14 0 15 0;
#X connect 15 0 16 1;
#X connect 16 0 6 0;
#X connect 16 0 18 0;
#X connect 18 1 5 0;
