#N canvas 731 101 462 485 12;
#N canvas 179 95 483 427 oscillator 0;
#X obj 175 343 outlet~;
#X obj 175 270 sine~;
#X obj 221 200 sig~;
#X obj 263 270 square~;
#X obj 323 270 saw~;
#X obj 221 270 tri~;
#X obj 107 106 vradio 17 1 0 4 ehnjyr etaeg5 empty 0 -8 0 10 -228856
-1 -1 1;
#X obj 107 196 + 1;
#X obj 175 307 xselect~ 4 100 1;
#X text 128 108 Sine;
#X text 128 124 Triangular;
#X text 128 141 Square;
#X text 129 157 Sawtooth;
#X obj 221 34 inlet;
#X obj 250 95 initmess \; \$0-carrier 200 \; \$0-mod 50.5 \; \$0-index
90 \; \$0-menu-set 1;
#X connect 1 0 8 0;
#X connect 2 0 1 0;
#X connect 2 0 3 0;
#X connect 2 0 4 0;
#X connect 2 0 5 0;
#X connect 3 0 8 2;
#X connect 4 0 8 3;
#X connect 5 0 8 1;
#X connect 6 0 7 0;
#X connect 7 0 8 0;
#X connect 8 0 0 0;
#X connect 13 0 2 0;
#X coords 0 -1 1 1 108 80 2 100 100;
#X restore 165 153 pd oscillator;
#X obj 165 261 *~;
#X obj 309 183 nbx 4 20 -1e+37 1e+37 0 0 empty \$0-index empty 0 -8
0 16 -228856 -1 -1 90 256;
#X obj 64 244 +~;
#X obj 64 188 nbx 5 20 -1e+37 1e+37 0 0 empty \$0-carrier empty 82
9 0 15 -228856 -1 -1 200 256;
#X obj 64 415 out~;
#N canvas 465 145 445 426 oscillator 0;
#X obj 106 347 outlet~;
#X obj 106 105 vradio 17 1 0 4 rgewgg5 sdsrvg2 empty 0 -8 0 10 -228856
-1 -1 3;
#X obj 106 195 + 1;
#X obj 106 311 xselect~ 4 100 1;
#X text 127 107 Sine;
#X text 127 123 Triangular;
#X text 127 140 Square;
#X text 128 156 Sawtooth;
#X obj 270 132 inlet~;
#X obj 119 268 bl.sine~;
#X obj 185 268 bl.tri~;
#X obj 269 241 sig~ 0.5;
#X obj 332 269 bl.saw~;
#X obj 247 268 bl.square~;
#X connect 1 0 2 0;
#X connect 2 0 3 0;
#X connect 3 0 0 0;
#X connect 8 0 9 0;
#X connect 8 0 10 0;
#X connect 8 0 12 0;
#X connect 8 0 13 0;
#X connect 9 0 3 0;
#X connect 10 0 3 1;
#X connect 11 0 13 1;
#X connect 12 0 3 3;
#X connect 13 0 3 2;
#X coords 0 -1 1 1 104 80 2 100 100;
#X restore 64 306 pd oscillator;
#X text 315 163 Index;
#X text 250 122 Mod;
#X text 67 167 Carrier;
#X obj 165 120 nbx 5 20 -1e+37 1e+37 0 0 empty \$0-mod empty 82 9 0
15 -228856 -1 -1 50.5 256;
#X text 22 16 In this patch we can test different combinations of oscillators.
Waveforms are ordered by spectral content from a simple sinewave to
a rich sawtooth (the only which contains odd and even harmonics). The
more complex the oscillator \, the more complex is the result., f
57;
#X text 194 317 For the modulating signal \, we have non bandlimited
waveforms \, that is perfect shapes. But the oscillator that receives
the frequency modulated signal is band limited., f 31;
#X obj 309 224 f2s~ 10;
#X connect 0 0 1 0;
#X connect 1 0 3 1;
#X connect 2 0 13 0;
#X connect 3 0 6 0;
#X connect 4 0 3 0;
#X connect 6 0 5 1;
#X connect 6 0 5 0;
#X connect 10 0 0 0;
#X connect 13 0 1 1;
