#N canvas 337 92 913 651 12;
#X text 41 14 The [allpass.2nd~] object has been introduced before.
It is a 2nd order allpass filter \, and you can check its help file
for more details, f 66;
#X obj 129 109 allpass.2nd~;
#X obj 753 121 hsl 128 15 0.001 100 1 0 empty empty empty -2 -8 0 10
-228856 -1 -1 6500 1;
#X obj 592 131 noise~;
#X obj 592 206 else/out~;
#X obj 750 145 nbx 5 14 0.001 100 0 0 \$0-Q empty empty 0 -8 0 10 -228856
-1 -1 0.362289 256;
#X obj 671 122 nbx 5 14 20 20000 0 0 \$0-Hz empty empty 0 -8 0 10 -228856
-1 -1 500 256;
#X text 774 119 resonance (Q);
#N canvas 169 31 398 275 coeff 0;
#X obj 103 87 r \$0-Hz;
#X obj 173 87 r \$0-Q;
#X obj 87 54 loadbang;
#X obj 87 156 outlet;
#X obj 87 127 else/bicoeff allpass 750 1;
#X connect 0 0 4 0;
#X connect 1 0 4 1;
#X connect 2 0 4 0;
#X connect 4 0 3 0;
#X restore 12 293 pd coeff;
#X obj 12 320 else/biplot;
#X obj 592 170 else/allpass.2nd~ 750 1;
#X connect 2 0 5 0;
#X connect 3 0 10 0;
#X connect 5 0 10 2;
#X connect 6 0 10 1;
#X connect 8 0 9 0;
#X connect 10 0 4 0;
#X connect 10 0 4 1;
