#N canvas 331 70 759 424 12;
#X obj 65 110 rpole~;
#X obj 65 85 rzero_rev~;
#X obj 65 159 rpole~;
#X obj 65 134 rzero_rev~;
#X obj 65 207 rpole~;
#X obj 65 182 rzero_rev~;
#X obj 65 256 rpole~;
#X obj 65 231 rzero_rev~;
#X obj 47 291 +~;
#X obj 152 101 r~ \$0-coef;
#X obj 376 81 s~ \$0-coef;
#X obj 149 143 r~ \$0-coef;
#X obj 147 186 r~ \$0-coef;
#X obj 149 243 r~ \$0-coef;
#X text 333 56 LFO;
#N canvas 345 151 606 411 phaser-stereo 0;
#X obj 59 280 +~;
#N canvas 172 23 283 355 4stages 0;
#X obj 62 107 rpole~;
#X obj 62 82 rzero_rev~;
#X obj 62 156 rpole~;
#X obj 62 131 rzero_rev~;
#X obj 62 204 rpole~;
#X obj 62 179 rzero_rev~;
#X obj 62 253 rpole~;
#X obj 62 228 rzero_rev~;
#X obj 149 98 r~ \$0-coef;
#X obj 146 140 r~ \$0-coef;
#X obj 144 183 r~ \$0-coef;
#X obj 146 240 r~ \$0-coef;
#X obj 62 45 inlet~;
#X obj 62 283 outlet~;
#X connect 0 0 3 0;
#X connect 1 0 0 0;
#X connect 2 0 5 0;
#X connect 3 0 2 0;
#X connect 4 0 7 0;
#X connect 5 0 4 0;
#X connect 6 0 13 0;
#X connect 7 0 6 0;
#X connect 8 0 1 1;
#X connect 8 0 0 1;
#X connect 9 0 3 1;
#X connect 9 0 2 1;
#X connect 10 0 5 1;
#X connect 10 0 4 1;
#X connect 11 0 7 1;
#X connect 11 0 6 1;
#X connect 12 0 1 0;
#X restore 74 114 pd 4stages;
#N canvas 172 23 283 355 4stages 0;
#X obj 62 107 rpole~;
#X obj 62 82 rzero_rev~;
#X obj 62 156 rpole~;
#X obj 62 131 rzero_rev~;
#X obj 62 204 rpole~;
#X obj 62 179 rzero_rev~;
#X obj 62 253 rpole~;
#X obj 62 228 rzero_rev~;
#X obj 149 98 r~ \$0-coef;
#X obj 146 140 r~ \$0-coef;
#X obj 144 183 r~ \$0-coef;
#X obj 146 240 r~ \$0-coef;
#X obj 62 45 inlet~;
#X obj 62 283 outlet~;
#X connect 0 0 3 0;
#X connect 1 0 0 0;
#X connect 2 0 5 0;
#X connect 3 0 2 0;
#X connect 4 0 7 0;
#X connect 5 0 4 0;
#X connect 6 0 13 0;
#X connect 7 0 6 0;
#X connect 8 0 1 1;
#X connect 8 0 0 1;
#X connect 9 0 3 1;
#X connect 9 0 2 1;
#X connect 10 0 5 1;
#X connect 10 0 4 1;
#X connect 11 0 7 1;
#X connect 11 0 6 1;
#X connect 12 0 1 0;
#X restore 86 145 pd 4stages;
#N canvas 172 23 283 355 4stages 0;
#X obj 62 107 rpole~;
#X obj 62 82 rzero_rev~;
#X obj 62 156 rpole~;
#X obj 62 131 rzero_rev~;
#X obj 62 204 rpole~;
#X obj 62 179 rzero_rev~;
#X obj 62 253 rpole~;
#X obj 62 228 rzero_rev~;
#X obj 149 98 r~ \$0-coef;
#X obj 146 140 r~ \$0-coef;
#X obj 144 183 r~ \$0-coef;
#X obj 146 240 r~ \$0-coef;
#X obj 62 45 inlet~;
#X obj 62 283 outlet~;
#X connect 0 0 3 0;
#X connect 1 0 0 0;
#X connect 2 0 5 0;
#X connect 3 0 2 0;
#X connect 4 0 7 0;
#X connect 5 0 4 0;
#X connect 6 0 13 0;
#X connect 7 0 6 0;
#X connect 8 0 1 1;
#X connect 8 0 0 1;
#X connect 9 0 3 1;
#X connect 9 0 2 1;
#X connect 10 0 5 1;
#X connect 10 0 4 1;
#X connect 11 0 7 1;
#X connect 11 0 6 1;
#X connect 12 0 1 0;
#X restore 97 182 pd 4stages;
#X obj 59 341 outlet~;
#X obj 218 284 +~;
#N canvas 172 23 283 355 4stages 0;
#X obj 62 107 rpole~;
#X obj 62 82 rzero_rev~;
#X obj 62 156 rpole~;
#X obj 62 131 rzero_rev~;
#X obj 62 204 rpole~;
#X obj 62 179 rzero_rev~;
#X obj 62 253 rpole~;
#X obj 62 228 rzero_rev~;
#X obj 149 98 r~ \$0-coef;
#X obj 146 140 r~ \$0-coef;
#X obj 144 183 r~ \$0-coef;
#X obj 146 240 r~ \$0-coef;
#X obj 62 45 inlet~;
#X obj 62 283 outlet~;
#X connect 0 0 3 0;
#X connect 1 0 0 0;
#X connect 2 0 5 0;
#X connect 3 0 2 0;
#X connect 4 0 7 0;
#X connect 5 0 4 0;
#X connect 6 0 13 0;
#X connect 7 0 6 0;
#X connect 8 0 1 1;
#X connect 8 0 0 1;
#X connect 9 0 3 1;
#X connect 9 0 2 1;
#X connect 10 0 5 1;
#X connect 10 0 4 1;
#X connect 11 0 7 1;
#X connect 11 0 6 1;
#X connect 12 0 1 0;
#X restore 243 153 pd 4stages;
#X obj 218 340 outlet~;
#N canvas 172 23 258 280 2stages 0;
#X obj 62 107 rpole~;
#X obj 62 82 rzero_rev~;
#X obj 62 156 rpole~;
#X obj 62 131 rzero_rev~;
#X obj 149 98 r~ \$0-coef;
#X obj 146 140 r~ \$0-coef;
#X obj 62 45 inlet~;
#X obj 62 203 outlet~;
#X connect 0 0 3 0;
#X connect 1 0 0 0;
#X connect 2 0 7 0;
#X connect 3 0 2 0;
#X connect 4 0 1 1;
#X connect 4 0 0 1;
#X connect 5 0 3 1;
#X connect 5 0 2 1;
#X connect 6 0 1 0;
#X restore 231 122 pd 2stages;
#N canvas 172 23 283 355 4stages 0;
#X obj 62 107 rpole~;
#X obj 62 82 rzero_rev~;
#X obj 62 156 rpole~;
#X obj 62 131 rzero_rev~;
#X obj 62 204 rpole~;
#X obj 62 179 rzero_rev~;
#X obj 62 253 rpole~;
#X obj 62 228 rzero_rev~;
#X obj 149 98 r~ \$0-coef;
#X obj 146 140 r~ \$0-coef;
#X obj 144 183 r~ \$0-coef;
#X obj 146 240 r~ \$0-coef;
#X obj 62 45 inlet~;
#X obj 62 283 outlet~;
#X connect 0 0 3 0;
#X connect 1 0 0 0;
#X connect 2 0 5 0;
#X connect 3 0 2 0;
#X connect 4 0 7 0;
#X connect 5 0 4 0;
#X connect 6 0 13 0;
#X connect 7 0 6 0;
#X connect 8 0 1 1;
#X connect 8 0 0 1;
#X connect 9 0 3 1;
#X connect 9 0 2 1;
#X connect 10 0 5 1;
#X connect 10 0 4 1;
#X connect 11 0 7 1;
#X connect 11 0 6 1;
#X connect 12 0 1 0;
#X restore 255 189 pd 4stages;
#N canvas 172 23 283 355 4stages 0;
#X obj 62 107 rpole~;
#X obj 62 82 rzero_rev~;
#X obj 62 156 rpole~;
#X obj 62 131 rzero_rev~;
#X obj 62 204 rpole~;
#X obj 62 179 rzero_rev~;
#X obj 62 253 rpole~;
#X obj 62 228 rzero_rev~;
#X obj 149 98 r~ \$0-coef;
#X obj 146 140 r~ \$0-coef;
#X obj 144 183 r~ \$0-coef;
#X obj 146 240 r~ \$0-coef;
#X obj 62 45 inlet~;
#X obj 62 283 outlet~;
#X connect 0 0 3 0;
#X connect 1 0 0 0;
#X connect 2 0 5 0;
#X connect 3 0 2 0;
#X connect 4 0 7 0;
#X connect 5 0 4 0;
#X connect 6 0 13 0;
#X connect 7 0 6 0;
#X connect 8 0 1 1;
#X connect 8 0 0 1;
#X connect 9 0 3 1;
#X connect 9 0 2 1;
#X connect 10 0 5 1;
#X connect 10 0 4 1;
#X connect 11 0 7 1;
#X connect 11 0 6 1;
#X connect 12 0 1 0;
#X restore 273 225 pd 4stages;
#N canvas 172 23 283 355 4stages 0;
#X obj 62 107 rpole~;
#X obj 62 82 rzero_rev~;
#X obj 62 156 rpole~;
#X obj 62 131 rzero_rev~;
#X obj 62 204 rpole~;
#X obj 62 179 rzero_rev~;
#X obj 62 253 rpole~;
#X obj 62 228 rzero_rev~;
#X obj 149 98 r~ \$0-coef;
#X obj 146 140 r~ \$0-coef;
#X obj 144 183 r~ \$0-coef;
#X obj 146 240 r~ \$0-coef;
#X obj 62 45 inlet~;
#X obj 62 283 outlet~;
#X connect 0 0 3 0;
#X connect 1 0 0 0;
#X connect 2 0 5 0;
#X connect 3 0 2 0;
#X connect 4 0 7 0;
#X connect 5 0 4 0;
#X connect 6 0 13 0;
#X connect 7 0 6 0;
#X connect 8 0 1 1;
#X connect 8 0 0 1;
#X connect 9 0 3 1;
#X connect 9 0 2 1;
#X connect 10 0 5 1;
#X connect 10 0 4 1;
#X connect 11 0 7 1;
#X connect 11 0 6 1;
#X connect 12 0 1 0;
#X restore 109 224 pd 4stages;
#X obj 145 25 sig~ 40;
#X obj 216 62 +~ 0.5;
#X obj 59 81 bl.saw~;
#X obj 216 89 bl.saw~;
#X obj 218 311 drive~;
#X obj 59 309 drive~;
#X text 372 112 The effect is maximized by summing outputs from different
stages. A [drive~] object compresses so many sums., f 30;
#X connect 0 0 17 0;
#X connect 1 0 0 1;
#X connect 1 0 2 0;
#X connect 2 0 0 1;
#X connect 2 0 3 0;
#X connect 3 0 0 1;
#X connect 3 0 11 0;
#X connect 5 0 16 0;
#X connect 6 0 5 1;
#X connect 6 0 9 0;
#X connect 8 0 5 1;
#X connect 8 0 6 0;
#X connect 9 0 5 1;
#X connect 9 0 10 0;
#X connect 10 0 5 1;
#X connect 11 0 0 1;
#X connect 12 0 13 0;
#X connect 12 0 14 0;
#X connect 13 0 15 0;
#X connect 14 0 0 0;
#X connect 14 0 1 0;
#X connect 15 0 5 0;
#X connect 15 0 8 0;
#X connect 16 0 7 0;
#X connect 17 0 4 0;
#X restore 440 310 pd phaser-stereo;
#X obj 46 30 sig~ 80;
#X obj 46 55 bl.saw~;
#X obj 376 59 rescale~ 0.62 0.98;
#X obj 455 345 out~;
#X obj 47 323 out~;
#X text 260 128 A "Phaser" adds a signal to the output of an allpass
filter (a 4th order allpass filter on the example to the left) whose
frequency is controlled by a LFO. This promotes phase canceliing in
some frequencies and this depends on the order of the filter.;
#X obj 376 36 tri~ 0.1;
#X text 259 213 The LFO here controls the coefficient of the filter
directly. We have the same filter as the last example \, but four of
them in cascade. Other configurations are possible (6 \, 8 \, 10 \,
12 stages \, etc). Below we have a stereo patch with 16 and 14 stages.
Open.;
#X text 564 308 <= click;
#X connect 0 0 3 0;
#X connect 1 0 0 0;
#X connect 2 0 5 0;
#X connect 3 0 2 0;
#X connect 4 0 7 0;
#X connect 5 0 4 0;
#X connect 6 0 8 1;
#X connect 7 0 6 0;
#X connect 8 0 20 0;
#X connect 8 0 20 1;
#X connect 9 0 1 1;
#X connect 9 0 0 1;
#X connect 11 0 3 1;
#X connect 11 0 2 1;
#X connect 12 0 5 1;
#X connect 12 0 4 1;
#X connect 13 0 7 1;
#X connect 13 0 6 1;
#X connect 15 0 19 0;
#X connect 15 1 19 1;
#X connect 16 0 17 0;
#X connect 17 0 8 0;
#X connect 17 0 1 0;
#X connect 18 0 10 0;
#X connect 22 0 18 0;
