#N canvas 324 51 1042 713 12;
#X declare -path else;
#X obj 821 35 declare -path else;
#X text 554 216 cubic soft-clipper;
#X text 42 27 Let's forget about ploting tables now and just present the functions with pure math instead of table lookups. For soft clippers we've already seen 'tanh' and 'atan' \, which are well suited for soft clipping. These are available as thre first two modes of [drive~] (mode 0 and mode 1). For these modes \, the drive parameter is just a gain boost before reaching the waveshaper., f 61;
#X obj 112 198 play.file~ bubul.mp3 1 1;
#X obj 113 272 drive~ -mode 1;
#X obj 267 272 drive~;
#X obj 306 142 knob 50 0.1 10 1 1 empty empty #dfdfdf #7c7c7c #000000 1 0 0 0 1 320 0 0 1 empty empty 0 12 0 -15 0 1 0 0 0 0;
#X floatatom 306 199 5 0 0 0 - - - 0;
#X obj 306 225 else/f2s~;
#X text 69 273 atan;
#X text 323 272 tanh;
#X obj 267 312 out~;
#X obj 113 311 out~;
#X obj 154 514 play.file~ bubul.mp3 1 1;
#X obj 154 637 out~;
#X obj 286 564 knob 50 0.1 1 1 1 empty empty #dfdfdf #7c7c7c #000000 1 0 0 0 1 320 0 0 0.1 empty empty 0 12 0 -15 0 1 0 0 0 0;
#X floatatom 286 621 5 0 0 0 - - - 0;
#X obj 286 647 else/f2s~;
#X obj 154 598 drive~ -mode 2;
#X obj 154 556 dbgain~;
#X floatatom 218 555 5 0 0 0 - - - 0;
#X text 42 408 Mode 2 is threshold soft clipper. The drive parameter is a threshold (from 0 to 1) where absolute input values below it are passed through while others are soft clipped. This works better if you add a gain stage before hand., f 61;
#X obj 547 243 play.file~ bubul.mp3 1 1;
#X obj 547 366 out~;
#X obj 679 293 knob 50 0.1 10 1 1 empty empty #dfdfdf #7c7c7c #000000 1 0 0 0 1 320 0 0 0.1 empty empty 0 12 0 -15 0 1 0 0 0 0;
#X floatatom 679 350 5 0 0 0 - - - 0;
#X obj 679 376 else/f2s~;
#X obj 547 327 drive~ -mode 3;
#X obj 778 235 play.file~ bubul.mp3 1 1;
#X obj 778 358 out~;
#X floatatom 910 342 5 0 0 0 - - - 0;
#X obj 910 368 else/f2s~;
#X text 785 208 rational soft clipper;
#X obj 654 487 play.file~ bubul.mp3 1 1;
#X obj 654 610 out~;
#X floatatom 786 594 5 0 0 0 - - - 0;
#X obj 786 620 else/f2s~;
#X obj 910 285 knob 50 0.1 100 1 1 empty empty #dfdfdf #7c7c7c #000000 1 0 0 0 1 320 0 0 0.1 empty empty 0 12 0 -15 0 1 0 0 0 0;
#X obj 786 537 knob 50 0.1 100 1 1 empty empty #dfdfdf #7c7c7c #000000 1 0 0 0 1 320 0 0 0.1 empty empty 0 12 0 -15 0 1 0 0 0 0;
#X text 520 71 The cubic soft clipper (mode 3) is a 3rd order polynomial that gradually rounds waveform peaks. The rational soft clipper (mode 4) uses a ratio of two expressions to progressively reduce gain as the signal grows. The exponential soft clipper uses an exponential curve that smoothly approaches a maximum output., f 67;
#X obj 778 319 drive~ -mode 4;
#X obj 654 571 drive~ -mode 5;
#X text 520 154 Check the help file for more details and the formulas., f 67;
#X text 151 487 Threshold soft clipper;
#X connect 3 0 4 0;
#X connect 3 0 5 0;
#X connect 4 0 12 0;
#X connect 5 0 11 0;
#X connect 6 0 7 0;
#X connect 7 0 8 0;
#X connect 8 0 4 1;
#X connect 8 0 5 1;
#X connect 13 0 19 0;
#X connect 15 0 16 0;
#X connect 16 0 17 0;
#X connect 17 0 18 1;
#X connect 18 0 14 0;
#X connect 19 0 18 0;
#X connect 20 0 19 1;
#X connect 22 0 27 0;
#X connect 24 0 25 0;
#X connect 25 0 26 0;
#X connect 26 0 27 1;
#X connect 27 0 23 0;
#X connect 28 0 40 0;
#X connect 30 0 31 0;
#X connect 31 0 40 1;
#X connect 33 0 41 0;
#X connect 35 0 36 0;
#X connect 36 0 41 1;
#X connect 37 0 30 0;
#X connect 38 0 35 0;
#X connect 40 0 29 0;
#X connect 41 0 34 0;
