#N canvas 402 38 911 854 12;
#X declare -path else;
#X obj 150 224 *~;
#X obj 244 225 hsl 128 15 0.5 2 0 0 empty empty empty -2 -8 0 10 #dcdcdc #000000 #000000 0 1;
#X obj 241 247 nbx 5 14 -1e+37 1e+37 0 0 empty empty empty 0 -8 0 10 #dcdcdc #000000 #000000 0 256;
#X obj 150 168 osc~ 400;
#X obj 627 557 catch~ \$0-out;
#X obj 150 310 throw~ \$0-out;
#X obj 627 756 out~;
#X obj 672 36 declare -path else;
#X obj 150 259 pow~;
#X obj 243 139 hsl 128 15 0 1 0 0 empty empty -2 -8 0 0 4 #dcdcdc #000000 #000000 0 0;
#X obj 240 164 nbx 5 14 -1e+37 1e+37 0 0 empty empty empty 0 -8 0 10 #dcdcdc #000000 #000000 0 256;
#X obj 599 280 *~;
#X obj 641 320 hsl 128 15 0.1 10 1 0 empty empty empty -2 -8 0 10 #dcdcdc #000000 #000000 0 1;
#X obj 638 342 nbx 5 14 -1e+37 1e+37 0 0 empty empty empty 0 -8 0 10 #dcdcdc #000000 #000000 0 256;
#X obj 599 224 osc~ 400;
#X obj 599 436 throw~ \$0-out;
#X text 80 254 Transfer Function, f 8;
#X obj 692 198 hsl 128 15 0 1 0 0 empty empty -2 -8 0 0 4 #dcdcdc #000000 #000000 0 0;
#X obj 689 220 nbx 5 14 -1e+37 1e+37 0 0 empty empty empty 0 -8 0 10 #dcdcdc #000000 #000000 0 256;
#X obj 599 402 power~;
#X obj 627 592 graph~;
#X obj 240 189 f2s~;
#X obj 241 272 f2s~ 10 1;
#X text 515 78 The [power~] object from ELSE is a power-law shaper gives us \, by default -pow(-in \, 1/p). For negative input \, it extends the usual definition and allows exponentiation of negative signal values. Try it also with samples and live input \, which is fun to do with any waveshaper by the way., f 48;
#X obj 638 367 f2s~ 10 1;
#X obj 689 245 f2s~;
#X text 30 25 A power function doesn't really work well and results in half wave or full wave rectification (that we'll see in the next example). A power function would originally give us a 'nan' (Not a Number) if a negative signal 'a' is raised by a non integer exponent 'b' \, and if you square it you only get positive values. Note that [pow~] gives us "0" instead of 'nan'., f 59;
#X obj 169 532 sign~;
#X obj 89 493 abs~;
#X obj 151 577 *~;
#X obj 168 445 osc~ 400;
#X obj 151 612 graph~;
#X obj 89 531 pow~ 1.5;
#X obj 181 797 expr~ copysign(pow(abs($v1) \, $v2) \, $v1);
#X text 37 364 A way to handle this in cases where you can't calculate negative values is to use the absolute function and then copy the sign of the input \, which is possible with ELSE's [sign~] (check its help file).;
#X text 39 788 In [expr~] you can use 'copysign', f 18;
#X floatatom 183 489 5 0.1 10 0 - - - 0;
#X msg 522 356 mode \$1;
#X obj 522 324 tgl 21 0 empty empty empty 0 -10 0 12 #dfdfdf #000000 #000000 0 1;
#X text 498 494 In mode 1 \, [power~] returns "1 - pow(1 - in \, 1/p)" for positive input and "pow(1 + in \, 1/p) - 1" for negative ones., f 50;
#X connect 0 0 8 0;
#X connect 1 0 2 0;
#X connect 2 0 22 0;
#X connect 3 0 0 0;
#X connect 4 0 20 0;
#X connect 8 0 5 0;
#X connect 9 0 10 0;
#X connect 10 0 21 0;
#X connect 11 0 19 0;
#X connect 12 0 13 0;
#X connect 13 0 24 0;
#X connect 14 0 11 0;
#X connect 17 0 18 0;
#X connect 18 0 25 0;
#X connect 19 0 15 0;
#X connect 20 0 6 0;
#X connect 21 0 0 1;
#X connect 22 0 8 1;
#X connect 24 0 19 1;
#X connect 25 0 11 1;
#X connect 27 0 29 1;
#X connect 28 0 32 0;
#X connect 29 0 31 0;
#X connect 30 0 28 0;
#X connect 30 0 27 0;
#X connect 32 0 29 0;
#X connect 36 0 32 1;
#X connect 37 0 19 0;
#X connect 38 0 37 0;
