#N canvas 369 137 593 534 12;
#X obj 108 252 mtof;
#X obj 108 231 nbx 5 14 25 74 0 0 \$0-ramp_note \$0-pitch empty 0 -8
0 10 -228856 -1 -1 30 256;
#X obj 108 280 bl.saw~;
#X text 86 29 The Vocoder is a multiband processing not much different
than an equalizer \, but the gain adjustment is controlled by a filterbank
analysis from a second sound source., f 56;
#X obj 129 320 vocoder~ 28 100;
#X obj 180 258 adc~, f 5;
#X obj 262 301 tgl 20 0 empty empty empty 17 7 0 10 -228856 -1 -1 0
1;
#X text 289 298 gate;
#X obj 262 344 envgen~ 50 1 50 0.5 200 0 -suspoint 2;
#X obj 244 395 *~;
#X obj 244 436 out~;
#X obj 317 187 voices 4, f 11;
#X connect 0 0 2 0;
#X connect 1 0 0 0;
#X connect 2 0 4 0;
#X connect 4 0 9 0;
#X connect 5 0 4 1;
#X connect 6 0 8 0;
#X connect 8 0 9 1;
#X connect 9 0 10 0;
#X connect 9 0 10 1;
