#N canvas 648 72 577 770 12;
#X obj 217 298 bng 25 250 50 0 empty empty empty 17 7 0 10 -228856
-1 -1;
#X obj 210 660 out~;
#X obj 217 374 out~;
#X obj 287 553 bng 25 250 50 0 empty empty empty 17 7 0 10 -228856
-1 -1;
#N canvas 797 186 322 336 test 0;
#X obj 36 155 osc~;
#X obj 36 257 outlet~;
#X obj 36 211 *~;
#X obj 152 151 vline~;
#X obj 36 37 inlet;
#X obj 36 125 vline~;
#X obj 36 68 trigger bang bang;
#X msg 211 122 0 50;
#X obj 211 84 delay 500;
#X msg 36 97 440 \, 880 500;
#X msg 152 111 0.5 50;
#X connect 0 0 2 0;
#X connect 2 0 1 0;
#X connect 3 0 2 1;
#X connect 4 0 6 0;
#X connect 5 0 0 0;
#X connect 6 0 9 0;
#X connect 6 1 10 0;
#X connect 6 1 8 0;
#X connect 7 0 3 0;
#X connect 8 0 7 0;
#X connect 9 0 5 0;
#X connect 10 0 3 0;
#X restore 210 580 pd test;
#X obj 62 297 bng 25 250 50 0 empty empty empty 17 7 0 10 -228856 -1
-1;
#N canvas 797 186 322 336 test 0;
#X obj 36 155 osc~;
#X obj 36 257 outlet~;
#X obj 36 211 *~;
#X obj 152 151 vline~;
#X obj 36 37 inlet;
#X obj 36 125 vline~;
#X obj 36 68 trigger bang bang;
#X msg 211 122 0 50;
#X obj 211 84 delay 500;
#X msg 36 97 440 \, 880 500;
#X msg 152 111 0.5 50;
#X connect 0 0 2 0;
#X connect 2 0 1 0;
#X connect 3 0 2 1;
#X connect 4 0 6 0;
#X connect 5 0 0 0;
#X connect 6 0 9 0;
#X connect 6 1 10 0;
#X connect 6 1 8 0;
#X connect 7 0 3 0;
#X connect 8 0 7 0;
#X connect 9 0 5 0;
#X connect 10 0 3 0;
#X restore 62 332 pd test;
#X obj 62 372 out~;
#X obj 287 590 impseq~;
#X obj 210 544 bng 25 250 50 0 empty empty empty 17 7 0 10 -228856
-1 -1;
#X obj 217 337 play.file~ 1 ../../../samples/church.wav;
#X text 88 474 Note that by sending it an impulse \, you should get
the IR file as an output \, because that's how the room responds to
an impulse.;
#X obj 210 626 conv~ 2048 ../../../samples/church.wav;
#X text 58 23 Natural reverberation is a product of complex sound reflections
patterns \, where a sound source keeps moving and bouncing around innumerous
spots in a room/space. This can be digitally modeled with delay lines
as we'll see later \, but before that let's recapitulate the convolution
tecnhique. We've also seen how convolution can also act as a general
filter \, but this is only to say and reinforce how filters and reverbs
are intertwined concepts., f 64;
#X text 58 147 Convolution reverbs depends on "Impulse Responses" ("IR").
These are sound recordings of an impulse in a reverberant space that
capture the reverberation or colloration model of the space. It's easy
to find "IR" sound file libraries for convolution reverbs out there
in wave and aif files. That's all you need for a convolution reverb
in Pd. Otherwise you can still record an IR from your bathroom or something.
The example below uses an IR of a church., f 64;
#X connect 0 0 10 0;
#X connect 3 0 8 0;
#X connect 4 0 12 0;
#X connect 5 0 6 0;
#X connect 6 0 7 0;
#X connect 6 0 7 1;
#X connect 8 0 12 0;
#X connect 9 0 4 0;
#X connect 10 0 2 0;
#X connect 10 0 2 1;
#X connect 12 0 1 0;
#X connect 12 0 1 1;
