#N canvas 595 49 589 485 12;
#X obj 247 249 bng 30 250 50 0 empty empty empty 17 7 0 10 -228856
-1 -1;
#X obj 255 375 out~;
#N canvas 797 186 322 336 test 0;
#X obj 36 155 osc~;
#X obj 36 257 outlet~;
#X obj 36 211 *~;
#X obj 152 151 vline~;
#X obj 36 37 inlet;
#X obj 36 125 vline~;
#X obj 36 68 trigger bang bang;
#X msg 211 122 0 50;
#X obj 211 84 delay 500;
#X msg 36 97 440 \, 880 500;
#X msg 152 111 0.5 50;
#X connect 0 0 2 0;
#X connect 2 0 1 0;
#X connect 3 0 2 1;
#X connect 4 0 6 0;
#X connect 5 0 0 0;
#X connect 6 0 9 0;
#X connect 6 1 10 0;
#X connect 6 1 8 0;
#X connect 7 0 3 0;
#X connect 8 0 7 0;
#X connect 9 0 5 0;
#X connect 10 0 3 0;
#X restore 247 292 pd test;
#X obj 247 321 plateverb~ 50 0.6 0.25 0.8 0.8, f 16;
#X text 76 47 The [plateverb~] object is a reverb asbtraction available
in the ELSE library. It is based on a patch by Tom Erbe implementing
the Dattorro plate stereo reverb model (it turns a mono input into
a stereo output).;
#X text 76 126 It combines allpass filters and a feedback delay network.
It has an internal filter to control the crossover frequency and high
frequency dammping as [rev2~] and [rev3~].;
#X text 77 189 Check its help file for more details on how it works.
;
#X connect 0 0 2 0;
#X connect 2 0 3 0;
#X connect 3 0 1 0;
#X connect 3 1 1 1;
