#N canvas 526 118 808 401 12;
#X declare -path else;
#X obj 325 48 hsl 200 15 1 40 0 0 \$0-width \$0-width-set Sustain -2
-8 1 12 -191407 -1 -1 3572 1;
#X obj 325 83 hsl 200 15 0.92 0.999 1 0 \$0-feedback \$0-feedback-set
Feedback -2 -8 1 12 -228856 -1 -1 18931 1;
#X obj 325 118 hsl 200 15 100 8000 0 0 \$0-cutoff \$0-cutoff-set Cutoff
-2 -8 1 12 -220731 -1 -1 14106 1;
#X obj 62 66 tgl 30 0 empty \$0-metro empty 17 7 0 10 -228856 -1 -1
1 1;
#X floatatom 120 85 5 0 0 0 - - -;
#X obj 123 64 hsl 128 15 500 3000 0 0 empty \$0-tempo Tempo -2 -8 0
10 -228856 -1 -1 12700 1;
#X obj 62 296 out~;
#X obj 613 32 declare -path else;
#X floatatom 62 171 3 0 0 0 - - -;
#X text 89 171 <= chord number;
#X msg 62 199 all \$1;
#X obj 62 230 clone 6 karplus-voice \$0;
#X text 239 230 <= click;
#X obj 324 167 text define -k \$0-chords;
#A set 40 47 52 56 59 64 \; 43 47 50 55 62 67 \; 45 52 57 60 64 69
\; 42 49 54 57 61 66 \; 40 47 54 59 62 66 \; 44 49 56 61 65 68 \; 38
41 45 50 57 62 \; 35 42 47 50 54 59;
#X obj 62 143 random 8;
#X obj 585 60 initmess \; \$0-tempo 3000 \; \$0-metro 1 \; \$0-cutoff-set
5700 \; \$0-feedback-set 0.995 \; \$0-width-set 8;
#X text 504 167 <= stored chords (click to open);
#X text 321 207 This example has eigth 6-voice chords \, which are
stored in the [text] object above and randomly picked on the left.
, f 65;
#X obj 62 112 tempo 3000 25 -ms;
#X text 321 321 Note that the patch ID number (\$0) from this window
is passed inside clone as an argument so we can communicate with the
abstraction copies., f 65;
#X obj 62 264 drive~;
#X text 321 242 Each voice is played by a different copy of an abstraction
inside [clone]. They're also attacked at a different time with a random
delay value. Click the [clone] object to check it. Not much else is
new \, we have the same duration/sustain parameter from the last example.
, f 65;
#X connect 3 0 18 0;
#X connect 4 0 18 1;
#X connect 5 0 4 0;
#X connect 8 0 10 0;
#X connect 10 0 11 0;
#X connect 11 0 20 0;
#X connect 14 0 8 0;
#X connect 18 0 14 0;
#X connect 20 0 6 0;
