#N canvas 149 120 958 515 12;
#X obj 637 338 bng 15 250 50 0 empty empty empty 17 7 0 10 -228856
-1 -1;
#X obj 788 336 bng 15 250 50 0 empty empty empty 17 7 0 10 -228856
-1 -1;
#X obj 76 275 tgl 15 0 empty empty empty 17 7 0 10 -228856 -1 -1 1
1;
#X obj 76 330 tgl 15 0 empty empty empty 17 7 0 10 -228856 -1 -1 0
1;
#X obj 76 248 loadbang;
#X obj 637 305 threshold~ 0.5 0 0.5 0;
#X obj 181 304 status~;
#X obj 181 272 display~;
#X obj 108 394 bng 15 250 50 0 empty empty empty 17 7 0 10 -228856
-1 -1;
#X obj 76 422 timer;
#X obj 76 394 bng 15 250 50 0 empty empty empty 17 7 0 10 -228856 -1
-1;
#X obj 76 358 status;
#X obj 274 362 trig2bang~;
#X obj 359 362 trig2bang~;
#X obj 359 397 bng 15 250 50 0 empty empty empty 17 7 0 10 -228856
-1 -1;
#X obj 327 425 timer;
#X obj 327 397 bng 15 250 50 0 empty empty empty 17 7 0 10 -228856
-1 -1;
#X obj 181 390 display~;
#X obj 354 245 setdsp~ 1;
#X obj 637 244 pulse~ 1;
#X obj 697 385 timer;
#X obj 76 452 nbx 3 16 -1e+37 1e+37 0 0 empty empty empty 0 -8 0 11
-228856 -1 -1 500 256;
#X obj 327 450 nbx 8 16 -1e+37 1e+37 0 0 empty empty empty 0 -8 0 11
-228856 -1 -1 499.229 256;
#X obj 697 416 nbx 8 16 -1e+37 1e+37 0 0 empty empty empty 0 -8 0 11
-228856 -1 -1 499.229 256;
#X obj 76 303 metro 500;
#X obj 181 248 pulse~ 1;
#X obj 637 272 display~;
#X text 30 17 And here we have yet another example regarding Pd's inherent
control rate restriction., f 62;
#X text 30 58 The [status] and [status~] objects from ELSE react when
there's a 0 to non-0 transition or vice versa. Below \, to the left
\, we have a toggle that turns on and off at every 500 ms. The [timer]
reports the time between each bang and we see a perfect result: 500
ms., f 62;
#X text 57 451 ms;
#X text 308 451 ms;
#X text 162 394 ms;
#X text 30 140 Now \, on the right \, we have a pulse generator (with
[pulse~] from ELSE) alternating between 0 e 1 at every 500 ms. The
[status~] object sends an impulse at every transition and the [elapsed~]
object from ELSE also measures the time interval to the same perfect
result: 500 ms., f 62;
#X text 507 108 The issue comes when we use an object like [trig2bang~]
\, from ELSE. It generates a bang when it receives an impulse. But
there's a time precision loss because hte bang is always in sync with
audio block transitions! the same unperfect result is given by Pd's
native [threshold~] \, which reports bangs when the signal exceeds
a threshold value \, and another when it falls back below., f 62;
#X text 506 37 An impulse is when we have only a single sample value
and the rest of the signal is zero amplitudes. This is used as a sample
accurate trigger and can be thought of the audio counterpart of a bang.
;
#X obj 181 362 detect~ ms;
#X connect 0 0 20 0;
#X connect 1 0 20 1;
#X connect 2 0 24 0;
#X connect 3 0 11 0;
#X connect 4 0 2 0;
#X connect 5 0 0 0;
#X connect 5 1 1 0;
#X connect 6 0 12 0;
#X connect 6 0 35 0;
#X connect 6 1 13 0;
#X connect 6 1 35 0;
#X connect 7 0 6 0;
#X connect 8 0 9 1;
#X connect 9 0 21 0;
#X connect 10 0 9 0;
#X connect 11 0 10 0;
#X connect 11 1 8 0;
#X connect 12 0 16 0;
#X connect 13 0 14 0;
#X connect 14 0 15 1;
#X connect 15 0 22 0;
#X connect 16 0 15 0;
#X connect 19 0 26 0;
#X connect 20 0 23 0;
#X connect 24 0 3 0;
#X connect 25 0 7 0;
#X connect 26 0 5 0;
#X connect 35 0 17 0;
