#N canvas 358 38 885 735 12;
#X declare -path else;
#X obj 231 264 vsl 16 80 0 1 0 0 empty empty empty 0 -9 0 10 #dcdcdc #000000 #000000 0 1;
#X obj 116 237 *~;
#X obj 66 181 osc~ 440;
#X obj 116 286 out~;
#X obj 245 632 vsl 16 80 0 1 0 0 empty empty empty 0 -9 0 10 #dcdcdc #000000 #000000 0 1;
#X obj 127 591 *~;
#X obj 61 527 osc~ 440;
#X obj 127 640 out~;
#X text 161 155 ADSR;
#X obj 134 154 bng 21 250 50 0 empty empty empty 17 7 0 10 #dcdcdc #000000 #000000;
#X obj 134 186 envgen~ 50 1 50 0.5 500 0.5 500 0;
#X obj 231 238 s2f~;
#X obj 245 606 s2f~;
#X obj 225 24 declare -path else;
#X obj 241 468 bng 19 250 50 0 empty empty empty 0 -10 0 12 #dfdfdf #000000 #000000;
#X obj 241 497 float2imp~ 1;
#X obj 145 471 tgl 20 0 empty empty empty 17 7 0 10 #dcdcdc #000000 #000000 0 1;
#X text 173 472 gate;
#X obj 145 499 sig~;
#X text 266 469 retrigger;
#X obj 145 528 envgen~ -curve 1 -suspoint 2 50 1 50 0.5 200 0, f 28;
#X text 40 373 Now with an exponential curve and a signal "gate" input to control the sustain stage. Note that in this case you can also retrigger with an impulse in the right inlet when sustaining., f 49;
#X text 39 70 The ADSR ("Attack / Decay / Sustain / Release") has a Decay stage after the attack. Here's how it works on [envgen~] with a fixed sustain time (a "one shot" example)., f 48;
#X obj 480 295 *~;
#X obj 421 186 osc~ 440;
#X obj 480 344 out~;
#X obj 578 119 function 200 100 empty empty 0 1 220 220 220 50 50 50 0 0 0 0 0 50 1 50 0.5 500 0.5 500 0;
#X msg 578 89 0 50 1 50 0.5 500 0.5 500 0;
#X obj 498 264 envgen~;
#X obj 497 102 bng 21 250 50 0 empty empty empty 0 -10 0 12 #dfdfdf #000000 #000000;
#X obj 578 62 loadbang;
#X obj 559 610 *~;
#X obj 509 500 osc~ 440;
#X obj 559 659 out~;
#X obj 634 417 function 200 100 empty empty 0 1 220 220 220 50 50 50 0 0 0 0 0 50 1 50 0.5 500 0;
#X obj 634 360 loadbang;
#X obj 577 579 envgen~ -suspoint 2;
#X msg 634 387 0 50 1 50 0.5 500 0;
#X obj 577 432 tgl 21 0 empty empty empty 0 -10 0 12 #dfdfdf #000000 #000000 0 1;
#X text 596 269 And now for versions with [function]. A one shot above and a gated one below., f 29;
#X connect 1 0 3 0;
#X connect 2 0 1 0;
#X connect 5 0 7 0;
#X connect 6 0 5 0;
#X connect 9 0 10 0;
#X connect 10 0 1 1;
#X connect 10 0 11 0;
#X connect 11 0 0 0;
#X connect 12 0 4 0;
#X connect 14 0 15 0;
#X connect 15 0 20 1;
#X connect 16 0 18 0;
#X connect 18 0 20 0;
#X connect 20 0 5 1;
#X connect 20 0 12 0;
#X connect 23 0 25 0;
#X connect 24 0 23 0;
#X connect 26 0 28 0;
#X connect 27 0 26 0;
#X connect 28 0 23 1;
#X connect 29 0 28 0;
#X connect 30 0 27 0;
#X connect 31 0 33 0;
#X connect 32 0 31 0;
#X connect 34 0 36 0;
#X connect 35 0 37 0;
#X connect 36 0 31 1;
#X connect 37 0 34 0;
#X connect 38 0 36 0;
