#N canvas 258 72 1143 784 12;
#X declare -path else;
#X obj 612 294 *~;
#X obj 630 184 bng 21 250 50 0 empty empty empty 17 7 0 10 #dcdcdc #000000 #000000;
#X obj 612 325 out~;
#X obj 630 220 float2imp~;
#X obj 558 254 brown~;
#X floatatom 738 208 5 0 0 0 - - - 0;
#X text 729 182 'Decay';
#X obj 582 205 sig~;
#X obj 582 172 tgl 19 0 empty empty empty 0 -10 0 12 #dfdfdf #000000 #000000 0 1;
#X obj 630 258 adsr~ 0 1000 0 1000;
#X obj 864 284 *~;
#X obj 811 233 osc~ 440;
#X obj 864 324 out~;
#X obj 1061 268 tgl 19 0 empty empty empty 0 -10 0 12 #dfdfdf #000000 #000000 0 1;
#X obj 837 155 bng 21 250 50 0 empty empty empty 17 7 0 10 #dcdcdc #000000 #000000;
#X obj 882 233 adsr~ -minsus 0 50 450 0 0;
#X obj 882 188 sig~;
#X obj 882 155 tgl 21 0 empty empty empty 0 -10 0 12 #dfdfdf #000000 #000000 0 1;
#X obj 926 188 float2imp~;
#X obj 926 155 bng 21 250 50 0 empty empty empty 17 7 0 10 #dcdcdc #000000 #000000;
#X obj 640 615 *~;
#X obj 659 513 tgl 20 0 empty empty empty 17 7 0 10 #dcdcdc #000000 #000000 0 127;
#X obj 579 555 osc~ 440;
#X obj 697 520 nbx 5 14 -1e+37 1e+37 0 0 empty empty empty 0 -8 0 10 #dcdcdc #000000 #000000 0 256;
#X obj 755 520 nbx 5 14 -1e+37 1e+37 0 0 empty empty empty 0 -8 0 10 #dcdcdc #000000 #000000 0 256;
#X text 698 498 attack;
#X text 757 498 release;
#X text 627 515 gate;
#X obj 640 659 out~;
#X obj 339 23 declare -path else;
#X floatatom 659 538 4 0 0 0 - - - 0;
#X obj 659 564 adsr~ 500 0 1 250;
#X obj 150 293 *~;
#X obj 265 303 vsl 18 80 0 1 0 0 ewtwet wefwert empty 0 -9 0 10 #dcdcdc #000000 #000000 0 1;
#X text 288 372 0;
#X text 288 299 1;
#X obj 168 174 tgl 20 0 empty empty empty 17 7 0 10 #dcdcdc #000000 #000000 0 1;
#X obj 92 258 osc~ 440;
#X text 133 175 gate;
#X obj 114 651 *~;
#X obj 55 599 osc~ 440;
#X obj 114 688 out~;
#X obj 150 337 out~;
#X obj 265 275 s2f~;
#X obj 132 545 bng 21 250 50 0 empty empty empty 17 7 0 10 #dcdcdc #000000 #000000;
#X obj 168 206 sig~;
#X obj 168 241 adsr~ 100 100 0.5 250;
#X obj 132 573 float2imp~;
#X obj 219 178 bng 19 250 50 0 empty empty empty 0 -10 0 12 #dfdfdf #000000 #000000;
#X obj 219 207 float2imp~ 1;
#X text 244 179 retrigger;
#X obj 132 604 adsr~ -minsus 500 -lin 50 150 0.5 250, f 19;
#X obj 105 545 bng 21 250 50 0 empty empty empty 17 7 0 10 #dcdcdc #000000 #000000;
#X obj 361 660 *~;
#X obj 302 608 osc~ 440;
#X obj 361 688 out~;
#X obj 379 565 sig~;
#X obj 379 535 tgl 21 0 empty empty empty 0 -10 0 12 #dfdfdf #000000 #000000 0 1;
#X obj 379 596 adsr~ -minsus 500 -maxsus 500 -lin 50 150 0.5 250, f 19;
#X obj 339 558 bng 21 250 50 0 empty empty empty 17 7 0 10 #dcdcdc #000000 #000000;
#X obj 845 415 adsr.m~ 150 100 0.75 250;
#A saved 150 100 0.75 250 1 0 0 0 0 0 1 0;
#A saved;
#A saved;
#A saved;
#A saved;
#A saved;
#A saved;
#A saved;
#A saved;
#A saved;
#A saved;
#A saved;
#A saved;
#A saved;
#A saved;
#A saved;
#A saved;
#X text 819 708 The [adsr.m~] object is the MERDA version of [adsr~]. Check its help file., f 41;
#X msg 83 208 retrigger;
#X text 25 61 The [adsr~] object from ELSE is dedicated to ADSR envelopes. Check carefully the help file of [adsr~] as it's are quite high level and complex object. It works with a gate input or impulses. You can retrigger the envelope with the 'retrigger' message or an impulse in the 2nd inlet. Re-sending velocity values also retrigger it \, check the [pd mono/mono~] abstraction below., f 68;
#N canvas 165 181 685 569 mono 0;
#X obj 99 118 keyboard 17 80 4 2 1 0 empty empty;
#X obj 93 369 *~;
#X obj 208 379 vsl 18 100 0 1 0 0 ewtwet wefwert empty 0 -9 0 10 #dcdcdc #000000 #000000 0 1;
#X text 231 469 0;
#X text 231 375 1;
#X obj 93 413 out~;
#X obj 208 351 s2f~;
#X obj 111 313 adsr~ 100 100 0.5 250;
#X obj 99 260 mono;
#X obj 49 313 bl.saw~ -midi, f 7;
#X obj 328 369 *~;
#X obj 443 379 vsl 18 100 0 1 0 0 ewtwet wefwert empty 0 -9 0 10 #dcdcdc #000000 #000000 0 1;
#X text 466 467 0;
#X text 466 373 1;
#X obj 328 413 out~;
#X obj 443 351 s2f~;
#X obj 346 313 adsr~ 100 100 0.5 250;
#X obj 284 313 bl.saw~ -midi, f 7;
#X obj 330 260 mono~;
#X text 125 34 Below we have both [mono] and [mono~] retriggering the envelope. The [keyboard] GUI has the toggle mode on so you can use is as a monophonic synth by clicking on other notes while one is pressed. Do it so you can retrigger it.;
#X text 411 219 The [mono~] object has an impulse output for retriggering. The [mono] object also has a bang outlet but it is not needed for [adsr~]. Check their help files., f 35;
#X connect 0 0 8 0;
#X connect 0 0 18 0;
#X connect 1 0 5 0;
#X connect 6 0 2 0;
#X connect 7 0 1 1;
#X connect 7 0 6 0;
#X connect 8 0 9 0;
#X connect 8 1 7 0;
#X connect 9 0 1 0;
#X connect 10 0 14 0;
#X connect 15 0 11 0;
#X connect 16 0 10 1;
#X connect 16 0 15 0;
#X connect 17 0 10 0;
#X connect 18 0 17 0;
#X connect 18 1 16 0;
#X connect 18 2 16 1;
#X restore 389 295 pd mono \; mono~;
#X text 14 407 You can also use the 'minsus' message or flag to trigger it with bangs or impulses for a "one shot" example. Below to the left \, it takes 500 ms before going into the release stage. By default you have a curvature of "1". We also have a "linear" mode (which is the same as setting the curve factor to 0). You can also combine to the maximum sustain parameter and have it also triggered by a gate. Below to the right it'll go into the release stage after 500ms regardless of the gate off status. Check the help file for more details., f 73;
#X text 549 31 We've seen other simpler envelope examples and all of them were possible with [adsr~] if you ignore one or more stages. Hence \, so you can just rely on it if you will. Let's review it. Below \, we have single decay envelope that can be triggered with a gate or impulse to the left. To the right we have an attack/release envelope \, or attack/decay \, where we just set the attack and decay phases with a minimum sustain of 0 and it'll work with either impulses or gates., f 72;
#X text 588 423 For last \, here's an envelope for attack/sustain/release \, where we ignore the decay stage and set the sustain point to '1'., f 32;
#X connect 0 0 2 0;
#X connect 1 0 3 0;
#X connect 3 0 9 0;
#X connect 4 0 0 0;
#X connect 5 0 9 5;
#X connect 5 0 9 3;
#X connect 7 0 9 0;
#X connect 8 0 7 0;
#X connect 9 0 0 1;
#X connect 10 0 12 0;
#X connect 11 0 10 0;
#X connect 14 0 15 0;
#X connect 15 0 10 1;
#X connect 15 1 13 0;
#X connect 16 0 15 0;
#X connect 17 0 16 0;
#X connect 18 0 15 0;
#X connect 19 0 18 0;
#X connect 20 0 28 0;
#X connect 21 0 30 0;
#X connect 22 0 20 0;
#X connect 23 0 31 2;
#X connect 24 0 31 5;
#X connect 30 0 31 0;
#X connect 31 0 20 1;
#X connect 32 0 42 0;
#X connect 36 0 45 0;
#X connect 37 0 32 0;
#X connect 39 0 41 0;
#X connect 40 0 39 0;
#X connect 43 0 33 0;
#X connect 44 0 47 0;
#X connect 45 0 46 0;
#X connect 46 0 32 1;
#X connect 46 0 43 0;
#X connect 47 0 51 0;
#X connect 48 0 49 0;
#X connect 49 0 46 1;
#X connect 51 0 39 1;
#X connect 52 0 51 0;
#X connect 53 0 55 0;
#X connect 54 0 53 0;
#X connect 56 0 58 0;
#X connect 57 0 56 0;
#X connect 58 0 53 1;
#X connect 59 0 58 0;
#X connect 62 0 46 0;
