#N canvas 420 67 912 711 12;
#X declare -path else;
#X obj 253 39 declare -path else;
#X obj 53 351 keyboard 17 80 3 3 0 0 empty empty;
#X obj 53 492 mtof;
#X obj 53 536 osc~;
#X obj 53 580 *~;
#X obj 90 575 adsr~ 10 10 0.5 500;
#X obj 53 617 out~;
#X obj 53 455 mono 25, f 11;
#X text 48 146 First thing we need to worry is the number of voices. For a monophonic synth \, which is the most basic example \, we need a proper way to manage the monophony. This is provided by the [mono] object. Moreover \, we need a sound generator \, such as an oscillator and here we have the plainest one \, a sine wave. For last \, we need an envelope generator and here we have the most common one: an ADSR (Attack \, Decay \, Sustain \, Release)., f 50;
#X text 144 447 monophonic with a built in glide of 25 ms, f 23;
#X obj 53 309 note.in;
#X text 127 302 You can use a connected MIDI controller or the [keyboard] GUI below., f 39;
#X obj 548 402 synth~;
#X obj 458 243 keyboard 17 80 3 3 0 0 empty empty;
#X obj 458 206 note.in;
#X msg 547 369 voices 4;
#X obj 548 445 out~;
#X text 448 31 You can refer back to the examples in the 'Control' part for more details on how to manage polyphony. This is done in Vanilla with [poly] and ELSE offers [voices]. Other than this \, historically \, you needed to have different subpatches for each voice \, but the most elegant and modern way to do this now is with [clone]. The [synth~] abstraction from ELSE offers a convenient way to set a basic synthesizer and it uses [clone] to load your synths.aIt can be mono or polyphonic. By default \, it loads a quite simple internal synth as a template \, a sawtooth and and ADSR.;
#X obj 547 343 loadbang;
#X text 601 402 <-- click to open, f 9;
#X text 752 360 See also:;
#X obj 746 389 poly;
#X obj 785 389 voices;
#X obj 772 420 clone;
#X obj 500 579 *~;
#X obj 458 494 mtof~;
#X obj 518 524 adsr~ 10 10 0.5 500;
#X obj 458 452 voices~ 4;
#X obj 458 526 sine~;
#X obj 500 609 out~;
#X text 48 78 Let's start with the bare minimum to implement a basic synthesizer in Pure Data. This is mostly a review \, since the principles have already been shown in earlier examples., f 50;
#X text 163 515 see also:;
#X obj 236 516 mono~;
#X text 284 510 The signal rate version, f 12;
#X text 613 566 Another way to implement polyphony is with multichannel connections. This is possible with oscillators from ELSE and the [voices~] object., f 35;
#X connect 1 0 7 0;
#X connect 2 0 3 0;
#X connect 3 0 4 0;
#X connect 4 0 6 0;
#X connect 5 0 4 1;
#X connect 7 0 2 0;
#X connect 7 1 5 0;
#X connect 10 0 1 0;
#X connect 12 0 16 0;
#X connect 13 0 12 0;
#X connect 13 0 27 0;
#X connect 14 0 13 0;
#X connect 15 0 12 0;
#X connect 18 0 15 0;
#X connect 24 0 29 0;
#X connect 25 0 28 0;
#X connect 26 0 24 1;
#X connect 27 0 25 0;
#X connect 27 1 26 0;
#X connect 28 0 24 0;
