#N canvas 492 77 567 524 12;
#X declare -path else;
#X obj 235 408 else/out~;
#X obj 219 248 osc~ 440;
#X text 73 95 The [spread~] object \, from the ELSE library can be
used to "spread" any number of input channels across any number of
output channels with equal power panning., f 59;
#X obj 257 283 osc~ 660;
#X obj 293 317 osc~ 880;
#X obj 219 356 spread~ 3 2;
#X text 73 150 The default is two inputs sent to two outputs \, but
you can use more input sources and spread them in the stereo field.
This is better noticeable with headphones.;
#X obj 321 42 declare -path else;
#X connect 1 0 5 0;
#X connect 3 0 5 1;
#X connect 4 0 5 2;
#X connect 5 0 0 0;
#X connect 5 1 0 1;
