#N canvas 215 38 1069 751 12;
#X declare -path else;
#X obj 198 174 *~;
#X obj 298 175 hsl 128 15 0.5 2 0 0 empty empty empty -2 -8 0 10 #dcdcdc #000000 #000000 0 1;
#X obj 295 197 nbx 5 14 -1e+37 1e+37 0 0 empty empty empty 0 -8 0 10 #dcdcdc #000000 #000000 0 256;
#X obj 198 118 osc~ 400;
#X obj 412 473 catch~ \$0-out;
#X obj 198 260 throw~ \$0-out;
#X obj 412 660 out~;
#X obj 901 23 declare -path else;
#X obj 198 226 pow~;
#X obj 295 222 f2s~ 50 1;
#X obj 291 89 hsl 128 15 0 1 0 1 empty empty -2 -8 0 0 4 #dcdcdc #000000 #000000 0 0;
#X obj 288 114 nbx 5 14 -1e+37 1e+37 0 0 empty empty empty 0 -8 0 10 #dcdcdc #000000 #000000 0 256;
#X obj 288 139 f2s~ 50;
#X obj 107 542 *~;
#X obj 207 543 hsl 128 15 0.1 10 1 0 empty empty empty -2 -8 0 10 #dcdcdc #000000 #000000 0 1;
#X obj 204 565 nbx 5 14 -1e+37 1e+37 0 0 empty empty empty 0 -8 0 10 #dcdcdc #000000 #000000 0 256;
#X obj 107 486 osc~ 400;
#X obj 107 628 throw~ \$0-out;
#X text 44 588 Transfer Function, f 8;
#X obj 204 590 f2s~ 50 1;
#X obj 200 460 hsl 128 15 0 1 0 1 empty empty -2 -8 0 0 4 #dcdcdc #000000 #000000 0 0;
#X obj 197 482 nbx 5 14 -1e+37 1e+37 0 0 empty empty empty 0 -8 0 10 #dcdcdc #000000 #000000 0 256;
#X obj 197 507 f2s~ 50;
#X obj 107 594 power~;
#X obj 781 163 drive~;
#X obj 642 302 *~;
#X obj 894 253 hsl 128 15 0.1 10 1 0 empty empty empty -2 -8 0 10 #dcdcdc #000000 #000000 0 1;
#X obj 891 275 nbx 5 14 -1e+37 1e+37 0 0 empty empty empty 0 -8 0 10 #dcdcdc #000000 #000000 0 256;
#X obj 642 246 osc~ 400;
#X obj 642 380 throw~ \$0-out;
#X obj 891 300 f2s~ 50 1;
#X obj 735 220 hsl 128 15 0 1 0 1 empty empty -2 -8 0 0 4 #dcdcdc #000000 #000000 0 0;
#X obj 732 242 nbx 5 14 -1e+37 1e+37 0 0 empty empty empty 0 -8 0 10 #dcdcdc #000000 #000000 0 256;
#X obj 732 267 f2s~ 50;
#X obj 642 334 expr~ if($v1 > 0 \, 1 - pow(1. - $v1 \, $v2) \, pow(1. + $v1 \, $v2) - 1.), f 36;
#X text 848 160 <= check its help file, f 12;
#X text 905 333 Transfer Function, f 8;
#X obj 44 700 expr~ copysign(pow(abs($v1) \, $v2) \, $v1);
#X text 27 672 Here's a way to implement [power~] in [expr~];
#X obj 668 607 expr~ if(abs($v1) <= $v2 \, $v1 \, copysign((1-($v2*($v2-2)+1) / (abs($v1)-2*$v2+1)) \, $v1)), f 30;
#X text 620 68 Check also the [drive~] object from ELSE. It has three modes of waveshaping distortion \, mode 0 is the 'tanh' function presented earlier. Mode 1 is another power function described in the equation below., f 54;
#X obj 668 671 throw~ \$0-out;
#X obj 907 583 hsl 128 15 0.1 10 1 0 empty empty empty -2 -8 0 10 #dcdcdc #000000 #000000 0 1;
#X obj 904 605 nbx 5 14 -1e+37 1e+37 0 0 empty empty empty 0 -8 0 10 #dcdcdc #000000 #000000 0 256;
#X obj 904 630 f2s~ 50 1;
#X obj 668 527 osc~ 400;
#X obj 668 563 *~;
#X obj 750 526 hsl 128 15 0 1 0 0 empty empty empty -2 -8 0 10 #dcdcdc #000000 #000000 0 1;
#X obj 747 548 nbx 5 14 -1e+37 1e+37 0 0 empty empty empty 0 -8 0 10 #dcdcdc #000000 #000000 0 256;
#X obj 747 573 f2s~ 50;
#X text 649 426 Mode 2 of [drive~] is the same as the [expr~] equation below \, the drive factor sets a threshold (and is limited from 0 to 1). Absolute input values below the threshold are passed through while others are soft clipped. When set to 1 \, any input above 1 or below -1 is hard clipped., f 56;
#X obj 412 506 graph~;
#X text 24 14 We can also use many different kinds of functions that alter the shape of a sound and modify the shape in different ways. These may not be transfer functions \, but can be considered a kind of waveshaper. Let's start with a power function \, which could be implemented via a lookup or transfer function., f 70;
#X text 36 299 A power function would originally give us a 'nan' (Not a Number) if a negative signal 'a' is raised by a non integer exponent 'b'. here we have [pow~] \, which gives us "0" instead. For the case of integer exponentials \, the negative values become positive. Below \, the [power~] object from ELSE gives us -pow(-a \, b) in the case of a negative input \, which extends the usual definition of exponentiation and allows exponentiation of negative signal values \, which makes it a sort of power function waveshaper. Try also [power~] with samples and live input. Exponential values below 1 and towards zero result in a harsh distortion., f 74;
#X connect 0 0 8 0;
#X connect 1 0 2 0;
#X connect 2 0 9 0;
#X connect 3 0 0 0;
#X connect 4 0 51 0;
#X connect 8 0 5 0;
#X connect 9 0 8 1;
#X connect 10 0 11 0;
#X connect 11 0 12 0;
#X connect 12 0 0 1;
#X connect 13 0 23 0;
#X connect 14 0 15 0;
#X connect 15 0 19 0;
#X connect 16 0 13 0;
#X connect 19 0 23 1;
#X connect 20 0 21 0;
#X connect 21 0 22 0;
#X connect 22 0 13 1;
#X connect 23 0 17 0;
#X connect 25 0 34 0;
#X connect 26 0 27 0;
#X connect 27 0 30 0;
#X connect 28 0 25 0;
#X connect 30 0 34 1;
#X connect 31 0 32 0;
#X connect 32 0 33 0;
#X connect 33 0 25 1;
#X connect 34 0 29 0;
#X connect 39 0 41 0;
#X connect 42 0 43 0;
#X connect 43 0 44 0;
#X connect 44 0 39 1;
#X connect 45 0 46 0;
#X connect 46 0 39 0;
#X connect 47 0 48 0;
#X connect 48 0 49 0;
#X connect 49 0 46 1;
#X connect 51 0 6 0;
