#N canvas 478 38 563 512 12;
#X declare -path else;
#N canvas 786 159 450 300 sequencer 0;
#X obj 195 193 mtof;
#X obj 72 132 metro 200;
#N canvas 0 22 450 300 (subpatch) 0;
#X array sequencer 16 float 3;
#A 0 -6 -8 -8 -3 -8 1 4 4 -3 -5 -5 -1 2 6 7 7;
#A color 0;
#A width 2;
#X coords 0 12 16 -12 100 70 1;
#X restore 223 104 graph;
#X obj 72 193 v i;
#X obj 195 221 outlet;
#X obj 72 107 inlet;
#X obj 72 155 expr (i + 1) % 16 \; sequencer[i] + 46;
#X connect 0 0 4 0;
#X connect 1 0 6 0;
#X connect 5 0 1 0;
#X connect 6 0 3 0;
#X connect 6 1 0 0;
#X restore 172 185 pd sequencer;
#X obj 172 151 tgl 21 0 empty empty empty 17 7 0 10 #dcdcdc #000000 #000000 0 1;
#X obj 186 258 out~;
#X obj 343 19 declare -path else;
#X obj 170 339 graph~ 441 10 -1 1 200 140 #dfdfdf 0 1;
#X text 61 63 This is an abstraction from ELSE and a waveform that was introduced in a Moog synth that is known as a "shark-tooth" wave. It is a mixture \, or hybrid of a sawtooth and a triangular wave. It sits in between and is less bright than a sawtooth., f 63;
#X obj 171 225 shark~ 125;
#X connect 0 0 6 0;
#X connect 1 0 0 0;
#X connect 6 0 2 0;
#X connect 6 0 4 0;
