#N canvas 380 138 969 575 12;
#X obj 171 141 namecanvas \$0-Oswaldo;
#X text 35 22 The [namecanvas] object allows you to give name to a
patch's canvas (the patch window where the object is). This is more
useful for the main patch window \, where you can give it a name with
the locality variable (\$0) and open multiple instances of the patch.
For subpatches \, we've seen how we can just give it names with the
local variable \, so this is not needed.;
#X text 47 184 This canvas is named "\$0-Oswaldo" by the above [namecanvas]
object. In the subpatch below there's another \, check it.;
#X msg 149 302 vis \$1;
#X obj 149 273 tgl 15 0 empty empty empty 17 7 0 10 -228856 -1 -1 0
1;
#X text 174 271 Open/Close;
#X text 341 376 <= create object;
#X msg 195 377 obj 50 50 metro 100;
#X obj 149 409 send \$0-Oswaldo;
#X connect 3 0 8 0;
#X connect 4 0 3 0;
#X connect 7 0 8 0;
