#N canvas 382 41 933 477 12;
#X obj 115 221 pgmin;
#X obj 109 197 bendin;
#X obj 101 247 touchin;
#X obj 73 273 polytouchin;
#X obj 224 396 midiin;
#X obj 164 148 noteout;
#X obj 164 172 ctlout;
#X obj 164 197 bendout;
#X obj 165 247 touchout;
#X obj 165 273 polytouchout;
#X obj 219 431 midiout;
#X obj 165 222 pgmout;
#X obj 109 148 notein;
#X obj 115 172 ctlin;
#X text 265 222 Program;
#X text 266 248 Aftertouch;
#X obj 136 332 sysexin;
#X obj 94 307 midirealtimein;
#X text 191 332 sysex;
#X text 264 197 Pitch Bend;
#X text 651 249 Program;
#X text 650 219 Pitch Bend;
#X obj 513 161 note.in;
#X obj 519 191 ctl.in;
#X obj 513 219 bend.in;
#X obj 519 248 pgm.in;
#X obj 507 281 touch.in;
#X obj 574 281 touch.out;
#X obj 574 249 pgm.out;
#X obj 573 219 bend.out;
#X obj 574 191 ctl.out;
#X obj 573 162 note.out;
#X obj 575 310 sysrt.in;
#X text 27 15 Pd has several nastive objects that deal with MIDI. We
only used [notein] nd MIDI note messages in this series \, but there
are many other MIDI messages we could use to control a patch. Conversely
\, we can create and maniplate MIDI data in a patch and send it out
with MIDI out objects., f 56;
#X text 27 105 Here are Pd native objects for MIDI separated into MIDI
message type., f 56;
#X text 265 148 Note;
#X text 264 171 Control;
#X text 266 272 Poliphonic Aftertouch;
#X text 66 384 There are also MIDI objects that deal with raw MIDI
data:, f 20;
#X text 198 307 MIDI system and MIDI real-time input;
#X text 278 383 all types but system/real time & sysex, f 14;
#X text 471 23 The ELSE library also has MIDI objects \, but they receive
and send raw MIDI data. This means they need [midiin] and [midiout]
objects.;
#X text 652 282 Aftertouch (channel & polyphonic);
#X text 651 310 system & real-time, f 20;
#X text 650 190 Control;
#X text 651 162 Notes;
#X text 471 74 They offer advantages/conveneiences like allowing to
change the MIDI channel in which messages are coming through. In some
cases there are also more functionalities than the native counterparts
\, such as the ability to deal with release velocity in [note.in] /
[note.out]., f 60;
#X text 481 354 The fact that these objects deal with raw MIDI also
makes them useful to write and read MIDI data from the [midi] object
\, also provided in the ELSE library. We'll see that in the next section.
;
