#N canvas 409 60 869 477 12;
#X text 156 205 Hz_1;
#N canvas 118 110 772 482 Cross_Phase_Modulation 0;
#X obj 199 80 inlet~;
#X obj 252 79 inlet~;
#X obj 75 79 inlet~;
#X obj 130 79 inlet~;
#X obj 199 387 outlet~;
#X obj 328 232 block~ 1;
#X obj 112 213 *~;
#X text 76 58 Hz_1;
#X text 128 58 índice_1;
#X text 202 55 Hz_2;
#X obj 221 311 cnv 15 160 40 empty empty empty 20 12 0 14 -233017 -66577
0;
#X obj 226 322 delwrite~ \$0-pm_fb 1;
#X obj 271 134 cnv 15 150 40 empty empty empty 20 12 0 14 -233017 -66577
0;
#X obj 276 143 delread~ \$0-pm_fb 0;
#X text 298 115 feedback;
#X obj 75 387 outlet~;
#X obj 199 271 sine~;
#X obj 75 151 sine~;
#X text 248 53 index_2 (feedback);
#X obj 234 208 *~;
#X connect 0 0 16 0;
#X connect 1 0 19 1;
#X connect 2 0 17 0;
#X connect 3 0 6 1;
#X connect 6 0 16 2;
#X connect 13 0 19 0;
#X connect 16 0 4 0;
#X connect 16 0 11 0;
#X connect 17 0 6 0;
#X connect 17 0 15 0;
#X connect 19 0 17 2;
#X restore 153 333 pd Cross_Phase_Modulation;
#X obj 569 179 hsl 128 15 1 10000 1 0 empty fb1 empty -2 -8 0 10 -228856
-1 -1 8800 1;
#X obj 566 206 nbx 5 14 -1e+37 1e+37 0 0 empty empty empty 0 -8 0 10
-228856 -1 -1 591.09 256;
#X obj 552 151 nbx 5 14 -1e+37 1e+37 0 0 empty Hz1 empty 0 -8 0 10
-228856 -1 -1 51 256;
#X text 560 132 Hz_1;
#X obj 720 198 hsl 128 15 1 10000 1 0 empty fb2 empty -2 -8 0 10 -191407
-1 -1 9750 1;
#X obj 717 225 nbx 5 14 -1e+37 1e+37 0 0 empty empty empty 0 -8 0 10
-191407 -1 -1 1135.32 256;
#X obj 719 162 nbx 5 14 -1e+37 1e+37 0 0 empty Hz2 empty 0 -8 0 10
-191407 -1 -1 270.58 256;
#X text 727 143 Hz_2;
#N canvas 388 115 507 446 Cross_Freq_Modulation 0;
#X obj 209 68 inlet~;
#X obj 262 67 inlet~;
#X obj 85 67 inlet~;
#X obj 140 67 inlet~;
#X obj 191 375 outlet~;
#X obj 338 220 block~ 1;
#X obj 122 195 *~;
#X text 86 46 Hz_1;
#X text 138 46 índice_1;
#X text 212 44 Hz_2;
#X obj 213 299 cnv 15 160 40 empty empty empty 20 12 0 14 -233017 -66577
0;
#X obj 281 122 cnv 15 150 40 empty empty empty 20 12 0 14 -233017 -66577
0;
#X text 308 103 feedback;
#X obj 85 375 outlet~;
#X obj 191 265 sine~;
#X obj 85 139 sine~;
#X text 259 44 index_2 (feedback);
#X obj 244 196 *~;
#X obj 191 238 +~;
#X obj 85 109 +~;
#X obj 286 131 delread~ \$0-fm_fb 0;
#X obj 218 310 delwrite~ \$0-fm_fb 1;
#X connect 0 0 18 1;
#X connect 1 0 17 1;
#X connect 2 0 19 0;
#X connect 3 0 6 1;
#X connect 6 0 18 0;
#X connect 14 0 4 0;
#X connect 14 0 21 0;
#X connect 15 0 6 0;
#X connect 15 0 13 0;
#X connect 17 0 19 1;
#X connect 18 0 14 0;
#X connect 19 0 15 0;
#X connect 20 0 17 0;
#X restore 552 250 pd Cross_Freq_Modulation;
#X obj 213 198 hsl 128 15 0.01 1 1 0 empty index1 empty -2 -8 0 10
-228856 -1 -1 9380 1;
#X obj 210 225 nbx 5 14 -1e+37 1e+37 0 0 empty empty empty 0 -8 0 10
-228856 -1 -1 0.3 256;
#X obj 153 225 nbx 4 14 -1e+37 1e+37 0 0 empty freq1 empty 0 -8 0 10
-228856 -1 -1 150 256;
#X obj 328 231 hsl 128 15 0.01 1 1 0 empty index2 empty -2 -8 0 10
-228856 -1 -1 8262 1;
#X obj 325 258 nbx 5 14 -1e+37 1e+37 0 0 empty empty empty 0 -8 0 10
-228856 -1 -1 0.2 256;
#X obj 267 245 nbx 4 14 -1e+37 1e+37 0 0 empty freq2 empty 0 -8 0 10
-228856 -1 -1 250 256;
#X text 274 224 Hz_2;
#X obj 593 302 out~;
#X obj 210 383 out~;
#X obj 430 298 initmess \; Hz1 200 \; index1 0.3 \; Hz2 300 \; index2
0.2 \; freq1 150 \; freq2 250 \; fb1 100 \; fb2 100;
#X text 54 24 This is basically the same as the last example \, but
we get the output of both oscillators instead. Now we can't use [pmosc~]
to implement this \, we need two [sine~] objects and get the audio
signal from both \, and not just the signal we feed to the delay line
as the output., f 55;
#X text 54 116 This implies we have a stereo output. Open the subpacth
below to check out how to implement this and see also the [xmod~] object
\, from ELSE \, which does the exact same thing., f 55;
#X obj 89 325 xmod~;
#X obj 78 383 out~;
#X text 241 197 index_1;
#X text 359 230 index_2;
#X text 538 56 We can also fool around and implement a cross frequency
modulation patch. Here's the adaptation., f 40;
#X text 597 178 index_1;
#X text 748 197 index_2;
#X connect 1 0 19 0;
#X connect 1 1 19 1;
#X connect 2 0 3 0;
#X connect 3 0 10 1;
#X connect 4 0 10 0;
#X connect 6 0 7 0;
#X connect 7 0 10 3;
#X connect 8 0 10 2;
#X connect 10 0 18 0;
#X connect 10 1 18 1;
#X connect 11 0 12 0;
#X connect 12 0 1 1;
#X connect 12 0 23 1;
#X connect 13 0 1 0;
#X connect 13 0 23 0;
#X connect 14 0 15 0;
#X connect 15 0 1 3;
#X connect 15 0 23 3;
#X connect 16 0 1 2;
#X connect 16 0 23 2;
#X connect 23 0 24 0;
#X connect 23 1 24 1;
