#N canvas 355 43 961 534 12;
#X obj 52 336 else/graph~ 230 48;
#X obj 150 192 hsl 128 15 0 1 0 0 empty empty empty -2 -8 0 10 -228856
-1 -1 0 1;
#X obj 147 214 nbx 9 14 -1e+37 1e+37 0 0 empty empty empty 0 -8 0 10
-228856 -1 -1 0 256;
#X text 29 468 -1;
#X text 34 401 0;
#X text 34 332 1;
#X obj 52 237 quantizer~ 0.1;
#X obj 366 304 display;
#X obj 366 335 / 2;
#X obj 366 361 display;
#X obj 366 391 expr 1 / $f1;
#X obj 366 416 display;
#X obj 366 254 nbx 3 16 1 16 0 0 empty empty empty 0 -8 0 11 -228856
-1 -1 1 256;
#X obj 366 446 s \$0-step;
#X obj 147 167 r \$0-step;
#X msg 366 219 8;
#X msg 335 219 16;
#X obj 65 275 out~;
#X obj 52 205 osc~ 440;
#X msg 399 219 4;
#X text 414 255 bits;
#X floatatom 628 150 0 1 10000 0 - - -;
#X obj 631 129 hsl 128 15 0 1 0 0 empty empty empty -2 -8 0 10 -228856
-1 -1 0 1;
#X floatatom 693 182 0 1 10000 0 - - -;
#X obj 696 161 hsl 128 15 0 1 0 0 empty empty empty -2 -8 0 10 -228856
-1 -1 0 1;
#X obj 559 258 else/out~;
#X obj 558 143 osc~ 100;
#X obj 670 222 else/graph~ 143 50;
#X obj 558 121 nbx 5 14 -1e+37 1e+37 0 0 empty empty empty 0 -8 0 10
-228856 -1 -1 0 256;
#X obj 602 184 crusher~;
#X text 21 29 With a simple rounding process \, we can simulate a bit
depth reduction. This adds noise and reduces the dynamic range and
is known as a "bit-crusher" effecr \, used as a type of distortion.
, f 64;
#X text 21 80 The [quantizer~] object \, from ELSE \, performs different
types of rounding and can be used for this. It receives a step value
and rounds to multiples of it. In this example \, we find a step value
according to a bit depth resolution., f 64;
#X obj 366 279 expr pow(2 \, $f1);
#X text 513 36 Another external from ELSE \, [crusher~] \, is an abstraction
based on [quantizer~] and [downsample~] \, because it is common that
a Bit Crushing effect is used in conjunction with decimation and vice
versa.;
#X text 558 394 the parameters vary from 0 to 1 \, where 0 is the original
sound and the higher the parameter is \, the more crushing/decimation
we have., f 50;
#X text 649 127 crush (0-1);
#X text 709 160 decimate (0-1);
#X connect 1 0 2 0;
#X connect 2 0 6 1;
#X connect 6 0 0 0;
#X connect 6 0 17 0;
#X connect 6 0 17 1;
#X connect 7 0 8 0;
#X connect 8 0 9 0;
#X connect 9 0 10 0;
#X connect 10 0 11 0;
#X connect 11 0 13 0;
#X connect 12 0 32 0;
#X connect 14 0 1 0;
#X connect 15 0 12 0;
#X connect 16 0 12 0;
#X connect 18 0 6 0;
#X connect 19 0 12 0;
#X connect 21 0 29 1;
#X connect 22 0 21 0;
#X connect 23 0 29 2;
#X connect 24 0 23 0;
#X connect 26 0 29 0;
#X connect 28 0 26 0;
#X connect 29 0 25 0;
#X connect 29 0 25 1;
#X connect 29 0 27 0;
#X connect 32 0 7 0;
