#N canvas 526 128 454 589 12;
#X declare -lib else;
#X obj 119 178 osc~ 440;
#X obj 142 32 declare -lib else;
#X obj 147 390 osc~ 440;
#X obj 105 431 out4~;
#X obj 286 390 osc~ 440;
#X obj 246 431 out8~;
#X text 105 495 quadraphonic;
#X text 264 491 octaphonic;
#X obj 119 219 out2~;
#X text 279 174 stereo input;
#X obj 206 178 osc~ 660;
#X text 93 113 The else library also offers [out2~] for stereo inputs.
, f 36;
#X text 75 308 There are also [out4~] and [out8~] for quadraphonic
and octaphonic input/output setups., f 40;
#X connect 0 0 8 0;
#X connect 2 0 3 0;
#X connect 2 0 3 1;
#X connect 2 0 3 2;
#X connect 2 0 3 3;
#X connect 4 0 5 0;
#X connect 4 0 5 1;
#X connect 4 0 5 2;
#X connect 4 0 5 3;
#X connect 4 0 5 4;
#X connect 4 0 5 5;
#X connect 4 0 5 6;
#X connect 4 0 5 7;
#X connect 10 0 8 1;
