#N canvas 387 92 454 589 12;
#X declare -path else;
#X obj 119 178 osc~ 440;
#X obj 142 32 declare -path else;
#X obj 119 219 out1~;
#X obj 147 427 osc~ 440;
#X obj 107 468 out4~;
#X obj 286 427 osc~ 440;
#X obj 246 468 out8~;
#X text 91 77 The else library also offers [out1~] for mono outputs.
In this case you can specify the channel output number with the -ch
flag \, the default is [dac~ 1]., f 43;
#X obj 248 178 osc~ 440;
#X obj 248 219 out1~ -ch 2;
#X text 132 283 [dac~ 1];
#X text 271 281 [dac~ 2];
#X text 94 329 There are also [out4~] and [out8~] for quadraphonic
and octaphonic setups., f 34;
#X text 107 532 quadraphonic;
#X text 264 528 octaphonic;
#X connect 0 0 2 0;
#X connect 3 0 4 0;
#X connect 3 0 4 1;
#X connect 3 0 4 2;
#X connect 3 0 4 3;
#X connect 5 0 6 0;
#X connect 5 0 6 1;
#X connect 5 0 6 2;
#X connect 5 0 6 3;
#X connect 5 0 6 4;
#X connect 5 0 6 5;
#X connect 5 0 6 6;
#X connect 5 0 6 7;
#X connect 8 0 9 0;
