#N canvas 594 23 570 657 12;
#X text 59 34 The bandwidth and Q of a resonant filter also specifies
a decay time (a.k.a "damping time" or "ring time"). The "t60" is a
measure of the decay time \, and is the time it takes for the impulse
signal to drop 60dB. Here's how to convert bandwidth to t60 and vice
versa. We start by gtting the bandwidth from central frequency and
Q.;
#X obj 232 249 / 1000;
#X obj 232 303 expr log(1000) / ($f1 * pi);
#X obj 232 274 nbx 5 14 -1e+37 1e+37 0 0 empty empty empty 0 -8 0 10
-228856 -1 -1 0 256;
#X text 291 275 decay time in seconds;
#X obj 232 332 nbx 5 14 -1e+37 1e+37 0 0 empty empty empty 0 -8 0 10
-228856 -1 -1 0 256;
#X text 294 331 bandwidth in hertz;
#X obj 214 361 /;
#X obj 151 276 nbx 5 14 -1e+37 1e+37 0 0 empty empty empty 0 -8 0 10
-228856 -1 -1 1000 256;
#X obj 214 387 nbx 5 14 -1e+37 1e+37 0 0 empty empty empty 0 -8 0 10
-228856 -1 -1 0 256;
#X text 273 385 Q;
#X obj 151 201 nbx 5 14 -1e+37 1e+37 0 0 empty empty empty 0 -8 0 10
-228856 -1 -1 0 256;
#X text 209 200 decay time in miliseconds;
#X text 100 276 center;
#X text 89 296 frequency;
#X obj 196 424 /;
#X obj 196 450 nbx 5 14 -1e+37 1e+37 0 0 empty empty empty 0 -8 0 10
-228856 -1 -1 0 256;
#X obj 182 335 t f f;
#X text 257 447 bandwidth in hertz;
#X obj 196 478 expr log(1000) / ($f1 * pi);
#X obj 196 508 nbx 5 14 -1e+37 1e+37 0 0 empty empty empty 0 -8 0 10
-228856 -1 -1 0 256;
#X text 255 509 decay time in seconds;
#X obj 196 530 * 1000;
#X obj 196 555 nbx 5 14 -1e+37 1e+37 0 0 empty empty empty 0 -8 0 10
-228856 -1 -1 0 256;
#X text 254 554 decay time in miliseconds;
#X obj 69 215 loadbang;
#X msg 69 239 set 1000;
#X msg 151 177 2000;
#X obj 151 153 bng 17 250 50 0 empty empty empty 17 7 0 10 -228856
-1 -1;
#X obj 340 401 v pi;
#X obj 340 375 pi;
#X obj 151 224 t b f;
#X connect 1 0 3 0;
#X connect 2 0 5 0;
#X connect 3 0 2 0;
#X connect 5 0 7 1;
#X connect 7 0 9 0;
#X connect 8 0 17 0;
#X connect 9 0 15 1;
#X connect 11 0 31 0;
#X connect 15 0 16 0;
#X connect 16 0 19 0;
#X connect 17 0 15 0;
#X connect 17 1 7 0;
#X connect 19 0 20 0;
#X connect 20 0 22 0;
#X connect 22 0 23 0;
#X connect 25 0 26 0;
#X connect 26 0 8 0;
#X connect 27 0 11 0;
#X connect 28 0 27 0;
#X connect 30 0 29 0;
#X connect 31 0 8 0;
#X connect 31 1 1 0;
