#N canvas 521 111 594 674 12;
#X obj 157 132 hsl 128 15 1 1000 1 0 empty index1 empty -2 -8 0 10
-228856 -1 -1 8467 1;
#X obj 154 159 nbx 5 14 -1e+37 1e+37 0 0 empty empty empty 0 -8 0 10
-228856 -1 -1 100 256;
#X obj 89 158 nbx 5 14 -1e+37 1e+37 0 0 empty freq1 empty 0 -8 0 10
-228856 -1 -1 150 256;
#X obj 380 132 hsl 128 15 1 1000 1 0 empty index2 empty -2 -8 0 10
-191407 -1 -1 8467 1;
#X obj 377 159 nbx 5 14 -1e+37 1e+37 0 0 empty empty empty 0 -8 0 10
-191407 -1 -1 100 256;
#X obj 310 158 nbx 5 14 -1e+37 1e+37 0 0 empty freq2 empty 0 -8 0 10
-191407 -1 -1 250 256;
#X obj 129 283 else/out~;
#X obj 321 278 else/out~;
#X text 407 131 index 2;
#X text 185 131 index 1;
#X text 97 139 Freq 1;
#X text 318 139 Freq 2;
#N canvas 1033 154 475 470 Cross_Freq_Modulation 0;
#X obj 275 47 inlet~;
#X obj 339 47 inlet~;
#X obj 41 46 inlet~;
#X obj 110 46 inlet~;
#X obj 260 424 outlet~;
#X obj 370 227 block~ 1;
#X obj 95 230 *~;
#X obj 324 333 *~;
#X obj 125 95 cnv 15 130 30 empty empty empty 20 12 0 14 -233017 -66577
0;
#X text 140 75 feedback;
#X obj 41 414 outlet~;
#X obj 41 168 else/sine~;
#X obj 260 289 else/sine~;
#X text 108 25 index 1;
#X text 335 21 index 2;
#X text 278 22 freq 2;
#X text 42 25 freq 1;
#X obj 131 103 delread~ \$0-fm_fb 0;
#X obj 260 262 +~;
#X obj 41 139 +~;
#X obj 316 363 cnv 15 140 30 empty empty empty 20 12 0 14 -233017 -66577
0;
#X obj 324 370 delwrite~ \$0-fm_fb 1;
#X connect 0 0 18 1;
#X connect 1 0 7 1;
#X connect 2 0 19 0;
#X connect 3 0 6 1;
#X connect 6 0 18 0;
#X connect 7 0 21 0;
#X connect 11 0 6 0;
#X connect 11 0 10 0;
#X connect 12 0 7 0;
#X connect 12 0 4 0;
#X connect 17 0 19 1;
#X connect 18 0 12 0;
#X connect 19 0 11 0;
#X restore 99 238 pd Cross_Freq_Modulation;
#X obj 310 238 else/xmod~;
#X obj 450 222 initmess \; freq1 150 \; freq2 250 \; index1 100 \;
index2 100;
#X text 98 37 This is a variant that implements frequency modulation
instead. The [xmod~] object from ELSE is also used for that and you
can check its help file for more details.;
#X text 108 394 the [xmod2~] object from ELSE also implements cross
freequency modulation \, but uses a different and cheap sine waveform
that promotes more chaotic and cool sounds., f 53;
#X obj 244 577 out~;
#X obj 188 493 nbx 5 14 -1e+37 1e+37 0 0 empty empty empty 0 -8 0 10
-228856 -1 -1 0 256;
#X obj 250 493 nbx 5 14 -1e+37 1e+37 0 0 empty empty empty 0 -8 0 10
-228856 -1 -1 0 256;
#X obj 312 493 nbx 5 14 -1e+37 1e+37 0 0 empty empty empty 0 -8 0 10
-228856 -1 -1 0 256;
#X obj 374 493 nbx 5 14 -1e+37 1e+37 0 0 empty empty empty 0 -8 0 10
-228856 -1 -1 0 256;
#X text 193 474 freq1;
#X text 251 473 index1;
#X text 317 473 freq2;
#X text 378 473 index2;
#X obj 188 527 else/xmod2~ 170 555 120 666;
#X connect 0 0 1 0;
#X connect 1 0 12 1;
#X connect 1 0 13 1;
#X connect 2 0 12 0;
#X connect 2 0 13 0;
#X connect 3 0 4 0;
#X connect 4 0 12 3;
#X connect 4 0 13 3;
#X connect 5 0 12 2;
#X connect 5 0 13 2;
#X connect 12 0 6 0;
#X connect 12 1 6 1;
#X connect 13 0 7 0;
#X connect 13 1 7 1;
#X connect 18 0 26 0;
#X connect 19 0 26 1;
#X connect 20 0 26 2;
#X connect 21 0 26 3;
#X connect 26 0 17 0;
#X connect 26 1 17 1;
