#N canvas 381 84 963 372 12;
#X obj 193 224 table \$0-buffer;
#X obj 39 224 soundfiler;
#X obj 371 197 phasor~;
#X obj 371 274 out~;
#X msg 106 252 \$1;
#X obj 402 168 r \$0-hz;
#X obj 39 306 s \$0-hz;
#X obj 371 168 *~;
#X obj 39 280 /;
#X obj 39 255 swap;
#X obj 39 185 initmess read -resize ../../../samples/violin.wav \$0-buffer
, f 37;
#X obj 371 234 table~ \$0-buffer;
#X obj 371 132 display~ 8;
#X text 442 136 Ratio;
#X obj 371 40 rampnoise~ 0.25;
#X obj 371 71 *~ 3;
#X text 30 117 The ratio is now controlled by a random ramp generator.
, f 42;
#X obj 556 242 player~ ../../../samples/violin.wav 1 1;
#X obj 648 279 out~;
#X msg 556 212 speed \$1;
#X obj 556 191 nbx 4 14 -1e+37 1e+37 0 0 empty empty empty 0 -8 0 10
-228856 -1 -1 -273.467 256;
#X obj 556 140 sig2float~;
#X obj 556 166 * 100;
#X text 522 22 But even much more convenient is the [player~] object
from ELSE. This is an abstraction that relyes on [tabread4~]. Like
sampler \, it has multi channel support and can query the number of
channels from a sound file given as an argument (a stereo file in this
example). Check its help file for more details and features., f 59
;
#X text 30 38 In this example we use [table~] from the ELSE library.
One advantage that makes it simpler is that we don't need to bother
multiplying the output of [phasor~] \, as the index input is mapped
from 0 to 1!, f 42;
#X connect 1 0 9 0;
#X connect 1 1 4 0;
#X connect 2 0 11 0;
#X connect 4 0 9 1;
#X connect 5 0 7 1;
#X connect 7 0 2 0;
#X connect 8 0 6 0;
#X connect 9 0 8 0;
#X connect 9 1 8 1;
#X connect 10 0 1 0;
#X connect 11 0 3 0;
#X connect 11 0 3 1;
#X connect 12 0 7 0;
#X connect 14 0 15 0;
#X connect 15 0 12 0;
#X connect 15 0 21 0;
#X connect 17 0 18 0;
#X connect 17 1 18 1;
#X connect 19 0 17 0;
#X connect 20 0 19 0;
#X connect 21 0 22 0;
#X connect 22 0 20 0;
