#N canvas 423 38 682 779 12;
#X declare -path else;
#X obj 383 279 declare -path else;
#X obj 177 171 else/keyboard 17 80 3 2 0 0 empty empty;
#X obj 293 389 decay~ 2000;
#X obj 386 372 adsr~ 25 25 0.5 500;
#X obj 177 521 snake~ in;
#X obj 237 445 *~ 0.5;
#X obj 293 459 +~ 500;
#X obj 368 625 *~;
#X obj 368 659 out.mc~;
#X obj 293 435 *~ 5000;
#X obj 256 560 moog~ 500 0.6 0.5;
#X obj 177 340 mtof~;
#X obj 217 374 *~ 0.5;
#X obj 217 398 +~ 0.5;
#X obj 177 477 xmod~ -pm 0 0.1 0 0, f 9;
#X obj 177 286 mono~ 25, f 17;
#X connect 1 0 15 0;
#X connect 2 0 5 0;
#X connect 2 0 9 0;
#X connect 3 0 7 1;
#X connect 4 0 10 0;
#X connect 5 0 14 3;
#X connect 6 0 10 1;
#X connect 7 0 8 0;
#X connect 9 0 6 0;
#X connect 10 0 7 0;
#X connect 11 0 12 0;
#X connect 11 0 14 0;
#X connect 12 0 13 0;
#X connect 13 0 14 2;
#X connect 14 0 4 0;
#X connect 14 1 4 1;
#X connect 15 0 11 0;
#X connect 15 1 3 0;
#X connect 15 2 2 0;
