#N canvas 386 89 921 429 12;
#X obj 226 90 pinknoise~;
#X obj 226 130 out~;
#X obj 191 339 out~;
#X obj 191 299 brown~;
#X obj 100 130 out~;
#X obj 100 90 noise~;
#X obj 623 72 gray~;
#X obj 623 109 out~;
#X obj 594 266 crackle~;
#X obj 607 290 gbman~;
#X obj 607 315 henon~;
#X obj 607 338 ikeda~;
#X obj 621 363 latoocarfian~;
#X obj 615 243 cusp~;
#X obj 659 244 lorenz~;
#X obj 659 266 standard~;
#X obj 659 290 lincong~;
#X obj 659 314 quad~;
#X obj 659 338 logistic~;
#X text 25 12 The [pinknoise~] object from ELSE is a pink noise generator.
Unlike white noise \, pink noise has a decay of energy in the higher
frequency range. It falls about 3 dB per octave. Compare both below.
;
#X text 30 214 The [brown~] object from ELSE has a higher decay of
6 dB per octave. This name is not from a color analogy \, and this
type of noise is also known as "brownian noise" \, as it is produced
by brownian motion. The term red noise is also used for a color analogy.
, f 62;
#X text 477 19 The [gray~] object from ELSE is not to be confused with
"grey" \, and it comes from "gray code" \, which bits randomly.;
#X text 491 179 The ELSE library has also many other noise and chaotic
or stochastic generators. The ones below are chaotic map attractors.
Check the help file for more details., f 54;
#X connect 0 0 1 0;
#X connect 0 0 1 1;
#X connect 3 0 2 0;
#X connect 3 0 2 1;
#X connect 5 0 4 0;
#X connect 5 0 4 1;
#X connect 6 0 7 0;
#X connect 6 0 7 1;
