#N canvas 453 23 454 366 12;
#X obj 143 141 sig~ 100;
#X obj 157 204 svfilter~ 1000 1;
#X obj 157 241 xselect~ 4 100 1;
#X obj 148 272 out~;
#X obj 143 169 bl.saw~;
#X obj 214 150 hsl 160 15 500 5000 0 0 empty empty empty -2 -8 0 10
-228856 -1 -1 0 1;
#X obj 106 108 vradio 15 1 0 4 empty empty empty 0 -8 0 10 -228856
-1 -1 3;
#X text 50 107 lowpass;
#X text 44 123 highpass;
#X text 44 138 bandpass;
#X obj 283 177 hsl 128 15 0 1 0 0 empty empty empty -2 -8 0 10 -228856
-1 -1 0 1;
#X text 285 175 Q/resonance (0-1);
#X text 209 149 cutoff/center frequency;
#X obj 106 174 + 1;
#X obj 280 198 nbx 5 14 -1e+37 1e+37 0 0 empty empty empty 0 -8 0 10
-228856 -1 -1 0 256;
#X obj 211 173 nbx 5 14 -1e+37 1e+37 0 0 empty empty empty 0 -8 0 10
-228856 -1 -1 0 256;
#X text 44 153 bandstop;
#X text 80 23 The [svfilter~] object from ELSE has four resonant filter
outputs \, which are: lowpass \, highpass \, bandpass and bandstop.
Check its help file for more info., f 44;
#X connect 0 0 4 0;
#X connect 1 0 2 0;
#X connect 1 1 2 1;
#X connect 1 2 2 2;
#X connect 1 3 2 3;
#X connect 2 0 3 0;
#X connect 2 0 3 1;
#X connect 4 0 1 0;
#X connect 5 0 15 0;
#X connect 6 0 13 0;
#X connect 10 0 14 0;
#X connect 13 0 1 0;
#X connect 14 0 1 2;
#X connect 15 0 1 1;
