#N canvas 410 23 924 572 12;
#X obj 160 183 print;
#X msg 160 99 Hello World;
#X text 169 144 <== conection cord;
#X text 246 98 <== message box;
#X text 89 88 inlet ==>;
#X text 82 110 outlet ==>;
#X text 91 170 inlet ==>;
#X msg 59 364 one;
#X obj 59 436 print;
#X text 88 363 one-element;
#X text 121 394 three-elements;
#X text 333 395 three-messages;
#X text 303 363 one-message;
#X msg 75 394 1 2 3;
#X msg 259 364 a b c;
#X msg 274 394 a \, b \, c;
#X obj 259 436 print;
#X obj 585 60 float;
#X floatatom 585 117 5 0 0 0 - - -;
#X symbolatom 585 145 7 0 0 0 - - -;
#X text 494 117 3) Number;
#X text 494 146 4) Symbol;
#X text 494 88 2) Message;
#X text 494 59 1) Object;
#X text 495 176 5) Comment;
#X text 648 60 Object Box;
#X text 481 24 Basic types of boxes from the Put Menu:;
#X msg 585 88 bang;
#X text 648 87 Message Box;
#X text 647 115 "Number Atom Box";
#X text 646 148 "Symbol Atom Box";
#X text 583 176 Not really a "box" \, just a textual display;
#X text 45 19 We program in Pd by conecting "boxes" from "outlets"
to "inlets". Click on the box that says "Hello_World!" and see the
result at Pd's terminal window (Window => Pd)., f 55;
#X text 47 271 A message may contain one or more elements \, which
are called “atoms” and can be either a number or a symbol. A coma
allows you to have more than one message in a message box., f 49;
#X floatatom 589 360 5 0 0 0 - - -;
#X symbolatom 692 358 10 0 0 0 - - -;
#X obj 589 392 print;
#X obj 692 394 print;
#X text 480 440 Atom boxes are interactive \, you can click and drag
into a number box to generate number values. You can also click on
it \, type a number and then enter. The same click/enter functionality
is present in the symbol box. try it above. Both of these also have
properties windows \, right click and select it., f 57;
#X text 478 238 To ask for help: Right-Click on any box then go for
"Help" - this works even for comments \, try it. You should check the
help file of every object you see in this tutorial that you do not
know! If you right click on an empty space in your patch and ask for
help \, Pd gives you a list of all its built-in objects!;
#X text 202 182 <== object box*;
#X text 124 217 * The [print] object displays messages in the terminal
window, f 31;
#X text 35 477 Numbers in Pd are 32 bit floating point numbers. Pd
only represents 6 significant digits \, otherwise it uses an exponential
format such as "1e+6". Anything that is not considered a number atom
is treated as a symbol atom.;
#X connect 1 0 0 0;
#X connect 7 0 8 0;
#X connect 13 0 8 0;
#X connect 14 0 16 0;
#X connect 15 0 16 0;
#X connect 34 0 36 0;
#X connect 35 0 37 0;
