#N canvas 378 23 514 552 12;
#X floatatom 201 486 5 0 0 0 - - -;
#X msg 172 441 10;
#X obj 215 440 f;
#X obj 172 348 trigger f f;
#X obj 172 376 <= 10;
#X obj 172 408 sel 0 1;
#X text 256 398 =;
#X obj 283 399 min 10;
#X floatatom 283 317 5 0 0 0 - - -;
#X floatatom 283 487 5 0 0 0 - - -;
#X floatatom 235 100 5 0 0 0 - - -;
#X floatatom 235 183 5 0 0 0 - - -;
#X floatatom 162 183 5 0 0 0 - - -;
#X obj 162 144 min 20;
#X obj 235 144 max 10;
#X text 47 27 The [min] and [max] functions are conditional. For min
\, if the input value is larger than 'x' \, then 'x' is output. For
max \, if it is smaller than 'x' \, then 'x' is output., f 52;
#X text 50 241 In order to keeo illustrating how to program this kind
of logic in Pd. Here's how to implement [min] with comparatives and
select., f 51;
#X connect 1 0 0 0;
#X connect 2 0 0 0;
#X connect 3 0 4 0;
#X connect 3 1 2 1;
#X connect 4 0 5 0;
#X connect 5 0 1 0;
#X connect 5 1 2 0;
#X connect 7 0 9 0;
#X connect 8 0 7 0;
#X connect 8 0 3 0;
#X connect 10 0 13 0;
#X connect 10 0 14 0;
#X connect 13 0 12 0;
#X connect 14 0 11 0;
