#N canvas 517 23 624 549 12;
#X floatatom 69 343 5 0 0 0 - - -;
#X obj 69 399 tgl 15 0 empty empty empty 17 7 0 10 -228856 -1 -1 0
1;
#X obj 69 427 change;
#X obj 246 241 spigot;
#X floatatom 246 139 5 0 0 0 - - -;
#X floatatom 246 276 5 0 0 0 - - -;
#X obj 246 304 bng 15 250 50 0 empty empty empty 17 7 0 10 -262144
-1 -1;
#X obj 285 212 !=;
#X obj 246 170 t f f f;
#X obj 246 116 bng 15 250 50 0 empty empty empty 17 7 0 10 -262144
-1 -1;
#X floatatom 127 176 5 0 0 0 - - -;
#X obj 127 211 change;
#X floatatom 127 245 5 0 0 0 - - -;
#X obj 127 153 bng 15 250 50 0 empty empty empty 17 7 0 10 -262144
-1 -1;
#X obj 127 276 bng 15 250 50 0 empty empty empty 17 7 0 10 -262144
-1 -1;
#X floatatom 299 242 1 0 0 0 - - -;
#X text 201 211 =;
#X text 108 23 The [change] object only passes by numbers that are
different than the previous one - or \, when the number changes. Click
on top bang to resend a number and see how the bottom bang does not
react.;
#X text 319 163 "Change" made out of [spigot] and [!=], f 20;
#X text 330 225 If different than last \, then opens \, closed elsewise.
, f 28;
#X obj 69 369 > 0;
#X text 139 368 Here's when it comes in handy. Without [change] \,
every time a number bigger than "0" comes in \, the process is repeated.
But we only want that to hapen once.;
#X text 140 429 This is very useful if you have a continuous input
from an interface device. Then you specify a threshold and it behaves
like a "gate".;
#X obj 69 462 display;
#X connect 0 0 20 0;
#X connect 1 0 2 0;
#X connect 2 0 23 0;
#X connect 3 0 5 0;
#X connect 4 0 8 0;
#X connect 5 0 6 0;
#X connect 7 0 3 1;
#X connect 7 0 15 0;
#X connect 8 0 3 0;
#X connect 8 1 7 1;
#X connect 8 2 7 0;
#X connect 9 0 4 0;
#X connect 10 0 11 0;
#X connect 11 0 12 0;
#X connect 12 0 14 0;
#X connect 13 0 10 0;
#X connect 20 0 1 0;
