#N canvas 594 54 517 435 12;
#X floatatom 95 116 5 0 0 0 - - -;
#X floatatom 95 164 5 0 0 0 - - -;
#X text 76 36 The [expr] family of objects has a built in "if" function.
The syntax is: if (condition \, if true \, if false)., f 48;
#X obj 95 140 expr if ($f1 > 0 \, 10 \, -10);
#X obj 340 123 >= 0;
#X obj 340 153 sel 0 1;
#X floatatom 340 94 5 0 0 0 - - -;
#X msg 363 182 10;
#X msg 324 182 -10;
#X floatatom 351 214 5 0 0 0 - - -;
#X text 269 92 same as:;
#X floatatom 74 266 5 0 0 0 - - -;
#X floatatom 414 269 5 0 0 0 - - -;
#X floatatom 74 323 5 0 0 0 - - -;
#X obj 74 294 expr if (pow($f1 \, 1.75) >= sqrt($f2) * 100 \, 1 \,
0);
#X text 131 259 Formulas can get complex \, of course:;
#X connect 0 0 3 0;
#X connect 3 0 1 0;
#X connect 4 0 5 0;
#X connect 5 0 8 0;
#X connect 5 1 7 0;
#X connect 6 0 4 0;
#X connect 7 0 9 0;
#X connect 8 0 9 0;
#X connect 11 0 14 0;
#X connect 12 0 14 1;
#X connect 14 0 13 0;
