#N canvas 330 100 850 489 12;
#X obj 159 160 until;
#X obj 159 188 print;
#X msg 159 129 4;
#X msg 119 128 2;
#X msg 198 129 8;
#X obj 195 347 bng 15 250 50 0 empty empty empty 17 7 0 10 -228856
-1 -1;
#X msg 156 344 5;
#X text 51 122 number of bangs, f 8;
#X obj 234 401 print Finish;
#X text 33 21 The [until] object is a "loop" \, a common feature in
programming languages. It sends bangs while it loops and is useful
to have something happening "x" times \, or deal with it in a conditional
way (while "x" < "y" keep doing something)., f 53;
#X text 443 51 If [until] gets a bang in the hot inlet \, it'll send
bangs until another bang comes in the cold inlet - an infinite loop
will happen otherwise and Pd will freeze! On the other hand \, it won't
stop the infinite loop and print an error. below \, a [select] object
is used to stop the loop., f 51;
#X obj 195 373 loop 9;
#X obj 195 427 print loop;
#X text 43 252 The loop object from ELSE is a loop counter. It sends
float values through the left outlet and a banf in the right outlet
when the loop sequence is done. Check its help file., f 50;
#X obj 526 235 random 12;
#X obj 526 193 until;
#X obj 549 387 print;
#X obj 526 164 bng 15 250 50 0 empty empty empty 17 7 0 10 -228856
-1 -1;
#X obj 526 291 != 7;
#X text 598 386 While x != 7 \, print it;
#X obj 526 331 sel 0 1;
#X obj 526 262 trigger float float;
#X obj 549 360 float;
#X obj 286 182 f;
#X obj 318 182 + 1;
#X obj 286 151 until;
#X floatatom 286 99 5 0 10 0 - - -;
#X msg 334 153 0;
#X obj 286 125 t f b;
#X obj 286 208 print;
#X connect 0 0 1 0;
#X connect 2 0 0 0;
#X connect 3 0 0 0;
#X connect 4 0 0 0;
#X connect 5 0 11 0;
#X connect 6 0 11 0;
#X connect 11 0 12 0;
#X connect 11 1 8 0;
#X connect 14 0 21 0;
#X connect 15 0 14 0;
#X connect 17 0 15 0;
#X connect 18 0 20 0;
#X connect 20 0 15 1;
#X connect 20 1 22 0;
#X connect 21 0 18 0;
#X connect 21 1 22 1;
#X connect 22 0 16 0;
#X connect 23 0 24 0;
#X connect 23 0 29 0;
#X connect 24 0 23 0;
#X connect 25 0 23 0;
#X connect 26 0 28 0;
#X connect 27 0 23 1;
#X connect 28 0 25 0;
#X connect 28 1 27 0;
