#N canvas 345 56 930 711 12;
#X declare -path else;
#X obj 390 531 loadbang;
#X obj 69 431 s~ \$0-in;
#X obj 69 347 nbx 5 14 -1e+37 1e+37 0 0 empty empty empty 0 -8 0 10 #dcdcdc #000000 #000000 0 256;
#X obj 612 295 r~ \$0-in;
#X floatatom 184 396 5 0 0 0 - - - 0;
#X floatatom 356 396 8 0 75 0 - - - 0;
#X floatatom 270 396 7 1 100 0 - - - 0;
#X text 184 303 rate;
#X text 260 303 delay min.;
#X text 351 301 delay max.;
#X obj 92 488 r~ \$0-in;
#X text 71 323 Input;
#X obj 92 600 out~;
#X obj 612 397 comb.rev~ 75 1 1 0;
#X obj 612 431 out~;
#X obj 184 460 rescale~, f 25;
#X obj 69 403 bl.saw~;
#X obj 214 496 s~ \$0-lfo;
#X obj 642 334 r~ \$0-lfo;
#X text 34 137 Originally \, the Flanger FX was developed by holding the "flange" of a tape roll to change its speed \, then mix with the original signal \, which generates phase cancelling because of the phase differences between the original and the delayed signal., f 68;
#X obj 695 175 declare -path else;
#X obj 92 563 +~;
#X text 294 534 Presets;
#X obj 738 349 f2s~;
#X obj 356 427 f2s~;
#X obj 270 427 f2s~;
#X obj 356 332 knob 50 5 15 0 10 empty delmax #dfdfdf #7c7c7c #000000 1 0 0 0 1 320 0 0 5 empty empty 0 12 0 -15 0 1 0 0 0 0 10;
#X obj 270 332 knob 50 0 4 0 0 empty delmin #dfdfdf #7c7c7c #000000 1 0 0 0 1 320 0 0 0 empty empty 0 12 0 -15 0 1 0 0 0 0 0;
#X obj 184 332 knob 50 0.05 0.3 0 0.05 empty rate #dfdfdf #7c7c7c #000000 1 0 0 0 1 320 0 0 0.05 empty empty 0 12 0 -15 0 1 0 0 0 0 0.05;
#X obj 69 373 sig~ 60;
#X obj 184 427 tri~;
#X obj 738 264 knob 50 0 1 0 1 empty empty #dfdfdf #7c7c7c #000000 1 0 0 0 1 320 0 0 0 empty empty 0 12 0 -15 0 1 0 0 0 0 1;
#X floatatom 738 321 5 0 0 0 - - - 0;
#X text 736 237 dry/wet;
#X msg 390 562 \; rate 0.07 \; delmin 0.1 \; delmax 8;
#X msg 290 562 \; rate 0.04 \; delmin 0.4 \; delmax 16;
#X text 34 203 The simplest form of flanger can be implemented with a feedforward delay line added to the original input \, which is what a feedforward comb filter consists of. The rate is the frequency of the LFO that controls the delay time in ms \, and a "depth" is given by the minimum and maximum delay times. Here's how to implement it with [ffdelay~]., f 68;
#X obj 110 525 ffdelay~ 15;
#X text 33 25 A flanger consists of a signal summed to a delayed copy of it. The delay time is controlled by an LFO and is restricted to a short range - between 1 and 10 milliseconds for instance. This produces a filtering effect because of the shifting phase differences. For example \, a 100 hz sine tone has a period of 10 ms. Hence \, a 5 ms is half the cycle and has a phase shift of 180º \, so a 100 hz component gets filtered out. A 300 Hz component also gets filtered \, because the delayed copy would also have the opposite phase of the original signal at this frequency \, since at 5 ms we have one and half cycle of 300 hz. In the same way \, al odd harmonics of the fundamental frequency 100 Hz are filtered. Conversely \, even harmonics are phase aligned and get reinforced., f 121;
#X text 579 523 We can use the [comb.rev~] object \, which is a general comb filter with a feedforward and a feedback delay line. We then only use the feedforward line \, and the feedforward coefficient can be used as a mixing factor from dry to wet., f 43;
#X text 606 246 Feedforward Flanger, f 11;
#X connect 0 0 34 0;
#X connect 2 0 29 0;
#X connect 3 0 13 0;
#X connect 4 0 30 0;
#X connect 5 0 24 0;
#X connect 6 0 25 0;
#X connect 10 0 21 0;
#X connect 10 0 37 0;
#X connect 13 0 14 0;
#X connect 15 0 17 0;
#X connect 15 0 37 1;
#X connect 16 0 1 0;
#X connect 18 0 13 1;
#X connect 21 0 12 0;
#X connect 23 0 13 3;
#X connect 24 0 15 2;
#X connect 25 0 15 1;
#X connect 26 0 5 0;
#X connect 27 0 6 0;
#X connect 28 0 4 0;
#X connect 29 0 16 0;
#X connect 30 0 15 0;
#X connect 31 0 32 0;
#X connect 32 0 23 0;
#X connect 37 0 21 1;
