#N canvas 536 61 610 750 12;
#X declare -path else;
#X obj 350 36 declare -path else;
#X floatatom 254 201 5 0 0 0 - - - 0;
#X floatatom 369 270 5 0 75 0 - - - 0;
#X floatatom 302 229 5 1 100 0 - - - 0;
#X obj 257 179 hsl 128 15 0.01 3 1 0 empty rate empty -2 -8 0 10 #dcdcdc #000000 #000000 0 1;
#X text 306 178 rate;
#X obj 372 247 hsl 128 15 5 75 1 0 empty delmax empty -2 -8 0 10 #dcdcdc #000000 #000000 0 1;
#X obj 305 207 hsl 128 15 0 8 0 0 empty delmin empty -2 -8 0 10 #dcdcdc #000000 #000000 0 1;
#X text 343 206 delay min.;
#X obj 254 235 osc~;
#X obj 276 296 rescale~;
#X obj 302 253 f2s~ 10;
#X obj 369 293 f2s~ 10;
#X obj 276 333 s~ \$0-lfo;
#X obj 129 334 nbx 5 14 -1e+37 1e+37 0 0 empty empty empty 0 -8 0 10 #dcdcdc #000000 #000000 0 256;
#X obj 275 494 f2s~;
#X obj 275 403 knob 50 -0.99 0.99 0 0 empty empty #dfdfdf #7c7c7c #000000 1 0 0 0 1 320 0 0 0 empty empty 0 12 0 -15 0 1 0 0 0 0 0;
#X text 268 380 feedbback;
#X floatatom 275 464 10 0 0 0 - - - 0;
#X obj 197 464 r~ \$0-lfo;
#X obj 128 659 out~;
#X obj 128 627 +~;
#X obj 288 642 f2s~;
#X obj 288 583 knob 50 0 1 0 1 empty empty #dfdfdf #7c7c7c #000000 1 0 0 0 1 320 0 0 0 empty empty 0 12 0 -15 0 1 0 0 0 0 1;
#X text 290 559 depth;
#X obj 146 596 *~;
#X obj 146 544 fbdelay2~ 50, f 15;
#X obj 407 468 tgl 22 0 empty empty empty 0 -10 0 12 #dfdfdf #000000 #000000 0 1;
#X obj 407 503 * -2;
#X obj 407 527 + 1;
#X floatatom 407 551 5 0 0 0 - - - 0;
#X obj 129 369 bl.saw~ 80;
#X obj 146 496 *~ 1;
#X text 431 469 Inversion switch;
#X text 98 79 On some flangers \, you can invert the input in polarity. This is typically selected with a switch. We have less bass response in the inverted mode as we have a notch at DC \, but it's also musically useful., f 55;
#X connect 1 0 9 0;
#X connect 2 0 12 0;
#X connect 3 0 11 0;
#X connect 4 0 1 0;
#X connect 6 0 2 0;
#X connect 7 0 3 0;
#X connect 9 0 10 0;
#X connect 10 0 13 0;
#X connect 11 0 10 1;
#X connect 12 0 10 2;
#X connect 14 0 31 0;
#X connect 15 0 26 2;
#X connect 16 0 18 0;
#X connect 18 0 15 0;
#X connect 19 0 26 1;
#X connect 21 0 20 0;
#X connect 22 0 25 1;
#X connect 23 0 22 0;
#X connect 25 0 21 1;
#X connect 26 0 25 0;
#X connect 27 0 28 0;
#X connect 28 0 29 0;
#X connect 29 0 30 0;
#X connect 30 0 32 1;
#X connect 31 0 21 0;
#X connect 31 0 32 0;
#X connect 32 0 26 0;
