#N canvas 310 59 888 695 12;
#X declare -path else;
#X obj 368 356 loadbang;
#X obj 64 214 s~ \$0-in;
#X obj 64 130 nbx 5 14 -1e+37 1e+37 0 0 empty empty empty 0 -8 0 10 #dcdcdc #000000 #000000 0 256;
#X obj 340 226 hsl 128 15 -0.999 0.999 0 0 empty fb empty -2 -6 0 8 #dcdcdc #000000 #000000 0 1;
#X text 371 225 feedback;
#X floatatom 337 248 0 0 0 0 - - - 0;
#X floatatom 151 135 5 0 0 0 - - - 0;
#X floatatom 266 204 5 0 75 0 - - - 0;
#X floatatom 199 163 5 1 100 0 - - - 0;
#X obj 154 113 hsl 128 15 0.01 3 1 0 empty rate empty -2 -8 0 10 #dcdcdc #000000 #000000 0 1;
#X text 203 112 rate;
#X obj 269 181 hsl 128 15 5 75 1 0 empty delmax empty -2 -8 0 10 #dcdcdc #000000 #000000 0 1;
#X obj 202 141 hsl 128 15 0 8 0 0 empty delmin empty -2 -8 0 10 #dcdcdc #000000 #000000 0 1;
#X text 240 140 delay min.;
#X text 299 180 delay max.;
#X obj 151 169 osc~;
#X obj 65 246 r~ \$0-in;
#X text 66 106 Input;
#X obj 337 305 s~ \$0-fb;
#X obj 242 520 r~ \$0-in;
#X obj 365 550 r~ \$0-fb;
#X msg 368 387 \; rate 0.07 \; delmin 0.1 \; delmax 8 \; fb 0.9;
#X msg 259 387 \; rate 0.04 \; delmin 0.4 \; delmax 16 \; fb -0.8;
#X obj 114 398 out~;
#X obj 242 579 comb.rev~ 75 1 1 0;
#X obj 242 611 out~;
#X obj 173 230 rescale~;
#X obj 64 186 bl.saw~;
#X obj 199 187 f2s~ 10;
#X obj 266 227 f2s~ 10;
#X obj 337 271 f2s~ 10;
#X obj 193 267 s~ \$0-lfo;
#X obj 272 549 r~ \$0-lfo;
#X text 258 367 Presets:;
#X obj 652 37 declare -path else;
#X obj 115 308 fbdelay~ -gain 75;
#X text 92 556 And now we have [comb.rev~] just with the feedback line., f 17;
#X text 241 495 feedback comb filter;
#X obj 559 252 r~ \$0-in;
#X obj 559 471 out~;
#X obj 608 311 r~ \$0-lfo;
#X obj 701 326 f2s~;
#X obj 701 229 knob 50 -0.99 0.99 0 0 empty empty #dfdfdf #7c7c7c #000000 1 0 0 0 1 320 0 0 0 empty empty 0 12 0 -15 0 1 0 0 0 0 0;
#X floatatom 701 293 10 0 0 0 - - - 0;
#X text 699 202 feedback;
#X obj 758 445 f2s~;
#X obj 758 360 knob 50 -1 1 0 1 empty empty #dfdfdf #7c7c7c #000000 1 0 0 0 1 320 0 0 -1 empty empty 0 12 0 -15 0 1 0 0 0 0 1;
#X floatatom 758 417 5 0 0 0 - - - 0;
#X text 756 333 dry/wet;
#X obj 559 404 xfade~;
#X text 43 33 A similar effect can be obtain with a simple feedback delay line. This is not an actual flanger \, but a feedback comb filter effect. Check it for comparison. First \, let's see how it goes with [fbdelay~]., f 61;
#X text 535 87 We can use both feedforward and feedback lines of a comb filter and implement something similat to a flanger. Below \, the same gain coefficient is given for both the feedforward and the feedback parameters in [comb.rev~]., f 40;
#X obj 64 156 sig~ 60;
#X text 523 574 The difference is more pronounced when we have a negative feedforward/feedback gain. The dry/wet knob is now a crossfade., f 42;
#X obj 578 364 comb.rev~ 75 1 0 0;
#X connect 0 0 21 0;
#X connect 2 0 52 0;
#X connect 3 0 5 0;
#X connect 5 0 30 0;
#X connect 6 0 15 0;
#X connect 7 0 29 0;
#X connect 8 0 28 0;
#X connect 9 0 6 0;
#X connect 11 0 7 0;
#X connect 12 0 8 0;
#X connect 15 0 26 0;
#X connect 16 0 35 0;
#X connect 19 0 24 0;
#X connect 20 0 24 4;
#X connect 24 0 25 0;
#X connect 26 0 31 0;
#X connect 26 0 35 1;
#X connect 27 0 1 0;
#X connect 28 0 26 1;
#X connect 29 0 26 2;
#X connect 30 0 18 0;
#X connect 30 0 35 2;
#X connect 32 0 24 1;
#X connect 35 0 23 0;
#X connect 38 0 49 0;
#X connect 38 0 54 0;
#X connect 40 0 54 1;
#X connect 41 0 54 4;
#X connect 41 0 54 3;
#X connect 42 0 43 0;
#X connect 43 0 41 0;
#X connect 45 0 49 2;
#X connect 46 0 47 0;
#X connect 47 0 45 0;
#X connect 49 0 39 0;
#X connect 52 0 27 0;
#X connect 54 0 49 1;
