#N canvas 410 104 945 502 12;
#X obj 140 213 nbx 5 16 -2000 2000 0 0 empty Portadora empty 0 -8 0
13 -228856 -1 -1 0 256;
#X obj 243 280 *~;
#X obj 243 243 osc~;
#N canvas 1110 191 273 274 PM_ssb 0;
#X obj 89 225 outlet~;
#X obj 142 160 +~;
#X obj 78 31 inlet~;
#X obj 160 28 inlet~;
#X obj 78 92 hilbert~;
#X obj 89 124 car2pol~;
#X obj 89 190 pol2car~;
#X connect 1 0 6 1;
#X connect 2 0 4 0;
#X connect 3 0 1 1;
#X connect 4 0 5 0;
#X connect 4 1 5 1;
#X connect 5 0 6 0;
#X connect 5 1 1 0;
#X connect 6 0 0 0;
#X restore 605 333 pd PM_ssb;
#X obj 96 259 adc~;
#X obj 243 213 nbx 5 16 -2000 2000 0 0 empty Moduladora empty 0 -8
0 13 -228856 -1 -1 0 256;
#X obj 326 234 nbx 5 16 0 2000 0 0 empty indice empty 0 -8 0 13 -228856
-1 -1 0 256;
#X obj 569 239 nbx 5 16 -2000 2000 0 0 empty Portadora empty 0 -8 0
13 -228856 -1 -1 0 256;
#X obj 665 306 *~;
#X obj 665 239 nbx 5 16 -2000 2000 0 0 empty Moduladora empty 0 -8
0 13 -228856 -1 -1 0 256;
#X obj 748 260 nbx 5 16 0 2000 0 0 empty indice empty 0 -8 0 13 -228856
-1 -1 0 256;
#X obj 524 285 adc~;
#X obj 569 285 osc~;
#X obj 140 259 phasor~ 500;
#X text 41 41 Frequency shifting allows for a Frequency modulation
into any signal. This is not exactly like FM because changing the frequency
on a sawtooth oscillator changes the pitch \, and (as prviously mentioned)
we're not doing pitch shifting! But it is the same thing for a sinisoid
anyway..., f 57;
#X obj 326 266 f2s~ 10;
#X text 336 211 Index;
#X text 141 192 Carrier;
#X text 244 192 Modulating;
#X obj 126 376 out~;
#X obj 562 374 out~;
#X obj 748 292 f2s~ 10;
#X text 569 218 Carrier;
#X text 666 218 Modulating;
#X text 758 237 Index;
#X text 474 35 A complex signal also gives us access to the phase \,
so we can modulate it and also achieve a frequency modulation. Open
the subpatch to see how this is implemented.;
#X obj 665 269 tri~;
#X text 475 95 Note that the same properties we've seen about Phase
Modulation still applies. For instance \, changing the modulation frequency
has an effect on the frequency deviation (or index). Also \, the waveform
of the modulator has a different result (a triangular waveform acts
like a square wave in frequency modulation).;
#X text 43 143 You can try other signal inputs \, such as a live input.
;
#X obj 169 321 freq.shift~;
#X connect 0 0 13 0;
#X connect 1 0 29 1;
#X connect 2 0 1 0;
#X connect 3 0 20 0;
#X connect 3 0 20 1;
#X connect 5 0 2 0;
#X connect 6 0 15 0;
#X connect 7 0 12 0;
#X connect 8 0 3 1;
#X connect 9 0 26 0;
#X connect 10 0 21 0;
#X connect 12 0 3 0;
#X connect 13 0 29 0;
#X connect 15 0 1 1;
#X connect 21 0 8 1;
#X connect 26 0 8 0;
#X connect 29 0 19 0;
#X connect 29 0 19 1;
