#N canvas 375 49 815 653 12;
#X declare -path else;
#X obj 287 364 *~;
#X obj 363 134 nbx 5 14 -1e+37 1e+37 0 0 empty Hz2 empty 0 -8 0 10 #dcdcdc #000000 #000000 0 256;
#X obj 287 134 nbx 5 14 -1e+37 1e+37 0 0 empty Hz1 empty 0 -8 0 10 #dcdcdc #000000 #000000 0 256;
#X obj 363 159 osc~ 90;
#X obj 287 569 out~;
#X obj 287 158 osc~ 300;
#X obj 68 205 graph~ 500 33 -1 1 200 140 #dfdfdf 622 2;
#X obj 287 403 graph~ 500 33 -1 1 200 140 #dfdfdf 0 2;
#X text 471 93 Another technical detail is that when the modulating signal is negative \, then the polarity of the carrier signal is inverted!, f 43;
#X text 471 26 Nevertheless \, it is common that the carrier signal is any kind of audio signal \, such as an instrument \, and the modulator signal is an oscillator., f 43;
#X text 567 335 -1;
#X text 573 267 0;
#X text 572 199 1;
#X text 492 536 -1;
#X text 498 468 0;
#X text 497 400 1;
#X text 45 339 -1;
#X text 51 271 0;
#X text 50 203 1;
#X obj 46 123 declare -path else;
#X obj 363 205 graph~ 500 33 -1 1 200 140 #dfdfdf 622 2;
#X text 41 30 Ring Modulation (RM) is a specific type of Amplitude Modulation where both signals are bipolar and have no DC-Offset! In this case both oscillators vary from -1 to 1 \, and there's no actual difference between a carrier and a modulator signal., f 58;
#X text 134 364 RING MODULATION --->;
#X text 412 573 We now hear something different \, but still rather complex. Let's see what really happens next., f 32;
#X connect 0 0 7 0;
#X connect 1 0 3 0;
#X connect 2 0 5 0;
#X connect 3 0 0 1;
#X connect 3 0 20 0;
#X connect 5 0 0 0;
#X connect 5 0 6 0;
#X connect 7 0 4 0;
