#N canvas 295 100 1044 601 12;
#X declare -path else;
#X obj 624 283 *~;
#X obj 574 242 r~ \$0-sample;
#X obj 675 235 nbx 5 14 -20000 20000 0 1 empty \$0-freq empty 0 -8 0 10 #dcdcdc #000000 #000000 100 256;
#X obj 675 258 osc~;
#X obj 603 102 *~;
#X obj 688 20 nbx 5 14 -1e+37 1e+37 0 0 empty \$0-freq empty 0 -8 0 10 #dcdcdc #000000 #000000 0 256;
#X obj 688 44 osc~;
#X text 723 43 AM;
#X text 709 259 RM;
#X obj 186 300 s~ \$0-sample;
#X obj 581 48 r~ \$0-sample;
#X obj 603 138 out~;
#X obj 624 320 out~;
#X text 38 335 Let's test both the classic AM example and the RM one. In both cases \, the side band frequencies are created for each sine wave component in the carrier signal., f 71;
#X obj 201 228 out~;
#X obj 626 517 out~;
#X obj 672 454 nbx 5 14 -1e+37 1e+37 0 0 empty empty empty 0 -8 0 10 #dcdcdc #000000 #000000 0 256;
#X text 732 453 Hz;
#X obj 626 479 rm~ 150;
#X obj 626 425 r~ \$0-sample;
#X obj 688 72 rescale~;
#X text 38 473 The ELSE library has a simple and straight forward Ring Modulation object called [rm~]. It uses [osc~] as the modulator and the frequency input is given as the argument or via the right inlet. It's worth noting it treats a 0 Hz input as a bypass. This is important because at 0 Hz \, the oscillator outputs whatever amplitude value according to that instantaneous phase \, and it won't likely be "1" \, so you have an undesired gain change., f 71;
#X obj 833 47 declare -path else;
#X text 38 19 In this example \, we have a sample as the carrier instead of an oscillator \, which illustrates the usage of amplitude modulation as an effects processor rather than a "synthesis technique"., f 60;
#X text 38 389 Note how the AM still presents the original sound's sine components \, but the generated side band frequencies interfere with them \, so it's more common to see an AM as a tremolo effect (that we'll see later). The RM example may sound more interesting \, because it removes the original sine components., f 71;
#X obj 186 192 play.file~ bubul.mp3 1 1;
#X obj 847 237 else/rm.m~;
#A saved 209.426 0 1;
#A saved;
#A saved;
#A saved;
#A saved;
#X text 813 129 The [rm.m~] object is a MERDA module based on the [rm~] object., f 23;
#X obj 847 201 r~ \$0-sample;
#X obj 847 501 out~;
#X text 38 83 Actually \, much of what we see as a synthesis technique topic is actually in respect to a processing technique \, like with subtractive synthesis (which is processing the sound with a fulter). In the same way \, many effect processes are widely used in syhtesis (such as reverbs and whatnot). Hence \, there's only a fine line between synthesis techniques and audio processing.;
#X connect 0 0 12 0;
#X connect 1 0 0 0;
#X connect 2 0 3 0;
#X connect 3 0 0 1;
#X connect 4 0 11 0;
#X connect 5 0 6 0;
#X connect 6 0 20 0;
#X connect 10 0 4 0;
#X connect 16 0 18 1;
#X connect 18 0 15 0;
#X connect 19 0 18 0;
#X connect 20 0 4 1;
#X connect 25 0 9 0;
#X connect 25 0 14 0;
#X connect 26 0 29 0;
#X connect 28 0 26 0;
