#N canvas 368 71 825 585 12;
#X declare -path else;
#X obj 150 210 vcf~ 10;
#X obj 91 118 sig~ 100;
#X text 241 112 LFO;
#X text 152 168 Hz;
#X obj 173 112 osc~ 0.2;
#X obj 67 380 sig~ 100;
#X obj 138 384 osc~ 0.1;
#X obj 691 89 osc~ 0.5;
#X text 199 383 LFO;
#X obj 91 146 bl.saw~;
#X obj 173 165 display~;
#X obj 173 136 rescale~ 500 2500;
#X obj 150 245 out~;
#X obj 519 239 out~;
#X obj 562 100 bl.saw~;
#X obj 562 162 svfilter~;
#X obj 562 198 xselect~ 4 100 1;
#X obj 529 68 vradio 15 1 0 4 empty empty empty 0 -8 0 10 -228856 -1
-1 0;
#X text 472 67 lowpass;
#X text 465 83 highpass;
#X text 465 98 bandpass;
#X obj 529 134 + 1;
#X obj 691 115 rescale~ 0.1 0.9, f 8;
#X obj 67 408 bl.saw~;
#X obj 82 483 out~;
#X obj 138 408 rescale~ 500 1500;
#X obj 350 375 bl.saw~;
#X obj 402 438 bob~;
#X obj 402 474 out~;
#X obj 488 381 rescale~ 1 3.5, f 9;
#X obj 488 356 osc~ 0.33;
#X obj 414 351 osc~ 0.22;
#X obj 586 474 out~;
#X obj 587 381 bl.saw~;
#X obj 655 369 rescale~ 500 1500, f 9;
#X obj 629 424 lowpass~;
#X obj 731 375 rescale~ 1 10, f 9;
#X obj 587 353 sig~ 75;
#X obj 731 346 osc~ 0.22;
#X obj 655 346 osc~ 0.13;
#X text 295 459 LFO;
#X obj 108 447 bandpass~;
#X obj 204 436 osc~ 0.17;
#X obj 204 460 rescale~ 1 10;
#X text 23 22 A "filter sweep" is a common technique in Subtractive
Synthesis and it consists of using an LFO to control the filter frequency.
Below we have a sawtooth source being filtered by [vcf~]. The filter
is controlled by a LFO at 0.2 Hz and the frequency range is from 500
to 2500 hz., f 56;
#X text 33 312 Next we have other examples with other objects \, and
here we also have LFOs controllng the resonance of the filter., f
39;
#X text 465 113 bandstop;
#X obj 350 352 sig~ 250;
#X obj 414 373 rescale~ 500 2500, f 9;
#X obj 623 115 rescale~ 200 5000, f 9;
#X obj 623 88 osc~ 0.17;
#X obj 562 72 sig~ 50;
#X obj 639 18 declare -path else;
#X connect 0 0 12 0;
#X connect 0 1 12 1;
#X connect 1 0 9 0;
#X connect 4 0 11 0;
#X connect 5 0 23 0;
#X connect 6 0 25 0;
#X connect 7 0 22 0;
#X connect 9 0 0 0;
#X connect 10 0 0 1;
#X connect 11 0 10 0;
#X connect 14 0 15 0;
#X connect 15 0 16 0;
#X connect 15 1 16 1;
#X connect 15 2 16 2;
#X connect 15 3 16 3;
#X connect 16 0 13 0;
#X connect 16 0 13 1;
#X connect 17 0 21 0;
#X connect 21 0 16 0;
#X connect 22 0 15 2;
#X connect 23 0 41 0;
#X connect 25 0 41 1;
#X connect 26 0 27 0;
#X connect 27 0 28 0;
#X connect 27 0 28 1;
#X connect 29 0 27 2;
#X connect 30 0 29 0;
#X connect 31 0 48 0;
#X connect 33 0 35 0;
#X connect 34 0 35 1;
#X connect 35 0 32 0;
#X connect 35 0 32 1;
#X connect 36 0 35 2;
#X connect 37 0 33 0;
#X connect 38 0 36 0;
#X connect 39 0 34 0;
#X connect 41 0 24 0;
#X connect 41 0 24 1;
#X connect 42 0 43 0;
#X connect 43 0 41 2;
#X connect 47 0 26 0;
#X connect 48 0 27 1;
#X connect 49 0 15 1;
#X connect 50 0 49 0;
#X connect 51 0 14 0;
