#N canvas 428 23 905 558 12;
#X msg 105 190 \$1 1000;
#X obj 105 220 line 0 1;
#X floatatom 105 166 2 0 0 0 - - -;
#X obj 105 144 tgl 16 0 empty empty empty 17 7 0 10 -228856 -1 -1 0
1;
#X obj 120 483 line;
#X obj 123 509 hsl 128 15 0 1 0 0 empty empty empty -2 -8 0 10 -228856
-1 -1 0 1;
#X msg 120 454 0 \, 1 1000;
#X obj 120 408 metro 1000;
#X obj 120 384 tgl 15 0 empty empty empty 17 7 0 10 -228856 -1 -1 0
1;
#X obj 540 418 vline~;
#X msg 540 386 0 \, 1 1000 500 \, 0 1000 2000 \, 1 500 3000;
#X msg 564 167 0 \, 1 1000;
#X obj 564 139 metro 1000;
#X obj 564 115 tgl 15 0 empty empty empty 17 7 0 10 -228856 -1 -1 0
1;
#X obj 564 196 line~;
#X obj 567 247 hsl 128 15 0 1 0 0 empty empty empty -2 -8 0 10 -228856
-1 -1 0 1;
#X obj 543 477 hsl 128 15 0 1 0 0 empty empty empty -2 -8 0 10 -228856
-1 -1 0 1;
#X obj 108 251 hsl 128 15 0 1 0 0 empty empty empty -2 -8 0 10 -228856
-1 -1 0 1;
#X obj 120 430 bng 15 250 50 0 empty empty empty 17 7 0 10 -228856
-1 -1;
#X text 11 15 Line generators are also useful to control parameters.
Let's first check the native object [line] and [line~]., f 55;
#X text 11 52 They expect a target value and a time period to reach
it. The 1st argument of [line] defines the starting point. By default
\, it generates a value at an interval rate of 20 ms \, but you can
change it with the 2nd rgument or third inlet.., f 55;
#X text 127 145 <= click;
#X text 160 190 ramp of 1000 ms;
#X text 171 220 one value at every 1 ms;
#X text 140 383 <= click;
#X text 13 290 If we send it a single value \, it considers the time
period to be 0 and jumps immediately to that value. We could then send
it two messages where the first is just a float \, then \, in practical
terms \, it can be considered as the starting point of the ramp. See
it below., f 55;
#X text 426 27 The [line~] object is the audio rate counterpart \,
and thus it generates values at each new sample. One restrain is that
it always start generating values at the beggining of a block of audio
and it also can only finish a ramp at the end of a block of audio -
so it's not a perfect resolution., f 58;
#X obj 709 126 setdsp~ 1;
#X text 434 291 The [vline~] object \, in contrast \, has a higher
resolution. It can start and finish a ramp at any point in time. Moreover
\, it accepts a third scheduling parameter \, which is the time in
ms before starting the ramp. You can then send it several messages
and schedule different line segments at once.;
#X obj 564 222 s2f~;
#X obj 540 449 s2f~;
#X connect 0 0 1 0;
#X connect 1 0 17 0;
#X connect 2 0 0 0;
#X connect 3 0 2 0;
#X connect 4 0 5 0;
#X connect 6 0 4 0;
#X connect 7 0 18 0;
#X connect 8 0 7 0;
#X connect 9 0 30 0;
#X connect 10 0 9 0;
#X connect 11 0 14 0;
#X connect 12 0 11 0;
#X connect 13 0 12 0;
#X connect 14 0 29 0;
#X connect 18 0 6 0;
#X connect 29 0 15 0;
#X connect 30 0 16 0;
