#N canvas 376 79 957 526 12;
#X obj 89 253 *~;
#X obj 59 214 osc~;
#X obj 519 178 metro 500;
#X obj 519 151 tgl 15 0 empty empty empty 17 7 0 10 -228856 -1 -1 1
1;
#X obj 519 316 nbx 5 14 -1e+37 1e+37 0 0 empty empty empty 0 -8 0 10
-228856 -1 -1 119.4 256;
#X obj 519 255 pack float 500;
#X obj 519 124 loadbang;
#X obj 522 343 hsl 128 15 0 127 0 0 empty empty empty -2 -8 0 10 -228856
-1 -1 11940 1;
#X obj 262 230 osc~;
#X obj 59 141 rampnoise~ 5;
#X obj 59 173 rescale~ 500 1500;
#X obj 262 191 rescale~ 500 1500;
#X obj 262 153 stepnoise~ 7;
#X obj 107 217 rampnoise~ 3;
#X obj 291 321 out~;
#X obj 262 123 nbx 5 17 -1e+37 1e+37 0 0 empty empty empty 0 -8 0 12
-228856 -1 -1 0 256;
#X obj 118 343 out~;
#X obj 59 112 nbx 5 17 -1e+37 1e+37 0 0 empty empty empty 0 -8 0 12
-228856 -1 -1 0 256;
#X obj 519 209 random 128;
#X obj 519 285 line 0 5;
#X obj 614 149 nbx 3 14 -1e+37 1e+37 0 0 empty empty ms 0 -8 0 12 -228856
-1 -1 0 256;
#X obj 519 233 nbx 5 14 -1e+37 1e+37 0 0 empty empty empty 0 -8 0 10
-228856 -1 -1 125 256;
#X obj 696 189 display;
#X obj 796 189 display;
#X obj 785 309 display~;
#X obj 682 309 display~;
#X obj 796 123 impulse 1;
#X obj 785 246 impulse~ 1;
#X obj 482 465 gbman~;
#X obj 431 466 henon~;
#X obj 378 467 ikeda~;
#X obj 593 441 latoocarfian~;
#X obj 489 441 cusp~;
#X obj 533 442 lorenz~;
#X obj 533 464 standard~;
#X obj 606 463 lincong~;
#X obj 372 441 quad~;
#X obj 417 441 logistic~;
#X text 701 442 <= these objects can also operate with low frequencies
, f 28;
#X obj 241 446 lfnoise~;
#X text 37 445 [lfnoise~] can generate ==> both ramps or step values
, f 27;
#X obj 89 290 plate.rev~ 50 0.6 0.25 0.8 0.666, f 18;
#X obj 262 268 plate.rev~ 50 0.6 0.25 0.8 0.666, f 18;
#X obj 682 283 rand.i~ 10 20;
#X obj 785 283 rand.f~ 10 20;
#X obj 696 165 rand.i 10 20;
#X obj 796 165 rand.f 10 20;
#X text 21 22 Noise generators with low frequencies can be used as
random controls in patches and replace random number generators. Below
we have random ramps in the left and random steps in the right. And
why not add some reverb so just it sounds cooler? See the [plate.rev~]
object from ELSE., f 63;
#X text 483 26 The native object [random] is a random number generator.
You could use it to generate random control values and even random
ramps (check below). The ELSE library also has randomnumber generators
for btoh control ([rand.i]/[rand.f]) and audio signals ([rand.i~]/[rand.f~]).
, f 63;
#X connect 0 0 41 0;
#X connect 1 0 0 0;
#X connect 2 0 18 0;
#X connect 3 0 2 0;
#X connect 4 0 7 0;
#X connect 5 0 19 0;
#X connect 6 0 3 0;
#X connect 8 0 42 0;
#X connect 9 0 10 0;
#X connect 10 0 1 0;
#X connect 11 0 8 0;
#X connect 12 0 11 0;
#X connect 13 0 0 1;
#X connect 15 0 12 0;
#X connect 17 0 9 0;
#X connect 18 0 21 0;
#X connect 19 0 4 0;
#X connect 20 0 5 1;
#X connect 20 0 2 1;
#X connect 21 0 5 0;
#X connect 26 0 45 0;
#X connect 26 0 46 0;
#X connect 27 0 43 0;
#X connect 27 0 44 0;
#X connect 41 0 16 0;
#X connect 41 1 16 1;
#X connect 42 0 14 0;
#X connect 42 1 14 1;
#X connect 43 0 25 0;
#X connect 44 0 24 0;
#X connect 45 0 22 0;
#X connect 46 0 23 0;
