#N canvas 563 59 648 628 12;
#X declare -path else;
#X obj 347 20 declare -path else;
#X obj 73 43 tgl 20 0 empty empty empty 17 7 0 10 #dcdcdc #000000 #000000
0 1;
#X obj 106 305 bng 22 250 50 0 empty empty empty 17 7 0 10 #dcdcdc
#000000 #000000;
#X floatatom 348 210 5 0 0 0 - - - 12;
#X text 70 301 beat bang, f 4;
#X obj 186 421 else/out~;
#X obj 270 308 hsl 150 19 0 1 0 0 empty empty empty -2 -8 0 10 #dcdcdc
#000000 #000000 0 1;
#X floatatom 267 335 7 0 0 0 - - - 12;
#X msg 144 121 timesig 7/8;
#X msg 132 95 timesig 6/8;
#X msg 106 44 timesig 15/8 3;
#X text 393 211 tempo;
#X msg 154 146 timesig 4/4;
#X msg 169 170 timesig 3/4;
#X obj 106 241 else/metronome 90, f 35;
#X msg 119 69 timesig 15/8 5;
#X text 323 336 phase (0-1);
#X obj 413 441 clock -s 1.5;
#X obj 395 539 else/out~;
#X obj 395 504 *~;
#X obj 413 412 tgl 18 0 empty empty empty 17 7 0 10 #dfdfdf #000000
#000000 0 1;
#X obj 355 471 brown~;
#X obj 413 471 decay~ 300;
#X text 158 524 The [clock] object can also sync to [metronome] objects.
Check its help file., f 28;
#X listbox 348 272 12 0 0 0 - - - 0;
#X obj 186 305 else/display;
#X obj 186 371 metronome~;
#X msg 176 204 timesig 3/4 + 3/8;
#X text 303 70 This is a high level metronome. It is here because you
can use the bar count to fire a sequence with select. Or select a specific
beat in a bar \, kind of like a timeline in a DAW (hint \, hint). Check
its help file for details., f 34;
#X text 56 377 See also the [metronome~] object for clicks., f 12
;
#X connect 1 0 14 0;
#X connect 3 0 14 1;
#X connect 6 0 7 0;
#X connect 8 0 14 0;
#X connect 9 0 14 0;
#X connect 10 0 14 0;
#X connect 12 0 14 0;
#X connect 13 0 14 0;
#X connect 14 0 2 0;
#X connect 14 1 25 0;
#X connect 14 2 6 0;
#X connect 14 3 24 0;
#X connect 15 0 14 0;
#X connect 17 0 22 0;
#X connect 19 0 18 0;
#X connect 20 0 17 0;
#X connect 21 0 19 0;
#X connect 22 0 19 1;
#X connect 25 0 26 0;
#X connect 26 0 5 0;
#X connect 27 0 14 0;
