#N canvas 98 38 1131 807 12;
#X obj 345 623 vcf~;
#X text 248 136 ee;
#X obj 357 510 r vowel_freq_1;
#X floatatom 357 534 5 0 0 0 - - - 0;
#X obj 583 625 vcf~;
#X floatatom 595 560 5 0 0 0 - - - 0;
#X obj 595 536 r vowel_freq_2;
#X floatatom 850 572 5 0 0 0 - - - 0;
#X obj 850 548 r vowel_freq_3;
#X obj 838 634 vcf~;
#X obj 819 225 openpanel;
#X obj 819 199 bng 21 250 50 0 empty empty empty 17 7 0 10 #dfdfdf #000000 #000000;
#N canvas 0 50 450 250 (subpatch) 0;
#X array sample 274964 float 2;
#A color 0;
#A width 2;
#X coords 0 1 274964 -1 200 140 1 0 0;
#X restore 817 34 graph;
#X obj 819 299 soundfiler;
#X floatatom 819 323 5 0 0 0 - - - 0;
#X floatatom 887 333 5 0 0 0 - - - 0;
#X msg 819 251 symbol \$1;
#X msg 819 275 read -resize \$1 sample;
#X obj 821 388 /;
#X floatatom 821 412 5 0 0 0 - - - 0;
#X obj 821 435 * 1000;
#X obj 821 459 s sample_time_ms;
#X obj 58 657 vline~;
#X obj 121 542 r sample_time_ms;
#X floatatom 121 566 5 0 0 0 - - - 0;
#X obj 56 602 pack f f f;
#X msg 56 626 \$1 \, \$2 \$3;
#X msg 56 539 0;
#X obj 819 351 t f f;
#X obj 853 377 s sample_length_n_samples;
#X obj 89 497 r sample_length_n_samples;
#X obj 58 681 tabread4~ sample;
#X floatatom 370 598 5 0 0 0 - - - 0;
#X obj 370 574 r vowel_q_1;
#X floatatom 618 603 5 0 0 0 - - - 0;
#X floatatom 892 617 5 0 0 0 - - - 0;
#X obj 618 579 r vowel_q_2;
#X obj 892 593 r vowel_q_3;
#X obj 58 705 s~ sample_out~;
#X obj 240 589 r~ sample_out~;
#X obj 488 561 r~ sample_out~;
#X obj 740 573 r~ sample_out~;
#X obj 583 690 clip~ -1 1;
#X text 437 127 i;
#X obj 56 457 r sample_play;
#X text 238 259 e;
#X text 438 263 ae;
#X text 556 37 TAP HERE:;
#X text 237 387 ah;
#X text 438 387 aw;
#X text 616 128 U;
#X text 617 264 oo;
#X text 617 388 A;
#X msg 641 91 \; vowel_freq_1 440 \; vowel_q_1 20 \; vowel_freq_2 1020 \; vowel_q_2 111 \; vowel_freq_3 2240 \; vowel_q_3 180 \; sample_play bang \;;
#X msg 461 220 \; vowel_freq_1 660 \; vowel_q_1 20 \; vowel_freq_2 1720 \; vowel_q_2 90 \; vowel_freq_3 2410 \; vowel_q_3 140 \; sample_play bang \;;
#X msg 641 348 \; vowel_freq_1 640 \; vowel_q_1 20 \; vowel_freq_2 1190 \; vowel_q_2 90 \; vowel_freq_3 2390 \; vowel_q_3 140 \; sample_play bang \;;
#X msg 462 347 \; vowel_freq_1 570 \; vowel_q_1 20 \; vowel_freq_2 840 \; vowel_q_2 90 \; vowel_freq_3 2410 \; vowel_q_3 140 \; sample_play bang \;;
#X msg 277 347 \; vowel_freq_1 730 \; vowel_q_1 20 \; vowel_freq_2 1090 \; vowel_q_2 90 \; vowel_freq_3 2440 \; vowel_q_3 140 \; sample_play bang \;;
#X msg 278 219 \; vowel_freq_1 530 \; vowel_q_1 20 \; vowel_freq_2 1840 \; vowel_q_2 90 \; vowel_freq_3 2480 \; vowel_q_3 140 \; sample_play bang \;;
#X msg 462 90 \; vowel_freq_1 390 \; vowel_q_1 20 \; vowel_freq_2 1990 \; vowel_q_2 90 \; vowel_freq_3 2550 \; vowel_q_3 140 \; sample_play bang \;;
#X text 640 667 CHANGE AMP TO YOUR NEED;
#X text 849 197 open your MMMMMM.wav here;
#X obj 583 666 *~ 8;
#X msg 279 95 \; vowel_freq_1 270 \; vowel_q_1 35 \; vowel_freq_2 2290 \; vowel_q_2 60 \; vowel_freq_3 3010 \; vowel_q_3 90 \; sample_play bang \;;
#X msg 640 221 \; vowel_freq_1 300 \; vowel_q_1 15 \; vowel_freq_2 870 \; vowel_q_2 80 \; vowel_freq_3 2240 \; vowel_q_3 120 \; sample_play bang \;;
#X obj 583 719 out~;
#X obj 874 494 play.file~ didge.flac 1 1;
#X connect 0 0 62 0;
#X connect 2 0 3 0;
#X connect 3 0 0 1;
#X connect 4 0 62 0;
#X connect 5 0 4 1;
#X connect 6 0 5 0;
#X connect 7 0 9 1;
#X connect 8 0 7 0;
#X connect 9 0 62 0;
#X connect 10 0 16 0;
#X connect 11 0 10 0;
#X connect 13 0 14 0;
#X connect 13 1 15 0;
#X connect 14 0 28 0;
#X connect 15 0 18 1;
#X connect 16 0 17 0;
#X connect 17 0 13 0;
#X connect 18 0 19 0;
#X connect 19 0 20 0;
#X connect 20 0 21 0;
#X connect 22 0 31 0;
#X connect 23 0 24 0;
#X connect 24 0 25 2;
#X connect 25 0 26 0;
#X connect 26 0 22 0;
#X connect 27 0 25 0;
#X connect 28 0 18 0;
#X connect 28 1 29 0;
#X connect 30 0 25 1;
#X connect 31 0 38 0;
#X connect 32 0 0 2;
#X connect 33 0 32 0;
#X connect 34 0 4 2;
#X connect 35 0 9 2;
#X connect 36 0 34 0;
#X connect 37 0 35 0;
#X connect 39 0 0 0;
#X connect 40 0 4 0;
#X connect 41 0 9 0;
#X connect 42 0 65 0;
#X connect 44 0 27 0;
#X connect 62 0 42 0;
#X connect 66 0 38 0;
