#N canvas 498 48 720 793 12;
#X obj 162 593 vcf~;
#X obj 174 480 r vowel_freq_1;
#X floatatom 174 504 5 0 0 0 - - - 0;
#X obj 312 601 vcf~;
#X floatatom 324 526 5 0 0 0 - - - 0;
#X obj 324 502 r vowel_freq_2;
#X floatatom 467 537 5 0 0 0 - - - 0;
#X obj 467 513 r vowel_freq_3;
#X obj 455 599 vcf~;
#X floatatom 187 568 5 0 0 0 - - - 0;
#X obj 187 544 r vowel_q_1;
#X floatatom 342 576 5 0 0 0 - - - 0;
#X floatatom 512 567 5 0 0 0 - - - 0;
#X obj 342 552 r vowel_q_2;
#X obj 512 543 r vowel_q_3;
#X obj 103 719 s~ sample_out~;
#X obj 309 468 r~ sample_out~;
#X obj 453 482 r~ sample_out~;
#X text 322 15 TAP HERE:;
#X obj 312 710 out~;
#X obj 103 686 play.file~ didge.flac 1 1;
#X text 92 92 ee;
#X text 261 83 i;
#X text 82 205 e;
#X text 262 209 ae;
#X text 81 323 ah;
#X text 262 323 aw;
#X text 430 84 U;
#X text 431 210 oo;
#X text 431 324 A;
#X obj 138 453 r~ sample_out~;
#X msg 123 51 \; vowel_freq_1 270 \; vowel_q_1 35 \; vowel_freq_2 2290 \; vowel_q_2 60 \; vowel_freq_3 3010 \; vowel_q_3 90;
#X msg 122 165 \; vowel_freq_1 530 \; vowel_q_1 20 \; vowel_freq_2 1840 \; vowel_q_2 90 \; vowel_freq_3 2480 \; vowel_q_3 140;
#X msg 121 283 \; vowel_freq_1 730 \; vowel_q_1 20 \; vowel_freq_2 1090 \; vowel_q_2 90 \; vowel_freq_3 2440 \; vowel_q_3 140;
#X msg 286 51 \; vowel_freq_1 390 \; vowel_q_1 20 \; vowel_freq_2 1990 \; vowel_q_2 90 \; vowel_freq_3 2550 \; vowel_q_3 140;
#X msg 285 165 \; vowel_freq_1 660 \; vowel_q_1 20 \; vowel_freq_2 1720 \; vowel_q_2 90 \; vowel_freq_3 2410 \; vowel_q_3 140;
#X msg 286 283 \; vowel_freq_1 570 \; vowel_q_1 20 \; vowel_freq_2 840 \; vowel_q_2 90 \; vowel_freq_3 2410 \; vowel_q_3 140;
#X msg 455 283 \; vowel_freq_1 640 \; vowel_q_1 20 \; vowel_freq_2 1190 \; vowel_q_2 90 \; vowel_freq_3 2390 \; vowel_q_3 140;
#X msg 454 165 \; vowel_freq_1 300 \; vowel_q_1 15 \; vowel_freq_2 870 \; vowel_q_2 80 \; vowel_freq_3 2240 \; vowel_q_3 120;
#X msg 455 51 \; vowel_freq_1 440 \; vowel_q_1 20 \; vowel_freq_2 1020 \; vowel_q_2 111 \; vowel_freq_3 2240 \; vowel_q_3 180;
#X obj 312 657 drive~ 10;
#X obj 123 21 loadbang;
#X connect 0 0 40 0;
#X connect 1 0 2 0;
#X connect 2 0 0 1;
#X connect 3 0 40 0;
#X connect 4 0 3 1;
#X connect 5 0 4 0;
#X connect 6 0 8 1;
#X connect 7 0 6 0;
#X connect 8 0 40 0;
#X connect 9 0 0 2;
#X connect 10 0 9 0;
#X connect 11 0 3 2;
#X connect 12 0 8 2;
#X connect 13 0 11 0;
#X connect 14 0 12 0;
#X connect 16 0 3 0;
#X connect 17 0 8 0;
#X connect 20 0 15 0;
#X connect 30 0 0 0;
#X connect 40 0 19 0;
#X connect 41 0 31 0;
