#N canvas 301 125 903 551 12;
#X obj 414 374 bng 20 250 50 0 empty empty empty 17 7 0 10 -228856
-1 -1;
#X floatatom 758 156 6 0 100 0 - hz -, f 6;
#X obj 648 292 +~;
#X obj 666 267 samphold~;
#X obj 666 174 samphold~;
#X obj 648 226 *~;
#X obj 648 319 tabread4~ \$0-buffer, f 9;
#X obj 740 372 *~;
#X floatatom 274 257 6 0 100 0 - hz -, f 6;
#X obj 178 361 +~;
#X obj 157 328 *~;
#X obj 178 390 tabread4~ \$0-buffer, f 9;
#X text 324 257 Hz;
#X obj 256 439 *~;
#X text 764 137 Hz;
#X obj 758 179 phasor~;
#X obj 274 281 phasor~;
#X floatatom 196 229 6 0 0 0 - - -, f 6;
#X floatatom 118 207 6 0 0 0 - grain -, f 6;
#X floatatom 666 121 6 0 0 0 - grain -, f 6;
#X floatatom 588 165 6 0 0 0 - grain -, f 6;
#X obj 274 390 envelope~;
#X obj 213 474 out~;
#X obj 740 406 out~;
#X obj 758 329 envelope~;
#X obj 118 233 ms2samps;
#X obj 196 261 ms2samps;
#X text 249 229 position (ms);
#X text 166 203 grain size (ms);
#X text 40 23 The basis of granular processes is to play small audio
snippets \, called "grains". In this example a [phasor~] reads grains
from a buffer in a loop at a given frequency. The same [phasor~] controls
an envelope of the grain. The envelope is essential to avoid clicks.
In this example we use a sine function \, which is the default of the
[envelope] object - open its help file for more details., f 59;
#N canvas 790 23 585 282 buffer 0;
#X obj 199 195 table \$0-buffer;
#X obj 95 196 soundfiler;
#X obj 41 57 openpanel;
#X obj 41 80 list append \$0-buffer;
#X msg 41 104 read -resize \$1 \$2;
#X obj 41 26 inlet;
#X obj 95 138 initmess read -resize ../../../samples/bubul.wav \$0-buffer
\; hz 1 \; grain 500 \;;
#X connect 2 0 3 0;
#X connect 3 0 4 0;
#X connect 4 0 1 0;
#X connect 5 0 2 0;
#X connect 6 0 1 0;
#X restore 414 423 pd buffer;
#X obj 588 190 ms2samps;
#X obj 666 145 ms2samps;
#X text 490 40 In order to avoid clicks when adjusting grain size and
position \, we can use [samphold~] \, which will only let a new value
through at period transitions., f 54;
#X text 439 373 <=;
#X text 460 374 load another file into the buffer, f 17;
#X text 520 164 position;
#X text 629 121 size;
#X text 40 130 Besides the frequency \, we have a grain size parameter
in ms and its position im the buffer \, also in ms (both values are
converted to samples and read as indexes). The grain size and frequency
affect the output pitch.;
#X connect 0 0 30 0;
#X connect 1 0 15 0;
#X connect 2 0 6 0;
#X connect 3 0 2 1;
#X connect 4 0 5 1;
#X connect 5 0 2 0;
#X connect 6 0 7 0;
#X connect 7 0 23 0;
#X connect 7 0 23 1;
#X connect 8 0 16 0;
#X connect 9 0 11 0;
#X connect 10 0 9 0;
#X connect 11 0 13 0;
#X connect 13 0 22 0;
#X connect 13 0 22 1;
#X connect 15 0 3 1;
#X connect 15 0 4 1;
#X connect 15 0 5 0;
#X connect 15 0 24 0;
#X connect 16 0 10 0;
#X connect 16 0 21 0;
#X connect 17 0 26 0;
#X connect 18 0 25 0;
#X connect 19 0 32 0;
#X connect 20 0 31 0;
#X connect 21 0 13 1;
#X connect 24 0 7 1;
#X connect 25 0 10 1;
#X connect 26 0 9 1;
#X connect 31 0 3 0;
#X connect 32 0 4 0;
