#N canvas 298 38 915 569 12;
#X text 776 222 Hz;
#X obj 717 199 hsl 128 15 -5 5 0 0 empty hz empty -2 -8 0 10 -228856
-1 -1 7620 1;
#X obj 714 225 nbx 5 14 -1e+37 1e+37 0 0 empty empty empty 0 -8 0 10
-228856 -1 -1 1 256;
#X obj 174 422 phasor~ -1;
#X obj 114 437 noise~;
#X obj 714 253 s \$0-freq;
#X obj 114 507 display~;
#X obj 76 125 sig2float~;
#X obj 76 150 vsl 20 100 0 1 0 0 empty empty empty 0 -9 0 10 -228856
-1 -1 8248 1;
#X obj 253 125 sig2float~;
#X obj 253 150 vsl 20 100 0 1 0 0 empty empty empty 0 -9 0 10 -228856
-1 -1 1652 1;
#X obj 253 99 phasor~ -0.5;
#X obj 76 99 phasor~ 0.5;
#X obj 174 449 fexpr~ abs($x1[0] - $x1[-1]) < 0.5;
#X obj 114 479 samphold~;
#X floatatom 610 193 0 0 1e+06 0 - grain -;
#X floatatom 519 194 0 0 1e+06 0 - - -;
#X text 588 169 grão (ms);
#X text 486 176 posição (ms), f 7;
#X obj 519 254 s~ \$0-pos;
#X obj 610 254 s~ \$0-grain;
#X obj 587 422 +~;
#X obj 605 342 r \$0-freq;
#X obj 587 463 out~;
#X obj 740 369 bng 20 250 50 0 empty empty empty 17 7 0 10 -228856
-1 -1;
#X text 17 18 For now we only had positive frequencies examples. Negative
frequencies on [phasor~] or [pimp~] will read the sample backwards
\, as it runs in the opposite direction.;
#X text 62 267 positive;
#X text 244 266 negative;
#X text 23 313 There's an issue though if you want to use the Pd native
objects [phasor~] and [samphold~] because you won't be able to trigger
[samphold~] when [phasor~] runs with a negative frequency. A solution
would be turn the [phasor~] output into a flipped impulse as below.
;
#X text 466 38 The [pimp~] and [sh~] objects from ELSE offer a simpler
solution as [pimp~] outputs impulses at period transitions and [sh~]
can be triggered by them.;
#X text 467 85 See the adaptation below and try negative frequencies
as well. Now each grain is read in a different subpatch to make things
cleaner.;
#X obj 519 223 ms2samps;
#X obj 610 228 ms2samps;
#X text 734 179 frequency;
#N canvas 457 81 342 422 grain-1 0;
#X obj 208 338 *~;
#X obj 48 67 r~ \$0-grain;
#X obj 73 164 *~;
#X obj 104 250 +~;
#X obj 97 195 r~ \$0-pos;
#X obj 104 282 tabread4~ \$0-buffer, f 10;
#X obj 208 375 outlet~;
#X obj 141 32 inlet~;
#X obj 141 67 pimp~;
#X obj 115 161 sh~;
#X obj 155 226 sh~;
#X obj 226 301 envelope~;
#X connect 0 0 6 0;
#X connect 1 0 9 0;
#X connect 2 0 3 0;
#X connect 3 0 5 0;
#X connect 4 0 10 0;
#X connect 5 0 0 0;
#X connect 7 0 8 0;
#X connect 8 0 2 0;
#X connect 8 0 11 0;
#X connect 8 1 9 1;
#X connect 8 1 10 1;
#X connect 9 0 2 1;
#X connect 10 0 3 1;
#X connect 11 0 0 1;
#X restore 519 385 pd grain-1;
#N canvas 681 47 481 244 buffer 0;
#X obj 301 176 table \$0-buffer;
#X obj 197 177 soundfiler;
#X obj 62 70 openpanel;
#X obj 62 93 list append \$0-buffer;
#X msg 62 117 read -resize \$1 \$2;
#X obj 62 44 inlet;
#X obj 197 118 initmess read -resize ../../../samples/bubul.wav \$0-buffer
\; hz 1 \; grain 500, f 38;
#X connect 2 0 3 0;
#X connect 3 0 4 0;
#X connect 4 0 1 0;
#X connect 5 0 2 0;
#X connect 6 0 1 0;
#X restore 740 395 pd buffer;
#N canvas 457 81 342 422 grain-2 0;
#X obj 208 338 *~;
#X obj 48 67 r~ \$0-grain;
#X obj 73 164 *~;
#X obj 104 250 +~;
#X obj 97 195 r~ \$0-pos;
#X obj 104 282 tabread4~ \$0-buffer, f 10;
#X obj 208 375 outlet~;
#X obj 141 32 inlet~;
#X obj 115 161 sh~;
#X obj 155 226 sh~;
#X obj 226 301 envelope~;
#X obj 141 67 pimp~ 0 0.5;
#X connect 0 0 6 0;
#X connect 1 0 8 0;
#X connect 2 0 3 0;
#X connect 3 0 5 0;
#X connect 4 0 9 0;
#X connect 5 0 0 0;
#X connect 7 0 11 0;
#X connect 8 0 2 1;
#X connect 9 0 3 1;
#X connect 10 0 0 1;
#X connect 11 0 2 0;
#X connect 11 0 10 0;
#X connect 11 1 8 1;
#X connect 11 1 9 1;
#X restore 605 385 pd grain-2;
#X connect 1 0 2 0;
#X connect 2 0 5 0;
#X connect 3 0 13 0;
#X connect 4 0 14 0;
#X connect 7 0 8 0;
#X connect 9 0 10 0;
#X connect 11 0 9 0;
#X connect 12 0 7 0;
#X connect 13 0 14 1;
#X connect 14 0 6 0;
#X connect 15 0 32 0;
#X connect 16 0 31 0;
#X connect 21 0 23 0;
#X connect 21 0 23 1;
#X connect 22 0 34 0;
#X connect 22 0 36 0;
#X connect 24 0 35 0;
#X connect 31 0 19 0;
#X connect 32 0 20 0;
#X connect 34 0 21 0;
#X connect 36 0 21 1;
