#N canvas 443 139 578 436 12;
#X obj 110 126 noise~;
#X msg 323 113 150;
#X obj 126 185 slop~ 0 1e+09 0 1e+09 0;
#X obj 110 235 fexpr~ $y + in * ($x - $y);
#X obj 323 84 loadbang;
#X obj 326 143 hsl 162 19 50 5000 1 0 empty empty empty -2 -10 0 12 #dfdfdf #000000 #000000 0 1;
#X obj 323 176 hz2rad;
#X obj 323 206 clip 0 1;
#X floatatom 323 233 11 0 0 0 - - - 0;
#X obj 323 259 v in;
#X obj 110 279 out~;
#X connect 0 0 2 0;
#X connect 0 0 3 0;
#X connect 1 0 2 1;
#X connect 1 0 5 0;
#X connect 3 0 10 0;
#X connect 4 0 1 0;
#X connect 5 0 6 0;
#X connect 6 0 7 0;
#X connect 7 0 8 0;
#X connect 8 0 9 0;
