#N canvas 165 63 1080 710 12;
#X obj 200 568 v diff;
#X obj 110 201 sig~;
#X obj 110 169 tgl 19 0 empty empty empty 0 -10 0 12 #fcfcfc #000000 #000000 0 1;
#X obj 415 366 v maxdiff;
#X obj 429 336 v mindiff;
#X obj 415 300 max 0;
#X floatatom 231 118 5 10 125 0 - - - 0;
#X floatatom 231 210 8 0 0 0 - - - 0;
#X text 273 101 amplitude per second, f 10;
#X obj 231 146 t f b;
#X obj 263 175 samplerate~;
#X obj 231 175 /;
#X msg 231 95 1;
#X obj 231 70 loadbang;
#X text 297 202 amplitude per sample, f 11;
#X obj 164 307 tgl 19 0 empty empty empty 17 7 0 10 #dfdfdf #000000 #000000 0 1;
#X obj 164 334 metro 25;
#X obj 147 364 snapshot~;
#X obj 150 419 hsl 162 19 0 1 0 0 empty empty empty -2 -10 0 12 #dfdfdf #000000 #000000 0 1;
#X floatatom 147 391 8 0 0 0 - - - 0;
#X text 188 307 <- convert to control data;
#X obj 147 276 slop~ 1e+09, f 16;
#X obj 614 508 tgl 19 0 empty empty empty 17 7 0 10 #dfdfdf #000000 #000000 0 1;
#X obj 614 535 metro 25;
#X obj 597 565 snapshot~;
#X text 638 508 <- convert to control data;
#X obj 600 601 hsl 162 19 0 1 0 0 empty empty empty -2 -10 0 12 #dfdfdf #000000 #000000 0 1;
#X obj 102 501 fexpr~ diff = $x - $y2 \; $y2 + if(diff > maxdiff \, maxdiff \, if(diff < -mindiff \, - mindiff \, diff)), f 71;
#X obj 111 589 numbox~ 6 12 100 #C0C0C4 #440008 10 0 0 0;
#X obj 616 271 sig~;
#X obj 616 239 tgl 19 0 empty empty empty 0 -10 0 12 #dfdfdf #000000 #000000 0 1;
#X obj 840 424 hsl 162 19 0 1 0 0 empty empty empty -2 -10 0 12 #dfdfdf #000000 #000000 0 1;
#X obj 688 281 v slew;
#X obj 688 245 max 0;
#X floatatom 688 117 5 10 125 0 - - - 0;
#X floatatom 688 209 10 0 0 0 - - - 0;
#X text 730 100 amplitude per second, f 10;
#X obj 688 145 t f b;
#X obj 720 174 samplerate~;
#X obj 688 174 /;
#X msg 688 94 1;
#X obj 688 69 loadbang;
#X text 767 201 amplitude per sample, f 11;
#X obj 760 281 v delta;
#X obj 616 335 fexpr~ delta = $x - $y2 \; $y2 + if(delta > slew \, slew \, if(delta < -slew \, -slew \, delta)), f 32;
#X obj 837 396 s2f~;
#X obj 904 260 setdsp~ 1;
#X connect 1 0 21 0;
#X connect 1 0 27 0;
#X connect 2 0 1 0;
#X connect 5 0 3 0;
#X connect 5 0 4 0;
#X connect 6 0 9 0;
#X connect 7 0 21 2;
#X connect 7 0 21 4;
#X connect 7 0 5 0;
#X connect 9 0 11 0;
#X connect 9 1 10 0;
#X connect 10 0 11 1;
#X connect 11 0 7 0;
#X connect 12 0 6 0;
#X connect 13 0 12 0;
#X connect 15 0 16 0;
#X connect 16 0 17 0;
#X connect 17 0 19 0;
#X connect 19 0 18 0;
#X connect 21 0 17 0;
#X connect 22 0 23 0;
#X connect 23 0 24 0;
#X connect 24 0 26 0;
#X connect 27 0 28 0;
#X connect 27 1 24 0;
#X connect 29 0 44 0;
#X connect 30 0 29 0;
#X connect 33 0 32 0;
#X connect 34 0 37 0;
#X connect 35 0 33 0;
#X connect 37 0 39 0;
#X connect 37 1 38 0;
#X connect 38 0 39 1;
#X connect 39 0 35 0;
#X connect 40 0 34 0;
#X connect 41 0 40 0;
#X connect 44 1 45 0;
#X connect 45 0 31 0;
