#N canvas 169 23 1067 484 12;
#X obj 112 287 *~;
#X obj 54 234 osc~ 440;
#X obj 162 143 nbx 5 17 0 2000 0 0 empty empty empty 0 -8 0 12 -228856
-1 -1 0 256;
#X obj 122 140 bng 25 250 50 0 empty empty empty 17 7 0 10 -228856
-1 -1;
#X obj 112 328 out~;
#X obj 130 178 f 500;
#X text 165 121 ms;
#X obj 130 234 envgen~;
#X obj 217 186 initmess \; \$0-hann cosinesum 1024 0.5 -0.5;
#X text 290 163 Generates hann table;
#X obj 343 224 table \$0-hann;
#X obj 130 262 table~ \$0-hann;
#X obj 489 322 *~;
#X obj 433 279 osc~ 440;
#X obj 539 176 nbx 5 17 0 2000 0 0 empty empty empty 0 -8 0 12 -228856
-1 -1 0 256;
#X obj 499 173 bng 25 250 50 0 empty empty empty 17 7 0 10 -228856
-1 -1;
#X obj 489 363 out~;
#X obj 507 209 f 500;
#X text 542 154 ms;
#X msg 507 238 0 \$1 1;
#X obj 507 265 envgen~;
#X obj 507 293 envelope~ hann;
#X obj 653 322 osc~ 440;
#X obj 728 363 *~;
#X obj 685 405 out~;
#X obj 746 320 function~ 0 0.5 1 0.5 0;
#X obj 652 239 envgen~;
#X obj 704 166 nbx 5 17 0 2000 0 0 empty empty empty 0 -8 0 12 -228856
-1 -1 0 256;
#X obj 652 138 bng 25 250 50 0 empty empty empty 17 7 0 10 -228856
-1 -1;
#X obj 652 176 f 500;
#X text 707 144 ms;
#X text 514 25 But for more common functions used as envelopes we have
the [envelope~] object from ELSE \, which has "hann" \, "sin" (half
the sine function) and triangular. It also needs an input from 0 to
1 as indexes. Lastly \, there's a parallel here with [function~] \,
which can also be considered a table that can be read with indices
from 0 to 1!, f 71;
#X msg 652 207 0 \$1 1;
#X msg 796 167 0 0.5 1 0.5 0;
#X text 898 167 triangular;
#X text 935 138 trapezoid;
#X msg 779 138 0 0.25 1 0.5 1 0.25 0;
#X obj 782 198 envelope 0 0.5 1 0.5 0;
#X msg 130 207 0 \$1 1;
#X text 52 24 We now present more convenient solutions with objects
from the ELSE library. We have a first superficial look into the [table~]
object \, which is similar to [tabread4~] \, but by default it has
an index input is from 0 to 1 (excluding guard points) \, which makes
us not worry about the table size and index range., f 58;
#X connect 0 0 4 0;
#X connect 0 0 4 1;
#X connect 1 0 0 0;
#X connect 2 0 5 1;
#X connect 3 0 5 0;
#X connect 5 0 38 0;
#X connect 7 0 11 0;
#X connect 11 0 0 1;
#X connect 12 0 16 0;
#X connect 12 0 16 1;
#X connect 13 0 12 0;
#X connect 14 0 17 1;
#X connect 15 0 17 0;
#X connect 17 0 19 0;
#X connect 19 0 20 0;
#X connect 20 0 21 0;
#X connect 21 0 12 1;
#X connect 22 0 23 0;
#X connect 23 0 24 1;
#X connect 23 0 24 0;
#X connect 25 0 23 1;
#X connect 26 0 25 0;
#X connect 27 0 29 1;
#X connect 28 0 29 0;
#X connect 29 0 32 0;
#X connect 32 0 26 0;
#X connect 33 0 37 0;
#X connect 36 0 37 0;
#X connect 37 0 25 0;
#X connect 38 0 7 0;
