#N canvas 254 73 846 471 12;
#X text 28 25 One thing particularly interesting for envelope tables
is that we can read them in a loop \, sort of like an LFO. For that
\, instead of using something like [vline~] or [envgen~] to read the
table \, we have a [phasor~] object., f 56;
#X obj 624 351 vsl 15 80 0 1 0 0 empty empty empty 0 -9 0 10 -228856
-1 -1 960 1;
#X obj 471 258 osc~ 440;
#X obj 547 335 *~;
#X obj 52 289 vsl 15 80 0 1 0 0 empty empty empty 0 -9 0 10 -228856
-1 -1 893 1;
#X obj 310 322 vsl 15 80 0 1 0 0 empty empty empty 0 -9 0 10 -228856
-1 -1 896 1;
#X obj 504 375 out~;
#X obj 624 324 sig2float~;
#X obj 310 295 sig2float~;
#X obj 52 262 sig2float~;
#X obj 179 305 vsl 15 80 0 1 0 0 empty empty empty 0 -9 0 10 -228856
-1 -1 896 1;
#X obj 179 278 sig2float~;
#X obj 52 227 tabosc4~ \$0-hann;
#X obj 179 243 table~ \$0-hann;
#X obj 179 197 phasor~;
#X obj 179 165 nbx 5 14 -1e+37 1e+37 0 0 empty empty empty 0 -8 0 10
-228856 -1 -1 2 256;
#X obj 310 237 envelope~ hann;
#X obj 565 216 nbx 5 14 -1e+37 1e+37 0 0 empty empty empty 0 -8 0 10
-228856 -1 -1 2 256;
#X obj 565 241 phasor~;
#X obj 300 149 initmess \; \$0-hann cosinesum 1024 0.5 -0.5;
#X obj 426 187 table \$0-hann;
#X obj 565 183 initmess 2;
#X obj 180 132 initmess 2;
#X obj 565 269 function~ 0 0.1 1 0.9 0;
#X text 458 23 This is the basis of granular techniques that we'll
see in the vol. 2 of this tutorial., f 46;
#X text 458 57 For let's relate this to amplitude modulation and also
see how we can generate rythmic patterns., f 46;
#X text 301 185 generate hann;
#X connect 2 0 3 0;
#X connect 3 0 6 1;
#X connect 3 0 6 0;
#X connect 7 0 1 0;
#X connect 8 0 5 0;
#X connect 9 0 4 0;
#X connect 11 0 10 0;
#X connect 12 0 9 0;
#X connect 13 0 11 0;
#X connect 14 0 13 0;
#X connect 14 0 16 0;
#X connect 15 0 14 0;
#X connect 15 0 12 0;
#X connect 16 0 8 0;
#X connect 17 0 18 0;
#X connect 18 0 23 0;
#X connect 21 0 17 0;
#X connect 22 0 15 0;
#X connect 23 0 3 1;
#X connect 23 0 7 0;
