#N canvas 460 50 564 665 12;
#X obj 112 248 t b b;
#X obj 144 295 vsnapshot~;
#X floatatom 144 322 0 0 0 0 - - -;
#X obj 58 294 vsnapshot~;
#X floatatom 58 321 0 0 0 0 - - -;
#X obj 126 357 -;
#X floatatom 126 387 0 0 0 0 - - -;
#X obj 58 137 ramp~ 1 0 44100;
#X obj 112 220 tempo 120 -on;
#X obj 327 169 cnv 15 79 60 empty empty empty 20 12 0 14 -228986 -66577
0;
#X obj 414 214 t b b;
#X obj 446 255 vsnapshot~;
#X floatatom 446 282 0 0 0 0 - - -;
#X obj 315 256 vsnapshot~;
#X floatatom 315 283 0 0 0 0 - - -;
#X obj 428 317 -;
#X floatatom 428 347 0 0 0 0 - - -;
#N canvas 885 201 309 205 send 0;
#X obj 107 39 inlet~;
#X obj 87 118 outlet~;
#X text 141 119 <== dummy outlet;
#X obj 107 72 send~ \$0-count-2;
#X connect 0 0 3 0;
#X restore 329 176 pd send;
#N canvas 831 310 293 168 receive 0;
#X obj 75 29 inlet~;
#X obj 94 118 outlet~;
#X text 128 28 <== dummy inlet;
#X obj 94 87 receive~ \$0-count-2;
#X connect 3 0 1 0;
#X restore 329 205 pd receive;
#X obj 315 138 ramp~ 1 0 44100;
#X obj 414 188 tempo 120 -on;
#X obj 70 165 send~ \$0-count;
#X obj 161 265 receive~ \$0-count;
#X obj 218 139 setdsp~ 1;
#X text 156 387 <= one block of delay;
#X text 340 348 no delay ==>;
#X text 60 24 Even without feedback \, objects like [send~] / [receive~]
may not be in sync and generate a block of delay. This depends on order
of creation but you can force an order of execution by connecting these
objects with subpatches and dummy in/outlets (see [pd send] e [pd receive]
below)., f 64;
#X text 84 442 The "dummy" [inlet~] / [outlet~] objects are only used
to connect the subpatches and have no other purpose than that \, but
that's what forces the order of execution anyway.;
#X text 84 495 If a feedback mechanism is implemented with such subpatches
and dummy [inlet~]/[outlet~] \, Pd also interpretes this as an infinite
loop and turns the audio chain off., f 59;
#X text 83 547 The same mechanism can be applied to other similar objects
like: [tabsend~]/[tabreceive~] & [throw~]/[catch~] pais. We'll also
see later in this tutorial how to use this mechanism when it comes
to managing delay lines wht [delwrite~] and [delread~] or [delread4~]
pairs., f 59;
#X connect 0 0 3 0;
#X connect 0 1 1 0;
#X connect 1 0 2 0;
#X connect 2 0 5 1;
#X connect 3 0 4 0;
#X connect 4 0 5 0;
#X connect 5 0 6 0;
#X connect 7 0 3 0;
#X connect 7 0 21 0;
#X connect 8 0 0 0;
#X connect 10 0 13 0;
#X connect 10 1 11 0;
#X connect 11 0 12 0;
#X connect 12 0 15 1;
#X connect 13 0 14 0;
#X connect 14 0 15 0;
#X connect 15 0 16 0;
#X connect 17 0 18 0;
#X connect 18 0 11 0;
#X connect 19 0 17 0;
#X connect 19 0 13 0;
#X connect 20 0 10 0;
#X connect 22 0 1 0;
