#N canvas 323 38 849 672 12;
#X declare -path else;
#X obj 603 43 declare -path else;
#X obj 152 585 out~;
#X obj 110 498 *~ 0.5;
#X obj 152 543 *~;
#X obj 144 298 mono~, f 8;
#X obj 88 186 tgl 21 0 empty empty empty 0 -10 0 12 #dfdfdf #000000 #000000 0 1;
#X msg 88 242 33;
#X obj 88 266 makenote 127 250;
#X obj 88 218 metro 510;
#X obj 170 487 adsr~ 100 50 0.6 250;
#X obj 46 452 bl.saw~ -midi, f 7;
#X obj 110 452 bl.saw~ -midi, f 7;
#X obj 110 388 +~ 0.01;
#X obj 218 338 rand.f~;
#X obj 421 540 out~;
#X obj 398 186 tgl 21 0 empty empty empty 0 -10 0 12 #dfdfdf #000000 #000000 0 1;
#X msg 398 242 33;
#X obj 398 266 makenote 127 250;
#X obj 398 218 metro 510;
#X obj 402 427 bl.saw~ -midi, f 7;
#X obj 218 369 numbox~ 6 12 100 #C0C0C4 #440008 10 0 0 0;
#X obj 200 399 *~;
#X obj 414 298 stripnote;
#X listbox 492 371 41 0 0 0 - - - 0;
#X obj 474 427 bng 19 250 50 0 empty empty empty 0 -10 0 12 #dfdfdf #000000 #000000;
#X obj 474 467 decay~ 800;
#X obj 492 347 rand.dev -n 5 0.2;
#X text 66 46 Another option besides free running or phase locked is to have a random phase value at each note on attack. Below we use [rand.f~] for this., f 22;
#X text 339 86 You can also have different detuning values for the oscillators at each note on. Below we combine 5 sawtooth waves by using a list input \, which forces the object into Multichannel mode \, with 5 signals output for each oscillator channel., f 64;
#X text 602 436 The 5 channel output is summed in the [vca~] object into a single channel output. This is an abstraction that has the [sum~] object for that. Note that [out~] also has a built-in [sum~] object., f 24;
#X obj 421 503 vca~ 0.5;
#X text 557 200 In order to generate a random deviation list \, we have [rand.dev] \, which sets a list length and a deviation value of '0.2' \, which is 20 cents in MIDI cents., f 25;
#X connect 2 0 3 0;
#X connect 3 0 1 0;
#X connect 4 0 10 0;
#X connect 4 0 12 0;
#X connect 4 1 9 0;
#X connect 4 2 13 0;
#X connect 4 2 21 0;
#X connect 5 0 8 0;
#X connect 6 0 7 0;
#X connect 7 0 4 0;
#X connect 7 1 4 1;
#X connect 8 0 6 0;
#X connect 9 0 3 1;
#X connect 10 0 2 0;
#X connect 11 0 2 0;
#X connect 12 0 11 0;
#X connect 13 0 20 0;
#X connect 15 0 18 0;
#X connect 16 0 17 0;
#X connect 17 0 22 0;
#X connect 17 1 22 1;
#X connect 18 0 16 0;
#X connect 19 0 30 0;
#X connect 20 0 21 1;
#X connect 21 0 11 1;
#X connect 21 0 10 1;
#X connect 22 0 26 0;
#X connect 22 1 24 0;
#X connect 23 0 19 0;
#X connect 24 0 25 0;
#X connect 25 0 30 1;
#X connect 26 0 23 0;
#X connect 30 0 14 0;
