#N struct DS-2 float x float y float a;
#N canvas 507 50 486 673 12;
#X obj 172 272 pointer;
#X obj 69 103 loadbang;
#X msg 172 245 traverse pd-display \, bang;
#N canvas 1015 77 161 169 display 1;
#X scalar DS-2 53 52 127 \;;
#X restore 321 140 pd display;
#X obj 56 404 get DS-2 a;
#N canvas 378 383 439 197 template 0;
#X obj 79 127 drawnumber a;
#X text 177 128 Drawing instruction for "a";
#X obj 91 74 struct DS-2 float x float y float a;
#X text 61 30 Data Structure named "DS-2" holding a pair of coordinates
"x/y" and float called "a", f 43;
#X restore 316 114 pd template;
#X obj 119 470 set DS-2 a;
#X obj 56 376 trigger point point;
#X msg 220 185 \; pd-display clear \, vis 1, f 17;
#X obj 56 437 nbx 5 16 -1e+37 1e+37 0 0 empty empty empty 0 -8 0 12
-228856 -1 -1 127 256;
#X obj 250 342 trigger point point, f 22;
#X obj 250 425 nbx 3 16 0 127 0 0 empty empty empty 0 -8 0 12 -228856
-1 -1 53 256;
#X obj 339 426 nbx 3 16 0 127 0 0 empty empty empty 0 -8 0 12 -228856
-1 -1 52 256;
#X obj 306 535 set DS-2 x y, f 14;
#X obj 250 370 get DS-2 x y;
#X obj 69 155 trigger bang bang bang;
#X text 25 437 "a";
#X text 222 422 "x";
#X text 309 425 "y";
#X obj 69 129 bng 17 250 50 0 empty empty empty 17 7 0 10 -228856 -1
-1;
#X obj 56 301 append DS-2 a x y;
#X msg 56 228 127 64 64;
#X text 43 20 In this example we'll "get" and "set" the value of the
float and its coordinates with the [get] and [set] objects. These objects
need a pointer to the data structure \, but this is given as the output
of [append]., f 55;
#X text 50 574 The [trigger] object also deals with pointers and we
use it to send the pointer to the [set] and [get] objects. See above
how the number box gets the value from "a" in the left \, and how you
can set its value by using the number box as well. You can also get
and set the coordinates as in the right., f 55;
#X text 65 329 <= pointer of the added Data Structure, f 20;
#X obj 339 459 t b f;
#X msg 339 399 set \$1;
#X msg 250 399 set \$1;
#X obj 306 499 pack;
#X connect 0 0 20 3;
#X connect 1 0 19 0;
#X connect 2 0 0 0;
#X connect 4 0 9 0;
#X connect 7 0 4 0;
#X connect 7 1 6 1;
#X connect 7 1 10 0;
#X connect 9 0 6 0;
#X connect 10 0 14 0;
#X connect 10 1 13 2;
#X connect 11 0 28 0;
#X connect 12 0 25 0;
#X connect 14 0 27 0;
#X connect 14 1 26 0;
#X connect 14 1 28 1;
#X connect 15 0 21 0;
#X connect 15 1 2 0;
#X connect 15 2 8 0;
#X connect 19 0 15 0;
#X connect 20 0 7 0;
#X connect 21 0 20 0;
#X connect 25 0 28 0;
#X connect 25 1 28 1;
#X connect 26 0 12 0;
#X connect 27 0 11 0;
#X connect 28 0 13 0;
