#N canvas 310 38 1019 831 12;
#X declare -path else;
#X obj 810 25 declare -path else;
#X obj 54 502 biplot;
#X msg 107 359 1.92637 -0.931268 0.931268 -1.92637 1 1.92637 -0.931268 0.931268 -1.92637 1, f 39;
#N canvas 177 101 570 478 1st 0;
#X obj 223 109 hz2rad;
#X floatatom 223 229 11 0 0 0 - - - 0;
#X obj 223 133 * 0.5;
#X obj 223 156 tan;
#X obj 223 181 expr (1 - $f1) / (1 + $f1), f 14;
#X obj 223 288 pack f f;
#X obj 276 259 * -1;
#X obj 223 263 t f f;
#X msg 223 318 \$1 0 \$2 1 0;
#X obj 223 73 inlet;
#X obj 223 362 outlet;
#X connect 0 0 2 0;
#X connect 1 0 7 0;
#X connect 2 0 3 0;
#X connect 3 0 4 0;
#X connect 4 0 1 0;
#X connect 5 0 8 0;
#X connect 6 0 5 1;
#X connect 7 0 5 0;
#X connect 7 1 6 0;
#X connect 8 0 10 0;
#X connect 9 0 0 0;
#X restore 55 73 pd 1st;
#X listbox 55 101 26 0 0 0 - - - 0;
#X msg 55 20 500;
#X floatatom 55 48 5 0 0 0 - - - 0;
#X msg 93 175 500;
#X floatatom 93 199 5 0 0 0 - - - 0;
#N canvas 177 101 375 373 2nd 0;
#X obj 113 75 hz2rad;
#X obj 113 99 * 0.5;
#X obj 113 122 tan;
#X obj 113 39 inlet;
#X obj 113 328 outlet;
#X obj 113 184 expr 2*(1-t)/(1+t) \; -pow((1-t)/(1+t) \, 2) \; pow((1-t)/(1+t) \, 2) \; -2*(1-t)/(1+t) \; 1;
#X obj 113 274 pack f f f f f, f 21;
#X obj 113 151 t b f;
#X obj 171 150 v t;
#X connect 0 0 1 0;
#X connect 1 0 2 0;
#X connect 2 0 7 0;
#X connect 3 0 0 0;
#X connect 5 0 6 0;
#X connect 5 1 6 1;
#X connect 5 2 6 2;
#X connect 5 3 6 3;
#X connect 5 4 6 4;
#X connect 6 0 4 0;
#X connect 7 0 5 0;
#X connect 7 1 8 0;
#X restore 93 222 pd 2nd;
#X listbox 93 247 39 0 0 0 - - - 0;
#X msg 75 131 0.931184 0 -0.931184 1 0 0.931184 0 -0.931184 1 0, f 25;
#X listbox 414 467 39 0 0 0 - - - 0;
#X msg 414 357 500 0.5;
#X msg 428 386 500 1;
#X text 200 275 500hz: 4th order (Q = 0.5);
#X text 211 338 500hz: 4th order (Q = 1);
#X text 419 70 Let's dive into the behaviour of different orders. To the left we can test how duplicating a biquad output of two 1st order allpass filters correspond to a 2nd order allpass with Q = 0.5! We also see how the phase shift doubles from 90 to 180º (a full phase opposition). While a 1st order filter can only go from 0º (at DC) to 180º (at Nyquist) \, a 2nd orfer has a full 360º cycle. Hence \, it's normal to stack 2nd order allpass filters in cascade \, cause each 2nd order section represents a full cycle., f 80;
#X text 419 177 A 4th order allpass with double the center frequency even further to 360º \, which makes it go back to 0! We also now see two points where the phase reaches 180º full opposition. A 4th order has two full cycles (720º in total). We need an odd number of 2nd order sections to have the center frequency sit at a full phase opposition. So a 6th order (3 sections) has three full cycles and the phase opposition points \, where the middle one is the center frequency., f 80;
#X text 517 270 Setting the Q in the 2nd order allpass filter changes the slope and where the full phase opposition points will be for two and more sections. For an odd number of sections \, we keep the center full opposition point at the center frequency and the Q only sets where the other ones are. For an even number of sections \, the Q interferes with all opposition points., f 66;
#X obj 414 421 bicoeff2 allpass, f 8;
#X msg 105 297 1.86237 -0.867104 0.867104 -1.86237 1 1.86237 -0.867104 0.867104 -1.86237 1, f 39;
#X msg 116 429 1.86237 -0.867104 0.867104 -1.86237 1 1.86237 -0.867104 0.867104 -1.86237 1 1.86237 -0.867104 0.867104 -1.86237 1, f 37;
#X text 267 121 Two 1st order allpass in series, f 9;
#X text 197 406 500hz: 6th order (Q = 0.5);
#X text 517 362 We also have a 6th order example. Note that unlike a comb filter \, we do not produce notches in a harmonic series (unless you get to tweak the Q for each frequency value \, which would be silly) - but that's the point of using allpass filters to create notches for something like a phaser as we'll see., f 66;
#X connect 2 0 1 0;
#X connect 3 0 4 0;
#X connect 4 0 1 0;
#X connect 5 0 6 0;
#X connect 6 0 3 0;
#X connect 7 0 8 0;
#X connect 8 0 9 0;
#X connect 9 0 10 0;
#X connect 10 0 1 0;
#X connect 11 0 1 0;
#X connect 12 0 1 0;
#X connect 13 0 20 0;
#X connect 14 0 20 0;
#X connect 20 0 12 0;
#X connect 21 0 1 0;
#X connect 22 0 1 0;
