#N canvas 255 71 966 539 12;
#X obj 259 301 hsl 128 15 0 0.9999 0 0 empty fb empty -2 -6 0 8 -228856
-1 -1 12638 1;
#X floatatom 256 325 6 0 0 0 - - -;
#X text 294 301 feedback;
#X obj 55 312 mtof;
#X obj 157 312 / 127;
#X floatatom 55 337 0 0 0 0 - - -;
#X obj 55 288 makenote 127 10;
#X floatatom 157 263 5 10 100 0 - - -;
#X obj 314 332 hsl 128 15 100 10000 0 0 empty cutoff empty -2 -6 0
8 -228856 -1 -1 7184 1;
#X floatatom 311 356 0 0 0 0 - - -;
#X text 349 331 cutoff;
#X obj 160 240 hsl 150 15 0.1 100 1 0 empty empty empty -2 -8 0 10
-228856 -1 -1 0 1;
#X floatatom 619 300 5 0 0 0 - - -;
#X obj 619 270 expr 1000 / $f1;
#X text 662 300 ms;
#X obj 619 326 sig~;
#X obj 540 293 vline~;
#X obj 522 320 *~;
#X obj 769 299 hsl 128 15 100 10000 0 0 empty cutoff empty -2 -6 0
8 -228856 -1 -1 2700 1;
#X floatatom 766 323 0 0 0 0 - - -;
#X text 808 298 cutoff;
#X obj 759 211 hsl 128 15 0 0.999 0 0 empty fb empty -2 -6 0 8 -228856
-1 -1 12349 1;
#X floatatom 756 231 0 0 0 0 - - -;
#X text 794 210 feedback;
#X obj 619 240 mtof;
#X msg 540 264 1 \, 0 0 \$1;
#X obj 766 348 sig~;
#X floatatom 206 296 5 10 100 0 - - -;
#X obj 209 273 hsl 128 15 1 100 0 0 empty empty empty -2 -8 0 10 -228856
-1 -1 2100 1;
#X obj 522 216 pinknoise~;
#X obj 128 419 out~;
#X obj 54 213 tempo 150 100 -on;
#N canvas 442 60 452 595 Feedback_Lowpass 0;
#X obj 62 50 inlet;
#X obj 292 53 inlet;
#X text 283 32 feedback;
#X floatatom 165 192 5 0 0 0 - - -;
#X obj 165 162 expr 1000 / $f1;
#X text 209 192 ms;
#X obj 51 253 noise~;
#X obj 113 265 vline~;
#X obj 95 309 *~;
#X obj 113 49 inlet;
#X text 120 29 envelope;
#X text 68 28 Hz;
#X obj 349 53 inlet;
#X text 347 32 cutoff;
#X floatatom 349 292 0 0 0 0 - - -;
#X obj 274 412 *~;
#X obj 275 447 delwrite~ \$0-fb3 1000;
#X obj 165 477 outlet~;
#X obj 66 402 block~ 1;
#X obj 113 210 pack;
#X obj 164 49 inlet;
#X obj 165 233 f2s~ 10;
#X obj 292 256 f2s~ 10;
#X obj 165 306 delread4~ \$0-fb3;
#X obj 165 367 lop~;
#X connect 0 0 4 0;
#X connect 1 0 22 0;
#X connect 3 0 21 0;
#X connect 4 0 3 0;
#X connect 6 0 8 0;
#X connect 7 0 8 1;
#X connect 8 0 24 0;
#X connect 9 0 19 0;
#X connect 12 0 14 0;
#X connect 14 0 24 1;
#X connect 15 0 16 0;
#X connect 19 0 7 0;
#X connect 20 0 19 1;
#X connect 21 0 23 0;
#X connect 22 0 15 1;
#X connect 23 0 24 0;
#X connect 24 0 17 0;
#X connect 24 0 15 0;
#X restore 141 382 pd Feedback_Lowpass;
#X text 170 239 durationo/sustain;
#X obj 54 239 randi 25 50;
#X text 228 271 atack/release;
#X text 70 21 Now we create the feedback loop with the filter inside
a subpatch \, with a block of 1! The filter we're using now is [lop~]
\, which allows us to set a cutoff frequency.;
#X obj 373 205 initmess \; fb 0.995 \; cutoff 5700;
#X text 70 73 Another variation allows for a Note On/Note Off input
\, where you can hold the note down longer than its period. This adds
a "sustain" for the excitation signal (which is a white noise inside
the subpatch). But a short value can result in an excitation signal
shorter than the period. An attack/release parameter adds a fade in/out
to the exxcitation signal., f 58;
#X obj 583 366 comb.rev~ 100 0 1 0 0;
#X obj 756 254 f2s~ 10;
#X obj 619 206 randi 25 50;
#X obj 619 172 tempo 150 100 -on;
#X obj 726 405 lowpass~ 0 5;
#X obj 706 449 out~;
#X text 507 103 In this example we also change the excitation signal
to a pink noise generator., f 52;
#X text 507 24 Here's a variation that goes too far. By taking the
filter out of the feedback loop \, technically we have anything but
an actual Karplus Strong Algorythm. It's here as a comparison and also
to show it's not that crazily different., f 53;
#X connect 0 0 1 0;
#X connect 1 0 32 3;
#X connect 3 0 5 0;
#X connect 4 0 32 1;
#X connect 5 0 32 0;
#X connect 6 0 3 0;
#X connect 6 1 4 0;
#X connect 7 0 6 2;
#X connect 8 0 9 0;
#X connect 9 0 32 4;
#X connect 11 0 7 0;
#X connect 12 0 15 0;
#X connect 12 0 25 0;
#X connect 13 0 12 0;
#X connect 15 0 39 1;
#X connect 16 0 17 1;
#X connect 17 0 39 0;
#X connect 18 0 19 0;
#X connect 19 0 26 0;
#X connect 21 0 22 0;
#X connect 22 0 40 0;
#X connect 24 0 13 0;
#X connect 25 0 16 0;
#X connect 26 0 43 1;
#X connect 27 0 32 2;
#X connect 28 0 27 0;
#X connect 29 0 17 0;
#X connect 31 0 34 0;
#X connect 32 0 30 0;
#X connect 32 0 30 1;
#X connect 34 0 6 0;
#X connect 39 0 43 0;
#X connect 40 0 39 4;
#X connect 41 0 24 0;
#X connect 42 0 41 0;
#X connect 43 0 44 0;
#X connect 43 0 44 1;
