#N canvas 346 54 1036 405 12;
#X floatatom 636 80 0 0 0 0 - - -;
#X obj 639 55 hsl 128 15 0.01 3 0 0 empty LFO empty -2 -8 0 10 -228856
-1 -1 382 1;
#X obj 565 275 +~;
#X obj 852 107 hsl 128 15 -0.95 0.95 0 0 empty feedback empty -2 -8
0 10 -228856 -1 -1 11363 1;
#X text 888 106 Feedback;
#X obj 54 253 loadbang;
#X floatatom 849 135 0 0 0 0 - - -;
#X floatatom 778 79 0 0 0 0 - - -;
#X obj 781 55 hsl 128 15 1 20 1 0 empty depth empty -2 -8 0 10 -228856
-1 -1 12700 1;
#X text 821 53 Depth;
#X text 677 54 Rate;
#X obj 610 276 +~;
#X obj 167 256 s~ \$0-in;
#X obj 636 107 osc~;
#X obj 778 105 f2s~ 10;
#X obj 849 163 f2s~ 10;
#X obj 636 155 rescale~ 0;
#X obj 738 149 rescale~ 0 0;
#X obj 565 155 r~ \$0-in;
#X obj 610 214 fbdelay~ 50 -gain, f 8;
#X obj 712 214 fbdelay~ 50 -gain, f 8;
#X msg 173 292 \; LFO 0.1 \; depth 50 \; feedback 0.75;
#X msg 54 290 \; LFO 0.7 \; depth 5 \; feedback -0.6;
#X text 52 226 Presets;
#X obj 167 225 sampler~ ../../../../samples/guitar.wav 1 1;
#X obj 547 119 rampnoise~;
#X text 501 110 try also:, f 5;
#X msg 411 291 \; LFO 3 \; depth 1 \; feedback -0.7;
#X msg 295 290 \; LFO 0.15 \; depth 10 \; feedback -0.8;
#X text 41 41 A chorus adds an input to one or more copies with slight
pitch differences. Here we use two delay lines with feedback whose
time are controlled by the same LFO \, but note that the control is
inverted by two different [rescale~] objects., f 61;
#X obj 565 317 out~ 0.33;
#X text 41 108 The original sound is then combined to the feedback
delay objects and we have a gain compensation in the [out~] object.
, f 61;
#X text 41 146 Try the presets and other settings. You could also use
the [rampnoise~] object instead of a LFO., f 61;
#X connect 0 0 13 0;
#X connect 0 0 25 0;
#X connect 1 0 0 0;
#X connect 2 0 30 0;
#X connect 2 0 30 1;
#X connect 3 0 6 0;
#X connect 5 0 22 0;
#X connect 6 0 15 0;
#X connect 7 0 14 0;
#X connect 8 0 7 0;
#X connect 11 0 2 1;
#X connect 13 0 17 0;
#X connect 13 0 16 0;
#X connect 14 0 16 2;
#X connect 14 0 17 1;
#X connect 15 0 19 2;
#X connect 15 0 20 2;
#X connect 16 0 19 1;
#X connect 17 0 20 1;
#X connect 18 0 2 0;
#X connect 18 0 19 0;
#X connect 18 0 20 0;
#X connect 19 0 11 0;
#X connect 20 0 11 1;
#X connect 24 0 12 0;
