#N canvas 469 164 513 574 12;
#X text 48 136 Coming in and out from Edit Mode can be done on the
"Edit" Menu \, or by its shortcut (shown in the Menu). We can go into
Edit Mode automatically by inserting something from the "Put" Menu
\, or even by using a shortcut for the "Put" Menu items.;
#X text 47 27 We can only interact with the patch in the "Run" Mode
\, that is "Not in Edit Mode". When in Edit Mode \, the mouse cursor
becomes a hand and we can select \, delete \, change objects and messages
\, connect \, disconect boxes and more. You can also perform the usual
cut \, copy \, paste and duplicate operations. Check the Edit menu
for more.;
#X floatatom 208 520 5 0 0 0 - - -;
#X obj 208 464 metro 100;
#X obj 208 491 random 100;
#X msg 208 428 bang;
#X text 50 220 In order to make a connection in the Edit mode \, first
go to an outlet and see when the mouse cursor becomes a circle \, now
you can click and drag to create a connection cord and take it into
an inlet and release the mouse button. Connections are also made from
an Outlet to an Inlet. To disconnect \, go to a cord and click when
the cursor becomes an "X" to select it \, then hit backspace/delete.
;
#X text 52 334 When in edit mode \, you can go to the right side of
any box type (even comments) and see when the cursor indicates a resizing
icon with two arrows to the sides. When this happens you can click
and drag to resize the object.;
