#N canvas 558 25 600 679 12;
#X declare -path else;
#X obj 358 151 declare -path else;
#X obj 196 247 tgl 21 1 empty empty empty 0 -8 0 10 #dfdfdf #000000 #000000 1 1;
#X obj 215 595 out~;
#X obj 183 385 select a b;
#X listbox 183 218 42 0 0 0 - - - 0;
#X obj 278 385 bng 16 250 50 0 empty empty empty 0 -8 0 10 #dfdfdf #000000 #000000;
#X floatatom 183 164 4 1 8 0 - - - 0;
#X obj 183 416 bng 16 250 50 0 empty empty empty 0 -8 0 10 #dfdfdf #000000 #000000;
#X obj 294 416 bng 16 250 50 0 empty empty empty 0 -8 0 10 #dfdfdf #000000 #000000;
#X obj 130 288 sel 0;
#X msg 130 311 goto 1;
#X obj 196 292 tempo -mul 4 60 5;
#X obj 183 352 list.seq -loop;
#X obj 183 188 lsystem algae.txt;
#X obj 183 138 initmess 7;
#X obj 183 446 play.file~ bagal.flac, f 10;
#X obj 294 446 play.file~ dholak.flac, f 11;
#X obj 294 498 drive~ 5;
#X obj 183 498 drive~ 5;
#X obj 220 540 stereo.rev~ 1 0.5 0 0.1, f 11;
#X text 51 30 Stochastic systems involve randomness and probability. Fractal systems involve self-similar structure across scales. An L-system (Lindenmayer system) is a formal grammar used to generate recursive \, self-similar fractal patterns. Here's an example from the help file of the object \, check it out for more details., f 71;
#X text 225 247 <-- play it;
#X connect 1 0 9 0;
#X connect 1 0 11 0;
#X connect 3 0 7 0;
#X connect 3 1 8 0;
#X connect 4 0 12 0;
#X connect 6 0 13 0;
#X connect 7 0 15 0;
#X connect 8 0 16 0;
#X connect 9 0 10 0;
#X connect 10 0 12 0;
#X connect 11 0 12 0;
#X connect 12 0 3 0;
#X connect 12 1 5 0;
#X connect 13 0 4 0;
#X connect 14 0 6 0;
#X connect 15 0 18 0;
#X connect 16 0 17 0;
#X connect 17 0 19 1;
#X connect 18 0 19 0;
#X connect 19 0 2 0;
#X connect 19 1 2 1;
